<?xml version="1.0" encoding="UTF-8" standalone="no"?><svg xmlns="http://www.w3.org/2000/svg" xmlns:xlink="http://www.w3.org/1999/xlink" contentScriptType="application/ecmascript" contentStyleType="text/css" height="1018px" preserveAspectRatio="none" style="width:2189px;height:1018px;" version="1.1" viewBox="0 0 2189 1018" width="2189px" zoomAndPan="magnify"><defs><filter height="300%" id="f1xw88eep53xe6" width="300%" x="-1" y="-1"><feGaussianBlur result="blurOut" stdDeviation="2.0"/><feColorMatrix in="blurOut" result="blurOut2" type="matrix" values="0 0 0 0 0 0 0 0 0 0 0 0 0 0 0 0 0 0 .4 0"/><feOffset dx="4.0" dy="4.0" in="blurOut2" result="blurOut3"/><feBlend in="SourceGraphic" in2="blurOut3" mode="normal"/></filter></defs><g><!--cluster client--><polygon fill="#FFFFFF" filter="url(#f1xw88eep53xe6)" points="22,45,67,45,74,68.6094,198,68.6094,198,173,22,173,22,45" style="stroke: #000000; stroke-width: 1.5;"/><line style="stroke: #000000; stroke-width: 1.5;" x1="22" x2="74" y1="68.6094" y2="68.6094"/><text fill="#000000" font-family="sans-serif" font-size="14" font-weight="bold" lengthAdjust="spacingAndGlyphs" textLength="39" x="26" y="61.5332">client</text><!--cluster edu.rosehulman.csse374.cheesecake--><polygon fill="#FFFFFF" filter="url(#f1xw88eep53xe6)" points="282,224.5,552,224.5,559,248.1094,634,248.1094,634,1006,282,1006,282,224.5" style="stroke: #000000; stroke-width: 1.5;"/><line style="stroke: #000000; stroke-width: 1.5;" x1="282" x2="559" y1="248.1094" y2="248.1094"/><text fill="#000000" font-family="sans-serif" font-size="14" font-weight="bold" lengthAdjust="spacingAndGlyphs" textLength="264" x="286" y="241.0332">edu.rosehulman.csse374.cheesecake</text><!--cluster part1--><polygon fill="#FFFFFF" filter="url(#f1xw88eep53xe6)" points="778,24.5,820,24.5,827,48.1094,1564,48.1094,1564,719,778,719,778,24.5" style="stroke: #000000; stroke-width: 1.5;"/><line style="stroke: #000000; stroke-width: 1.5;" x1="778" x2="827" y1="48.1094" y2="48.1094"/><text fill="#000000" font-family="sans-serif" font-size="14" font-weight="bold" lengthAdjust="spacingAndGlyphs" textLength="36" x="782" y="41.0332">part1</text><!--cluster part2--><polygon fill="#FFFFFF" filter="url(#f1xw88eep53xe6)" points="1796,45,1838,45,1845,68.6094,2167,68.6094,2167,867,1796,867,1796,45" style="stroke: #000000; stroke-width: 1.5;"/><line style="stroke: #000000; stroke-width: 1.5;" x1="1796" x2="1845" y1="68.6094" y2="68.6094"/><text fill="#000000" font-family="sans-serif" font-size="14" font-weight="bold" lengthAdjust="spacingAndGlyphs" textLength="36" x="1800" y="61.5332">part2</text><!--class client.CheeseCakeClient--><rect fill="#FEFECE" filter="url(#f1xw88eep53xe6)" height="75.6719" id="client.CheeseCakeClient" style="stroke: #A80036; stroke-width: 1.5;" width="144" x="38" y="81"/><ellipse cx="56.15" cy="97" fill="#ADD1B2" rx="11" ry="11" style="stroke: #A80036; stroke-width: 1.0;"/><path d="M58.9156,92.875 Q59.0719,92.6563 59.2594,92.5469 Q59.4469,92.4375 59.6656,92.4375 Q60.0406,92.4375 60.275,92.6953 Q60.5094,92.9531 60.5094,93.5625 L60.5094,95.0156 Q60.5094,95.625 60.275,95.8906 Q60.0406,96.1563 59.6656,96.1563 Q59.3219,96.1563 59.1188,95.9531 Q58.9156,95.7656 58.8063,95.25 Q58.7594,94.8906 58.5719,94.7031 Q58.2438,94.3281 57.6344,94.1094 Q57.025,93.8906 56.4,93.8906 Q55.6344,93.8906 55.0016,94.2188 Q54.3688,94.5469 53.8766,95.2969 Q53.3844,96.0469 53.3844,97.0781 L53.3844,98.1719 Q53.3844,99.4063 54.275,100.2266 Q55.1656,101.0469 56.7594,101.0469 Q57.6969,101.0469 58.3531,100.7969 Q58.7438,100.6406 59.1656,100.2031 Q59.4313,99.9375 59.5797,99.8594 Q59.7281,99.7813 59.9313,99.7813 Q60.2594,99.7813 60.5172,100.0391 Q60.775,100.2969 60.775,100.6406 Q60.775,100.9844 60.4313,101.3906 Q59.9313,101.9688 59.1344,102.2969 Q58.0563,102.75 56.7594,102.75 Q55.2438,102.75 54.0406,102.125 Q53.0563,101.625 52.3688,100.5547 Q51.6813,99.4844 51.6813,98.2031 L51.6813,97.0469 Q51.6813,95.7188 52.2984,94.5703 Q52.9156,93.4219 54.0094,92.8047 Q55.1031,92.1875 56.3375,92.1875 Q57.0719,92.1875 57.7203,92.3516 Q58.3688,92.5156 58.9156,92.875 Z "/><text fill="#000000" font-family="sans-serif" font-size="12" lengthAdjust="spacingAndGlyphs" textLength="105" x="70.85" y="101.9102">CheeseCakeClient</text><line style="stroke: #A80036; stroke-width: 1.5;" x1="39" x2="181" y1="113" y2="113"/><line style="stroke: #A80036; stroke-width: 1.5;" x1="39" x2="181" y1="121" y2="121"/><ellipse cx="49" cy="133.418" fill="#84BE84" rx="3" ry="3" style="stroke: #038048; stroke-width: 1.0;"/><text fill="#000000" font-family="sans-serif" font-size="11" lengthAdjust="spacingAndGlyphs" textLength="118" x="58" y="136.4189">void CheeseCakeClient()</text><ellipse cx="49" cy="147.2539" fill="#84BE84" rx="3" ry="3" style="stroke: #038048; stroke-width: 1.0;"/><text fill="#000000" font-family="sans-serif" font-size="11" lengthAdjust="spacingAndGlyphs" text-decoration="underline" textLength="87" x="58" y="150.2549">void main(String[])</text><line style="stroke: #000000; stroke-width: 1.0;" x1="58" x2="145" y1="152.2549" y2="152.2549"/><!--class edu.rosehulman.csse374.cheesecake.CheeseCakeFactory--><rect fill="#98FB98" filter="url(#f1xw88eep53xe6)" height="83.8594" id="edu.rosehulman.csse374.cheesecake.CheeseCakeFactory" style="stroke: #A80036; stroke-width: 1.5;" width="240" x="298" y="434.5"/><ellipse cx="357.75" cy="454.5938" fill="#ADD1B2" rx="11" ry="11" style="stroke: #A80036; stroke-width: 1.0;"/><path d="M360.5156,450.4688 Q360.6719,450.25 360.8594,450.1406 Q361.0469,450.0313 361.2656,450.0313 Q361.6406,450.0313 361.875,450.2891 Q362.1094,450.5469 362.1094,451.1563 L362.1094,452.6094 Q362.1094,453.2188 361.875,453.4844 Q361.6406,453.75 361.2656,453.75 Q360.9219,453.75 360.7188,453.5469 Q360.5156,453.3594 360.4063,452.8438 Q360.3594,452.4844 360.1719,452.2969 Q359.8438,451.9219 359.2344,451.7031 Q358.625,451.4844 358,451.4844 Q357.2344,451.4844 356.6016,451.8125 Q355.9688,452.1406 355.4766,452.8906 Q354.9844,453.6406 354.9844,454.6719 L354.9844,455.7656 Q354.9844,457 355.875,457.8203 Q356.7656,458.6406 358.3594,458.6406 Q359.2969,458.6406 359.9531,458.3906 Q360.3438,458.2344 360.7656,457.7969 Q361.0313,457.5313 361.1797,457.4531 Q361.3281,457.375 361.5313,457.375 Q361.8594,457.375 362.1172,457.6328 Q362.375,457.8906 362.375,458.2344 Q362.375,458.5781 362.0313,458.9844 Q361.5313,459.5625 360.7344,459.8906 Q359.6563,460.3438 358.3594,460.3438 Q356.8438,460.3438 355.6406,459.7188 Q354.6563,459.2188 353.9688,458.1484 Q353.2813,457.0781 353.2813,455.7969 L353.2813,454.6406 Q353.2813,453.3125 353.8984,452.1641 Q354.5156,451.0156 355.6094,450.3984 Q356.7031,449.7813 357.9375,449.7813 Q358.6719,449.7813 359.3203,449.9453 Q359.9688,450.1094 360.5156,450.4688 Z "/><text fill="#000000" font-family="sans-serif" font-size="12" font-style="italic" lengthAdjust="spacingAndGlyphs" textLength="79" x="394.75" y="451.957">«Component»</text><text fill="#000000" font-family="sans-serif" font-size="12" lengthAdjust="spacingAndGlyphs" textLength="112" x="378.25" y="467.0508">CheeseCakeFactory</text><line style="stroke: #A80036; stroke-width: 1.5;" x1="299" x2="537" y1="474.6875" y2="474.6875"/><line style="stroke: #A80036; stroke-width: 1.5;" x1="299" x2="537" y1="482.6875" y2="482.6875"/><ellipse cx="309" cy="495.1055" fill="#84BE84" rx="3" ry="3" style="stroke: #038048; stroke-width: 1.0;"/><text fill="#000000" font-family="sans-serif" font-size="11" lengthAdjust="spacingAndGlyphs" textLength="129" x="318" y="498.1064">void CheeseCakeFactory()</text><ellipse cx="309" cy="508.9414" fill="#84BE84" rx="3" ry="3" style="stroke: #038048; stroke-width: 1.0;"/><text fill="#000000" font-family="sans-serif" font-size="11" lengthAdjust="spacingAndGlyphs" textLength="214" x="318" y="511.9424">PlainCheeseCake createCheeseCake(String)</text><!--class edu.rosehulman.csse374.cheesecake.CheeseCakeUI--><rect fill="#FEFECE" filter="url(#f1xw88eep53xe6)" height="89.5078" id="edu.rosehulman.csse374.cheesecake.CheeseCakeUI" style="stroke: #A80036; stroke-width: 1.5;" width="225" x="392.5" y="260.5"/><ellipse cx="458.25" cy="276.5" fill="#ADD1B2" rx="11" ry="11" style="stroke: #A80036; stroke-width: 1.0;"/><path d="M461.0156,272.375 Q461.1719,272.1563 461.3594,272.0469 Q461.5469,271.9375 461.7656,271.9375 Q462.1406,271.9375 462.375,272.1953 Q462.6094,272.4531 462.6094,273.0625 L462.6094,274.5156 Q462.6094,275.125 462.375,275.3906 Q462.1406,275.6563 461.7656,275.6563 Q461.4219,275.6563 461.2188,275.4531 Q461.0156,275.2656 460.9063,274.75 Q460.8594,274.3906 460.6719,274.2031 Q460.3438,273.8281 459.7344,273.6094 Q459.125,273.3906 458.5,273.3906 Q457.7344,273.3906 457.1016,273.7188 Q456.4688,274.0469 455.9766,274.7969 Q455.4844,275.5469 455.4844,276.5781 L455.4844,277.6719 Q455.4844,278.9063 456.375,279.7266 Q457.2656,280.5469 458.8594,280.5469 Q459.7969,280.5469 460.4531,280.2969 Q460.8438,280.1406 461.2656,279.7031 Q461.5313,279.4375 461.6797,279.3594 Q461.8281,279.2813 462.0313,279.2813 Q462.3594,279.2813 462.6172,279.5391 Q462.875,279.7969 462.875,280.1406 Q462.875,280.4844 462.5313,280.8906 Q462.0313,281.4688 461.2344,281.7969 Q460.1563,282.25 458.8594,282.25 Q457.3438,282.25 456.1406,281.625 Q455.1563,281.125 454.4688,280.0547 Q453.7813,278.9844 453.7813,277.7031 L453.7813,276.5469 Q453.7813,275.2188 454.3984,274.0703 Q455.0156,272.9219 456.1094,272.3047 Q457.2031,271.6875 458.4375,271.6875 Q459.1719,271.6875 459.8203,271.8516 Q460.4688,272.0156 461.0156,272.375 Z "/><text fill="#000000" font-family="sans-serif" font-size="12" lengthAdjust="spacingAndGlyphs" textLength="85" x="478.75" y="281.4102">CheeseCakeUI</text><line style="stroke: #A80036; stroke-width: 1.5;" x1="393.5" x2="616.5" y1="292.5" y2="292.5"/><rect fill="none" height="6" style="stroke: #C82930; stroke-width: 1.0;" width="6" x="400.5" y="301.918"/><text fill="#000000" font-family="sans-serif" font-size="11" lengthAdjust="spacingAndGlyphs" textLength="136" x="412.5" y="307.9189">CheeseCakeFactory factory</text><line style="stroke: #A80036; stroke-width: 1.5;" x1="393.5" x2="616.5" y1="314.3359" y2="314.3359"/><ellipse cx="403.5" cy="326.7539" fill="#84BE84" rx="3" ry="3" style="stroke: #038048; stroke-width: 1.0;"/><text fill="#000000" font-family="sans-serif" font-size="11" lengthAdjust="spacingAndGlyphs" textLength="199" x="412.5" y="329.7549">void CheeseCakeUI(CheeseCakeFactory)</text><ellipse cx="403.5" cy="340.5898" fill="#84BE84" rx="3" ry="3" style="stroke: #038048; stroke-width: 1.0;"/><text fill="#000000" font-family="sans-serif" font-size="11" lengthAdjust="spacingAndGlyphs" textLength="59" x="412.5" y="343.5908">void show()</text><!--class edu.rosehulman.csse374.cheesecake.PlainCheeseCake--><rect fill="#98FB98" filter="url(#f1xw88eep53xe6)" height="125.3672" id="edu.rosehulman.csse374.cheesecake.PlainCheeseCake" style="stroke: #A80036; stroke-width: 1.5;" width="206" x="412" y="589"/><ellipse cx="460.25" cy="609.0938" fill="#ADD1B2" rx="11" ry="11" style="stroke: #A80036; stroke-width: 1.0;"/><path d="M463.0156,604.9688 Q463.1719,604.75 463.3594,604.6406 Q463.5469,604.5313 463.7656,604.5313 Q464.1406,604.5313 464.375,604.7891 Q464.6094,605.0469 464.6094,605.6563 L464.6094,607.1094 Q464.6094,607.7188 464.375,607.9844 Q464.1406,608.25 463.7656,608.25 Q463.4219,608.25 463.2188,608.0469 Q463.0156,607.8594 462.9063,607.3438 Q462.8594,606.9844 462.6719,606.7969 Q462.3438,606.4219 461.7344,606.2031 Q461.125,605.9844 460.5,605.9844 Q459.7344,605.9844 459.1016,606.3125 Q458.4688,606.6406 457.9766,607.3906 Q457.4844,608.1406 457.4844,609.1719 L457.4844,610.2656 Q457.4844,611.5 458.375,612.3203 Q459.2656,613.1406 460.8594,613.1406 Q461.7969,613.1406 462.4531,612.8906 Q462.8438,612.7344 463.2656,612.2969 Q463.5313,612.0313 463.6797,611.9531 Q463.8281,611.875 464.0313,611.875 Q464.3594,611.875 464.6172,612.1328 Q464.875,612.3906 464.875,612.7344 Q464.875,613.0781 464.5313,613.4844 Q464.0313,614.0625 463.2344,614.3906 Q462.1563,614.8438 460.8594,614.8438 Q459.3438,614.8438 458.1406,614.2188 Q457.1563,613.7188 456.4688,612.6484 Q455.7813,611.5781 455.7813,610.2969 L455.7813,609.1406 Q455.7813,607.8125 456.3984,606.6641 Q457.0156,605.5156 458.1094,604.8984 Q459.2031,604.2813 460.4375,604.2813 Q461.1719,604.2813 461.8203,604.4453 Q462.4688,604.6094 463.0156,604.9688 Z "/><text fill="#000000" font-family="sans-serif" font-size="12" font-style="italic" lengthAdjust="spacingAndGlyphs" textLength="79" x="491.75" y="606.457">«Component»</text><text fill="#000000" font-family="sans-serif" font-size="12" lengthAdjust="spacingAndGlyphs" textLength="101" x="480.75" y="621.5508">PlainCheeseCake</text><line style="stroke: #A80036; stroke-width: 1.5;" x1="413" x2="617" y1="629.1875" y2="629.1875"/><rect fill="none" height="6" style="stroke: #C82930; stroke-width: 1.0;" width="6" x="420" y="638.6055"/><text fill="#000000" font-family="sans-serif" font-size="11" lengthAdjust="spacingAndGlyphs" textLength="54" x="432" y="644.6064">Crust crust</text><rect fill="none" height="6" style="stroke: #C82930; stroke-width: 1.0;" width="6" x="420" y="652.4414"/><text fill="#000000" font-family="sans-serif" font-size="11" lengthAdjust="spacingAndGlyphs" textLength="76" x="432" y="658.4424">Cheese cheese</text><line style="stroke: #A80036; stroke-width: 1.5;" x1="413" x2="617" y1="664.8594" y2="664.8594"/><ellipse cx="423" cy="677.2773" fill="#84BE84" rx="3" ry="3" style="stroke: #038048; stroke-width: 1.0;"/><text fill="#000000" font-family="sans-serif" font-size="11" lengthAdjust="spacingAndGlyphs" textLength="114" x="432" y="680.2783">void PlainCheeseCake()</text><ellipse cx="423" cy="691.1133" fill="#84BE84" rx="3" ry="3" style="stroke: #038048; stroke-width: 1.0;"/><text fill="#000000" font-family="sans-serif" font-size="11" lengthAdjust="spacingAndGlyphs" textLength="180" x="432" y="694.1143">void PlainCheeseCake(Crust,Cheese)</text><ellipse cx="423" cy="704.9492" fill="#84BE84" rx="3" ry="3" style="stroke: #038048; stroke-width: 1.0;"/><text fill="#000000" font-family="sans-serif" font-size="11" lengthAdjust="spacingAndGlyphs" textLength="76" x="432" y="707.9502">String toString()</text><!--class edu.rosehulman.csse374.cheesecake.GrahamCrackerCrust--><rect fill="#FEFECE" filter="url(#f1xw88eep53xe6)" height="75.6719" id="edu.rosehulman.csse374.cheesecake.GrahamCrackerCrust" style="stroke: #A80036; stroke-width: 1.5;" width="159" x="458.5" y="914"/><ellipse cx="477.55" cy="930" fill="#ADD1B2" rx="11" ry="11" style="stroke: #A80036; stroke-width: 1.0;"/><path d="M480.3156,925.875 Q480.4719,925.6563 480.6594,925.5469 Q480.8469,925.4375 481.0656,925.4375 Q481.4406,925.4375 481.675,925.6953 Q481.9094,925.9531 481.9094,926.5625 L481.9094,928.0156 Q481.9094,928.625 481.675,928.8906 Q481.4406,929.1563 481.0656,929.1563 Q480.7219,929.1563 480.5188,928.9531 Q480.3156,928.7656 480.2063,928.25 Q480.1594,927.8906 479.9719,927.7031 Q479.6438,927.3281 479.0344,927.1094 Q478.425,926.8906 477.8,926.8906 Q477.0344,926.8906 476.4016,927.2188 Q475.7688,927.5469 475.2766,928.2969 Q474.7844,929.0469 474.7844,930.0781 L474.7844,931.1719 Q474.7844,932.4063 475.675,933.2266 Q476.5656,934.0469 478.1594,934.0469 Q479.0969,934.0469 479.7531,933.7969 Q480.1438,933.6406 480.5656,933.2031 Q480.8313,932.9375 480.9797,932.8594 Q481.1281,932.7813 481.3313,932.7813 Q481.6594,932.7813 481.9172,933.0391 Q482.175,933.2969 482.175,933.6406 Q482.175,933.9844 481.8313,934.3906 Q481.3313,934.9688 480.5344,935.2969 Q479.4563,935.75 478.1594,935.75 Q476.6438,935.75 475.4406,935.125 Q474.4563,934.625 473.7688,933.5547 Q473.0813,932.4844 473.0813,931.2031 L473.0813,930.0469 Q473.0813,928.7188 473.6984,927.5703 Q474.3156,926.4219 475.4094,925.8047 Q476.5031,925.1875 477.7375,925.1875 Q478.4719,925.1875 479.1203,925.3516 Q479.7688,925.5156 480.3156,925.875 Z "/><text fill="#000000" font-family="sans-serif" font-size="12" lengthAdjust="spacingAndGlyphs" textLength="118" x="492.45" y="934.9102">GrahamCrackerCrust</text><line style="stroke: #A80036; stroke-width: 1.5;" x1="459.5" x2="616.5" y1="946" y2="946"/><line style="stroke: #A80036; stroke-width: 1.5;" x1="459.5" x2="616.5" y1="954" y2="954"/><ellipse cx="469.5" cy="966.418" fill="#84BE84" rx="3" ry="3" style="stroke: #038048; stroke-width: 1.0;"/><text fill="#000000" font-family="sans-serif" font-size="11" lengthAdjust="spacingAndGlyphs" textLength="133" x="478.5" y="969.4189">void GrahamCrackerCrust()</text><ellipse cx="469.5" cy="980.2539" fill="#84BE84" rx="3" ry="3" style="stroke: #038048; stroke-width: 1.0;"/><text fill="#000000" font-family="sans-serif" font-size="11" lengthAdjust="spacingAndGlyphs" textLength="76" x="478.5" y="983.2549">String toString()</text><!--class edu.rosehulman.csse374.cheesecake.Crust--><rect fill="#FEFECE" filter="url(#f1xw88eep53xe6)" height="61.8359" id="edu.rosehulman.csse374.cheesecake.Crust" style="stroke: #A80036; stroke-width: 1.5;" width="104" x="511" y="782"/><ellipse cx="545.35" cy="798" fill="#B4A7E5" rx="11" ry="11" style="stroke: #A80036; stroke-width: 1.0;"/><path d="M546.3031,794.6406 L546.3031,801.2969 L548.0219,801.2969 Q548.6313,801.2969 548.8969,801.5313 Q549.1625,801.7656 549.1625,802.1563 Q549.1625,802.5313 548.8969,802.7656 Q548.6313,803 548.0219,803 L542.8813,803 Q542.2719,803 542.0063,802.7656 Q541.7406,802.5313 541.7406,802.1406 Q541.7406,801.7656 542.0063,801.5313 Q542.2719,801.2969 542.8813,801.2969 L544.6,801.2969 L544.6,794.6406 L542.8813,794.6406 Q542.2719,794.6406 542.0063,794.4063 Q541.7406,794.1719 541.7406,793.7813 Q541.7406,793.4063 542.0063,793.1719 Q542.2719,792.9375 542.8813,792.9375 L548.0219,792.9375 Q548.6313,792.9375 548.8969,793.1719 Q549.1625,793.4063 549.1625,793.7813 Q549.1625,794.1719 548.8969,794.4063 Q548.6313,794.6406 548.0219,794.6406 L546.3031,794.6406 Z "/><text fill="#000000" font-family="sans-serif" font-size="12" font-style="italic" lengthAdjust="spacingAndGlyphs" textLength="29" x="563.65" y="802.9102">Crust</text><line style="stroke: #A80036; stroke-width: 1.5;" x1="512" x2="614" y1="814" y2="814"/><line style="stroke: #A80036; stroke-width: 1.5;" x1="512" x2="614" y1="822" y2="822"/><ellipse cx="522" cy="834.418" fill="#84BE84" rx="3" ry="3" style="stroke: #038048; stroke-width: 1.0;"/><text fill="#000000" font-family="sans-serif" font-size="11" font-style="italic" lengthAdjust="spacingAndGlyphs" textLength="78" x="531" y="837.4189">String toString()</text><!--class edu.rosehulman.csse374.cheesecake.Cheese--><rect fill="#FEFECE" filter="url(#f1xw88eep53xe6)" height="61.8359" id="edu.rosehulman.csse374.cheesecake.Cheese" style="stroke: #A80036; stroke-width: 1.5;" width="104" x="335" y="782"/><ellipse cx="363.05" cy="798" fill="#B4A7E5" rx="11" ry="11" style="stroke: #A80036; stroke-width: 1.0;"/><path d="M364.0031,794.6406 L364.0031,801.2969 L365.7219,801.2969 Q366.3313,801.2969 366.5969,801.5313 Q366.8625,801.7656 366.8625,802.1563 Q366.8625,802.5313 366.5969,802.7656 Q366.3313,803 365.7219,803 L360.5813,803 Q359.9719,803 359.7063,802.7656 Q359.4406,802.5313 359.4406,802.1406 Q359.4406,801.7656 359.7063,801.5313 Q359.9719,801.2969 360.5813,801.2969 L362.3,801.2969 L362.3,794.6406 L360.5813,794.6406 Q359.9719,794.6406 359.7063,794.4063 Q359.4406,794.1719 359.4406,793.7813 Q359.4406,793.4063 359.7063,793.1719 Q359.9719,792.9375 360.5813,792.9375 L365.7219,792.9375 Q366.3313,792.9375 366.5969,793.1719 Q366.8625,793.4063 366.8625,793.7813 Q366.8625,794.1719 366.5969,794.4063 Q366.3313,794.6406 365.7219,794.6406 L364.0031,794.6406 Z "/><text fill="#000000" font-family="sans-serif" font-size="12" font-style="italic" lengthAdjust="spacingAndGlyphs" textLength="43" x="379.95" y="802.9102">Cheese</text><line style="stroke: #A80036; stroke-width: 1.5;" x1="336" x2="438" y1="814" y2="814"/><line style="stroke: #A80036; stroke-width: 1.5;" x1="336" x2="438" y1="822" y2="822"/><ellipse cx="346" cy="834.418" fill="#84BE84" rx="3" ry="3" style="stroke: #038048; stroke-width: 1.0;"/><text fill="#000000" font-family="sans-serif" font-size="11" font-style="italic" lengthAdjust="spacingAndGlyphs" textLength="78" x="355" y="837.4189">String toString()</text><!--class edu.rosehulman.csse374.cheesecake.CreamCheese--><rect fill="#FEFECE" filter="url(#f1xw88eep53xe6)" height="75.6719" id="edu.rosehulman.csse374.cheesecake.CreamCheese" style="stroke: #A80036; stroke-width: 1.5;" width="125" x="298.5" y="914"/><ellipse cx="318.45" cy="930" fill="#ADD1B2" rx="11" ry="11" style="stroke: #A80036; stroke-width: 1.0;"/><path d="M321.2156,925.875 Q321.3719,925.6563 321.5594,925.5469 Q321.7469,925.4375 321.9656,925.4375 Q322.3406,925.4375 322.575,925.6953 Q322.8094,925.9531 322.8094,926.5625 L322.8094,928.0156 Q322.8094,928.625 322.575,928.8906 Q322.3406,929.1563 321.9656,929.1563 Q321.6219,929.1563 321.4188,928.9531 Q321.2156,928.7656 321.1063,928.25 Q321.0594,927.8906 320.8719,927.7031 Q320.5438,927.3281 319.9344,927.1094 Q319.325,926.8906 318.7,926.8906 Q317.9344,926.8906 317.3016,927.2188 Q316.6688,927.5469 316.1766,928.2969 Q315.6844,929.0469 315.6844,930.0781 L315.6844,931.1719 Q315.6844,932.4063 316.575,933.2266 Q317.4656,934.0469 319.0594,934.0469 Q319.9969,934.0469 320.6531,933.7969 Q321.0438,933.6406 321.4656,933.2031 Q321.7313,932.9375 321.8797,932.8594 Q322.0281,932.7813 322.2313,932.7813 Q322.5594,932.7813 322.8172,933.0391 Q323.075,933.2969 323.075,933.6406 Q323.075,933.9844 322.7313,934.3906 Q322.2313,934.9688 321.4344,935.2969 Q320.3563,935.75 319.0594,935.75 Q317.5438,935.75 316.3406,935.125 Q315.3563,934.625 314.6688,933.5547 Q313.9813,932.4844 313.9813,931.2031 L313.9813,930.0469 Q313.9813,928.7188 314.5984,927.5703 Q315.2156,926.4219 316.3094,925.8047 Q317.4031,925.1875 318.6375,925.1875 Q319.3719,925.1875 320.0203,925.3516 Q320.6688,925.5156 321.2156,925.875 Z "/><text fill="#000000" font-family="sans-serif" font-size="12" lengthAdjust="spacingAndGlyphs" textLength="82" x="333.55" y="934.9102">CreamCheese</text><line style="stroke: #A80036; stroke-width: 1.5;" x1="299.5" x2="422.5" y1="946" y2="946"/><line style="stroke: #A80036; stroke-width: 1.5;" x1="299.5" x2="422.5" y1="954" y2="954"/><ellipse cx="309.5" cy="966.418" fill="#84BE84" rx="3" ry="3" style="stroke: #038048; stroke-width: 1.0;"/><text fill="#000000" font-family="sans-serif" font-size="11" lengthAdjust="spacingAndGlyphs" textLength="99" x="318.5" y="969.4189">void CreamCheese()</text><ellipse cx="309.5" cy="980.2539" fill="#84BE84" rx="3" ry="3" style="stroke: #038048; stroke-width: 1.0;"/><text fill="#000000" font-family="sans-serif" font-size="11" lengthAdjust="spacingAndGlyphs" textLength="76" x="318.5" y="983.2549">String toString()</text><!--class part1.AbstractCheeseCakeFactoryDecorator--><rect fill="#98FB98" filter="url(#f1xw88eep53xe6)" height="97.6953" id="part1.AbstractCheeseCakeFactoryDecorator" style="stroke: #A80036; stroke-width: 1.5;" width="343" x="794.5" y="70"/><ellipse cx="856.75" cy="90.0938" fill="#ADD1B2" rx="11" ry="11" style="stroke: #A80036; stroke-width: 1.0;"/><path d="M859.5156,85.9688 Q859.6719,85.75 859.8594,85.6406 Q860.0469,85.5313 860.2656,85.5313 Q860.6406,85.5313 860.875,85.7891 Q861.1094,86.0469 861.1094,86.6563 L861.1094,88.1094 Q861.1094,88.7188 860.875,88.9844 Q860.6406,89.25 860.2656,89.25 Q859.9219,89.25 859.7188,89.0469 Q859.5156,88.8594 859.4063,88.3438 Q859.3594,87.9844 859.1719,87.7969 Q858.8438,87.4219 858.2344,87.2031 Q857.625,86.9844 857,86.9844 Q856.2344,86.9844 855.6016,87.3125 Q854.9688,87.6406 854.4766,88.3906 Q853.9844,89.1406 853.9844,90.1719 L853.9844,91.2656 Q853.9844,92.5 854.875,93.3203 Q855.7656,94.1406 857.3594,94.1406 Q858.2969,94.1406 858.9531,93.8906 Q859.3438,93.7344 859.7656,93.2969 Q860.0313,93.0313 860.1797,92.9531 Q860.3281,92.875 860.5313,92.875 Q860.8594,92.875 861.1172,93.1328 Q861.375,93.3906 861.375,93.7344 Q861.375,94.0781 861.0313,94.4844 Q860.5313,95.0625 859.7344,95.3906 Q858.6563,95.8438 857.3594,95.8438 Q855.8438,95.8438 854.6406,95.2188 Q853.6563,94.7188 852.9688,93.6484 Q852.2813,92.5781 852.2813,91.2969 L852.2813,90.1406 Q852.2813,88.8125 852.8984,87.6641 Q853.5156,86.5156 854.6094,85.8984 Q855.7031,85.2813 856.9375,85.2813 Q857.6719,85.2813 858.3203,85.4453 Q858.9688,85.6094 859.5156,85.9688 Z "/><text fill="#000000" font-family="sans-serif" font-size="12" font-style="italic" lengthAdjust="spacingAndGlyphs" textLength="93" x="935.75" y="87.457">«Bad Decorator»</text><text fill="#000000" font-family="sans-serif" font-size="12" lengthAdjust="spacingAndGlyphs" textLength="210" x="877.25" y="102.5508">AbstractCheeseCakeFactoryDecorator</text><line style="stroke: #A80036; stroke-width: 1.5;" x1="795.5" x2="1136.5" y1="110.1875" y2="110.1875"/><polygon fill="none" points="805.5,117.6055,809.5,121.6055,805.5,125.6055,801.5,121.6055" style="stroke: #B38D22; stroke-width: 1.0;"/><text fill="#000000" font-family="sans-serif" font-size="11" lengthAdjust="spacingAndGlyphs" textLength="125" x="814.5" y="125.6064">CheeseCakeFactory inner</text><line style="stroke: #A80036; stroke-width: 1.5;" x1="795.5" x2="1136.5" y1="132.0234" y2="132.0234"/><ellipse cx="805.5" cy="144.4414" fill="#84BE84" rx="3" ry="3" style="stroke: #038048; stroke-width: 1.0;"/><text fill="#000000" font-family="sans-serif" font-size="11" lengthAdjust="spacingAndGlyphs" textLength="317" x="814.5" y="147.4424">void AbstractCheeseCakeFactoryDecorator(CheeseCakeFactory)</text><ellipse cx="805.5" cy="158.2773" fill="#84BE84" rx="3" ry="3" style="stroke: #038048; stroke-width: 1.0;"/><text fill="#FF0000" font-family="sans-serif" font-size="11" lengthAdjust="spacingAndGlyphs" textLength="214" x="814.5" y="161.2783">PlainCheeseCake createCheeseCake(String)</text><!--class part1.CheeseCake--><rect fill="#FEFECE" filter="url(#f1xw88eep53xe6)" height="117.1797" id="part1.CheeseCake" style="stroke: #A80036; stroke-width: 1.5;" width="202" x="1346" y="60.5"/><ellipse cx="1406.25" cy="76.5" fill="#A9DCDF" rx="11" ry="11" style="stroke: #A80036; stroke-width: 1.0;"/><path d="M1408.4375,78.2656 L1404.2969,78.2656 L1403.875,79.2969 L1404.2969,79.2969 Q1404.9063,79.2969 1405.1719,79.5313 Q1405.4375,79.7656 1405.4375,80.1563 Q1405.4375,80.5313 1405.1719,80.7656 Q1404.9063,81 1404.2969,81 L1402,81 Q1401.3906,81 1401.1328,80.7656 Q1400.875,80.5313 1400.875,80.1406 Q1400.875,79.7656 1401.1484,79.5234 Q1401.4219,79.2813 1402.0469,79.2969 L1404.7188,72.6406 L1403.6094,72.6406 Q1403,72.6406 1402.7344,72.4063 Q1402.4688,72.1719 1402.4688,71.7813 Q1402.4688,71.4063 1402.7344,71.1719 Q1403,70.9375 1403.6094,70.9375 L1407.2813,70.9375 L1410.6719,79.2969 Q1411.2656,79.2969 1411.4531,79.4375 Q1411.8438,79.7031 1411.8438,80.1563 Q1411.8438,80.5313 1411.5859,80.7656 Q1411.3281,81 1410.7188,81 L1408.4219,81 Q1407.8125,81 1407.5469,80.7656 Q1407.2813,80.5313 1407.2813,80.1406 Q1407.2813,79.7656 1407.5469,79.5313 Q1407.8125,79.2969 1408.4219,79.2969 L1408.8438,79.2969 L1408.4375,78.2656 Z M1407.7188,76.5625 L1406.3594,73.1875 L1404.9844,76.5625 L1407.7188,76.5625 Z "/><text fill="#000000" font-family="sans-serif" font-size="12" font-style="italic" lengthAdjust="spacingAndGlyphs" textLength="73" x="1426.75" y="81.4102">CheeseCake</text><line style="stroke: #A80036; stroke-width: 1.5;" x1="1347" x2="1547" y1="92.5" y2="92.5"/><polygon fill="none" points="1357,99.918,1361,103.918,1357,107.918,1353,103.918" style="stroke: #B38D22; stroke-width: 1.0;"/><text fill="#000000" font-family="sans-serif" font-size="11" lengthAdjust="spacingAndGlyphs" textLength="39" x="1366" y="107.9189">Crust cr</text><polygon fill="none" points="1357,113.7539,1361,117.7539,1357,121.7539,1353,117.7539" style="stroke: #B38D22; stroke-width: 1.0;"/><text fill="#000000" font-family="sans-serif" font-size="11" lengthAdjust="spacingAndGlyphs" textLength="52" x="1366" y="121.7549">Cheese ch</text><polygon fill="none" points="1357,127.5898,1361,131.5898,1357,135.5898,1353,131.5898" style="stroke: #B38D22; stroke-width: 1.0;"/><text fill="#000000" font-family="sans-serif" font-size="11" lengthAdjust="spacingAndGlyphs" textLength="140" x="1366" y="135.5908">IngredientFactory ingredients</text><line style="stroke: #A80036; stroke-width: 1.5;" x1="1347" x2="1547" y1="142.0078" y2="142.0078"/><polygon fill="#4177AF" points="1357,150.4258,1353,156.4258,1361,156.4258" style="stroke: #1963A0; stroke-width: 1.0;"/><text fill="#000000" font-family="sans-serif" font-size="11" lengthAdjust="spacingAndGlyphs" textLength="176" x="1366" y="157.4268">void CheeseCake(IngredientFactory)</text><ellipse cx="1357" cy="168.2617" fill="#84BE84" rx="3" ry="3" style="stroke: #038048; stroke-width: 1.0;"/><text fill="#000000" font-family="sans-serif" font-size="11" font-style="italic" lengthAdjust="spacingAndGlyphs" textLength="78" x="1366" y="171.2627">String toString()</text><!--class part1.CheeseCakeFactoryDecorator--><rect fill="#FEFECE" filter="url(#f1xw88eep53xe6)" height="103.3438" id="part1.CheeseCakeFactoryDecorator" style="stroke: #A80036; stroke-width: 1.5;" width="301" x="940.5" y="254"/><ellipse cx="1003.75" cy="270" fill="#ADD1B2" rx="11" ry="11" style="stroke: #A80036; stroke-width: 1.0;"/><path d="M1006.5156,265.875 Q1006.6719,265.6563 1006.8594,265.5469 Q1007.0469,265.4375 1007.2656,265.4375 Q1007.6406,265.4375 1007.875,265.6953 Q1008.1094,265.9531 1008.1094,266.5625 L1008.1094,268.0156 Q1008.1094,268.625 1007.875,268.8906 Q1007.6406,269.1563 1007.2656,269.1563 Q1006.9219,269.1563 1006.7188,268.9531 Q1006.5156,268.7656 1006.4063,268.25 Q1006.3594,267.8906 1006.1719,267.7031 Q1005.8438,267.3281 1005.2344,267.1094 Q1004.625,266.8906 1004,266.8906 Q1003.2344,266.8906 1002.6016,267.2188 Q1001.9688,267.5469 1001.4766,268.2969 Q1000.9844,269.0469 1000.9844,270.0781 L1000.9844,271.1719 Q1000.9844,272.4063 1001.875,273.2266 Q1002.7656,274.0469 1004.3594,274.0469 Q1005.2969,274.0469 1005.9531,273.7969 Q1006.3438,273.6406 1006.7656,273.2031 Q1007.0313,272.9375 1007.1797,272.8594 Q1007.3281,272.7813 1007.5313,272.7813 Q1007.8594,272.7813 1008.1172,273.0391 Q1008.375,273.2969 1008.375,273.6406 Q1008.375,273.9844 1008.0313,274.3906 Q1007.5313,274.9688 1006.7344,275.2969 Q1005.6563,275.75 1004.3594,275.75 Q1002.8438,275.75 1001.6406,275.125 Q1000.6563,274.625 999.9688,273.5547 Q999.2813,272.4844 999.2813,271.2031 L999.2813,270.0469 Q999.2813,268.7188 999.8984,267.5703 Q1000.5156,266.4219 1001.6094,265.8047 Q1002.7031,265.1875 1003.9375,265.1875 Q1004.6719,265.1875 1005.3203,265.3516 Q1005.9688,265.5156 1006.5156,265.875 Z "/><text fill="#000000" font-family="sans-serif" font-size="12" lengthAdjust="spacingAndGlyphs" textLength="166" x="1024.25" y="274.9102">CheeseCakeFactoryDecorator</text><line style="stroke: #A80036; stroke-width: 1.5;" x1="941.5" x2="1240.5" y1="286" y2="286"/><line style="stroke: #A80036; stroke-width: 1.5;" x1="941.5" x2="1240.5" y1="294" y2="294"/><ellipse cx="951.5" cy="306.418" fill="#84BE84" rx="3" ry="3" style="stroke: #038048; stroke-width: 1.0;"/><text fill="#000000" font-family="sans-serif" font-size="11" lengthAdjust="spacingAndGlyphs" textLength="275" x="960.5" y="309.4189">void CheeseCakeFactoryDecorator(CheeseCakeFactory)</text><ellipse cx="951.5" cy="320.2539" fill="#84BE84" rx="3" ry="3" style="stroke: #038048; stroke-width: 1.0;"/><text fill="#000000" font-family="sans-serif" font-size="11" lengthAdjust="spacingAndGlyphs" textLength="214" x="960.5" y="323.2549">PlainCheeseCake createCheeseCake(String)</text><rect fill="#F24D5C" height="6" style="stroke: #C82930; stroke-width: 1.0;" width="6" x="948.5" y="331.0898"/><text fill="#000000" font-family="sans-serif" font-size="11" lengthAdjust="spacingAndGlyphs" textLength="109" x="960.5" y="337.0908">boolean addWhipped()</text><rect fill="#F24D5C" height="6" style="stroke: #C82930; stroke-width: 1.0;" width="6" x="948.5" y="344.9258"/><text fill="#000000" font-family="sans-serif" font-size="11" lengthAdjust="spacingAndGlyphs" textLength="179" x="960.5" y="350.9268">void remindUserToDrizzleChocolate()</text><!--class part1.ChocolateCheeseCake--><rect fill="#FEFECE" filter="url(#f1xw88eep53xe6)" height="103.3438" id="part1.ChocolateCheeseCake" style="stroke: #A80036; stroke-width: 1.5;" width="249" x="968.5" y="425"/><ellipse cx="1024.25" cy="441" fill="#ADD1B2" rx="11" ry="11" style="stroke: #A80036; stroke-width: 1.0;"/><path d="M1027.0156,436.875 Q1027.1719,436.6563 1027.3594,436.5469 Q1027.5469,436.4375 1027.7656,436.4375 Q1028.1406,436.4375 1028.375,436.6953 Q1028.6094,436.9531 1028.6094,437.5625 L1028.6094,439.0156 Q1028.6094,439.625 1028.375,439.8906 Q1028.1406,440.1563 1027.7656,440.1563 Q1027.4219,440.1563 1027.2188,439.9531 Q1027.0156,439.7656 1026.9063,439.25 Q1026.8594,438.8906 1026.6719,438.7031 Q1026.3438,438.3281 1025.7344,438.1094 Q1025.125,437.8906 1024.5,437.8906 Q1023.7344,437.8906 1023.1016,438.2188 Q1022.4688,438.5469 1021.9766,439.2969 Q1021.4844,440.0469 1021.4844,441.0781 L1021.4844,442.1719 Q1021.4844,443.4063 1022.375,444.2266 Q1023.2656,445.0469 1024.8594,445.0469 Q1025.7969,445.0469 1026.4531,444.7969 Q1026.8438,444.6406 1027.2656,444.2031 Q1027.5313,443.9375 1027.6797,443.8594 Q1027.8281,443.7813 1028.0313,443.7813 Q1028.3594,443.7813 1028.6172,444.0391 Q1028.875,444.2969 1028.875,444.6406 Q1028.875,444.9844 1028.5313,445.3906 Q1028.0313,445.9688 1027.2344,446.2969 Q1026.1563,446.75 1024.8594,446.75 Q1023.3438,446.75 1022.1406,446.125 Q1021.1563,445.625 1020.4688,444.5547 Q1019.7813,443.4844 1019.7813,442.2031 L1019.7813,441.0469 Q1019.7813,439.7188 1020.3984,438.5703 Q1021.0156,437.4219 1022.1094,436.8047 Q1023.2031,436.1875 1024.4375,436.1875 Q1025.1719,436.1875 1025.8203,436.3516 Q1026.4688,436.5156 1027.0156,436.875 Z "/><text fill="#000000" font-family="sans-serif" font-size="12" lengthAdjust="spacingAndGlyphs" textLength="129" x="1044.75" y="445.9102">ChocolateCheeseCake</text><line style="stroke: #A80036; stroke-width: 1.5;" x1="969.5" x2="1216.5" y1="457" y2="457"/><rect fill="none" height="6" style="stroke: #C82930; stroke-width: 1.0;" width="6" x="976.5" y="466.418"/><text fill="#000000" font-family="sans-serif" font-size="11" lengthAdjust="spacingAndGlyphs" textLength="98" x="988.5" y="472.4189">Chocolate chocolate</text><line style="stroke: #A80036; stroke-width: 1.5;" x1="969.5" x2="1216.5" y1="478.8359" y2="478.8359"/><ellipse cx="979.5" cy="491.2539" fill="#84BE84" rx="3" ry="3" style="stroke: #038048; stroke-width: 1.0;"/><text fill="#000000" font-family="sans-serif" font-size="11" lengthAdjust="spacingAndGlyphs" textLength="223" x="988.5" y="494.2549">void ChocolateCheeseCake(PlainCheeseCake)</text><ellipse cx="979.5" cy="505.0898" fill="#84BE84" rx="3" ry="3" style="stroke: #038048; stroke-width: 1.0;"/><text fill="#000000" font-family="sans-serif" font-size="11" lengthAdjust="spacingAndGlyphs" textLength="175" x="988.5" y="508.0908">void drizzelHotChocolate(Chocolate)</text><ellipse cx="979.5" cy="518.9258" fill="#84BE84" rx="3" ry="3" style="stroke: #038048; stroke-width: 1.0;"/><text fill="#000000" font-family="sans-serif" font-size="11" lengthAdjust="spacingAndGlyphs" textLength="76" x="988.5" y="521.9268">String toString()</text><!--class part1.StrawberryCheeseCake--><rect fill="#FEFECE" filter="url(#f1xw88eep53xe6)" height="103.3438" id="part1.StrawberryCheeseCake" style="stroke: #A80036; stroke-width: 1.5;" width="257" x="1290.5" y="425"/><ellipse cx="1349.25" cy="441" fill="#ADD1B2" rx="11" ry="11" style="stroke: #A80036; stroke-width: 1.0;"/><path d="M1352.0156,436.875 Q1352.1719,436.6563 1352.3594,436.5469 Q1352.5469,436.4375 1352.7656,436.4375 Q1353.1406,436.4375 1353.375,436.6953 Q1353.6094,436.9531 1353.6094,437.5625 L1353.6094,439.0156 Q1353.6094,439.625 1353.375,439.8906 Q1353.1406,440.1563 1352.7656,440.1563 Q1352.4219,440.1563 1352.2188,439.9531 Q1352.0156,439.7656 1351.9063,439.25 Q1351.8594,438.8906 1351.6719,438.7031 Q1351.3438,438.3281 1350.7344,438.1094 Q1350.125,437.8906 1349.5,437.8906 Q1348.7344,437.8906 1348.1016,438.2188 Q1347.4688,438.5469 1346.9766,439.2969 Q1346.4844,440.0469 1346.4844,441.0781 L1346.4844,442.1719 Q1346.4844,443.4063 1347.375,444.2266 Q1348.2656,445.0469 1349.8594,445.0469 Q1350.7969,445.0469 1351.4531,444.7969 Q1351.8438,444.6406 1352.2656,444.2031 Q1352.5313,443.9375 1352.6797,443.8594 Q1352.8281,443.7813 1353.0313,443.7813 Q1353.3594,443.7813 1353.6172,444.0391 Q1353.875,444.2969 1353.875,444.6406 Q1353.875,444.9844 1353.5313,445.3906 Q1353.0313,445.9688 1352.2344,446.2969 Q1351.1563,446.75 1349.8594,446.75 Q1348.3438,446.75 1347.1406,446.125 Q1346.1563,445.625 1345.4688,444.5547 Q1344.7813,443.4844 1344.7813,442.2031 L1344.7813,441.0469 Q1344.7813,439.7188 1345.3984,438.5703 Q1346.0156,437.4219 1347.1094,436.8047 Q1348.2031,436.1875 1349.4375,436.1875 Q1350.1719,436.1875 1350.8203,436.3516 Q1351.4688,436.5156 1352.0156,436.875 Z "/><text fill="#000000" font-family="sans-serif" font-size="12" lengthAdjust="spacingAndGlyphs" textLength="131" x="1369.75" y="445.9102">StrawberryCheeseCake</text><line style="stroke: #A80036; stroke-width: 1.5;" x1="1291.5" x2="1546.5" y1="457" y2="457"/><rect fill="none" height="6" style="stroke: #C82930; stroke-width: 1.0;" width="6" x="1298.5" y="466.418"/><text fill="#000000" font-family="sans-serif" font-size="11" lengthAdjust="spacingAndGlyphs" textLength="107" x="1310.5" y="472.4189">WhippedTopping whip</text><line style="stroke: #A80036; stroke-width: 1.5;" x1="1291.5" x2="1546.5" y1="478.8359" y2="478.8359"/><ellipse cx="1301.5" cy="491.2539" fill="#84BE84" rx="3" ry="3" style="stroke: #038048; stroke-width: 1.0;"/><text fill="#000000" font-family="sans-serif" font-size="11" lengthAdjust="spacingAndGlyphs" textLength="231" x="1310.5" y="494.2549">void StrawberryCheeseCake(PlainCheeseCake)</text><ellipse cx="1301.5" cy="505.0898" fill="#84BE84" rx="3" ry="3" style="stroke: #038048; stroke-width: 1.0;"/><text fill="#000000" font-family="sans-serif" font-size="11" lengthAdjust="spacingAndGlyphs" textLength="185" x="1310.5" y="508.0908">void addWhipToping(WhippedTopping)</text><ellipse cx="1301.5" cy="518.9258" fill="#84BE84" rx="3" ry="3" style="stroke: #038048; stroke-width: 1.0;"/><text fill="#000000" font-family="sans-serif" font-size="11" lengthAdjust="spacingAndGlyphs" textLength="76" x="1310.5" y="521.9268">String toString()</text><!--class part1.WhippedTopping--><rect fill="#FEFECE" filter="url(#f1xw88eep53xe6)" height="75.6719" id="part1.WhippedTopping" style="stroke: #A80036; stroke-width: 1.5;" width="137" x="1228.5" y="613.5"/><ellipse cx="1248.45" cy="629.5" fill="#ADD1B2" rx="11" ry="11" style="stroke: #A80036; stroke-width: 1.0;"/><path d="M1251.2156,625.375 Q1251.3719,625.1563 1251.5594,625.0469 Q1251.7469,624.9375 1251.9656,624.9375 Q1252.3406,624.9375 1252.575,625.1953 Q1252.8094,625.4531 1252.8094,626.0625 L1252.8094,627.5156 Q1252.8094,628.125 1252.575,628.3906 Q1252.3406,628.6563 1251.9656,628.6563 Q1251.6219,628.6563 1251.4188,628.4531 Q1251.2156,628.2656 1251.1063,627.75 Q1251.0594,627.3906 1250.8719,627.2031 Q1250.5438,626.8281 1249.9344,626.6094 Q1249.325,626.3906 1248.7,626.3906 Q1247.9344,626.3906 1247.3016,626.7188 Q1246.6688,627.0469 1246.1766,627.7969 Q1245.6844,628.5469 1245.6844,629.5781 L1245.6844,630.6719 Q1245.6844,631.9063 1246.575,632.7266 Q1247.4656,633.5469 1249.0594,633.5469 Q1249.9969,633.5469 1250.6531,633.2969 Q1251.0438,633.1406 1251.4656,632.7031 Q1251.7313,632.4375 1251.8797,632.3594 Q1252.0281,632.2813 1252.2313,632.2813 Q1252.5594,632.2813 1252.8172,632.5391 Q1253.075,632.7969 1253.075,633.1406 Q1253.075,633.4844 1252.7313,633.8906 Q1252.2313,634.4688 1251.4344,634.7969 Q1250.3563,635.25 1249.0594,635.25 Q1247.5438,635.25 1246.3406,634.625 Q1245.3563,634.125 1244.6688,633.0547 Q1243.9813,631.9844 1243.9813,630.7031 L1243.9813,629.5469 Q1243.9813,628.2188 1244.5984,627.0703 Q1245.2156,625.9219 1246.3094,625.3047 Q1247.4031,624.6875 1248.6375,624.6875 Q1249.3719,624.6875 1250.0203,624.8516 Q1250.6688,625.0156 1251.2156,625.375 Z "/><text fill="#000000" font-family="sans-serif" font-size="12" lengthAdjust="spacingAndGlyphs" textLength="94" x="1263.55" y="634.4102">WhippedTopping</text><line style="stroke: #A80036; stroke-width: 1.5;" x1="1229.5" x2="1364.5" y1="645.5" y2="645.5"/><line style="stroke: #A80036; stroke-width: 1.5;" x1="1229.5" x2="1364.5" y1="653.5" y2="653.5"/><ellipse cx="1239.5" cy="665.918" fill="#84BE84" rx="3" ry="3" style="stroke: #038048; stroke-width: 1.0;"/><text fill="#000000" font-family="sans-serif" font-size="11" lengthAdjust="spacingAndGlyphs" textLength="111" x="1248.5" y="668.9189">void WhippedTopping()</text><ellipse cx="1239.5" cy="679.7539" fill="#84BE84" rx="3" ry="3" style="stroke: #038048; stroke-width: 1.0;"/><text fill="#000000" font-family="sans-serif" font-size="11" lengthAdjust="spacingAndGlyphs" textLength="76" x="1248.5" y="682.7549">String toString()</text><!--class part1.PlainCheeseCakeDecorator--><rect fill="#98FB98" filter="url(#f1xw88eep53xe6)" height="97.6953" id="part1.PlainCheeseCakeDecorator" style="stroke: #A80036; stroke-width: 1.5;" width="271" x="1276.5" y="256.5"/><ellipse cx="1330.25" cy="276.5938" fill="#A9DCDF" rx="11" ry="11" style="stroke: #A80036; stroke-width: 1.0;"/><path d="M1332.4375,278.3594 L1328.2969,278.3594 L1327.875,279.3906 L1328.2969,279.3906 Q1328.9063,279.3906 1329.1719,279.625 Q1329.4375,279.8594 1329.4375,280.25 Q1329.4375,280.625 1329.1719,280.8594 Q1328.9063,281.0938 1328.2969,281.0938 L1326,281.0938 Q1325.3906,281.0938 1325.1328,280.8594 Q1324.875,280.625 1324.875,280.2344 Q1324.875,279.8594 1325.1484,279.6172 Q1325.4219,279.375 1326.0469,279.3906 L1328.7188,272.7344 L1327.6094,272.7344 Q1327,272.7344 1326.7344,272.5 Q1326.4688,272.2656 1326.4688,271.875 Q1326.4688,271.5 1326.7344,271.2656 Q1327,271.0313 1327.6094,271.0313 L1331.2813,271.0313 L1334.6719,279.3906 Q1335.2656,279.3906 1335.4531,279.5313 Q1335.8438,279.7969 1335.8438,280.25 Q1335.8438,280.625 1335.5859,280.8594 Q1335.3281,281.0938 1334.7188,281.0938 L1332.4219,281.0938 Q1331.8125,281.0938 1331.5469,280.8594 Q1331.2813,280.625 1331.2813,280.2344 Q1331.2813,279.8594 1331.5469,279.625 Q1331.8125,279.3906 1332.4219,279.3906 L1332.8438,279.3906 L1332.4375,278.3594 Z M1331.7188,276.6563 L1330.3594,273.2813 L1328.9844,276.6563 L1331.7188,276.6563 Z "/><text fill="#000000" font-family="sans-serif" font-size="12" font-style="italic" lengthAdjust="spacingAndGlyphs" textLength="68" x="1394.25" y="273.957">«Decorator»</text><text fill="#000000" font-family="sans-serif" font-size="12" font-style="italic" lengthAdjust="spacingAndGlyphs" textLength="155" x="1350.75" y="289.0508">PlainCheeseCakeDecorator</text><line style="stroke: #A80036; stroke-width: 1.5;" x1="1277.5" x2="1546.5" y1="296.6875" y2="296.6875"/><polygon fill="none" points="1287.5,304.1055,1291.5,308.1055,1287.5,312.1055,1283.5,308.1055" style="stroke: #B38D22; stroke-width: 1.0;"/><text fill="#000000" font-family="sans-serif" font-size="11" lengthAdjust="spacingAndGlyphs" textLength="110" x="1296.5" y="312.1064">PlainCheeseCake inner</text><line style="stroke: #A80036; stroke-width: 1.5;" x1="1277.5" x2="1546.5" y1="318.5234" y2="318.5234"/><ellipse cx="1287.5" cy="330.9414" fill="#84BE84" rx="3" ry="3" style="stroke: #038048; stroke-width: 1.0;"/><text fill="#000000" font-family="sans-serif" font-size="11" lengthAdjust="spacingAndGlyphs" textLength="245" x="1296.5" y="333.9424">void PlainCheeseCakeDecorator(PlainCheeseCake)</text><ellipse cx="1287.5" cy="344.7773" fill="#84BE84" rx="3" ry="3" style="stroke: #038048; stroke-width: 1.0;"/><text fill="#000000" font-family="sans-serif" font-size="11" font-style="italic" lengthAdjust="spacingAndGlyphs" textLength="78" x="1296.5" y="347.7783">String toString()</text><!--class part1.Chocolate--><rect fill="#FEFECE" filter="url(#f1xw88eep53xe6)" height="103.3438" id="part1.Chocolate" style="stroke: #A80036; stroke-width: 1.5;" width="105" x="1040.5" y="600"/><ellipse cx="1063.15" cy="616" fill="#ADD1B2" rx="11" ry="11" style="stroke: #A80036; stroke-width: 1.0;"/><path d="M1065.9156,611.875 Q1066.0719,611.6563 1066.2594,611.5469 Q1066.4469,611.4375 1066.6656,611.4375 Q1067.0406,611.4375 1067.275,611.6953 Q1067.5094,611.9531 1067.5094,612.5625 L1067.5094,614.0156 Q1067.5094,614.625 1067.275,614.8906 Q1067.0406,615.1563 1066.6656,615.1563 Q1066.3219,615.1563 1066.1188,614.9531 Q1065.9156,614.7656 1065.8063,614.25 Q1065.7594,613.8906 1065.5719,613.7031 Q1065.2438,613.3281 1064.6344,613.1094 Q1064.025,612.8906 1063.4,612.8906 Q1062.6344,612.8906 1062.0016,613.2188 Q1061.3688,613.5469 1060.8766,614.2969 Q1060.3844,615.0469 1060.3844,616.0781 L1060.3844,617.1719 Q1060.3844,618.4063 1061.275,619.2266 Q1062.1656,620.0469 1063.7594,620.0469 Q1064.6969,620.0469 1065.3531,619.7969 Q1065.7438,619.6406 1066.1656,619.2031 Q1066.4313,618.9375 1066.5797,618.8594 Q1066.7281,618.7813 1066.9313,618.7813 Q1067.2594,618.7813 1067.5172,619.0391 Q1067.775,619.2969 1067.775,619.6406 Q1067.775,619.9844 1067.4313,620.3906 Q1066.9313,620.9688 1066.1344,621.2969 Q1065.0563,621.75 1063.7594,621.75 Q1062.2438,621.75 1061.0406,621.125 Q1060.0563,620.625 1059.3688,619.5547 Q1058.6813,618.4844 1058.6813,617.2031 L1058.6813,616.0469 Q1058.6813,614.7188 1059.2984,613.5703 Q1059.9156,612.4219 1061.0094,611.8047 Q1062.1031,611.1875 1063.3375,611.1875 Q1064.0719,611.1875 1064.7203,611.3516 Q1065.3688,611.5156 1065.9156,611.875 Z "/><text fill="#000000" font-family="sans-serif" font-size="12" lengthAdjust="spacingAndGlyphs" textLength="56" x="1078.85" y="620.9102">Chocolate</text><line style="stroke: #A80036; stroke-width: 1.5;" x1="1041.5" x2="1144.5" y1="632" y2="632"/><polygon fill="none" points="1051.5,640.418,1047.5,646.418,1055.5,646.418" style="stroke: #1963A0; stroke-width: 1.0;"/><text fill="#000000" font-family="sans-serif" font-size="11" lengthAdjust="spacingAndGlyphs" textLength="65" x="1060.5" y="647.4189">boolean isHot</text><line style="stroke: #A80036; stroke-width: 1.5;" x1="1041.5" x2="1144.5" y1="653.8359" y2="653.8359"/><ellipse cx="1051.5" cy="666.2539" fill="#84BE84" rx="3" ry="3" style="stroke: #038048; stroke-width: 1.0;"/><text fill="#000000" font-family="sans-serif" font-size="11" lengthAdjust="spacingAndGlyphs" textLength="79" x="1060.5" y="669.2549">void Chocolate()</text><ellipse cx="1051.5" cy="680.0898" fill="#84BE84" rx="3" ry="3" style="stroke: #038048; stroke-width: 1.0;"/><text fill="#000000" font-family="sans-serif" font-size="11" lengthAdjust="spacingAndGlyphs" textLength="65" x="1060.5" y="683.0908">void heatUp()</text><ellipse cx="1051.5" cy="693.9258" fill="#84BE84" rx="3" ry="3" style="stroke: #038048; stroke-width: 1.0;"/><text fill="#000000" font-family="sans-serif" font-size="11" lengthAdjust="spacingAndGlyphs" textLength="76" x="1060.5" y="696.9268">String toString()</text><!--class part1.CheseCakeClient--><rect fill="#FEFECE" filter="url(#f1xw88eep53xe6)" height="75.6719" id="part1.CheseCakeClient" style="stroke: #A80036; stroke-width: 1.5;" width="138" x="1173" y="81"/><ellipse cx="1191.6" cy="97" fill="#ADD1B2" rx="11" ry="11" style="stroke: #A80036; stroke-width: 1.0;"/><path d="M1194.3656,92.875 Q1194.5219,92.6563 1194.7094,92.5469 Q1194.8969,92.4375 1195.1156,92.4375 Q1195.4906,92.4375 1195.725,92.6953 Q1195.9594,92.9531 1195.9594,93.5625 L1195.9594,95.0156 Q1195.9594,95.625 1195.725,95.8906 Q1195.4906,96.1563 1195.1156,96.1563 Q1194.7719,96.1563 1194.5688,95.9531 Q1194.3656,95.7656 1194.2563,95.25 Q1194.2094,94.8906 1194.0219,94.7031 Q1193.6938,94.3281 1193.0844,94.1094 Q1192.475,93.8906 1191.85,93.8906 Q1191.0844,93.8906 1190.4516,94.2188 Q1189.8188,94.5469 1189.3266,95.2969 Q1188.8344,96.0469 1188.8344,97.0781 L1188.8344,98.1719 Q1188.8344,99.4063 1189.725,100.2266 Q1190.6156,101.0469 1192.2094,101.0469 Q1193.1469,101.0469 1193.8031,100.7969 Q1194.1938,100.6406 1194.6156,100.2031 Q1194.8813,99.9375 1195.0297,99.8594 Q1195.1781,99.7813 1195.3813,99.7813 Q1195.7094,99.7813 1195.9672,100.0391 Q1196.225,100.2969 1196.225,100.6406 Q1196.225,100.9844 1195.8813,101.3906 Q1195.3813,101.9688 1194.5844,102.2969 Q1193.5063,102.75 1192.2094,102.75 Q1190.6938,102.75 1189.4906,102.125 Q1188.5063,101.625 1187.8188,100.5547 Q1187.1313,99.4844 1187.1313,98.2031 L1187.1313,97.0469 Q1187.1313,95.7188 1187.7484,94.5703 Q1188.3656,93.4219 1189.4594,92.8047 Q1190.5531,92.1875 1191.7875,92.1875 Q1192.5219,92.1875 1193.1703,92.3516 Q1193.8188,92.5156 1194.3656,92.875 Z "/><text fill="#000000" font-family="sans-serif" font-size="12" lengthAdjust="spacingAndGlyphs" textLength="98" x="1206.4" y="101.9102">CheseCakeClient</text><line style="stroke: #A80036; stroke-width: 1.5;" x1="1174" x2="1310" y1="113" y2="113"/><line style="stroke: #A80036; stroke-width: 1.5;" x1="1174" x2="1310" y1="121" y2="121"/><ellipse cx="1184" cy="133.418" fill="#84BE84" rx="3" ry="3" style="stroke: #038048; stroke-width: 1.0;"/><text fill="#000000" font-family="sans-serif" font-size="11" lengthAdjust="spacingAndGlyphs" textLength="112" x="1193" y="136.4189">void CheseCakeClient()</text><ellipse cx="1184" cy="147.2539" fill="#84BE84" rx="3" ry="3" style="stroke: #038048; stroke-width: 1.0;"/><text fill="#000000" font-family="sans-serif" font-size="11" lengthAdjust="spacingAndGlyphs" text-decoration="underline" textLength="87" x="1193" y="150.2549">void main(String[])</text><line style="stroke: #000000; stroke-width: 1.0;" x1="1193" x2="1280" y1="152.2549" y2="152.2549"/><!--class part2.CandyCheeseCake--><rect fill="#FEFECE" filter="url(#f1xw88eep53xe6)" height="103.3438" id="part2.CandyCheeseCake" style="stroke: #A80036; stroke-width: 1.5;" width="301" x="1812.5" y="425"/><ellipse cx="1904.75" cy="441" fill="#ADD1B2" rx="11" ry="11" style="stroke: #A80036; stroke-width: 1.0;"/><path d="M1907.5156,436.875 Q1907.6719,436.6563 1907.8594,436.5469 Q1908.0469,436.4375 1908.2656,436.4375 Q1908.6406,436.4375 1908.875,436.6953 Q1909.1094,436.9531 1909.1094,437.5625 L1909.1094,439.0156 Q1909.1094,439.625 1908.875,439.8906 Q1908.6406,440.1563 1908.2656,440.1563 Q1907.9219,440.1563 1907.7188,439.9531 Q1907.5156,439.7656 1907.4063,439.25 Q1907.3594,438.8906 1907.1719,438.7031 Q1906.8438,438.3281 1906.2344,438.1094 Q1905.625,437.8906 1905,437.8906 Q1904.2344,437.8906 1903.6016,438.2188 Q1902.9688,438.5469 1902.4766,439.2969 Q1901.9844,440.0469 1901.9844,441.0781 L1901.9844,442.1719 Q1901.9844,443.4063 1902.875,444.2266 Q1903.7656,445.0469 1905.3594,445.0469 Q1906.2969,445.0469 1906.9531,444.7969 Q1907.3438,444.6406 1907.7656,444.2031 Q1908.0313,443.9375 1908.1797,443.8594 Q1908.3281,443.7813 1908.5313,443.7813 Q1908.8594,443.7813 1909.1172,444.0391 Q1909.375,444.2969 1909.375,444.6406 Q1909.375,444.9844 1909.0313,445.3906 Q1908.5313,445.9688 1907.7344,446.2969 Q1906.6563,446.75 1905.3594,446.75 Q1903.8438,446.75 1902.6406,446.125 Q1901.6563,445.625 1900.9688,444.5547 Q1900.2813,443.4844 1900.2813,442.2031 L1900.2813,441.0469 Q1900.2813,439.7188 1900.8984,438.5703 Q1901.5156,437.4219 1902.6094,436.8047 Q1903.7031,436.1875 1904.9375,436.1875 Q1905.6719,436.1875 1906.3203,436.3516 Q1906.9688,436.5156 1907.5156,436.875 Z "/><text fill="#000000" font-family="sans-serif" font-size="12" lengthAdjust="spacingAndGlyphs" textLength="108" x="1925.25" y="445.9102">CandyCheeseCake</text><line style="stroke: #A80036; stroke-width: 1.5;" x1="1813.5" x2="2112.5" y1="457" y2="457"/><rect fill="none" height="6" style="stroke: #C82930; stroke-width: 1.0;" width="6" x="1820.5" y="466.418"/><text fill="#000000" font-family="sans-serif" font-size="11" lengthAdjust="spacingAndGlyphs" textLength="107" x="1832.5" y="472.4189">List&lt;Candys&gt; candies</text><line style="stroke: #A80036; stroke-width: 1.5;" x1="1813.5" x2="2112.5" y1="478.8359" y2="478.8359"/><ellipse cx="1823.5" cy="491.2539" fill="#84BE84" rx="3" ry="3" style="stroke: #038048; stroke-width: 1.0;"/><text fill="#000000" font-family="sans-serif" font-size="11" lengthAdjust="spacingAndGlyphs" textLength="275" x="1832.5" y="494.2549">void CandyCheeseCake(PlainCheeseCake,List&lt;Candys&gt;)</text><ellipse cx="1823.5" cy="505.0898" fill="#84BE84" rx="3" ry="3" style="stroke: #038048; stroke-width: 1.0;"/><text fill="#000000" font-family="sans-serif" font-size="11" lengthAdjust="spacingAndGlyphs" textLength="76" x="1832.5" y="508.0908">String toString()</text><rect fill="#F24D5C" height="6" style="stroke: #C82930; stroke-width: 1.0;" width="6" x="1820.5" y="515.9258"/><text fill="#000000" font-family="sans-serif" font-size="11" lengthAdjust="spacingAndGlyphs" textLength="186" x="1832.5" y="521.9268">void appendCandyName(StringBuilder)</text><!--class part2.Candys--><rect fill="#FEFECE" filter="url(#f1xw88eep53xe6)" height="61.8359" id="part2.Candys" style="stroke: #A80036; stroke-width: 1.5;" width="104" x="1953" y="620.5"/><ellipse cx="1981.5" cy="636.5" fill="#B4A7E5" rx="11" ry="11" style="stroke: #A80036; stroke-width: 1.0;"/><path d="M1982.4531,633.1406 L1982.4531,639.7969 L1984.1719,639.7969 Q1984.7813,639.7969 1985.0469,640.0313 Q1985.3125,640.2656 1985.3125,640.6563 Q1985.3125,641.0313 1985.0469,641.2656 Q1984.7813,641.5 1984.1719,641.5 L1979.0313,641.5 Q1978.4219,641.5 1978.1563,641.2656 Q1977.8906,641.0313 1977.8906,640.6406 Q1977.8906,640.2656 1978.1563,640.0313 Q1978.4219,639.7969 1979.0313,639.7969 L1980.75,639.7969 L1980.75,633.1406 L1979.0313,633.1406 Q1978.4219,633.1406 1978.1563,632.9063 Q1977.8906,632.6719 1977.8906,632.2813 Q1977.8906,631.9063 1978.1563,631.6719 Q1978.4219,631.4375 1979.0313,631.4375 L1984.1719,631.4375 Q1984.7813,631.4375 1985.0469,631.6719 Q1985.3125,631.9063 1985.3125,632.2813 Q1985.3125,632.6719 1985.0469,632.9063 Q1984.7813,633.1406 1984.1719,633.1406 L1982.4531,633.1406 Z "/><text fill="#000000" font-family="sans-serif" font-size="12" font-style="italic" lengthAdjust="spacingAndGlyphs" textLength="42" x="1998.5" y="641.4102">Candys</text><line style="stroke: #A80036; stroke-width: 1.5;" x1="1954" x2="2056" y1="652.5" y2="652.5"/><line style="stroke: #A80036; stroke-width: 1.5;" x1="1954" x2="2056" y1="660.5" y2="660.5"/><ellipse cx="1964" cy="672.918" fill="#84BE84" rx="3" ry="3" style="stroke: #038048; stroke-width: 1.0;"/><text fill="#000000" font-family="sans-serif" font-size="11" font-style="italic" lengthAdjust="spacingAndGlyphs" textLength="78" x="1973" y="675.9189">String toString()</text><!--class part2.CandyCheeseCakeFactory--><rect fill="#FEFECE" filter="url(#f1xw88eep53xe6)" height="117.1797" id="part2.CandyCheeseCakeFactory" style="stroke: #A80036; stroke-width: 1.5;" width="284" x="1812" y="247"/><ellipse cx="1876.25" cy="263" fill="#ADD1B2" rx="11" ry="11" style="stroke: #A80036; stroke-width: 1.0;"/><path d="M1879.0156,258.875 Q1879.1719,258.6563 1879.3594,258.5469 Q1879.5469,258.4375 1879.7656,258.4375 Q1880.1406,258.4375 1880.375,258.6953 Q1880.6094,258.9531 1880.6094,259.5625 L1880.6094,261.0156 Q1880.6094,261.625 1880.375,261.8906 Q1880.1406,262.1563 1879.7656,262.1563 Q1879.4219,262.1563 1879.2188,261.9531 Q1879.0156,261.7656 1878.9063,261.25 Q1878.8594,260.8906 1878.6719,260.7031 Q1878.3438,260.3281 1877.7344,260.1094 Q1877.125,259.8906 1876.5,259.8906 Q1875.7344,259.8906 1875.1016,260.2188 Q1874.4688,260.5469 1873.9766,261.2969 Q1873.4844,262.0469 1873.4844,263.0781 L1873.4844,264.1719 Q1873.4844,265.4063 1874.375,266.2266 Q1875.2656,267.0469 1876.8594,267.0469 Q1877.7969,267.0469 1878.4531,266.7969 Q1878.8438,266.6406 1879.2656,266.2031 Q1879.5313,265.9375 1879.6797,265.8594 Q1879.8281,265.7813 1880.0313,265.7813 Q1880.3594,265.7813 1880.6172,266.0391 Q1880.875,266.2969 1880.875,266.6406 Q1880.875,266.9844 1880.5313,267.3906 Q1880.0313,267.9688 1879.2344,268.2969 Q1878.1563,268.75 1876.8594,268.75 Q1875.3438,268.75 1874.1406,268.125 Q1873.1563,267.625 1872.4688,266.5547 Q1871.7813,265.4844 1871.7813,264.2031 L1871.7813,263.0469 Q1871.7813,261.7188 1872.3984,260.5703 Q1873.0156,259.4219 1874.1094,258.8047 Q1875.2031,258.1875 1876.4375,258.1875 Q1877.1719,258.1875 1877.8203,258.3516 Q1878.4688,258.5156 1879.0156,258.875 Z "/><text fill="#000000" font-family="sans-serif" font-size="12" lengthAdjust="spacingAndGlyphs" textLength="147" x="1896.75" y="267.9102">CandyCheeseCakeFactory</text><line style="stroke: #A80036; stroke-width: 1.5;" x1="1813" x2="2095" y1="279" y2="279"/><polygon fill="none" points="1823,287.418,1819,293.418,1827,293.418" style="stroke: #1963A0; stroke-width: 1.0;"/><text fill="#000000" font-family="sans-serif" font-size="11" lengthAdjust="spacingAndGlyphs" textLength="192" x="1832" y="294.4189">Map&lt;String,Class&lt;Candys&gt;&gt; candyMap</text><line style="stroke: #A80036; stroke-width: 1.5;" x1="1813" x2="2095" y1="300.8359" y2="300.8359"/><ellipse cx="1823" cy="313.2539" fill="#84BE84" rx="3" ry="3" style="stroke: #038048; stroke-width: 1.0;"/><text fill="#000000" font-family="sans-serif" font-size="11" lengthAdjust="spacingAndGlyphs" textLength="258" x="1832" y="316.2549">void CandyCheeseCakeFactory(CheeseCakeFactory)</text><ellipse cx="1823" cy="327.0898" fill="#84BE84" rx="3" ry="3" style="stroke: #038048; stroke-width: 1.0;"/><text fill="#000000" font-family="sans-serif" font-size="11" lengthAdjust="spacingAndGlyphs" textLength="187" x="1832" y="330.0908">void addCandy(String,Class&lt;Candys&gt;)</text><ellipse cx="1823" cy="340.9258" fill="#84BE84" rx="3" ry="3" style="stroke: #038048; stroke-width: 1.0;"/><text fill="#000000" font-family="sans-serif" font-size="11" lengthAdjust="spacingAndGlyphs" textLength="214" x="1832" y="343.9268">PlainCheeseCake createCheeseCake(String)</text><rect fill="#F24D5C" height="6" style="stroke: #C82930; stroke-width: 1.0;" width="6" x="1820" y="351.7617"/><text fill="#000000" font-family="sans-serif" font-size="11" lengthAdjust="spacingAndGlyphs" textLength="145" x="1832" y="357.7627">List&lt;Candys&gt; askForCandies)</text><!--class part2.CheeseCakeClient--><rect fill="#FEFECE" filter="url(#f1xw88eep53xe6)" height="75.6719" id="part2.CheeseCakeClient" style="stroke: #A80036; stroke-width: 1.5;" width="144" x="1812" y="81"/><ellipse cx="1830.15" cy="97" fill="#ADD1B2" rx="11" ry="11" style="stroke: #A80036; stroke-width: 1.0;"/><path d="M1832.9156,92.875 Q1833.0719,92.6563 1833.2594,92.5469 Q1833.4469,92.4375 1833.6656,92.4375 Q1834.0406,92.4375 1834.275,92.6953 Q1834.5094,92.9531 1834.5094,93.5625 L1834.5094,95.0156 Q1834.5094,95.625 1834.275,95.8906 Q1834.0406,96.1563 1833.6656,96.1563 Q1833.3219,96.1563 1833.1188,95.9531 Q1832.9156,95.7656 1832.8063,95.25 Q1832.7594,94.8906 1832.5719,94.7031 Q1832.2438,94.3281 1831.6344,94.1094 Q1831.025,93.8906 1830.4,93.8906 Q1829.6344,93.8906 1829.0016,94.2188 Q1828.3688,94.5469 1827.8766,95.2969 Q1827.3844,96.0469 1827.3844,97.0781 L1827.3844,98.1719 Q1827.3844,99.4063 1828.275,100.2266 Q1829.1656,101.0469 1830.7594,101.0469 Q1831.6969,101.0469 1832.3531,100.7969 Q1832.7438,100.6406 1833.1656,100.2031 Q1833.4313,99.9375 1833.5797,99.8594 Q1833.7281,99.7813 1833.9313,99.7813 Q1834.2594,99.7813 1834.5172,100.0391 Q1834.775,100.2969 1834.775,100.6406 Q1834.775,100.9844 1834.4313,101.3906 Q1833.9313,101.9688 1833.1344,102.2969 Q1832.0563,102.75 1830.7594,102.75 Q1829.2438,102.75 1828.0406,102.125 Q1827.0563,101.625 1826.3688,100.5547 Q1825.6813,99.4844 1825.6813,98.2031 L1825.6813,97.0469 Q1825.6813,95.7188 1826.2984,94.5703 Q1826.9156,93.4219 1828.0094,92.8047 Q1829.1031,92.1875 1830.3375,92.1875 Q1831.0719,92.1875 1831.7203,92.3516 Q1832.3688,92.5156 1832.9156,92.875 Z "/><text fill="#000000" font-family="sans-serif" font-size="12" lengthAdjust="spacingAndGlyphs" textLength="105" x="1844.85" y="101.9102">CheeseCakeClient</text><line style="stroke: #A80036; stroke-width: 1.5;" x1="1813" x2="1955" y1="113" y2="113"/><line style="stroke: #A80036; stroke-width: 1.5;" x1="1813" x2="1955" y1="121" y2="121"/><ellipse cx="1823" cy="133.418" fill="#84BE84" rx="3" ry="3" style="stroke: #038048; stroke-width: 1.0;"/><text fill="#000000" font-family="sans-serif" font-size="11" lengthAdjust="spacingAndGlyphs" textLength="118" x="1832" y="136.4189">void CheeseCakeClient()</text><ellipse cx="1823" cy="147.2539" fill="#84BE84" rx="3" ry="3" style="stroke: #038048; stroke-width: 1.0;"/><text fill="#000000" font-family="sans-serif" font-size="11" lengthAdjust="spacingAndGlyphs" text-decoration="underline" textLength="87" x="1832" y="150.2549">void main(String[])</text><line style="stroke: #000000; stroke-width: 1.0;" x1="1832" x2="1919" y1="152.2549" y2="152.2549"/><!--class part2.MnMCandy--><rect fill="#FEFECE" filter="url(#f1xw88eep53xe6)" height="75.6719" id="part2.MnMCandy" style="stroke: #A80036; stroke-width: 1.5;" width="110" x="1846" y="775"/><ellipse cx="1869.1" cy="791" fill="#ADD1B2" rx="11" ry="11" style="stroke: #A80036; stroke-width: 1.0;"/><path d="M1871.8656,786.875 Q1872.0219,786.6563 1872.2094,786.5469 Q1872.3969,786.4375 1872.6156,786.4375 Q1872.9906,786.4375 1873.225,786.6953 Q1873.4594,786.9531 1873.4594,787.5625 L1873.4594,789.0156 Q1873.4594,789.625 1873.225,789.8906 Q1872.9906,790.1563 1872.6156,790.1563 Q1872.2719,790.1563 1872.0688,789.9531 Q1871.8656,789.7656 1871.7563,789.25 Q1871.7094,788.8906 1871.5219,788.7031 Q1871.1938,788.3281 1870.5844,788.1094 Q1869.975,787.8906 1869.35,787.8906 Q1868.5844,787.8906 1867.9516,788.2188 Q1867.3188,788.5469 1866.8266,789.2969 Q1866.3344,790.0469 1866.3344,791.0781 L1866.3344,792.1719 Q1866.3344,793.4063 1867.225,794.2266 Q1868.1156,795.0469 1869.7094,795.0469 Q1870.6469,795.0469 1871.3031,794.7969 Q1871.6938,794.6406 1872.1156,794.2031 Q1872.3813,793.9375 1872.5297,793.8594 Q1872.6781,793.7813 1872.8813,793.7813 Q1873.2094,793.7813 1873.4672,794.0391 Q1873.725,794.2969 1873.725,794.6406 Q1873.725,794.9844 1873.3813,795.3906 Q1872.8813,795.9688 1872.0844,796.2969 Q1871.0063,796.75 1869.7094,796.75 Q1868.1938,796.75 1866.9906,796.125 Q1866.0063,795.625 1865.3188,794.5547 Q1864.6313,793.4844 1864.6313,792.2031 L1864.6313,791.0469 Q1864.6313,789.7188 1865.2484,788.5703 Q1865.8656,787.4219 1866.9594,786.8047 Q1868.0531,786.1875 1869.2875,786.1875 Q1870.0219,786.1875 1870.6703,786.3516 Q1871.3188,786.5156 1871.8656,786.875 Z "/><text fill="#000000" font-family="sans-serif" font-size="12" lengthAdjust="spacingAndGlyphs" textLength="60" x="1884.9" y="795.9102">MnMCandy</text><line style="stroke: #A80036; stroke-width: 1.5;" x1="1847" x2="1955" y1="807" y2="807"/><line style="stroke: #A80036; stroke-width: 1.5;" x1="1847" x2="1955" y1="815" y2="815"/><ellipse cx="1857" cy="827.418" fill="#84BE84" rx="3" ry="3" style="stroke: #038048; stroke-width: 1.0;"/><text fill="#000000" font-family="sans-serif" font-size="11" lengthAdjust="spacingAndGlyphs" textLength="84" x="1866" y="830.4189">void MnMCandy()</text><ellipse cx="1857" cy="841.2539" fill="#84BE84" rx="3" ry="3" style="stroke: #038048; stroke-width: 1.0;"/><text fill="#000000" font-family="sans-serif" font-size="11" lengthAdjust="spacingAndGlyphs" textLength="76" x="1866" y="844.2549">String toString()</text><!--class part2.ReesesPieces--><rect fill="#FEFECE" filter="url(#f1xw88eep53xe6)" height="75.6719" id="part2.ReesesPieces" style="stroke: #A80036; stroke-width: 1.5;" width="126" x="1991" y="775"/><ellipse cx="2011.4" cy="791" fill="#ADD1B2" rx="11" ry="11" style="stroke: #A80036; stroke-width: 1.0;"/><path d="M2014.1656,786.875 Q2014.3219,786.6563 2014.5094,786.5469 Q2014.6969,786.4375 2014.9156,786.4375 Q2015.2906,786.4375 2015.525,786.6953 Q2015.7594,786.9531 2015.7594,787.5625 L2015.7594,789.0156 Q2015.7594,789.625 2015.525,789.8906 Q2015.2906,790.1563 2014.9156,790.1563 Q2014.5719,790.1563 2014.3688,789.9531 Q2014.1656,789.7656 2014.0563,789.25 Q2014.0094,788.8906 2013.8219,788.7031 Q2013.4938,788.3281 2012.8844,788.1094 Q2012.275,787.8906 2011.65,787.8906 Q2010.8844,787.8906 2010.2516,788.2188 Q2009.6188,788.5469 2009.1266,789.2969 Q2008.6344,790.0469 2008.6344,791.0781 L2008.6344,792.1719 Q2008.6344,793.4063 2009.525,794.2266 Q2010.4156,795.0469 2012.0094,795.0469 Q2012.9469,795.0469 2013.6031,794.7969 Q2013.9938,794.6406 2014.4156,794.2031 Q2014.6813,793.9375 2014.8297,793.8594 Q2014.9781,793.7813 2015.1813,793.7813 Q2015.5094,793.7813 2015.7672,794.0391 Q2016.025,794.2969 2016.025,794.6406 Q2016.025,794.9844 2015.6813,795.3906 Q2015.1813,795.9688 2014.3844,796.2969 Q2013.3063,796.75 2012.0094,796.75 Q2010.4938,796.75 2009.2906,796.125 Q2008.3063,795.625 2007.6188,794.5547 Q2006.9313,793.4844 2006.9313,792.2031 L2006.9313,791.0469 Q2006.9313,789.7188 2007.5484,788.5703 Q2008.1656,787.4219 2009.2594,786.8047 Q2010.3531,786.1875 2011.5875,786.1875 Q2012.3219,786.1875 2012.9703,786.3516 Q2013.6188,786.5156 2014.1656,786.875 Z "/><text fill="#000000" font-family="sans-serif" font-size="12" lengthAdjust="spacingAndGlyphs" textLength="82" x="2026.6" y="795.9102">ReesesPieces</text><line style="stroke: #A80036; stroke-width: 1.5;" x1="1992" x2="2116" y1="807" y2="807"/><line style="stroke: #A80036; stroke-width: 1.5;" x1="1992" x2="2116" y1="815" y2="815"/><ellipse cx="2002" cy="827.418" fill="#84BE84" rx="3" ry="3" style="stroke: #038048; stroke-width: 1.0;"/><text fill="#000000" font-family="sans-serif" font-size="11" lengthAdjust="spacingAndGlyphs" textLength="100" x="2011" y="830.4189">void ReesesPieces()</text><ellipse cx="2002" cy="841.2539" fill="#84BE84" rx="3" ry="3" style="stroke: #038048; stroke-width: 1.0;"/><text fill="#000000" font-family="sans-serif" font-size="11" lengthAdjust="spacingAndGlyphs" textLength="76" x="2011" y="844.2549">String toString()</text><!--link edu.rosehulman.csse374.cheesecake.Crust to edu.rosehulman.csse374.cheesecake.GrahamCrackerCrust--><path d="M563,864.194 C563,864.194 563,913.976 563,913.976 " fill="none" id="edu.rosehulman.csse374.cheesecake.Crust-edu.rosehulman.csse374.cheesecake.GrahamCrackerCrust" style="stroke: #A80036; stroke-width: 1.0; stroke-dasharray: 7.0,7.0;"/><polygon fill="none" points="556,864.194,563,844.194,570,864.194,556,864.194" style="stroke: #A80036; stroke-width: 1.0;"/><!--link edu.rosehulman.csse374.cheesecake.Cheese to edu.rosehulman.csse374.cheesecake.CreamCheese--><path d="M379.25,864.194 C379.25,864.194 379.25,913.976 379.25,913.976 " fill="none" id="edu.rosehulman.csse374.cheesecake.Cheese-edu.rosehulman.csse374.cheesecake.CreamCheese" style="stroke: #A80036; stroke-width: 1.0; stroke-dasharray: 7.0,7.0;"/><polygon fill="none" points="372.25,864.194,379.25,844.194,386.25,864.194,372.25,864.194" style="stroke: #A80036; stroke-width: 1.0;"/><!--link edu.rosehulman.csse374.cheesecake.CheeseCakeFactory to part1.AbstractCheeseCakeFactoryDecorator--><path d="M558.162,477 C558.162,477 867.5,477 867.5,477 C867.5,477 867.5,266.075 867.5,168.028 " fill="none" id="edu.rosehulman.csse374.cheesecake.CheeseCakeFactory-part1.AbstractCheeseCakeFactoryDecorator" style="stroke: #A80036; stroke-width: 1.0;"/><polygon fill="none" points="558.162,484,538.162,477,558.162,470,558.162,484" style="stroke: #A80036; stroke-width: 1.0;"/><!--link part1.AbstractCheeseCakeFactoryDecorator to edu.rosehulman.csse374.cheesecake.CheeseCakeFactory--><path d="M831,168.003 C831,261.469 831,456 831,456 C831,456 543.011,456 543.011,456 " fill="none" id="part1.AbstractCheeseCakeFactoryDecorator-edu.rosehulman.csse374.cheesecake.CheeseCakeFactory" style="stroke: #008000; stroke-width: 1.0;"/><polygon fill="#008000" points="538.011,456,547.011,460,543.011,456,547.011,452,538.011,456" style="stroke: #008000; stroke-width: 1.0;"/><text fill="#000000" font-family="sans-serif" font-size="13" lengthAdjust="spacingAndGlyphs" textLength="73" x="70" y="310.9951">«Decorates»</text><!--link edu.rosehulman.csse374.cheesecake.PlainCheeseCake to part1.CheeseCake--><path d="M638.081,594 C638.081,594 1264.83,594 1264.83,594 C1264.83,594 1264.83,176 1264.83,176 C1264.83,176 1303.87,176 1345.8,176 " fill="none" id="edu.rosehulman.csse374.cheesecake.PlainCheeseCake-part1.CheeseCake" style="stroke: #A80036; stroke-width: 1.0;"/><polygon fill="none" points="638.081,601,618.081,594,638.081,587,638.081,601" style="stroke: #A80036; stroke-width: 1.0;"/><!--link part1.AbstractCheeseCakeFactoryDecorator to part1.CheeseCakeFactoryDecorator--><path d="M1006.17,188.001 C1006.17,188.001 1006.17,253.894 1006.17,253.894 " fill="none" id="part1.AbstractCheeseCakeFactoryDecorator-part1.CheeseCakeFactoryDecorator" style="stroke: #A80036; stroke-width: 1.0;"/><polygon fill="none" points="999.167,188.001,1006.17,168.001,1013.17,188.001,999.167,188.001" style="stroke: #A80036; stroke-width: 1.0;"/><!--link part1.PlainCheeseCakeDecorator to part1.ChocolateCheeseCake--><path d="M1280,374.534 C1280,374.534 1280,494 1280,494 C1280,494 1252.03,494 1217.73,494 " fill="none" id="part1.PlainCheeseCakeDecorator-part1.ChocolateCheeseCake" style="stroke: #A80036; stroke-width: 1.0;"/><polygon fill="none" points="1273,374.534,1280,354.534,1287,374.534,1273,374.534" style="stroke: #A80036; stroke-width: 1.0;"/><!--link part1.PlainCheeseCakeDecorator to part1.StrawberryCheeseCake--><path d="M1419,374.502 C1419,374.502 1419,424.807 1419,424.807 " fill="none" id="part1.PlainCheeseCakeDecorator-part1.StrawberryCheeseCake" style="stroke: #A80036; stroke-width: 1.0;"/><polygon fill="none" points="1412,374.502,1419,354.502,1426,374.502,1412,374.502" style="stroke: #A80036; stroke-width: 1.0;"/><!--link edu.rosehulman.csse374.cheesecake.PlainCheeseCake to part1.PlainCheeseCakeDecorator--><path d="M638.314,597 C638.314,597 1287,597 1287,597 C1287,597 1287,437.695 1287,354.619 " fill="none" id="edu.rosehulman.csse374.cheesecake.PlainCheeseCake-part1.PlainCheeseCakeDecorator" style="stroke: #A80036; stroke-width: 1.0;"/><polygon fill="none" points="638.314,604,618.314,597,638.314,590,638.314,604" style="stroke: #A80036; stroke-width: 1.0;"/><!--link part1.PlainCheeseCakeDecorator to edu.rosehulman.csse374.cheesecake.PlainCheeseCake--><path d="M1283.5,354.779 C1283.5,437.66 1283.5,596 1283.5,596 C1283.5,596 623.244,596 623.244,596 " fill="none" id="part1.PlainCheeseCakeDecorator-edu.rosehulman.csse374.cheesecake.PlainCheeseCake" style="stroke: #008000; stroke-width: 1.0;"/><polygon fill="#008000" points="618.244,596,627.244,600,623.244,596,627.244,592,618.244,596" style="stroke: #008000; stroke-width: 1.0;"/><text fill="#000000" font-family="sans-serif" font-size="13" lengthAdjust="spacingAndGlyphs" textLength="73" x="859" y="481.9951">«Decorates»</text><!--link part1.PlainCheeseCakeDecorator to part2.CandyCheeseCake--><path d="M1567.57,306 C1567.57,306 1680,306 1680,306 C1680,306 1680,477 1680,477 C1680,477 1744.8,477 1812.39,477 " fill="none" id="part1.PlainCheeseCakeDecorator-part2.CandyCheeseCake" style="stroke: #A80036; stroke-width: 1.0;"/><polygon fill="none" points="1567.57,313,1547.57,306,1567.57,299,1567.57,313" style="stroke: #A80036; stroke-width: 1.0;"/><!--link part1.AbstractCheeseCakeFactoryDecorator to part2.CandyCheeseCakeFactory--><path d="M1071.83,188.152 C1071.83,188.152 1071.83,250 1071.83,250 C1071.83,250 1562.25,250 1811.77,250 " fill="none" id="part1.AbstractCheeseCakeFactoryDecorator-part2.CandyCheeseCakeFactory" style="stroke: #A80036; stroke-width: 1.0;"/><polygon fill="none" points="1064.83,188.152,1071.83,168.152,1078.83,188.152,1064.83,188.152" style="stroke: #A80036; stroke-width: 1.0;"/><!--link part2.Candys to part2.MnMCandy--><path d="M1973.5,702.639 C1973.5,702.639 1973.5,813 1973.5,813 C1973.5,813 1966.24,813 1956.32,813 " fill="none" id="part2.Candys-part2.MnMCandy" style="stroke: #A80036; stroke-width: 1.0; stroke-dasharray: 7.0,7.0;"/><polygon fill="none" points="1966.5,702.639,1973.5,682.639,1980.5,702.639,1966.5,702.639" style="stroke: #A80036; stroke-width: 1.0;"/><!--link part2.Candys to part2.ReesesPieces--><path d="M2024,702.639 C2024,702.639 2024,774.842 2024,774.842 " fill="none" id="part2.Candys-part2.ReesesPieces" style="stroke: #A80036; stroke-width: 1.0; stroke-dasharray: 7.0,7.0;"/><polygon fill="none" points="2017,702.639,2024,682.639,2031,702.639,2017,702.639" style="stroke: #A80036; stroke-width: 1.0;"/><!--link edu.rosehulman.csse374.cheesecake.CheeseCakeUI to edu.rosehulman.csse374.cheesecake.CheeseCakeFactory--><path d="M428.875,350.876 C428.875,350.876 428.875,429.438 428.875,429.438 " fill="none" id="edu.rosehulman.csse374.cheesecake.CheeseCakeUI-edu.rosehulman.csse374.cheesecake.CheeseCakeFactory" style="stroke: #A80036; stroke-width: 1.0;"/><polygon fill="#A80036" points="428.875,434.438,432.875,425.438,428.875,429.438,424.875,425.438,428.875,434.438" style="stroke: #A80036; stroke-width: 1.0;"/><!--link edu.rosehulman.csse374.cheesecake.PlainCheeseCake to edu.rosehulman.csse374.cheesecake.Crust--><path d="M563,714.403 C563,714.403 563,776.592 563,776.592 " fill="none" id="edu.rosehulman.csse374.cheesecake.PlainCheeseCake-edu.rosehulman.csse374.cheesecake.Crust" style="stroke: #A80036; stroke-width: 1.0;"/><polygon fill="#A80036" points="563,781.592,567,772.592,563,776.592,559,772.592,563,781.592" style="stroke: #A80036; stroke-width: 1.0;"/><!--link edu.rosehulman.csse374.cheesecake.PlainCheeseCake to edu.rosehulman.csse374.cheesecake.Cheese--><path d="M425.5,714.403 C425.5,714.403 425.5,776.592 425.5,776.592 " fill="none" id="edu.rosehulman.csse374.cheesecake.PlainCheeseCake-edu.rosehulman.csse374.cheesecake.Cheese" style="stroke: #A80036; stroke-width: 1.0;"/><polygon fill="#A80036" points="425.5,781.592,429.5,772.592,425.5,776.592,421.5,772.592,425.5,781.592" style="stroke: #A80036; stroke-width: 1.0;"/><!--link part1.CheeseCake to edu.rosehulman.csse374.cheesecake.Crust--><path d="M1345.82,173 C1188.72,173 904,173 904,173 C904,173 904,813 904,813 C904,813 620.162,813 620.162,813 " fill="none" id="part1.CheeseCake-edu.rosehulman.csse374.cheesecake.Crust" style="stroke: #A80036; stroke-width: 1.0;"/><polygon fill="#A80036" points="615.162,813,624.162,817,620.162,813,624.162,809,615.162,813" style="stroke: #A80036; stroke-width: 1.0;"/><!--link part1.CheeseCake to edu.rosehulman.csse374.cheesecake.Cheese--><path d="M1345.91,171 C1055.59,171 240,171 240,171 C240,171 240,813 240,813 C240,813 329.759,813 329.759,813 " fill="none" id="part1.CheeseCake-edu.rosehulman.csse374.cheesecake.Cheese" style="stroke: #A80036; stroke-width: 1.0;"/><polygon fill="#A80036" points="334.759,813,325.759,809,329.759,813,325.759,817,334.759,813" style="stroke: #A80036; stroke-width: 1.0;"/><!--link part1.ChocolateCheeseCake to part1.Chocolate--><path d="M1093,528.059 C1093,528.059 1093,594.705 1093,594.705 " fill="none" id="part1.ChocolateCheeseCake-part1.Chocolate" style="stroke: #A80036; stroke-width: 1.0;"/><polygon fill="#A80036" points="1093,599.705,1097,590.705,1093,594.705,1089,590.705,1093,599.705" style="stroke: #A80036; stroke-width: 1.0;"/><!--link part1.StrawberryCheeseCake to part1.WhippedTopping--><path d="M1340.5,528.059 C1340.5,528.059 1340.5,608.359 1340.5,608.359 " fill="none" id="part1.StrawberryCheeseCake-part1.WhippedTopping" style="stroke: #A80036; stroke-width: 1.0;"/><polygon fill="#A80036" points="1340.5,613.359,1344.5,604.359,1340.5,608.359,1336.5,604.359,1340.5,613.359" style="stroke: #A80036; stroke-width: 1.0;"/><!--link part2.CandyCheeseCake to part2.Candys--><path d="M2005,528.059 C2005,528.059 2005,615.321 2005,615.321 " fill="none" id="part2.CandyCheeseCake-part2.Candys" style="stroke: #A80036; stroke-width: 1.0;"/><polygon fill="#A80036" points="2005,620.321,2009,611.321,2005,615.321,2001,611.321,2005,620.321" style="stroke: #A80036; stroke-width: 1.0;"/><text fill="#000000" font-family="sans-serif" font-size="13" lengthAdjust="spacingAndGlyphs" textLength="20" x="1982.9375" y="609.7886">1..*</text><!--link part2.CandyCheeseCakeFactory to part2.Candys--><path d="M2096.17,306 C2118.84,306 2135,306 2135,306 C2135,306 2135,652 2135,652 C2135,652 2062.13,652 2062.13,652 " fill="none" id="part2.CandyCheeseCakeFactory-part2.Candys" style="stroke: #A80036; stroke-width: 1.0;"/><polygon fill="#A80036" points="2057.13,652,2066.13,656,2062.13,652,2066.13,648,2057.13,652" style="stroke: #A80036; stroke-width: 1.0;"/><text fill="#000000" font-family="sans-serif" font-size="13" lengthAdjust="spacingAndGlyphs" textLength="20" x="2065.0904" y="648.5672">1..*</text><!--link part1.StrawberryCheeseCake to edu.rosehulman.csse374.cheesecake.PlainCheeseCake--><path d="M1315.5,528.096 C1315.5,561.574 1315.5,599 1315.5,599 C1315.5,599 623.013,599 623.013,599 " fill="none" id="part1.StrawberryCheeseCake-edu.rosehulman.csse374.cheesecake.PlainCheeseCake" style="stroke: #A80036; stroke-width: 1.0; stroke-dasharray: 7.0,7.0;"/><polygon fill="#A80036" points="618.013,599,627.013,603,623.013,599,627.013,595,618.013,599" style="stroke: #A80036; stroke-width: 1.0;"/><!--link part2.CheeseCakeClient to edu.rosehulman.csse374.cheesecake.CheeseCakeUI--><path d="M1869.6,157.233 C1869.6,183.258 1869.6,213 1869.6,213 C1869.6,213 467.5,213 467.5,213 C467.5,213 467.5,255.334 467.5,255.334 " fill="none" id="part2.CheeseCakeClient-edu.rosehulman.csse374.cheesecake.CheeseCakeUI" style="stroke: #A80036; stroke-width: 1.0; stroke-dasharray: 7.0,7.0;"/><polygon fill="#A80036" points="467.5,260.334,471.5,251.334,467.5,255.334,463.5,251.334,467.5,260.334" style="stroke: #A80036; stroke-width: 1.0;"/><!--link part2.CandyCheeseCakeFactory to edu.rosehulman.csse374.cheesecake.CheeseCakeFactory--><path d="M1811.76,361 C1446.07,361 501.625,361 501.625,361 C501.625,361 501.625,429.475 501.625,429.475 " fill="none" id="part2.CandyCheeseCakeFactory-edu.rosehulman.csse374.cheesecake.CheeseCakeFactory" style="stroke: #A80036; stroke-width: 1.0; stroke-dasharray: 7.0,7.0;"/><polygon fill="#A80036" points="501.625,434.475,505.625,425.475,501.625,429.475,497.625,425.475,501.625,434.475" style="stroke: #A80036; stroke-width: 1.0;"/><!--link client.CheeseCakeClient to edu.rosehulman.csse374.cheesecake.CheeseCakeFactory--><path d="M182.177,119 C246.152,119 329.5,119 329.5,119 C329.5,119 329.5,429.439 329.5,429.439 " fill="none" id="client.CheeseCakeClient-edu.rosehulman.csse374.cheesecake.CheeseCakeFactory" style="stroke: #A80036; stroke-width: 1.0; stroke-dasharray: 7.0,7.0;"/><polygon fill="#A80036" points="329.5,434.439,333.5,425.439,329.5,429.439,325.5,425.439,329.5,434.439" style="stroke: #A80036; stroke-width: 1.0;"/><!--link edu.rosehulman.csse374.cheesecake.CheeseCakeUI to edu.rosehulman.csse374.cheesecake.PlainCheeseCake--><path d="M564.5,350.733 C564.5,350.733 564.5,583.977 564.5,583.977 " fill="none" id="edu.rosehulman.csse374.cheesecake.CheeseCakeUI-edu.rosehulman.csse374.cheesecake.PlainCheeseCake" style="stroke: #A80036; stroke-width: 1.0; stroke-dasharray: 7.0,7.0;"/><polygon fill="#A80036" points="564.5,588.977,568.5,579.977,564.5,583.977,560.5,579.977,564.5,588.977" style="stroke: #A80036; stroke-width: 1.0;"/><!--link part2.CheeseCakeClient to edu.rosehulman.csse374.cheesecake.CheeseCakeFactory--><path d="M1840.8,157.445 C1840.8,176.296 1840.8,195 1840.8,195 C1840.8,195 361,195 361,195 C361,195 361,429.357 361,429.357 " fill="none" id="part2.CheeseCakeClient-edu.rosehulman.csse374.cheesecake.CheeseCakeFactory" style="stroke: #A80036; stroke-width: 1.0; stroke-dasharray: 7.0,7.0;"/><polygon fill="#A80036" points="361,434.357,365,425.357,361,429.357,357,425.357,361,434.357" style="stroke: #A80036; stroke-width: 1.0;"/><!--link part2.CandyCheeseCakeFactory to edu.rosehulman.csse374.cheesecake.PlainCheeseCake--><path d="M1811.99,363 C1462.89,363 591,363 591,363 C591,363 591,583.9 591,583.9 " fill="none" id="part2.CandyCheeseCakeFactory-edu.rosehulman.csse374.cheesecake.PlainCheeseCake" style="stroke: #A80036; stroke-width: 1.0; stroke-dasharray: 7.0,7.0;"/><polygon fill="#A80036" points="591,588.9,595,579.9,591,583.9,587,579.9,591,588.9" style="stroke: #A80036; stroke-width: 1.0;"/><!--link part1.CheseCakeClient to part1.CheeseCakeFactoryDecorator--><path d="M1207.25,157.191 C1207.25,157.191 1207.25,248.923 1207.25,248.923 " fill="none" id="part1.CheseCakeClient-part1.CheeseCakeFactoryDecorator" style="stroke: #A80036; stroke-width: 1.0; stroke-dasharray: 7.0,7.0;"/><polygon fill="#A80036" points="1207.25,253.923,1211.25,244.923,1207.25,248.923,1203.25,244.923,1207.25,253.923" style="stroke: #A80036; stroke-width: 1.0;"/><!--link part1.CheseCakeClient to edu.rosehulman.csse374.cheesecake.CheeseCakeUI--><path d="M1190.13,157.112 C1190.13,196.414 1190.13,252 1190.13,252 C1190.13,252 542.5,252 542.5,252 C542.5,252 542.5,255.359 542.5,255.359 " fill="none" id="part1.CheseCakeClient-edu.rosehulman.csse374.cheesecake.CheeseCakeUI" style="stroke: #A80036; stroke-width: 1.0; stroke-dasharray: 7.0,7.0;"/><polygon fill="#A80036" points="542.5,260.359,546.5,251.359,542.5,255.359,538.5,251.359,542.5,260.359" style="stroke: #A80036; stroke-width: 1.0;"/><!--link part1.CheseCakeClient to edu.rosehulman.csse374.cheesecake.CheeseCakeFactory--><path d="M1253.17,157.029 C1253.17,224.702 1253.17,359 1253.17,359 C1253.17,359 465.25,359 465.25,359 C465.25,359 465.25,429.412 465.25,429.412 " fill="none" id="part1.CheseCakeClient-edu.rosehulman.csse374.cheesecake.CheeseCakeFactory" style="stroke: #A80036; stroke-width: 1.0; stroke-dasharray: 7.0,7.0;"/><polygon fill="#A80036" points="465.25,434.412,469.25,425.412,465.25,429.412,461.25,425.412,465.25,434.412" style="stroke: #A80036; stroke-width: 1.0;"/><!--link client.CheeseCakeClient to edu.rosehulman.csse374.cheesecake.CheeseCakeUI--><path d="M110,157.293 C110,212.003 110,306 110,306 C110,306 387.337,306 387.337,306 " fill="none" id="client.CheeseCakeClient-edu.rosehulman.csse374.cheesecake.CheeseCakeUI" style="stroke: #A80036; stroke-width: 1.0; stroke-dasharray: 7.0,7.0;"/><polygon fill="#A80036" points="392.337,306,383.337,302,387.337,306,383.337,310,392.337,306" style="stroke: #A80036; stroke-width: 1.0;"/><!--link edu.rosehulman.csse374.cheesecake.CheeseCakeFactory to edu.rosehulman.csse374.cheesecake.CreamCheese--><path d="M316.75,518.697 C316.75,518.697 316.75,908.901 316.75,908.901 " fill="none" id="edu.rosehulman.csse374.cheesecake.CheeseCakeFactory-edu.rosehulman.csse374.cheesecake.CreamCheese" style="stroke: #A80036; stroke-width: 1.0; stroke-dasharray: 7.0,7.0;"/><polygon fill="#A80036" points="316.75,913.901,320.75,904.901,316.75,908.901,312.75,904.901,316.75,913.901" style="stroke: #A80036; stroke-width: 1.0;"/><!--link part2.CheeseCakeClient to part1.CheeseCakeFactoryDecorator--><path d="M1898.4,157.2 C1898.4,189.308 1898.4,230 1898.4,230 C1898.4,230 1224.38,230 1224.38,230 C1224.38,230 1224.38,248.889 1224.38,248.889 " fill="none" id="part2.CheeseCakeClient-part1.CheeseCakeFactoryDecorator" style="stroke: #A80036; stroke-width: 1.0; stroke-dasharray: 7.0,7.0;"/><polygon fill="#A80036" points="1224.38,253.889,1228.38,244.889,1224.38,248.889,1220.38,244.889,1224.38,253.889" style="stroke: #A80036; stroke-width: 1.0;"/><!--link part1.CheeseCakeFactoryDecorator to part1.ChocolateCheeseCake--><path d="M1093,357.27 C1093,357.27 1093,419.906 1093,419.906 " fill="none" id="part1.CheeseCakeFactoryDecorator-part1.ChocolateCheeseCake" style="stroke: #A80036; stroke-width: 1.0; stroke-dasharray: 7.0,7.0;"/><polygon fill="#A80036" points="1093,424.906,1097,415.906,1093,419.906,1089,415.906,1093,424.906" style="stroke: #A80036; stroke-width: 1.0;"/><!--link part1.CheeseCakeFactoryDecorator to edu.rosehulman.csse374.cheesecake.PlainCheeseCake--><path d="M959.167,357.202 C959.167,439.475 959.167,591 959.167,591 C959.167,591 623.017,591 623.017,591 " fill="none" id="part1.CheeseCakeFactoryDecorator-edu.rosehulman.csse374.cheesecake.PlainCheeseCake" style="stroke: #A80036; stroke-width: 1.0; stroke-dasharray: 7.0,7.0;"/><polygon fill="#A80036" points="618.017,591,627.017,595,623.017,591,627.017,587,618.017,591" style="stroke: #A80036; stroke-width: 1.0;"/><!--link part2.CandyCheeseCakeFactory to part2.CandyCheeseCake--><path d="M1954.25,364.348 C1954.25,364.348 1954.25,419.97 1954.25,419.97 " fill="none" id="part2.CandyCheeseCakeFactory-part2.CandyCheeseCake" style="stroke: #A80036; stroke-width: 1.0; stroke-dasharray: 7.0,7.0;"/><polygon fill="#A80036" points="1954.25,424.97,1958.25,415.97,1954.25,419.97,1950.25,415.97,1954.25,424.97" style="stroke: #A80036; stroke-width: 1.0;"/><!--link edu.rosehulman.csse374.cheesecake.CheeseCakeFactory to edu.rosehulman.csse374.cheesecake.GrahamCrackerCrust--><path d="M373.5,518.748 C373.5,594.362 373.5,745 373.5,745 C373.5,745 484.75,745 484.75,745 C484.75,745 484.75,908.55 484.75,908.55 " fill="none" id="edu.rosehulman.csse374.cheesecake.CheeseCakeFactory-edu.rosehulman.csse374.cheesecake.GrahamCrackerCrust" style="stroke: #A80036; stroke-width: 1.0; stroke-dasharray: 7.0,7.0;"/><polygon fill="#A80036" points="484.75,913.55,488.75,904.55,484.75,908.55,480.75,904.55,484.75,913.55" style="stroke: #A80036; stroke-width: 1.0;"/><!--link part1.CheeseCakeFactoryDecorator to part1.WhippedTopping--><path d="M1232.83,357.3 C1232.83,357.3 1232.83,608.269 1232.83,608.269 " fill="none" id="part1.CheeseCakeFactoryDecorator-part1.WhippedTopping" style="stroke: #A80036; stroke-width: 1.0; stroke-dasharray: 7.0,7.0;"/><polygon fill="#A80036" points="1232.83,613.269,1236.83,604.269,1232.83,608.269,1228.83,604.269,1232.83,613.269" style="stroke: #A80036; stroke-width: 1.0;"/><!--link part1.ChocolateCheeseCake to edu.rosehulman.csse374.cheesecake.PlainCheeseCake--><path d="M1004.5,528.277 C1004.5,559.391 1004.5,593 1004.5,593 C1004.5,593 623.212,593 623.212,593 " fill="none" id="part1.ChocolateCheeseCake-edu.rosehulman.csse374.cheesecake.PlainCheeseCake" style="stroke: #A80036; stroke-width: 1.0; stroke-dasharray: 7.0,7.0;"/><polygon fill="#A80036" points="618.212,593,627.212,597,623.212,593,627.212,589,618.212,593" style="stroke: #A80036; stroke-width: 1.0;"/><!--link edu.rosehulman.csse374.cheesecake.CheeseCakeFactory to edu.rosehulman.csse374.cheesecake.PlainCheeseCake--><path d="M475,518.863 C475,518.863 475,583.665 475,583.665 " fill="none" id="edu.rosehulman.csse374.cheesecake.CheeseCakeFactory-edu.rosehulman.csse374.cheesecake.PlainCheeseCake" style="stroke: #A80036; stroke-width: 1.0; stroke-dasharray: 7.0,7.0;"/><polygon fill="#A80036" points="475,588.665,479,579.665,475,583.665,471,579.665,475,588.665" style="stroke: #A80036; stroke-width: 1.0;"/><!--link part2.CheeseCakeClient to part2.CandyCheeseCakeFactory--><path d="M1927.2,157.191 C1927.2,157.191 1927.2,241.784 1927.2,241.784 " fill="none" id="part2.CheeseCakeClient-part2.CandyCheeseCakeFactory" style="stroke: #A80036; stroke-width: 1.0; stroke-dasharray: 7.0,7.0;"/><polygon fill="#A80036" points="1927.2,246.784,1931.2,237.784,1927.2,241.784,1923.2,237.784,1927.2,246.784" style="stroke: #A80036; stroke-width: 1.0;"/><!--link part1.CheeseCakeFactoryDecorator to edu.rosehulman.csse374.cheesecake.CheeseCakeFactory--><path d="M949.833,357.086 C949.833,414.107 949.833,498 949.833,498 C949.833,498 543.017,498 543.017,498 " fill="none" id="part1.CheeseCakeFactoryDecorator-edu.rosehulman.csse374.cheesecake.CheeseCakeFactory" style="stroke: #A80036; stroke-width: 1.0; stroke-dasharray: 7.0,7.0;"/><polygon fill="#A80036" points="538.017,498,547.017,502,543.017,498,547.017,494,538.017,498" style="stroke: #A80036; stroke-width: 1.0;"/><!--link part1.CheeseCakeFactoryDecorator to part1.StrawberryCheeseCake--><path d="M1237.17,357.376 C1237.17,402.26 1237.17,460 1237.17,460 C1237.17,460 1285.25,460 1285.25,460 " fill="none" id="part1.CheeseCakeFactoryDecorator-part1.StrawberryCheeseCake" style="stroke: #A80036; stroke-width: 1.0; stroke-dasharray: 7.0,7.0;"/><polygon fill="#A80036" points="1290.25,460,1281.25,456,1285.25,460,1281.25,464,1290.25,460" style="stroke: #A80036; stroke-width: 1.0;"/></g></svg>