<?xml version="1.0" encoding="UTF-8" standalone="no"?><svg xmlns="http://www.w3.org/2000/svg" xmlns:xlink="http://www.w3.org/1999/xlink" contentScriptType="application/ecmascript" contentStyleType="text/css" height="575px" preserveAspectRatio="none" style="width:702px;height:575px;" version="1.1" viewBox="0 0 702 575" width="702px" zoomAndPan="magnify"><defs><filter height="300%" id="fogxvsyvi999d" width="300%" x="-1" y="-1"><feGaussianBlur result="blurOut" stdDeviation="2.0"/><feColorMatrix in="blurOut" result="blurOut2" type="matrix" values="0 0 0 0 0 0 0 0 0 0 0 0 0 0 0 0 0 0 .4 0"/><feOffset dx="4.0" dy="4.0" in="blurOut2" result="blurOut3"/><feBlend in="SourceGraphic" in2="blurOut3" mode="normal"/></filter></defs><g><!--cluster problem.client--><polygon fill="#FFFFFF" filter="url(#fogxvsyvi999d)" points="22,31,129,31,136,54.6094,353,54.6094,353,384,22,384,22,31" style="stroke: #000000; stroke-width: 1.5;"/><line style="stroke: #000000; stroke-width: 1.5;" x1="22" x2="136" y1="54.6094" y2="54.6094"/><text fill="#000000" font-family="sans-serif" font-size="14" font-weight="bold" lengthAdjust="spacingAndGlyphs" textLength="101" x="26" y="47.5332">problem.client</text><!--cluster java.util--><polygon fill="#FFFFFF" filter="url(#fogxvsyvi999d)" points="142,408,203,408,210,431.6094,569,431.6094,569,563,142,563,142,408" style="stroke: #000000; stroke-width: 1.5;"/><line style="stroke: #000000; stroke-width: 1.5;" x1="142" x2="210" y1="431.6094" y2="431.6094"/><text fill="#000000" font-family="sans-serif" font-size="14" font-weight="bold" lengthAdjust="spacingAndGlyphs" textLength="55" x="146" y="424.5332">java.util</text><!--cluster problem.lib--><polygon fill="#FFFFFF" filter="url(#fogxvsyvi999d)" points="432,24,517,24,524,47.6094,680,47.6094,680,377.5,432,377.5,432,24" style="stroke: #000000; stroke-width: 1.5;"/><line style="stroke: #000000; stroke-width: 1.5;" x1="432" x2="524" y1="47.6094" y2="47.6094"/><text fill="#000000" font-family="sans-serif" font-size="14" font-weight="bold" lengthAdjust="spacingAndGlyphs" textLength="79" x="436" y="40.5332">problem.lib</text><!--class problem.client.App--><rect fill="#FEFECE" filter="url(#fogxvsyvi999d)" height="75.6719" id="problem.client.App" style="stroke: #A80036; stroke-width: 1.5;" width="113" x="223.5" y="94.5"/><ellipse cx="265.5" cy="110.5" fill="#ADD1B2" rx="11" ry="11" style="stroke: #A80036; stroke-width: 1.0;"/><path d="M268.2656,106.375 Q268.4219,106.1563 268.6094,106.0469 Q268.7969,105.9375 269.0156,105.9375 Q269.3906,105.9375 269.625,106.1953 Q269.8594,106.4531 269.8594,107.0625 L269.8594,108.5156 Q269.8594,109.125 269.625,109.3906 Q269.3906,109.6563 269.0156,109.6563 Q268.6719,109.6563 268.4688,109.4531 Q268.2656,109.2656 268.1563,108.75 Q268.1094,108.3906 267.9219,108.2031 Q267.5938,107.8281 266.9844,107.6094 Q266.375,107.3906 265.75,107.3906 Q264.9844,107.3906 264.3516,107.7188 Q263.7188,108.0469 263.2266,108.7969 Q262.7344,109.5469 262.7344,110.5781 L262.7344,111.6719 Q262.7344,112.9063 263.625,113.7266 Q264.5156,114.5469 266.1094,114.5469 Q267.0469,114.5469 267.7031,114.2969 Q268.0938,114.1406 268.5156,113.7031 Q268.7813,113.4375 268.9297,113.3594 Q269.0781,113.2813 269.2813,113.2813 Q269.6094,113.2813 269.8672,113.5391 Q270.125,113.7969 270.125,114.1406 Q270.125,114.4844 269.7813,114.8906 Q269.2813,115.4688 268.4844,115.7969 Q267.4063,116.25 266.1094,116.25 Q264.5938,116.25 263.3906,115.625 Q262.4063,115.125 261.7188,114.0547 Q261.0313,112.9844 261.0313,111.7031 L261.0313,110.5469 Q261.0313,109.2188 261.6484,108.0703 Q262.2656,106.9219 263.3594,106.3047 Q264.4531,105.6875 265.6875,105.6875 Q266.4219,105.6875 267.0703,105.8516 Q267.7188,106.0156 268.2656,106.375 Z "/><text fill="#000000" font-family="sans-serif" font-size="12" lengthAdjust="spacingAndGlyphs" textLength="21" x="285.5" y="115.4102">App</text><line style="stroke: #A80036; stroke-width: 1.5;" x1="224.5" x2="335.5" y1="126.5" y2="126.5"/><line style="stroke: #A80036; stroke-width: 1.5;" x1="224.5" x2="335.5" y1="134.5" y2="134.5"/><ellipse cx="234.5" cy="146.918" fill="#84BE84" rx="3" ry="3" style="stroke: #038048; stroke-width: 1.0;"/><text fill="#000000" font-family="sans-serif" font-size="11" lengthAdjust="spacingAndGlyphs" textLength="51" x="243.5" y="149.9189">void App()</text><ellipse cx="234.5" cy="160.7539" fill="#84BE84" rx="3" ry="3" style="stroke: #038048; stroke-width: 1.0;"/><text fill="#000000" font-family="sans-serif" font-size="11" lengthAdjust="spacingAndGlyphs" text-decoration="underline" textLength="87" x="243.5" y="163.7549">void main(String[])</text><line style="stroke: #000000; stroke-width: 1.0;" x1="243.5" x2="330.5" y1="165.7549" y2="165.7549"/><!--class problem.client.IteratorToEnum--><rect fill="#FEFECE" filter="url(#fogxvsyvi999d)" height="103.3438" id="problem.client.IteratorToEnum" style="stroke: #A80036; stroke-width: 1.5;" width="163" x="38.5" y="265"/><ellipse cx="74.2" cy="281" fill="#ADD1B2" rx="11" ry="11" style="stroke: #A80036; stroke-width: 1.0;"/><path d="M76.9656,276.875 Q77.1219,276.6563 77.3094,276.5469 Q77.4969,276.4375 77.7156,276.4375 Q78.0906,276.4375 78.325,276.6953 Q78.5594,276.9531 78.5594,277.5625 L78.5594,279.0156 Q78.5594,279.625 78.325,279.8906 Q78.0906,280.1563 77.7156,280.1563 Q77.3719,280.1563 77.1688,279.9531 Q76.9656,279.7656 76.8563,279.25 Q76.8094,278.8906 76.6219,278.7031 Q76.2938,278.3281 75.6844,278.1094 Q75.075,277.8906 74.45,277.8906 Q73.6844,277.8906 73.0516,278.2188 Q72.4188,278.5469 71.9266,279.2969 Q71.4344,280.0469 71.4344,281.0781 L71.4344,282.1719 Q71.4344,283.4063 72.325,284.2266 Q73.2156,285.0469 74.8094,285.0469 Q75.7469,285.0469 76.4031,284.7969 Q76.7938,284.6406 77.2156,284.2031 Q77.4813,283.9375 77.6297,283.8594 Q77.7781,283.7813 77.9813,283.7813 Q78.3094,283.7813 78.5672,284.0391 Q78.825,284.2969 78.825,284.6406 Q78.825,284.9844 78.4813,285.3906 Q77.9813,285.9688 77.1844,286.2969 Q76.1063,286.75 74.8094,286.75 Q73.2938,286.75 72.0906,286.125 Q71.1063,285.625 70.4188,284.5547 Q69.7313,283.4844 69.7313,282.2031 L69.7313,281.0469 Q69.7313,279.7188 70.3484,278.5703 Q70.9656,277.4219 72.0594,276.8047 Q73.1531,276.1875 74.3875,276.1875 Q75.1219,276.1875 75.7703,276.3516 Q76.4188,276.5156 76.9656,276.875 Z "/><text fill="#000000" font-family="sans-serif" font-size="12" lengthAdjust="spacingAndGlyphs" textLength="85" x="92.8" y="285.9102">IteratorToEnum</text><line style="stroke: #A80036; stroke-width: 1.5;" x1="39.5" x2="200.5" y1="297" y2="297"/><rect fill="none" height="6" style="stroke: #C82930; stroke-width: 1.0;" width="6" x="46.5" y="306.418"/><text fill="#000000" font-family="sans-serif" font-size="11" lengthAdjust="spacingAndGlyphs" textLength="34" x="58.5" y="312.4189">iterator</text><line style="stroke: #A80036; stroke-width: 1.5;" x1="39.5" x2="200.5" y1="318.8359" y2="318.8359"/><ellipse cx="49.5" cy="331.2539" fill="#84BE84" rx="3" ry="3" style="stroke: #038048; stroke-width: 1.0;"/><text fill="#000000" font-family="sans-serif" font-size="11" lengthAdjust="spacingAndGlyphs" textLength="137" x="58.5" y="334.2549">void IteratorToEnum(Iterator)</text><ellipse cx="49.5" cy="345.0898" fill="#84BE84" rx="3" ry="3" style="stroke: #038048; stroke-width: 1.0;"/><text fill="#000000" font-family="sans-serif" font-size="11" lengthAdjust="spacingAndGlyphs" textLength="134" x="58.5" y="348.0908">boolean hasMoreElements()</text><ellipse cx="49.5" cy="358.9258" fill="#84BE84" rx="3" ry="3" style="stroke: #038048; stroke-width: 1.0;"/><text fill="#000000" font-family="sans-serif" font-size="11" lengthAdjust="spacingAndGlyphs" textLength="100" x="58.5" y="361.9268">Object nextElement()</text><!--class problem.client.IteratorToEnumTest--><rect fill="#FEFECE" filter="url(#fogxvsyvi999d)" height="131.0156" id="problem.client.IteratorToEnumTest" style="stroke: #A80036; stroke-width: 1.5;" width="150" x="38" y="67"/><ellipse cx="57.05" cy="83" fill="#ADD1B2" rx="11" ry="11" style="stroke: #A80036; stroke-width: 1.0;"/><path d="M59.8156,78.875 Q59.9719,78.6563 60.1594,78.5469 Q60.3469,78.4375 60.5656,78.4375 Q60.9406,78.4375 61.175,78.6953 Q61.4094,78.9531 61.4094,79.5625 L61.4094,81.0156 Q61.4094,81.625 61.175,81.8906 Q60.9406,82.1563 60.5656,82.1563 Q60.2219,82.1563 60.0188,81.9531 Q59.8156,81.7656 59.7063,81.25 Q59.6594,80.8906 59.4719,80.7031 Q59.1438,80.3281 58.5344,80.1094 Q57.925,79.8906 57.3,79.8906 Q56.5344,79.8906 55.9016,80.2188 Q55.2688,80.5469 54.7766,81.2969 Q54.2844,82.0469 54.2844,83.0781 L54.2844,84.1719 Q54.2844,85.4063 55.175,86.2266 Q56.0656,87.0469 57.6594,87.0469 Q58.5969,87.0469 59.2531,86.7969 Q59.6438,86.6406 60.0656,86.2031 Q60.3313,85.9375 60.4797,85.8594 Q60.6281,85.7813 60.8313,85.7813 Q61.1594,85.7813 61.4172,86.0391 Q61.675,86.2969 61.675,86.6406 Q61.675,86.9844 61.3313,87.3906 Q60.8313,87.9688 60.0344,88.2969 Q58.9563,88.75 57.6594,88.75 Q56.1438,88.75 54.9406,88.125 Q53.9563,87.625 53.2688,86.5547 Q52.5813,85.4844 52.5813,84.2031 L52.5813,83.0469 Q52.5813,81.7188 53.1984,80.5703 Q53.8156,79.4219 54.9094,78.8047 Q56.0031,78.1875 57.2375,78.1875 Q57.9719,78.1875 58.6203,78.3516 Q59.2688,78.5156 59.8156,78.875 Z "/><text fill="#000000" font-family="sans-serif" font-size="12" lengthAdjust="spacingAndGlyphs" textLength="109" x="71.95" y="87.9102">IteratorToEnumTest</text><line style="stroke: #A80036; stroke-width: 1.5;" x1="39" x2="187" y1="99" y2="99"/><polygon fill="none" points="49,107.418,45,113.418,53,113.418" style="stroke: #1963A0; stroke-width: 1.0;"/><text fill="#000000" font-family="sans-serif" font-size="11" lengthAdjust="spacingAndGlyphs" textLength="94" x="58" y="114.4189">Vector&lt;String&gt; vec</text><polygon fill="none" points="49,121.2539,45,127.2539,53,127.2539" style="stroke: #1963A0; stroke-width: 1.0;"/><text fill="#000000" font-family="sans-serif" font-size="11" lengthAdjust="spacingAndGlyphs" textLength="34" x="58" y="128.2549">int size</text><line style="stroke: #A80036; stroke-width: 1.5;" x1="39" x2="187" y1="134.6719" y2="134.6719"/><ellipse cx="49" cy="147.0898" fill="#84BE84" rx="3" ry="3" style="stroke: #038048; stroke-width: 1.0;"/><text fill="#000000" font-family="sans-serif" font-size="11" lengthAdjust="spacingAndGlyphs" textLength="124" x="58" y="150.0908">void IteratorToEnumTest()</text><ellipse cx="49" cy="160.9258" fill="#84BE84" rx="3" ry="3" style="stroke: #038048; stroke-width: 1.0;"/><text fill="#000000" font-family="sans-serif" font-size="11" lengthAdjust="spacingAndGlyphs" textLength="59" x="58" y="163.9268">void setUp()</text><ellipse cx="49" cy="174.7617" fill="#84BE84" rx="3" ry="3" style="stroke: #038048; stroke-width: 1.0;"/><text fill="#000000" font-family="sans-serif" font-size="11" lengthAdjust="spacingAndGlyphs" textLength="79" x="58" y="177.7627">void tearDown()</text><ellipse cx="49" cy="188.5977" fill="#84BE84" rx="3" ry="3" style="stroke: #038048; stroke-width: 1.0;"/><text fill="#000000" font-family="sans-serif" font-size="11" lengthAdjust="spacingAndGlyphs" textLength="88" x="58" y="191.5986">void testAdapter()</text><!--class java.util.Iterator--><rect fill="#FEFECE" filter="url(#fogxvsyvi999d)" height="103.3438" id="java.util.Iterator" style="stroke: #A80036; stroke-width: 1.5;" width="193" x="158.5" y="444"/><ellipse cx="231.25" cy="460" fill="#B4A7E5" rx="11" ry="11" style="stroke: #A80036; stroke-width: 1.0;"/><path d="M232.2031,456.6406 L232.2031,463.2969 L233.9219,463.2969 Q234.5313,463.2969 234.7969,463.5313 Q235.0625,463.7656 235.0625,464.1563 Q235.0625,464.5313 234.7969,464.7656 Q234.5313,465 233.9219,465 L228.7813,465 Q228.1719,465 227.9063,464.7656 Q227.6406,464.5313 227.6406,464.1406 Q227.6406,463.7656 227.9063,463.5313 Q228.1719,463.2969 228.7813,463.2969 L230.5,463.2969 L230.5,456.6406 L228.7813,456.6406 Q228.1719,456.6406 227.9063,456.4063 Q227.6406,456.1719 227.6406,455.7813 Q227.6406,455.4063 227.9063,455.1719 Q228.1719,454.9375 228.7813,454.9375 L233.9219,454.9375 Q234.5313,454.9375 234.7969,455.1719 Q235.0625,455.4063 235.0625,455.7813 Q235.0625,456.1719 234.7969,456.4063 Q234.5313,456.6406 233.9219,456.6406 L232.2031,456.6406 Z "/><text fill="#000000" font-family="sans-serif" font-size="12" font-style="italic" lengthAdjust="spacingAndGlyphs" textLength="39" x="251.75" y="464.9102">Iterator</text><line style="stroke: #A80036; stroke-width: 1.5;" x1="159.5" x2="350.5" y1="476" y2="476"/><line style="stroke: #A80036; stroke-width: 1.5;" x1="159.5" x2="350.5" y1="484" y2="484"/><ellipse cx="169.5" cy="496.418" fill="#84BE84" rx="3" ry="3" style="stroke: #038048; stroke-width: 1.0;"/><text fill="#000000" font-family="sans-serif" font-size="11" font-style="italic" lengthAdjust="spacingAndGlyphs" textLength="92" x="178.5" y="499.4189">boolean hasNext()</text><ellipse cx="169.5" cy="510.2539" fill="#84BE84" rx="3" ry="3" style="stroke: #038048; stroke-width: 1.0;"/><text fill="#000000" font-family="sans-serif" font-size="11" font-style="italic" lengthAdjust="spacingAndGlyphs" textLength="66" x="178.5" y="513.2549">Object next()</text><ellipse cx="169.5" cy="524.0898" fill="#84BE84" rx="3" ry="3" style="stroke: #038048; stroke-width: 1.0;"/><text fill="#000000" font-family="sans-serif" font-size="11" lengthAdjust="spacingAndGlyphs" textLength="67" x="178.5" y="527.0908">void remove()</text><ellipse cx="169.5" cy="537.9258" fill="#84BE84" rx="3" ry="3" style="stroke: #038048; stroke-width: 1.0;"/><text fill="#000000" font-family="sans-serif" font-size="11" lengthAdjust="spacingAndGlyphs" textLength="167" x="178.5" y="540.9268">void forEachRemaining(Consumer)</text><!--class java.util.Enumeration--><rect fill="#FEFECE" filter="url(#fogxvsyvi999d)" height="75.6719" id="java.util.Enumeration" style="stroke: #A80036; stroke-width: 1.5;" width="166" x="387" y="457.5"/><ellipse cx="430.35" cy="473.5" fill="#B4A7E5" rx="11" ry="11" style="stroke: #A80036; stroke-width: 1.0;"/><path d="M431.3031,470.1406 L431.3031,476.7969 L433.0219,476.7969 Q433.6313,476.7969 433.8969,477.0313 Q434.1625,477.2656 434.1625,477.6563 Q434.1625,478.0313 433.8969,478.2656 Q433.6313,478.5 433.0219,478.5 L427.8813,478.5 Q427.2719,478.5 427.0063,478.2656 Q426.7406,478.0313 426.7406,477.6406 Q426.7406,477.2656 427.0063,477.0313 Q427.2719,476.7969 427.8813,476.7969 L429.6,476.7969 L429.6,470.1406 L427.8813,470.1406 Q427.2719,470.1406 427.0063,469.9063 Q426.7406,469.6719 426.7406,469.2813 Q426.7406,468.9063 427.0063,468.6719 Q427.2719,468.4375 427.8813,468.4375 L433.0219,468.4375 Q433.6313,468.4375 433.8969,468.6719 Q434.1625,468.9063 434.1625,469.2813 Q434.1625,469.6719 433.8969,469.9063 Q433.6313,470.1406 433.0219,470.1406 L431.3031,470.1406 Z "/><text fill="#000000" font-family="sans-serif" font-size="12" font-style="italic" lengthAdjust="spacingAndGlyphs" textLength="71" x="450.65" y="478.4102">Enumeration</text><line style="stroke: #A80036; stroke-width: 1.5;" x1="388" x2="552" y1="489.5" y2="489.5"/><line style="stroke: #A80036; stroke-width: 1.5;" x1="388" x2="552" y1="497.5" y2="497.5"/><ellipse cx="398" cy="509.918" fill="#84BE84" rx="3" ry="3" style="stroke: #038048; stroke-width: 1.0;"/><text fill="#000000" font-family="sans-serif" font-size="11" font-style="italic" lengthAdjust="spacingAndGlyphs" textLength="140" x="407" y="512.9189">boolean hasMoreElements()</text><ellipse cx="398" cy="523.7539" fill="#84BE84" rx="3" ry="3" style="stroke: #038048; stroke-width: 1.0;"/><text fill="#000000" font-family="sans-serif" font-size="11" font-style="italic" lengthAdjust="spacingAndGlyphs" textLength="106" x="407" y="526.7549">Object nextElement()</text><!--class problem.lib.LinearTransformer--><rect fill="#FEFECE" filter="url(#fogxvsyvi999d)" height="89.5078" id="problem.lib.LinearTransformer" style="stroke: #A80036; stroke-width: 1.5;" width="206" x="450" y="271.5"/><ellipse cx="497.25" cy="287.5" fill="#ADD1B2" rx="11" ry="11" style="stroke: #A80036; stroke-width: 1.0;"/><path d="M500.0156,283.375 Q500.1719,283.1563 500.3594,283.0469 Q500.5469,282.9375 500.7656,282.9375 Q501.1406,282.9375 501.375,283.1953 Q501.6094,283.4531 501.6094,284.0625 L501.6094,285.5156 Q501.6094,286.125 501.375,286.3906 Q501.1406,286.6563 500.7656,286.6563 Q500.4219,286.6563 500.2188,286.4531 Q500.0156,286.2656 499.9063,285.75 Q499.8594,285.3906 499.6719,285.2031 Q499.3438,284.8281 498.7344,284.6094 Q498.125,284.3906 497.5,284.3906 Q496.7344,284.3906 496.1016,284.7188 Q495.4688,285.0469 494.9766,285.7969 Q494.4844,286.5469 494.4844,287.5781 L494.4844,288.6719 Q494.4844,289.9063 495.375,290.7266 Q496.2656,291.5469 497.8594,291.5469 Q498.7969,291.5469 499.4531,291.2969 Q499.8438,291.1406 500.2656,290.7031 Q500.5313,290.4375 500.6797,290.3594 Q500.8281,290.2813 501.0313,290.2813 Q501.3594,290.2813 501.6172,290.5391 Q501.875,290.7969 501.875,291.1406 Q501.875,291.4844 501.5313,291.8906 Q501.0313,292.4688 500.2344,292.7969 Q499.1563,293.25 497.8594,293.25 Q496.3438,293.25 495.1406,292.625 Q494.1563,292.125 493.4688,291.0547 Q492.7813,289.9844 492.7813,288.7031 L492.7813,287.5469 Q492.7813,286.2188 493.3984,285.0703 Q494.0156,283.9219 495.1094,283.3047 Q496.2031,282.6875 497.4375,282.6875 Q498.1719,282.6875 498.8203,282.8516 Q499.4688,283.0156 500.0156,283.375 Z "/><text fill="#000000" font-family="sans-serif" font-size="12" lengthAdjust="spacingAndGlyphs" textLength="103" x="517.75" y="292.4102">LinearTransformer</text><line style="stroke: #A80036; stroke-width: 1.5;" x1="451" x2="655" y1="303.5" y2="303.5"/><rect fill="none" height="6" style="stroke: #C82930; stroke-width: 1.0;" width="6" x="458" y="312.918"/><text fill="#000000" font-family="sans-serif" font-size="11" lengthAdjust="spacingAndGlyphs" textLength="46" x="470" y="318.9189">enumTion</text><line style="stroke: #A80036; stroke-width: 1.5;" x1="451" x2="655" y1="325.3359" y2="325.3359"/><ellipse cx="461" cy="337.7539" fill="#84BE84" rx="3" ry="3" style="stroke: #038048; stroke-width: 1.0;"/><text fill="#000000" font-family="sans-serif" font-size="11" lengthAdjust="spacingAndGlyphs" textLength="180" x="470" y="340.7549">void LinearTransformer(Enumeration)</text><ellipse cx="461" cy="351.5898" fill="#84BE84" rx="3" ry="3" style="stroke: #038048; stroke-width: 1.0;"/><text fill="#000000" font-family="sans-serif" font-size="11" lengthAdjust="spacingAndGlyphs" textLength="144" x="470" y="354.5908">void transform(OutputStream)</text><!--class problem.lib.LinearTransformerTest--><rect fill="#FEFECE" filter="url(#fogxvsyvi999d)" height="144.8516" id="problem.lib.LinearTransformerTest" style="stroke: #A80036; stroke-width: 1.5;" width="216" x="448" y="60"/><ellipse cx="488.65" cy="76" fill="#ADD1B2" rx="11" ry="11" style="stroke: #A80036; stroke-width: 1.0;"/><path d="M491.4156,71.875 Q491.5719,71.6563 491.7594,71.5469 Q491.9469,71.4375 492.1656,71.4375 Q492.5406,71.4375 492.775,71.6953 Q493.0094,71.9531 493.0094,72.5625 L493.0094,74.0156 Q493.0094,74.625 492.775,74.8906 Q492.5406,75.1563 492.1656,75.1563 Q491.8219,75.1563 491.6188,74.9531 Q491.4156,74.7656 491.3063,74.25 Q491.2594,73.8906 491.0719,73.7031 Q490.7438,73.3281 490.1344,73.1094 Q489.525,72.8906 488.9,72.8906 Q488.1344,72.8906 487.5016,73.2188 Q486.8688,73.5469 486.3766,74.2969 Q485.8844,75.0469 485.8844,76.0781 L485.8844,77.1719 Q485.8844,78.4063 486.775,79.2266 Q487.6656,80.0469 489.2594,80.0469 Q490.1969,80.0469 490.8531,79.7969 Q491.2438,79.6406 491.6656,79.2031 Q491.9313,78.9375 492.0797,78.8594 Q492.2281,78.7813 492.4313,78.7813 Q492.7594,78.7813 493.0172,79.0391 Q493.275,79.2969 493.275,79.6406 Q493.275,79.9844 492.9313,80.3906 Q492.4313,80.9688 491.6344,81.2969 Q490.5563,81.75 489.2594,81.75 Q487.7438,81.75 486.5406,81.125 Q485.5563,80.625 484.8688,79.5547 Q484.1813,78.4844 484.1813,77.2031 L484.1813,76.0469 Q484.1813,74.7188 484.7984,73.5703 Q485.4156,72.4219 486.5094,71.8047 Q487.6031,71.1875 488.8375,71.1875 Q489.5719,71.1875 490.2203,71.3516 Q490.8688,71.5156 491.4156,71.875 Z "/><text fill="#000000" font-family="sans-serif" font-size="12" lengthAdjust="spacingAndGlyphs" textLength="127" x="508.35" y="80.9102">LinearTransformerTest</text><line style="stroke: #A80036; stroke-width: 1.5;" x1="449" x2="663" y1="92" y2="92"/><polygon fill="none" points="459,100.418,455,106.418,463,106.418" style="stroke: #1963A0; stroke-width: 1.0;"/><text fill="#000000" font-family="sans-serif" font-size="11" lengthAdjust="spacingAndGlyphs" textLength="190" x="468" y="107.4189">LinearTransformer&lt;String&gt; transformer</text><polygon fill="none" points="459,114.2539,455,120.2539,463,120.2539" style="stroke: #1963A0; stroke-width: 1.0;"/><text fill="#000000" font-family="sans-serif" font-size="11" lengthAdjust="spacingAndGlyphs" textLength="76" x="468" y="121.2549">String expected</text><polygon fill="none" points="459,128.0898,455,134.0898,463,134.0898" style="stroke: #1963A0; stroke-width: 1.0;"/><text fill="#000000" font-family="sans-serif" font-size="11" lengthAdjust="spacingAndGlyphs" textLength="34" x="468" y="135.0908">int size</text><line style="stroke: #A80036; stroke-width: 1.5;" x1="449" x2="663" y1="141.5078" y2="141.5078"/><ellipse cx="459" cy="153.9258" fill="#84BE84" rx="3" ry="3" style="stroke: #038048; stroke-width: 1.0;"/><text fill="#000000" font-family="sans-serif" font-size="11" lengthAdjust="spacingAndGlyphs" textLength="142" x="468" y="156.9268">void LinearTransformerTest()</text><ellipse cx="459" cy="167.7617" fill="#84BE84" rx="3" ry="3" style="stroke: #038048; stroke-width: 1.0;"/><text fill="#000000" font-family="sans-serif" font-size="11" lengthAdjust="spacingAndGlyphs" textLength="59" x="468" y="170.7627">void setUp()</text><ellipse cx="459" cy="181.5977" fill="#84BE84" rx="3" ry="3" style="stroke: #038048; stroke-width: 1.0;"/><text fill="#000000" font-family="sans-serif" font-size="11" lengthAdjust="spacingAndGlyphs" textLength="79" x="468" y="184.5986">void tearDown()</text><ellipse cx="459" cy="195.4336" fill="#84BE84" rx="3" ry="3" style="stroke: #038048; stroke-width: 1.0;"/><text fill="#000000" font-family="sans-serif" font-size="11" lengthAdjust="spacingAndGlyphs" textLength="99" x="468" y="198.4346">void testTransform()</text><!--link java.util.Enumeration to problem.client.IteratorToEnum--><path d="M402.25,437.167 C402.25,437.167 402.25,332 402.25,332 C402.25,332 284.998,332 201.638,332 " fill="none" id="java.util.Enumeration-problem.client.IteratorToEnum" style="stroke: #A80036; stroke-width: 1.0; stroke-dasharray: 7.0,7.0;"/><polygon fill="none" points="409.25,437.167,402.25,457.167,395.25,437.166,409.25,437.167" style="stroke: #A80036; stroke-width: 1.0;"/><!--link problem.client.IteratorToEnumTest to java.util.Iterator--><path d="M188.16,189 C202.166,189 212.5,189 212.5,189 C212.5,189 212.5,438.853 212.5,438.853 " fill="none" id="problem.client.IteratorToEnumTest-java.util.Iterator" style="stroke: #A80036; stroke-width: 1.0; stroke-dasharray: 7.0,7.0;"/><polygon fill="#A80036" points="212.5,443.853,216.5,434.853,212.5,438.853,208.5,434.853,212.5,443.853" style="stroke: #A80036; stroke-width: 1.0;"/><!--link problem.lib.LinearTransformerTest to java.util.Enumeration--><path d="M447.863,202 C438.648,202 432.75,202 432.75,202 C432.75,202 432.75,452.431 432.75,452.431 " fill="none" id="problem.lib.LinearTransformerTest-java.util.Enumeration" style="stroke: #A80036; stroke-width: 1.0; stroke-dasharray: 7.0,7.0;"/><polygon fill="#A80036" points="432.75,457.431,436.75,448.431,432.75,452.431,428.75,448.431,432.75,457.431" style="stroke: #A80036; stroke-width: 1.0;"/><!--link problem.client.App to problem.client.IteratorToEnum--><path d="M223.137,133 C207.499,133 194.75,133 194.75,133 C194.75,133 194.75,259.897 194.75,259.897 " fill="none" id="problem.client.App-problem.client.IteratorToEnum" style="stroke: #A80036; stroke-width: 1.0; stroke-dasharray: 7.0,7.0;"/><polygon fill="#A80036" points="194.75,264.897,198.75,255.897,194.75,259.897,190.75,255.897,194.75,264.897" style="stroke: #A80036; stroke-width: 1.0;"/><!--link problem.client.App to problem.lib.LinearTransformer--><path d="M298.833,170.539 C298.833,220.513 298.833,302 298.833,302 C298.833,302 444.987,302 444.987,302 " fill="none" id="problem.client.App-problem.lib.LinearTransformer" style="stroke: #A80036; stroke-width: 1.0; stroke-dasharray: 7.0,7.0;"/><polygon fill="#A80036" points="449.987,302,440.987,298,444.987,302,440.987,306,449.987,302" style="stroke: #A80036; stroke-width: 1.0;"/><!--link problem.client.IteratorToEnumTest to java.util.Enumeration--><path d="M188.27,180 C278.441,180 417.5,180 417.5,180 C417.5,180 417.5,452.443 417.5,452.443 " fill="none" id="problem.client.IteratorToEnumTest-java.util.Enumeration" style="stroke: #A80036; stroke-width: 1.0; stroke-dasharray: 7.0,7.0;"/><polygon fill="#A80036" points="417.5,457.443,421.5,448.443,417.5,452.443,413.5,448.443,417.5,457.443" style="stroke: #A80036; stroke-width: 1.0;"/><!--link problem.client.IteratorToEnumTest to problem.client.IteratorToEnum--><path d="M113.25,198.149 C113.25,198.149 113.25,259.754 113.25,259.754 " fill="none" id="problem.client.IteratorToEnumTest-problem.client.IteratorToEnum" style="stroke: #A80036; stroke-width: 1.0; stroke-dasharray: 7.0,7.0;"/><polygon fill="#A80036" points="113.25,264.754,117.25,255.754,113.25,259.754,109.25,255.754,113.25,264.754" style="stroke: #A80036; stroke-width: 1.0;"/><!--link problem.client.App to java.util.Iterator--><path d="M261.167,170.661 C261.167,170.661 261.167,438.937 261.167,438.937 " fill="none" id="problem.client.App-java.util.Iterator" style="stroke: #A80036; stroke-width: 1.0; stroke-dasharray: 7.0,7.0;"/><polygon fill="#A80036" points="261.167,443.937,265.167,434.937,261.167,438.937,257.167,434.937,261.167,443.937" style="stroke: #A80036; stroke-width: 1.0;"/><!--link problem.client.IteratorToEnum to java.util.Iterator--><path d="M180,368.274 C180,368.274 180,438.842 180,438.842 " fill="none" id="problem.client.IteratorToEnum-java.util.Iterator" style="stroke: #A80036; stroke-width: 1.0;"/><polygon fill="#A80036" points="180,443.842,184,434.842,180,438.842,176,434.842,180,443.842" style="stroke: #A80036; stroke-width: 1.0;"/><!--link problem.lib.LinearTransformer to java.util.Enumeration--><path d="M501.5,361.669 C501.5,361.669 501.5,452.313 501.5,452.313 " fill="none" id="problem.lib.LinearTransformer-java.util.Enumeration" style="stroke: #A80036; stroke-width: 1.0;"/><polygon fill="#A80036" points="501.5,457.313,505.5,448.313,501.5,452.313,497.5,448.313,501.5,457.313" style="stroke: #A80036; stroke-width: 1.0;"/><!--link problem.lib.LinearTransformerTest to problem.lib.LinearTransformer--><path d="M553,205.222 C553,205.222 553,266.304 553,266.304 " fill="none" id="problem.lib.LinearTransformerTest-problem.lib.LinearTransformer" style="stroke: #A80036; stroke-width: 1.0;"/><polygon fill="#A80036" points="553,271.304,557,262.304,553,266.304,549,262.304,553,271.304" style="stroke: #A80036; stroke-width: 1.0;"/></g></svg>