<?xml version="1.0" encoding="UTF-8" standalone="no"?><svg xmlns="http://www.w3.org/2000/svg" xmlns:xlink="http://www.w3.org/1999/xlink" contentScriptType="application/ecmascript" contentStyleType="text/css" height="1312px" preserveAspectRatio="none" style="width:840px;height:1312px;" version="1.1" viewBox="0 0 840 1312" width="840px" zoomAndPan="magnify"><defs><filter height="300%" id="fkiln4a25zygv" width="300%" x="-1" y="-1"><feGaussianBlur result="blurOut" stdDeviation="2.0"/><feColorMatrix in="blurOut" result="blurOut2" type="matrix" values="0 0 0 0 0 0 0 0 0 0 0 0 0 0 0 0 0 0 .4 0"/><feOffset dx="4.0" dy="4.0" in="blurOut2" result="blurOut3"/><feBlend in="SourceGraphic" in2="blurOut3" mode="normal"/></filter></defs><g><!--cluster java.lang--><polygon fill="#FFFFFF" filter="url(#fkiln4a25zygv)" points="291.5,398,360.5,398,367.5,421.6094,818.5,421.6094,818.5,1300,291.5,1300,291.5,398" style="stroke: #000000; stroke-width: 1.5;"/><line style="stroke: #000000; stroke-width: 1.5;" x1="291.5" x2="367.5" y1="421.6094" y2="421.6094"/><text fill="#000000" font-family="sans-serif" font-size="14" font-weight="bold" lengthAdjust="spacingAndGlyphs" textLength="63" x="295.5" y="414.5332">java.lang</text><!--class java.lang.SecurityManager--><rect fill="#FEFECE" filter="url(#fkiln4a25zygv)" height="850.4844" id="java.lang.SecurityManager" style="stroke: #A80036; stroke-width: 1.5;" width="224" x="578.5" y="434"/><ellipse cx="640.75" cy="450" fill="#ADD1B2" rx="11" ry="11" style="stroke: #A80036; stroke-width: 1.0;"/><path d="M643.5156,445.875 Q643.6719,445.6563 643.8594,445.5469 Q644.0469,445.4375 644.2656,445.4375 Q644.6406,445.4375 644.875,445.6953 Q645.1094,445.9531 645.1094,446.5625 L645.1094,448.0156 Q645.1094,448.625 644.875,448.8906 Q644.6406,449.1563 644.2656,449.1563 Q643.9219,449.1563 643.7188,448.9531 Q643.5156,448.7656 643.4063,448.25 Q643.3594,447.8906 643.1719,447.7031 Q642.8438,447.3281 642.2344,447.1094 Q641.625,446.8906 641,446.8906 Q640.2344,446.8906 639.6016,447.2188 Q638.9688,447.5469 638.4766,448.2969 Q637.9844,449.0469 637.9844,450.0781 L637.9844,451.1719 Q637.9844,452.4063 638.875,453.2266 Q639.7656,454.0469 641.3594,454.0469 Q642.2969,454.0469 642.9531,453.7969 Q643.3438,453.6406 643.7656,453.2031 Q644.0313,452.9375 644.1797,452.8594 Q644.3281,452.7813 644.5313,452.7813 Q644.8594,452.7813 645.1172,453.0391 Q645.375,453.2969 645.375,453.6406 Q645.375,453.9844 645.0313,454.3906 Q644.5313,454.9688 643.7344,455.2969 Q642.6563,455.75 641.3594,455.75 Q639.8438,455.75 638.6406,455.125 Q637.6563,454.625 636.9688,453.5547 Q636.2813,452.4844 636.2813,451.2031 L636.2813,450.0469 Q636.2813,448.7188 636.8984,447.5703 Q637.5156,446.4219 638.6094,445.8047 Q639.7031,445.1875 640.9375,445.1875 Q641.6719,445.1875 642.3203,445.3516 Q642.9688,445.5156 643.5156,445.875 Z "/><text fill="#000000" font-family="sans-serif" font-size="12" lengthAdjust="spacingAndGlyphs" textLength="91" x="661.25" y="454.9102">SecurityManager</text><line style="stroke: #A80036; stroke-width: 1.5;" x1="579.5" x2="801.5" y1="466" y2="466"/><polygon fill="none" points="589.5,473.418,593.5,477.418,589.5,481.418,585.5,477.418" style="stroke: #B38D22; stroke-width: 1.0;"/><text fill="#000000" font-family="sans-serif" font-size="11" lengthAdjust="spacingAndGlyphs" textLength="79" x="598.5" y="481.4189">boolean inCheck</text><rect fill="none" height="6" style="stroke: #C82930; stroke-width: 1.0;" width="6" x="586.5" y="489.2539"/><text fill="#000000" font-family="sans-serif" font-size="11" lengthAdjust="spacingAndGlyphs" textLength="84" x="598.5" y="495.2549">boolean initialized</text><rect fill="none" height="6" style="stroke: #C82930; stroke-width: 1.0;" width="6" x="586.5" y="503.0898"/><text fill="#000000" font-family="sans-serif" font-size="11" lengthAdjust="spacingAndGlyphs" text-decoration="underline" textLength="116" x="598.5" y="509.0908">ThreadGroup rootGroup</text><line style="stroke: #000000; stroke-width: 1.0;" x1="598.5" x2="714.5" y1="511.0908" y2="511.0908"/><rect fill="none" height="6" style="stroke: #C82930; stroke-width: 1.0;" width="6" x="586.5" y="516.9258"/><text fill="#000000" font-family="sans-serif" font-size="11" lengthAdjust="spacingAndGlyphs" text-decoration="underline" textLength="144" x="598.5" y="522.9268">boolean packageAccessValid</text><line style="stroke: #000000; stroke-width: 1.0;" x1="598.5" x2="742.5" y1="524.9268" y2="524.9268"/><rect fill="none" height="6" style="stroke: #C82930; stroke-width: 1.0;" width="6" x="586.5" y="530.7617"/><text fill="#000000" font-family="sans-serif" font-size="11" lengthAdjust="spacingAndGlyphs" text-decoration="underline" textLength="116" x="598.5" y="536.7627">String[] packageAccess</text><line style="stroke: #000000; stroke-width: 1.0;" x1="598.5" x2="714.5" y1="538.7627" y2="538.7627"/><rect fill="none" height="6" style="stroke: #C82930; stroke-width: 1.0;" width="6" x="586.5" y="544.5977"/><text fill="#000000" font-family="sans-serif" font-size="11" lengthAdjust="spacingAndGlyphs" text-decoration="underline" textLength="136" x="598.5" y="550.5986">Object packageAccessLock</text><line style="stroke: #000000; stroke-width: 1.0;" x1="598.5" x2="734.5" y1="552.5986" y2="552.5986"/><rect fill="none" height="6" style="stroke: #C82930; stroke-width: 1.0;" width="6" x="586.5" y="558.4336"/><text fill="#000000" font-family="sans-serif" font-size="11" lengthAdjust="spacingAndGlyphs" text-decoration="underline" textLength="150" x="598.5" y="564.4346">boolean packageDefinitionValid</text><line style="stroke: #000000; stroke-width: 1.0;" x1="598.5" x2="748.5" y1="566.4346" y2="566.4346"/><rect fill="none" height="6" style="stroke: #C82930; stroke-width: 1.0;" width="6" x="586.5" y="572.2695"/><text fill="#000000" font-family="sans-serif" font-size="11" lengthAdjust="spacingAndGlyphs" text-decoration="underline" textLength="122" x="598.5" y="578.2705">String[] packageDefinition</text><line style="stroke: #000000; stroke-width: 1.0;" x1="598.5" x2="720.5" y1="580.2705" y2="580.2705"/><rect fill="none" height="6" style="stroke: #C82930; stroke-width: 1.0;" width="6" x="586.5" y="586.1055"/><text fill="#000000" font-family="sans-serif" font-size="11" lengthAdjust="spacingAndGlyphs" text-decoration="underline" textLength="142" x="598.5" y="592.1064">Object packageDefinitionLock</text><line style="stroke: #000000; stroke-width: 1.0;" x1="598.5" x2="740.5" y1="594.1064" y2="594.1064"/><line style="stroke: #A80036; stroke-width: 1.5;" x1="579.5" x2="801.5" y1="598.5234" y2="598.5234"/><rect fill="#F24D5C" height="6" style="stroke: #C82930; stroke-width: 1.0;" width="6" x="586.5" y="607.9414"/><text fill="#000000" font-family="sans-serif" font-size="11" lengthAdjust="spacingAndGlyphs" textLength="131" x="598.5" y="613.9424">boolean hasAllPermission()</text><ellipse cx="589.5" cy="624.7773" fill="#84BE84" rx="3" ry="3" style="stroke: #038048; stroke-width: 1.0;"/><text fill="#000000" font-family="sans-serif" font-size="11" lengthAdjust="spacingAndGlyphs" textLength="102" x="598.5" y="627.7783">boolean getInCheck()</text><ellipse cx="589.5" cy="638.6133" fill="#84BE84" rx="3" ry="3" style="stroke: #038048; stroke-width: 1.0;"/><text fill="#000000" font-family="sans-serif" font-size="11" lengthAdjust="spacingAndGlyphs" textLength="113" x="598.5" y="641.6143">void SecurityManager()</text><polygon fill="#FFFF44" points="589.5,647.4492,593.5,651.4492,589.5,655.4492,585.5,651.4492" style="stroke: #B38D22; stroke-width: 1.0;"/><text fill="#000000" font-family="sans-serif" font-size="11" lengthAdjust="spacingAndGlyphs" textLength="123" x="598.5" y="655.4502">Class[] getClassContext()</text><polygon fill="#FFFF44" points="589.5,661.2852,593.5,665.2852,589.5,669.2852,585.5,665.2852" style="stroke: #B38D22; stroke-width: 1.0;"/><text fill="#000000" font-family="sans-serif" font-size="11" lengthAdjust="spacingAndGlyphs" textLength="168" x="598.5" y="669.2861">ClassLoader currentClassLoader()</text><rect fill="#F24D5C" height="6" style="stroke: #C82930; stroke-width: 1.0;" width="6" x="586.5" y="677.1211"/><text fill="#000000" font-family="sans-serif" font-size="11" lengthAdjust="spacingAndGlyphs" textLength="174" x="598.5" y="683.1221">ClassLoader currentClassLoader0()</text><polygon fill="#FFFF44" points="589.5,688.957,593.5,692.957,589.5,696.957,585.5,692.957" style="stroke: #B38D22; stroke-width: 1.0;"/><text fill="#000000" font-family="sans-serif" font-size="11" lengthAdjust="spacingAndGlyphs" textLength="148" x="598.5" y="696.958">Class&lt;*&gt; currentLoadedClass)</text><polygon fill="#FFFF44" points="589.5,702.793,593.5,706.793,589.5,710.793,585.5,706.793" style="stroke: #B38D22; stroke-width: 1.0;"/><text fill="#000000" font-family="sans-serif" font-size="11" lengthAdjust="spacingAndGlyphs" textLength="104" x="598.5" y="710.7939">int classDepth(String)</text><polygon fill="#FFFF44" points="589.5,716.6289,593.5,720.6289,589.5,724.6289,585.5,720.6289" style="stroke: #B38D22; stroke-width: 1.0;"/><text fill="#000000" font-family="sans-serif" font-size="11" lengthAdjust="spacingAndGlyphs" textLength="110" x="598.5" y="724.6299">int classLoaderDepth()</text><rect fill="#F24D5C" height="6" style="stroke: #C82930; stroke-width: 1.0;" width="6" x="586.5" y="732.4648"/><text fill="#000000" font-family="sans-serif" font-size="11" lengthAdjust="spacingAndGlyphs" textLength="116" x="598.5" y="738.4658">int classLoaderDepth0()</text><polygon fill="#FFFF44" points="589.5,744.3008,593.5,748.3008,589.5,752.3008,585.5,748.3008" style="stroke: #B38D22; stroke-width: 1.0;"/><text fill="#000000" font-family="sans-serif" font-size="11" lengthAdjust="spacingAndGlyphs" textLength="112" x="598.5" y="752.3018">boolean inClass(String)</text><polygon fill="#FFFF44" points="589.5,758.1367,593.5,762.1367,589.5,766.1367,585.5,762.1367" style="stroke: #B38D22; stroke-width: 1.0;"/><text fill="#000000" font-family="sans-serif" font-size="11" lengthAdjust="spacingAndGlyphs" textLength="118" x="598.5" y="766.1377">boolean inClassLoader()</text><ellipse cx="589.5" cy="776.9727" fill="#84BE84" rx="3" ry="3" style="stroke: #038048; stroke-width: 1.0;"/><text fill="#000000" font-family="sans-serif" font-size="11" lengthAdjust="spacingAndGlyphs" textLength="134" x="598.5" y="779.9736">Object getSecurityContext()</text><ellipse cx="589.5" cy="790.8086" fill="#84BE84" rx="3" ry="3" style="stroke: #038048; stroke-width: 1.0;"/><text fill="#000000" font-family="sans-serif" font-size="11" lengthAdjust="spacingAndGlyphs" textLength="164" x="598.5" y="793.8096">void checkPermission(Permission)</text><ellipse cx="589.5" cy="804.6445" fill="#84BE84" rx="3" ry="3" style="stroke: #038048; stroke-width: 1.0;"/><text fill="#000000" font-family="sans-serif" font-size="11" lengthAdjust="spacingAndGlyphs" textLength="198" x="598.5" y="807.6455">void checkPermission(Permission,Object)</text><ellipse cx="589.5" cy="818.4805" fill="#84BE84" rx="3" ry="3" style="stroke: #038048; stroke-width: 1.0;"/><text fill="#000000" font-family="sans-serif" font-size="11" lengthAdjust="spacingAndGlyphs" textLength="153" x="598.5" y="821.4814">void checkCreateClassLoader()</text><rect fill="#F24D5C" height="6" style="stroke: #C82930; stroke-width: 1.0;" width="6" x="586.5" y="829.3164"/><text fill="#000000" font-family="sans-serif" font-size="11" lengthAdjust="spacingAndGlyphs" text-decoration="underline" textLength="142" x="598.5" y="835.3174">ThreadGroup getRootGroup()</text><line style="stroke: #000000; stroke-width: 1.0;" x1="598.5" x2="740.5" y1="837.3174" y2="837.3174"/><ellipse cx="589.5" cy="846.1523" fill="#84BE84" rx="3" ry="3" style="stroke: #038048; stroke-width: 1.0;"/><text fill="#000000" font-family="sans-serif" font-size="11" lengthAdjust="spacingAndGlyphs" textLength="132" x="598.5" y="849.1533">void checkAccess(Thread)</text><ellipse cx="589.5" cy="859.9883" fill="#84BE84" rx="3" ry="3" style="stroke: #038048; stroke-width: 1.0;"/><text fill="#000000" font-family="sans-serif" font-size="11" lengthAdjust="spacingAndGlyphs" textLength="162" x="598.5" y="862.9893">void checkAccess(ThreadGroup)</text><ellipse cx="589.5" cy="873.8242" fill="#84BE84" rx="3" ry="3" style="stroke: #038048; stroke-width: 1.0;"/><text fill="#000000" font-family="sans-serif" font-size="11" lengthAdjust="spacingAndGlyphs" textLength="88" x="598.5" y="876.8252">void checkExit(int)</text><ellipse cx="589.5" cy="887.6602" fill="#84BE84" rx="3" ry="3" style="stroke: #038048; stroke-width: 1.0;"/><text fill="#000000" font-family="sans-serif" font-size="11" lengthAdjust="spacingAndGlyphs" textLength="112" x="598.5" y="890.6611">void checkExec(String)</text><ellipse cx="589.5" cy="901.4961" fill="#84BE84" rx="3" ry="3" style="stroke: #038048; stroke-width: 1.0;"/><text fill="#000000" font-family="sans-serif" font-size="11" lengthAdjust="spacingAndGlyphs" textLength="107" x="598.5" y="904.4971">void checkLink(String)</text><ellipse cx="589.5" cy="915.332" fill="#84BE84" rx="3" ry="3" style="stroke: #038048; stroke-width: 1.0;"/><text fill="#000000" font-family="sans-serif" font-size="11" lengthAdjust="spacingAndGlyphs" textLength="151" x="598.5" y="918.333">void checkRead(FileDescriptor)</text><ellipse cx="589.5" cy="929.168" fill="#84BE84" rx="3" ry="3" style="stroke: #038048; stroke-width: 1.0;"/><text fill="#000000" font-family="sans-serif" font-size="11" lengthAdjust="spacingAndGlyphs" textLength="113" x="598.5" y="932.1689">void checkRead(String)</text><ellipse cx="589.5" cy="943.0039" fill="#84BE84" rx="3" ry="3" style="stroke: #038048; stroke-width: 1.0;"/><text fill="#000000" font-family="sans-serif" font-size="11" lengthAdjust="spacingAndGlyphs" textLength="147" x="598.5" y="946.0049">void checkRead(String,Object)</text><ellipse cx="589.5" cy="956.8398" fill="#84BE84" rx="3" ry="3" style="stroke: #038048; stroke-width: 1.0;"/><text fill="#000000" font-family="sans-serif" font-size="11" lengthAdjust="spacingAndGlyphs" textLength="151" x="598.5" y="959.8408">void checkWrite(FileDescriptor)</text><ellipse cx="589.5" cy="970.6758" fill="#84BE84" rx="3" ry="3" style="stroke: #038048; stroke-width: 1.0;"/><text fill="#000000" font-family="sans-serif" font-size="11" lengthAdjust="spacingAndGlyphs" textLength="113" x="598.5" y="973.6768">void checkWrite(String)</text><ellipse cx="589.5" cy="984.5117" fill="#84BE84" rx="3" ry="3" style="stroke: #038048; stroke-width: 1.0;"/><text fill="#000000" font-family="sans-serif" font-size="11" lengthAdjust="spacingAndGlyphs" textLength="118" x="598.5" y="987.5127">void checkDelete(String)</text><ellipse cx="589.5" cy="998.3477" fill="#84BE84" rx="3" ry="3" style="stroke: #038048; stroke-width: 1.0;"/><text fill="#000000" font-family="sans-serif" font-size="11" lengthAdjust="spacingAndGlyphs" textLength="142" x="598.5" y="1001.3486">void checkConnect(String,int)</text><ellipse cx="589.5" cy="1012.1836" fill="#84BE84" rx="3" ry="3" style="stroke: #038048; stroke-width: 1.0;"/><text fill="#000000" font-family="sans-serif" font-size="11" lengthAdjust="spacingAndGlyphs" textLength="176" x="598.5" y="1015.1846">void checkConnect(String,int,Object)</text><ellipse cx="589.5" cy="1026.0195" fill="#84BE84" rx="3" ry="3" style="stroke: #038048; stroke-width: 1.0;"/><text fill="#000000" font-family="sans-serif" font-size="11" lengthAdjust="spacingAndGlyphs" textLength="100" x="598.5" y="1029.0205">void checkListen(int)</text><ellipse cx="589.5" cy="1039.8555" fill="#84BE84" rx="3" ry="3" style="stroke: #038048; stroke-width: 1.0;"/><text fill="#000000" font-family="sans-serif" font-size="11" lengthAdjust="spacingAndGlyphs" textLength="137" x="598.5" y="1042.8564">void checkAccept(String,int)</text><ellipse cx="589.5" cy="1053.6914" fill="#84BE84" rx="3" ry="3" style="stroke: #038048; stroke-width: 1.0;"/><text fill="#000000" font-family="sans-serif" font-size="11" lengthAdjust="spacingAndGlyphs" textLength="161" x="598.5" y="1056.6924">void checkMulticast(InetAddress)</text><ellipse cx="589.5" cy="1067.5273" fill="#84BE84" rx="3" ry="3" style="stroke: #038048; stroke-width: 1.0;"/><text fill="#000000" font-family="sans-serif" font-size="11" lengthAdjust="spacingAndGlyphs" textLength="185" x="598.5" y="1070.5283">void checkMulticast(InetAddress,byte)</text><ellipse cx="589.5" cy="1081.3633" fill="#84BE84" rx="3" ry="3" style="stroke: #038048; stroke-width: 1.0;"/><text fill="#000000" font-family="sans-serif" font-size="11" lengthAdjust="spacingAndGlyphs" textLength="147" x="598.5" y="1084.3643">void checkPropertiesAccess()</text><ellipse cx="589.5" cy="1095.1992" fill="#84BE84" rx="3" ry="3" style="stroke: #038048; stroke-width: 1.0;"/><text fill="#000000" font-family="sans-serif" font-size="11" lengthAdjust="spacingAndGlyphs" textLength="167" x="598.5" y="1098.2002">void checkPropertyAccess(String)</text><ellipse cx="589.5" cy="1109.0352" fill="#84BE84" rx="3" ry="3" style="stroke: #038048; stroke-width: 1.0;"/><text fill="#000000" font-family="sans-serif" font-size="11" lengthAdjust="spacingAndGlyphs" textLength="193" x="598.5" y="1112.0361">boolean checkTopLevelWindow(Object)</text><ellipse cx="589.5" cy="1122.8711" fill="#84BE84" rx="3" ry="3" style="stroke: #038048; stroke-width: 1.0;"/><text fill="#000000" font-family="sans-serif" font-size="11" lengthAdjust="spacingAndGlyphs" textLength="136" x="598.5" y="1125.8721">void checkPrintJobAccess()</text><ellipse cx="589.5" cy="1136.707" fill="#84BE84" rx="3" ry="3" style="stroke: #038048; stroke-width: 1.0;"/><text fill="#000000" font-family="sans-serif" font-size="11" lengthAdjust="spacingAndGlyphs" textLength="179" x="598.5" y="1139.708">void checkSystemClipboardAccess()</text><ellipse cx="589.5" cy="1150.543" fill="#84BE84" rx="3" ry="3" style="stroke: #038048; stroke-width: 1.0;"/><text fill="#000000" font-family="sans-serif" font-size="11" lengthAdjust="spacingAndGlyphs" textLength="178" x="598.5" y="1153.5439">void checkAwtEventQueueAccess()</text><rect fill="#F24D5C" height="6" style="stroke: #C82930; stroke-width: 1.0;" width="6" x="586.5" y="1161.3789"/><text fill="#000000" font-family="sans-serif" font-size="11" lengthAdjust="spacingAndGlyphs" text-decoration="underline" textLength="135" x="598.5" y="1167.3799">String[] getPackages(String)</text><line style="stroke: #000000; stroke-width: 1.0;" x1="598.5" x2="733.5" y1="1169.3799" y2="1169.3799"/><ellipse cx="589.5" cy="1178.2148" fill="#84BE84" rx="3" ry="3" style="stroke: #038048; stroke-width: 1.0;"/><text fill="#000000" font-family="sans-serif" font-size="11" lengthAdjust="spacingAndGlyphs" textLength="167" x="598.5" y="1181.2158">void checkPackageAccess(String)</text><ellipse cx="589.5" cy="1192.0508" fill="#84BE84" rx="3" ry="3" style="stroke: #038048; stroke-width: 1.0;"/><text fill="#000000" font-family="sans-serif" font-size="11" lengthAdjust="spacingAndGlyphs" textLength="173" x="598.5" y="1195.0518">void checkPackageDefinition(String)</text><ellipse cx="589.5" cy="1205.8867" fill="#84BE84" rx="3" ry="3" style="stroke: #038048; stroke-width: 1.0;"/><text fill="#000000" font-family="sans-serif" font-size="11" lengthAdjust="spacingAndGlyphs" textLength="113" x="598.5" y="1208.8877">void checkSetFactory()</text><ellipse cx="589.5" cy="1219.7227" fill="#84BE84" rx="3" ry="3" style="stroke: #038048; stroke-width: 1.0;"/><text fill="#000000" font-family="sans-serif" font-size="11" lengthAdjust="spacingAndGlyphs" textLength="193" x="598.5" y="1222.7236">void checkMemberAccess(Class&lt;*&gt;,int)</text><ellipse cx="589.5" cy="1233.5586" fill="#84BE84" rx="3" ry="3" style="stroke: #038048; stroke-width: 1.0;"/><text fill="#000000" font-family="sans-serif" font-size="11" lengthAdjust="spacingAndGlyphs" textLength="166" x="598.5" y="1236.5596">void checkSecurityAccess(String)</text><rect fill="#F24D5C" height="6" style="stroke: #C82930; stroke-width: 1.0;" width="6" x="586.5" y="1244.3945"/><text fill="#000000" font-family="sans-serif" font-size="11" lengthAdjust="spacingAndGlyphs" textLength="154" x="598.5" y="1250.3955">Class&lt;*&gt; currentLoadedClass0)</text><ellipse cx="589.5" cy="1261.2305" fill="#84BE84" rx="3" ry="3" style="stroke: #038048; stroke-width: 1.0;"/><text fill="#000000" font-family="sans-serif" font-size="11" lengthAdjust="spacingAndGlyphs" textLength="154" x="598.5" y="1264.2314">ThreadGroup getThreadGroup()</text><polygon fill="#4177AF" points="589.5,1271.0664,585.5,1277.0664,593.5,1277.0664" style="stroke: #1963A0; stroke-width: 1.0;"/><text fill="#000000" font-family="sans-serif" font-size="11" lengthAdjust="spacingAndGlyphs" text-decoration="underline" textLength="64" x="598.5" y="1278.0674">void &lt;clinit&gt;()</text><line style="stroke: #000000; stroke-width: 1.0;" x1="598.5" x2="662.5" y1="1280.0674" y2="1280.0674"/><!--class java.lang.Appendable--><rect fill="#FEFECE" filter="url(#fkiln4a25zygv)" height="89.5078" id="java.lang.Appendable" style="stroke: #A80036; stroke-width: 1.5;" width="235" x="308" y="814"/><ellipse cx="387.25" cy="830" fill="#B4A7E5" rx="11" ry="11" style="stroke: #A80036; stroke-width: 1.0;"/><path d="M388.2031,826.6406 L388.2031,833.2969 L389.9219,833.2969 Q390.5313,833.2969 390.7969,833.5313 Q391.0625,833.7656 391.0625,834.1563 Q391.0625,834.5313 390.7969,834.7656 Q390.5313,835 389.9219,835 L384.7813,835 Q384.1719,835 383.9063,834.7656 Q383.6406,834.5313 383.6406,834.1406 Q383.6406,833.7656 383.9063,833.5313 Q384.1719,833.2969 384.7813,833.2969 L386.5,833.2969 L386.5,826.6406 L384.7813,826.6406 Q384.1719,826.6406 383.9063,826.4063 Q383.6406,826.1719 383.6406,825.7813 Q383.6406,825.4063 383.9063,825.1719 Q384.1719,824.9375 384.7813,824.9375 L389.9219,824.9375 Q390.5313,824.9375 390.7969,825.1719 Q391.0625,825.4063 391.0625,825.7813 Q391.0625,826.1719 390.7969,826.4063 Q390.5313,826.6406 389.9219,826.6406 L388.2031,826.6406 Z "/><text fill="#000000" font-family="sans-serif" font-size="12" font-style="italic" lengthAdjust="spacingAndGlyphs" textLength="68" x="407.75" y="834.9102">Appendable</text><line style="stroke: #A80036; stroke-width: 1.5;" x1="309" x2="542" y1="846" y2="846"/><line style="stroke: #A80036; stroke-width: 1.5;" x1="309" x2="542" y1="854" y2="854"/><ellipse cx="319" cy="866.418" fill="#84BE84" rx="3" ry="3" style="stroke: #038048; stroke-width: 1.0;"/><text fill="#000000" font-family="sans-serif" font-size="11" font-style="italic" lengthAdjust="spacingAndGlyphs" textLength="179" x="328" y="869.4189">Appendable append(CharSequence)</text><ellipse cx="319" cy="880.2539" fill="#84BE84" rx="3" ry="3" style="stroke: #038048; stroke-width: 1.0;"/><text fill="#000000" font-family="sans-serif" font-size="11" font-style="italic" lengthAdjust="spacingAndGlyphs" textLength="209" x="328" y="883.2549">Appendable append(CharSequence,int,int)</text><ellipse cx="319" cy="894.0898" fill="#84BE84" rx="3" ry="3" style="stroke: #038048; stroke-width: 1.0;"/><text fill="#000000" font-family="sans-serif" font-size="11" font-style="italic" lengthAdjust="spacingAndGlyphs" textLength="128" x="328" y="897.0908">Appendable append(char)</text><!--class App--><rect fill="#FEFECE" filter="url(#fkiln4a25zygv)" height="75.6719" id="App" style="stroke: #A80036; stroke-width: 1.5;" width="113" x="233" y="153"/><ellipse cx="275" cy="169" fill="#ADD1B2" rx="11" ry="11" style="stroke: #A80036; stroke-width: 1.0;"/><path d="M277.7656,164.875 Q277.9219,164.6563 278.1094,164.5469 Q278.2969,164.4375 278.5156,164.4375 Q278.8906,164.4375 279.125,164.6953 Q279.3594,164.9531 279.3594,165.5625 L279.3594,167.0156 Q279.3594,167.625 279.125,167.8906 Q278.8906,168.1563 278.5156,168.1563 Q278.1719,168.1563 277.9688,167.9531 Q277.7656,167.7656 277.6563,167.25 Q277.6094,166.8906 277.4219,166.7031 Q277.0938,166.3281 276.4844,166.1094 Q275.875,165.8906 275.25,165.8906 Q274.4844,165.8906 273.8516,166.2188 Q273.2188,166.5469 272.7266,167.2969 Q272.2344,168.0469 272.2344,169.0781 L272.2344,170.1719 Q272.2344,171.4063 273.125,172.2266 Q274.0156,173.0469 275.6094,173.0469 Q276.5469,173.0469 277.2031,172.7969 Q277.5938,172.6406 278.0156,172.2031 Q278.2813,171.9375 278.4297,171.8594 Q278.5781,171.7813 278.7813,171.7813 Q279.1094,171.7813 279.3672,172.0391 Q279.625,172.2969 279.625,172.6406 Q279.625,172.9844 279.2813,173.3906 Q278.7813,173.9688 277.9844,174.2969 Q276.9063,174.75 275.6094,174.75 Q274.0938,174.75 272.8906,174.125 Q271.9063,173.625 271.2188,172.5547 Q270.5313,171.4844 270.5313,170.2031 L270.5313,169.0469 Q270.5313,167.7188 271.1484,166.5703 Q271.7656,165.4219 272.8594,164.8047 Q273.9531,164.1875 275.1875,164.1875 Q275.9219,164.1875 276.5703,164.3516 Q277.2188,164.5156 277.7656,164.875 Z "/><text fill="#000000" font-family="sans-serif" font-size="12" lengthAdjust="spacingAndGlyphs" textLength="21" x="295" y="173.9102">App</text><line style="stroke: #A80036; stroke-width: 1.5;" x1="234" x2="345" y1="185" y2="185"/><line style="stroke: #A80036; stroke-width: 1.5;" x1="234" x2="345" y1="193" y2="193"/><ellipse cx="244" cy="205.418" fill="#84BE84" rx="3" ry="3" style="stroke: #038048; stroke-width: 1.0;"/><text fill="#000000" font-family="sans-serif" font-size="11" lengthAdjust="spacingAndGlyphs" textLength="51" x="253" y="208.4189">void App()</text><ellipse cx="244" cy="219.2539" fill="#84BE84" rx="3" ry="3" style="stroke: #038048; stroke-width: 1.0;"/><text fill="#000000" font-family="sans-serif" font-size="11" lengthAdjust="spacingAndGlyphs" text-decoration="underline" textLength="87" x="253" y="222.2549">void main(String[])</text><line style="stroke: #000000; stroke-width: 1.0;" x1="253" x2="340" y1="224.2549" y2="224.2549"/><!--class SecurityManagerBackdoor--><rect fill="#FEFECE" filter="url(#fkiln4a25zygv)" height="75.6719" id="SecurityManagerBackdoor" style="stroke: #A80036; stroke-width: 1.5;" width="267" x="6" y="821"/><ellipse cx="63.75" cy="837" fill="#ADD1B2" rx="11" ry="11" style="stroke: #A80036; stroke-width: 1.0;"/><path d="M66.5156,832.875 Q66.6719,832.6563 66.8594,832.5469 Q67.0469,832.4375 67.2656,832.4375 Q67.6406,832.4375 67.875,832.6953 Q68.1094,832.9531 68.1094,833.5625 L68.1094,835.0156 Q68.1094,835.625 67.875,835.8906 Q67.6406,836.1563 67.2656,836.1563 Q66.9219,836.1563 66.7188,835.9531 Q66.5156,835.7656 66.4063,835.25 Q66.3594,834.8906 66.1719,834.7031 Q65.8438,834.3281 65.2344,834.1094 Q64.625,833.8906 64,833.8906 Q63.2344,833.8906 62.6016,834.2188 Q61.9688,834.5469 61.4766,835.2969 Q60.9844,836.0469 60.9844,837.0781 L60.9844,838.1719 Q60.9844,839.4063 61.875,840.2266 Q62.7656,841.0469 64.3594,841.0469 Q65.2969,841.0469 65.9531,840.7969 Q66.3438,840.6406 66.7656,840.2031 Q67.0313,839.9375 67.1797,839.8594 Q67.3281,839.7813 67.5313,839.7813 Q67.8594,839.7813 68.1172,840.0391 Q68.375,840.2969 68.375,840.6406 Q68.375,840.9844 68.0313,841.3906 Q67.5313,841.9688 66.7344,842.2969 Q65.6563,842.75 64.3594,842.75 Q62.8438,842.75 61.6406,842.125 Q60.6563,841.625 59.9688,840.5547 Q59.2813,839.4844 59.2813,838.2031 L59.2813,837.0469 Q59.2813,835.7188 59.8984,834.5703 Q60.5156,833.4219 61.6094,832.8047 Q62.7031,832.1875 63.9375,832.1875 Q64.6719,832.1875 65.3203,832.3516 Q65.9688,832.5156 66.5156,832.875 Z "/><text fill="#000000" font-family="sans-serif" font-size="12" lengthAdjust="spacingAndGlyphs" textLength="143" x="84.25" y="841.9102">SecurityManagerBackdoor</text><line style="stroke: #A80036; stroke-width: 1.5;" x1="7" x2="272" y1="853" y2="853"/><line style="stroke: #A80036; stroke-width: 1.5;" x1="7" x2="272" y1="861" y2="861"/><ellipse cx="17" cy="873.418" fill="#84BE84" rx="3" ry="3" style="stroke: #038048; stroke-width: 1.0;"/><text fill="#000000" font-family="sans-serif" font-size="11" lengthAdjust="spacingAndGlyphs" textLength="241" x="26" y="876.4189">void SecurityManagerBackdoor(SecurityManager)</text><ellipse cx="17" cy="887.2539" fill="#84BE84" rx="3" ry="3" style="stroke: #038048; stroke-width: 1.0;"/><text fill="#000000" font-family="sans-serif" font-size="11" lengthAdjust="spacingAndGlyphs" textLength="137" x="26" y="890.2549">void checkAccept(String,int)</text><!--class SecurityManagerBackDoorDecorator--><rect fill="#FEFECE" filter="url(#fkiln4a25zygv)" height="366.2266" id="SecurityManagerBackDoorDecorator" style="stroke: #A80036; stroke-width: 1.5;" width="316" x="456.5" y="8"/><ellipse cx="509.75" cy="24" fill="#A9DCDF" rx="11" ry="11" style="stroke: #A80036; stroke-width: 1.0;"/><path d="M511.9375,25.7656 L507.7969,25.7656 L507.375,26.7969 L507.7969,26.7969 Q508.4063,26.7969 508.6719,27.0313 Q508.9375,27.2656 508.9375,27.6563 Q508.9375,28.0313 508.6719,28.2656 Q508.4063,28.5 507.7969,28.5 L505.5,28.5 Q504.8906,28.5 504.6328,28.2656 Q504.375,28.0313 504.375,27.6406 Q504.375,27.2656 504.6484,27.0234 Q504.9219,26.7813 505.5469,26.7969 L508.2188,20.1406 L507.1094,20.1406 Q506.5,20.1406 506.2344,19.9063 Q505.9688,19.6719 505.9688,19.2813 Q505.9688,18.9063 506.2344,18.6719 Q506.5,18.4375 507.1094,18.4375 L510.7813,18.4375 L514.1719,26.7969 Q514.7656,26.7969 514.9531,26.9375 Q515.3438,27.2031 515.3438,27.6563 Q515.3438,28.0313 515.0859,28.2656 Q514.8281,28.5 514.2188,28.5 L511.9219,28.5 Q511.3125,28.5 511.0469,28.2656 Q510.7813,28.0313 510.7813,27.6406 Q510.7813,27.2656 511.0469,27.0313 Q511.3125,26.7969 511.9219,26.7969 L512.3438,26.7969 L511.9375,25.7656 Z M511.2188,24.0625 L509.8594,20.6875 L508.4844,24.0625 L511.2188,24.0625 Z "/><text fill="#000000" font-family="sans-serif" font-size="12" font-style="italic" lengthAdjust="spacingAndGlyphs" textLength="201" x="530.25" y="28.9102">SecurityManagerBackDoorDecorator</text><line style="stroke: #A80036; stroke-width: 1.5;" x1="457.5" x2="771.5" y1="40" y2="40"/><polygon fill="none" points="467.5,47.418,471.5,51.418,467.5,55.418,463.5,51.418" style="stroke: #B38D22; stroke-width: 1.0;"/><text fill="#000000" font-family="sans-serif" font-size="11" lengthAdjust="spacingAndGlyphs" textLength="134" x="476.5" y="55.4189">SecurityManager decorated</text><polygon fill="none" points="467.5,61.2539,471.5,65.2539,467.5,69.2539,463.5,65.2539" style="stroke: #B38D22; stroke-width: 1.0;"/><text fill="#000000" font-family="sans-serif" font-size="11" lengthAdjust="spacingAndGlyphs" textLength="98" x="476.5" y="69.2549">boolean isDoorOpen</text><line style="stroke: #A80036; stroke-width: 1.5;" x1="457.5" x2="771.5" y1="75.6719" y2="75.6719"/><ellipse cx="467.5" cy="88.0898" fill="#84BE84" rx="3" ry="3" style="stroke: #038048; stroke-width: 1.0;"/><text fill="#000000" font-family="sans-serif" font-size="11" lengthAdjust="spacingAndGlyphs" textLength="290" x="476.5" y="91.0908">void SecurityManagerBackDoorDecorator(SecurityManager)</text><ellipse cx="467.5" cy="101.9258" fill="#84BE84" rx="3" ry="3" style="stroke: #038048; stroke-width: 1.0;"/><text fill="#000000" font-family="sans-serif" font-size="11" font-style="italic" lengthAdjust="spacingAndGlyphs" textLength="139" x="476.5" y="104.9268">void checkAccept(String,int)</text><ellipse cx="467.5" cy="115.7617" fill="#84BE84" rx="3" ry="3" style="stroke: #038048; stroke-width: 1.0;"/><text fill="#000000" font-family="sans-serif" font-size="11" lengthAdjust="spacingAndGlyphs" textLength="132" x="476.5" y="118.7627">void checkAccess(Thread)</text><ellipse cx="467.5" cy="129.5977" fill="#84BE84" rx="3" ry="3" style="stroke: #038048; stroke-width: 1.0;"/><text fill="#000000" font-family="sans-serif" font-size="11" lengthAdjust="spacingAndGlyphs" textLength="162" x="476.5" y="132.5986">void checkAccess(ThreadGroup)</text><ellipse cx="467.5" cy="143.4336" fill="#84BE84" rx="3" ry="3" style="stroke: #038048; stroke-width: 1.0;"/><text fill="#000000" font-family="sans-serif" font-size="11" lengthAdjust="spacingAndGlyphs" textLength="142" x="476.5" y="146.4346">void checkConnect(String,int)</text><ellipse cx="467.5" cy="157.2695" fill="#84BE84" rx="3" ry="3" style="stroke: #038048; stroke-width: 1.0;"/><text fill="#000000" font-family="sans-serif" font-size="11" lengthAdjust="spacingAndGlyphs" textLength="176" x="476.5" y="160.2705">void checkConnect(String,int,Object)</text><ellipse cx="467.5" cy="171.1055" fill="#84BE84" rx="3" ry="3" style="stroke: #038048; stroke-width: 1.0;"/><text fill="#000000" font-family="sans-serif" font-size="11" lengthAdjust="spacingAndGlyphs" textLength="153" x="476.5" y="174.1064">void checkCreateClassLoader()</text><ellipse cx="467.5" cy="184.9414" fill="#84BE84" rx="3" ry="3" style="stroke: #038048; stroke-width: 1.0;"/><text fill="#000000" font-family="sans-serif" font-size="11" lengthAdjust="spacingAndGlyphs" textLength="118" x="476.5" y="187.9424">void checkDelete(String)</text><ellipse cx="467.5" cy="198.7773" fill="#84BE84" rx="3" ry="3" style="stroke: #038048; stroke-width: 1.0;"/><text fill="#000000" font-family="sans-serif" font-size="11" lengthAdjust="spacingAndGlyphs" textLength="112" x="476.5" y="201.7783">void checkExec(String)</text><ellipse cx="467.5" cy="212.6133" fill="#84BE84" rx="3" ry="3" style="stroke: #038048; stroke-width: 1.0;"/><text fill="#000000" font-family="sans-serif" font-size="11" lengthAdjust="spacingAndGlyphs" textLength="88" x="476.5" y="215.6143">void checkExit(int)</text><ellipse cx="467.5" cy="226.4492" fill="#84BE84" rx="3" ry="3" style="stroke: #038048; stroke-width: 1.0;"/><text fill="#000000" font-family="sans-serif" font-size="11" lengthAdjust="spacingAndGlyphs" textLength="100" x="476.5" y="229.4502">void checkListen(int)</text><ellipse cx="467.5" cy="240.2852" fill="#84BE84" rx="3" ry="3" style="stroke: #038048; stroke-width: 1.0;"/><text fill="#000000" font-family="sans-serif" font-size="11" lengthAdjust="spacingAndGlyphs" textLength="161" x="476.5" y="243.2861">void checkMulticast(InetAddress)</text><ellipse cx="467.5" cy="254.1211" fill="#84BE84" rx="3" ry="3" style="stroke: #038048; stroke-width: 1.0;"/><text fill="#000000" font-family="sans-serif" font-size="11" lengthAdjust="spacingAndGlyphs" textLength="167" x="476.5" y="257.1221">void checkPackageAccess(String)</text><ellipse cx="467.5" cy="267.957" fill="#84BE84" rx="3" ry="3" style="stroke: #038048; stroke-width: 1.0;"/><text fill="#000000" font-family="sans-serif" font-size="11" lengthAdjust="spacingAndGlyphs" textLength="173" x="476.5" y="270.958">void checkPackageDefinition(String)</text><ellipse cx="467.5" cy="281.793" fill="#84BE84" rx="3" ry="3" style="stroke: #038048; stroke-width: 1.0;"/><text fill="#000000" font-family="sans-serif" font-size="11" lengthAdjust="spacingAndGlyphs" textLength="136" x="476.5" y="284.7939">void checkPrintJobAccess()</text><ellipse cx="467.5" cy="295.6289" fill="#84BE84" rx="3" ry="3" style="stroke: #038048; stroke-width: 1.0;"/><text fill="#000000" font-family="sans-serif" font-size="11" lengthAdjust="spacingAndGlyphs" textLength="147" x="476.5" y="298.6299">void checkPropertiesAccess()</text><ellipse cx="467.5" cy="309.4648" fill="#84BE84" rx="3" ry="3" style="stroke: #038048; stroke-width: 1.0;"/><text fill="#000000" font-family="sans-serif" font-size="11" lengthAdjust="spacingAndGlyphs" textLength="151" x="476.5" y="312.4658">void checkRead(FileDescriptor)</text><ellipse cx="467.5" cy="323.3008" fill="#84BE84" rx="3" ry="3" style="stroke: #038048; stroke-width: 1.0;"/><text fill="#000000" font-family="sans-serif" font-size="11" lengthAdjust="spacingAndGlyphs" textLength="166" x="476.5" y="326.3018">void checkSecurityAccess(String)</text><ellipse cx="467.5" cy="337.1367" fill="#84BE84" rx="3" ry="3" style="stroke: #038048; stroke-width: 1.0;"/><text fill="#000000" font-family="sans-serif" font-size="11" lengthAdjust="spacingAndGlyphs" textLength="113" x="476.5" y="340.1377">void checkSetFactory()</text><ellipse cx="467.5" cy="350.9727" fill="#84BE84" rx="3" ry="3" style="stroke: #038048; stroke-width: 1.0;"/><text fill="#000000" font-family="sans-serif" font-size="11" lengthAdjust="spacingAndGlyphs" textLength="151" x="476.5" y="353.9736">void checkWrite(FileDescriptor)</text><ellipse cx="467.5" cy="364.8086" fill="#84BE84" rx="3" ry="3" style="stroke: #038048; stroke-width: 1.0;"/><text fill="#000000" font-family="sans-serif" font-size="11" lengthAdjust="spacingAndGlyphs" textLength="113" x="476.5" y="367.8096">void checkWrite(String)</text><!--link SecurityManagerBackDoorDecorator to SecurityManagerBackdoor--><path d="M436.467,302 C436.467,302 253,302 253,302 C253,302 253,694.873 253,820.715 " fill="none" id="SecurityManagerBackDoorDecorator-SecurityManagerBackdoor" style="stroke: #A80036; stroke-width: 1.0;"/><polygon fill="none" points="436.467,295,456.467,302,436.467,309,436.467,295" style="stroke: #A80036; stroke-width: 1.0;"/><!--link java.lang.SecurityManager to SecurityManagerBackDoorDecorator--><path d="M707.833,413.58 C707.833,413.58 707.833,374.129 707.833,374.129 " fill="none" id="java.lang.SecurityManager-SecurityManagerBackDoorDecorator" style="stroke: #A80036; stroke-width: 1.0;"/><polygon fill="none" points="714.833,413.58,707.833,433.58,700.833,413.58,714.833,413.58" style="stroke: #A80036; stroke-width: 1.0;"/><!--link SecurityManagerBackDoorDecorator to java.lang.SecurityManager--><path d="M643.167,374.417 C643.167,374.417 643.167,428.932 643.167,428.932 " fill="none" id="SecurityManagerBackDoorDecorator-java.lang.SecurityManager" style="stroke: #A80036; stroke-width: 1.0;"/><polygon fill="#A80036" points="643.167,433.932,647.167,424.932,643.167,428.932,639.167,424.932,643.167,433.932" style="stroke: #A80036; stroke-width: 1.0;"/><!--link App to java.lang.SecurityManager--><path d="M327,229.2 C327,323.737 327,561 327,561 C327,561 573.472,561 573.472,561 " fill="none" id="App-java.lang.SecurityManager" style="stroke: #A80036; stroke-width: 1.0; stroke-dasharray: 7.0,7.0;"/><polygon fill="#A80036" points="578.472,561,569.472,557,573.472,561,569.472,565,578.472,561" style="stroke: #A80036; stroke-width: 1.0;"/><!--link SecurityManagerBackdoor to java.lang.SecurityManager--><path d="M263,820.624 C263,770.208 263,688 263,688 C263,688 573.459,688 573.459,688 " fill="none" id="SecurityManagerBackdoor-java.lang.SecurityManager" style="stroke: #A80036; stroke-width: 1.0; stroke-dasharray: 7.0,7.0;"/><polygon fill="#A80036" points="578.459,688,569.459,684,573.459,688,569.459,692,578.459,688" style="stroke: #A80036; stroke-width: 1.0;"/><!--link App to SecurityManagerBackdoor--><path d="M243,229.31 C243,229.31 243,815.841 243,815.841 " fill="none" id="App-SecurityManagerBackdoor" style="stroke: #A80036; stroke-width: 1.0; stroke-dasharray: 7.0,7.0;"/><polygon fill="#A80036" points="243,820.841,247,811.841,243,815.841,239,811.841,243,820.841" style="stroke: #A80036; stroke-width: 1.0;"/></g></svg>