<?xml version="1.0" encoding="UTF-8" standalone="no"?><svg xmlns="http://www.w3.org/2000/svg" xmlns:xlink="http://www.w3.org/1999/xlink" contentScriptType="application/ecmascript" contentStyleType="text/css" height="1369px" preserveAspectRatio="none" style="width:840px;height:1369px;" version="1.1" viewBox="0 0 840 1369" width="840px" zoomAndPan="magnify"><defs><filter height="300%" id="f1rysc1cneh67s" width="300%" x="-1" y="-1"><feGaussianBlur result="blurOut" stdDeviation="2.0"/><feColorMatrix in="blurOut" result="blurOut2" type="matrix" values="0 0 0 0 0 0 0 0 0 0 0 0 0 0 0 0 0 0 .4 0"/><feOffset dx="4.0" dy="4.0" in="blurOut2" result="blurOut3"/><feBlend in="SourceGraphic" in2="blurOut3" mode="normal"/></filter></defs><g><!--cluster java.lang--><polygon fill="#FFFFFF" filter="url(#f1rysc1cneh67s)" points="291.5,446,360.5,446,367.5,469.6094,818.5,469.6094,818.5,1357,291.5,1357,291.5,446" style="stroke: #000000; stroke-width: 1.5;"/><line style="stroke: #000000; stroke-width: 1.5;" x1="291.5" x2="367.5" y1="469.6094" y2="469.6094"/><text fill="#000000" font-family="sans-serif" font-size="14" font-weight="bold" lengthAdjust="spacingAndGlyphs" textLength="63" x="295.5" y="462.5332">java.lang</text><!--class java.lang.SecurityManager--><rect fill="#98FB98" filter="url(#f1rysc1cneh67s)" height="858.6719" id="java.lang.SecurityManager" style="stroke: #A80036; stroke-width: 1.5;" width="224" x="578.5" y="482"/><ellipse cx="640.75" cy="502.0938" fill="#ADD1B2" rx="11" ry="11" style="stroke: #A80036; stroke-width: 1.0;"/><path d="M643.5156,497.9688 Q643.6719,497.75 643.8594,497.6406 Q644.0469,497.5313 644.2656,497.5313 Q644.6406,497.5313 644.875,497.7891 Q645.1094,498.0469 645.1094,498.6563 L645.1094,500.1094 Q645.1094,500.7188 644.875,500.9844 Q644.6406,501.25 644.2656,501.25 Q643.9219,501.25 643.7188,501.0469 Q643.5156,500.8594 643.4063,500.3438 Q643.3594,499.9844 643.1719,499.7969 Q642.8438,499.4219 642.2344,499.2031 Q641.625,498.9844 641,498.9844 Q640.2344,498.9844 639.6016,499.3125 Q638.9688,499.6406 638.4766,500.3906 Q637.9844,501.1406 637.9844,502.1719 L637.9844,503.2656 Q637.9844,504.5 638.875,505.3203 Q639.7656,506.1406 641.3594,506.1406 Q642.2969,506.1406 642.9531,505.8906 Q643.3438,505.7344 643.7656,505.2969 Q644.0313,505.0313 644.1797,504.9531 Q644.3281,504.875 644.5313,504.875 Q644.8594,504.875 645.1172,505.1328 Q645.375,505.3906 645.375,505.7344 Q645.375,506.0781 645.0313,506.4844 Q644.5313,507.0625 643.7344,507.3906 Q642.6563,507.8438 641.3594,507.8438 Q639.8438,507.8438 638.6406,507.2188 Q637.6563,506.7188 636.9688,505.6484 Q636.2813,504.5781 636.2813,503.2969 L636.2813,502.1406 Q636.2813,500.8125 636.8984,499.6641 Q637.5156,498.5156 638.6094,497.8984 Q639.7031,497.2813 640.9375,497.2813 Q641.6719,497.2813 642.3203,497.4453 Q642.9688,497.6094 643.5156,497.9688 Z "/><text fill="#000000" font-family="sans-serif" font-size="12" font-style="italic" lengthAdjust="spacingAndGlyphs" textLength="79" x="667.25" y="499.457">«Component»</text><text fill="#000000" font-family="sans-serif" font-size="12" lengthAdjust="spacingAndGlyphs" textLength="91" x="661.25" y="514.5508">SecurityManager</text><line style="stroke: #A80036; stroke-width: 1.5;" x1="579.5" x2="801.5" y1="522.1875" y2="522.1875"/><polygon fill="none" points="589.5,529.6055,593.5,533.6055,589.5,537.6055,585.5,533.6055" style="stroke: #B38D22; stroke-width: 1.0;"/><text fill="#000000" font-family="sans-serif" font-size="11" lengthAdjust="spacingAndGlyphs" textLength="79" x="598.5" y="537.6064">boolean inCheck</text><rect fill="none" height="6" style="stroke: #C82930; stroke-width: 1.0;" width="6" x="586.5" y="545.4414"/><text fill="#000000" font-family="sans-serif" font-size="11" lengthAdjust="spacingAndGlyphs" textLength="84" x="598.5" y="551.4424">boolean initialized</text><rect fill="none" height="6" style="stroke: #C82930; stroke-width: 1.0;" width="6" x="586.5" y="559.2773"/><text fill="#000000" font-family="sans-serif" font-size="11" lengthAdjust="spacingAndGlyphs" text-decoration="underline" textLength="116" x="598.5" y="565.2783">ThreadGroup rootGroup</text><line style="stroke: #000000; stroke-width: 1.0;" x1="598.5" x2="714.5" y1="567.2783" y2="567.2783"/><rect fill="none" height="6" style="stroke: #C82930; stroke-width: 1.0;" width="6" x="586.5" y="573.1133"/><text fill="#000000" font-family="sans-serif" font-size="11" lengthAdjust="spacingAndGlyphs" text-decoration="underline" textLength="144" x="598.5" y="579.1143">boolean packageAccessValid</text><line style="stroke: #000000; stroke-width: 1.0;" x1="598.5" x2="742.5" y1="581.1143" y2="581.1143"/><rect fill="none" height="6" style="stroke: #C82930; stroke-width: 1.0;" width="6" x="586.5" y="586.9492"/><text fill="#000000" font-family="sans-serif" font-size="11" lengthAdjust="spacingAndGlyphs" text-decoration="underline" textLength="116" x="598.5" y="592.9502">String[] packageAccess</text><line style="stroke: #000000; stroke-width: 1.0;" x1="598.5" x2="714.5" y1="594.9502" y2="594.9502"/><rect fill="none" height="6" style="stroke: #C82930; stroke-width: 1.0;" width="6" x="586.5" y="600.7852"/><text fill="#000000" font-family="sans-serif" font-size="11" lengthAdjust="spacingAndGlyphs" text-decoration="underline" textLength="136" x="598.5" y="606.7861">Object packageAccessLock</text><line style="stroke: #000000; stroke-width: 1.0;" x1="598.5" x2="734.5" y1="608.7861" y2="608.7861"/><rect fill="none" height="6" style="stroke: #C82930; stroke-width: 1.0;" width="6" x="586.5" y="614.6211"/><text fill="#000000" font-family="sans-serif" font-size="11" lengthAdjust="spacingAndGlyphs" text-decoration="underline" textLength="150" x="598.5" y="620.6221">boolean packageDefinitionValid</text><line style="stroke: #000000; stroke-width: 1.0;" x1="598.5" x2="748.5" y1="622.6221" y2="622.6221"/><rect fill="none" height="6" style="stroke: #C82930; stroke-width: 1.0;" width="6" x="586.5" y="628.457"/><text fill="#000000" font-family="sans-serif" font-size="11" lengthAdjust="spacingAndGlyphs" text-decoration="underline" textLength="122" x="598.5" y="634.458">String[] packageDefinition</text><line style="stroke: #000000; stroke-width: 1.0;" x1="598.5" x2="720.5" y1="636.458" y2="636.458"/><rect fill="none" height="6" style="stroke: #C82930; stroke-width: 1.0;" width="6" x="586.5" y="642.293"/><text fill="#000000" font-family="sans-serif" font-size="11" lengthAdjust="spacingAndGlyphs" text-decoration="underline" textLength="142" x="598.5" y="648.2939">Object packageDefinitionLock</text><line style="stroke: #000000; stroke-width: 1.0;" x1="598.5" x2="740.5" y1="650.2939" y2="650.2939"/><line style="stroke: #A80036; stroke-width: 1.5;" x1="579.5" x2="801.5" y1="654.7109" y2="654.7109"/><rect fill="#F24D5C" height="6" style="stroke: #C82930; stroke-width: 1.0;" width="6" x="586.5" y="664.1289"/><text fill="#000000" font-family="sans-serif" font-size="11" lengthAdjust="spacingAndGlyphs" textLength="131" x="598.5" y="670.1299">boolean hasAllPermission()</text><ellipse cx="589.5" cy="680.9648" fill="#84BE84" rx="3" ry="3" style="stroke: #038048; stroke-width: 1.0;"/><text fill="#000000" font-family="sans-serif" font-size="11" lengthAdjust="spacingAndGlyphs" textLength="102" x="598.5" y="683.9658">boolean getInCheck()</text><ellipse cx="589.5" cy="694.8008" fill="#84BE84" rx="3" ry="3" style="stroke: #038048; stroke-width: 1.0;"/><text fill="#000000" font-family="sans-serif" font-size="11" lengthAdjust="spacingAndGlyphs" textLength="113" x="598.5" y="697.8018">void SecurityManager()</text><polygon fill="#FFFF44" points="589.5,703.6367,593.5,707.6367,589.5,711.6367,585.5,707.6367" style="stroke: #B38D22; stroke-width: 1.0;"/><text fill="#000000" font-family="sans-serif" font-size="11" lengthAdjust="spacingAndGlyphs" textLength="123" x="598.5" y="711.6377">Class[] getClassContext()</text><polygon fill="#FFFF44" points="589.5,717.4727,593.5,721.4727,589.5,725.4727,585.5,721.4727" style="stroke: #B38D22; stroke-width: 1.0;"/><text fill="#000000" font-family="sans-serif" font-size="11" lengthAdjust="spacingAndGlyphs" textLength="168" x="598.5" y="725.4736">ClassLoader currentClassLoader()</text><rect fill="#F24D5C" height="6" style="stroke: #C82930; stroke-width: 1.0;" width="6" x="586.5" y="733.3086"/><text fill="#000000" font-family="sans-serif" font-size="11" lengthAdjust="spacingAndGlyphs" textLength="174" x="598.5" y="739.3096">ClassLoader currentClassLoader0()</text><polygon fill="#FFFF44" points="589.5,745.1445,593.5,749.1445,589.5,753.1445,585.5,749.1445" style="stroke: #B38D22; stroke-width: 1.0;"/><text fill="#000000" font-family="sans-serif" font-size="11" lengthAdjust="spacingAndGlyphs" textLength="148" x="598.5" y="753.1455">Class&lt;*&gt; currentLoadedClass)</text><polygon fill="#FFFF44" points="589.5,758.9805,593.5,762.9805,589.5,766.9805,585.5,762.9805" style="stroke: #B38D22; stroke-width: 1.0;"/><text fill="#000000" font-family="sans-serif" font-size="11" lengthAdjust="spacingAndGlyphs" textLength="104" x="598.5" y="766.9814">int classDepth(String)</text><polygon fill="#FFFF44" points="589.5,772.8164,593.5,776.8164,589.5,780.8164,585.5,776.8164" style="stroke: #B38D22; stroke-width: 1.0;"/><text fill="#000000" font-family="sans-serif" font-size="11" lengthAdjust="spacingAndGlyphs" textLength="110" x="598.5" y="780.8174">int classLoaderDepth()</text><rect fill="#F24D5C" height="6" style="stroke: #C82930; stroke-width: 1.0;" width="6" x="586.5" y="788.6523"/><text fill="#000000" font-family="sans-serif" font-size="11" lengthAdjust="spacingAndGlyphs" textLength="116" x="598.5" y="794.6533">int classLoaderDepth0()</text><polygon fill="#FFFF44" points="589.5,800.4883,593.5,804.4883,589.5,808.4883,585.5,804.4883" style="stroke: #B38D22; stroke-width: 1.0;"/><text fill="#000000" font-family="sans-serif" font-size="11" lengthAdjust="spacingAndGlyphs" textLength="112" x="598.5" y="808.4893">boolean inClass(String)</text><polygon fill="#FFFF44" points="589.5,814.3242,593.5,818.3242,589.5,822.3242,585.5,818.3242" style="stroke: #B38D22; stroke-width: 1.0;"/><text fill="#000000" font-family="sans-serif" font-size="11" lengthAdjust="spacingAndGlyphs" textLength="118" x="598.5" y="822.3252">boolean inClassLoader()</text><ellipse cx="589.5" cy="833.1602" fill="#84BE84" rx="3" ry="3" style="stroke: #038048; stroke-width: 1.0;"/><text fill="#000000" font-family="sans-serif" font-size="11" lengthAdjust="spacingAndGlyphs" textLength="134" x="598.5" y="836.1611">Object getSecurityContext()</text><ellipse cx="589.5" cy="846.9961" fill="#84BE84" rx="3" ry="3" style="stroke: #038048; stroke-width: 1.0;"/><text fill="#000000" font-family="sans-serif" font-size="11" lengthAdjust="spacingAndGlyphs" textLength="164" x="598.5" y="849.9971">void checkPermission(Permission)</text><ellipse cx="589.5" cy="860.832" fill="#84BE84" rx="3" ry="3" style="stroke: #038048; stroke-width: 1.0;"/><text fill="#000000" font-family="sans-serif" font-size="11" lengthAdjust="spacingAndGlyphs" textLength="198" x="598.5" y="863.833">void checkPermission(Permission,Object)</text><ellipse cx="589.5" cy="874.668" fill="#84BE84" rx="3" ry="3" style="stroke: #038048; stroke-width: 1.0;"/><text fill="#000000" font-family="sans-serif" font-size="11" lengthAdjust="spacingAndGlyphs" textLength="153" x="598.5" y="877.6689">void checkCreateClassLoader()</text><rect fill="#F24D5C" height="6" style="stroke: #C82930; stroke-width: 1.0;" width="6" x="586.5" y="885.5039"/><text fill="#000000" font-family="sans-serif" font-size="11" lengthAdjust="spacingAndGlyphs" text-decoration="underline" textLength="142" x="598.5" y="891.5049">ThreadGroup getRootGroup()</text><line style="stroke: #000000; stroke-width: 1.0;" x1="598.5" x2="740.5" y1="893.5049" y2="893.5049"/><ellipse cx="589.5" cy="902.3398" fill="#84BE84" rx="3" ry="3" style="stroke: #038048; stroke-width: 1.0;"/><text fill="#000000" font-family="sans-serif" font-size="11" lengthAdjust="spacingAndGlyphs" textLength="132" x="598.5" y="905.3408">void checkAccess(Thread)</text><ellipse cx="589.5" cy="916.1758" fill="#84BE84" rx="3" ry="3" style="stroke: #038048; stroke-width: 1.0;"/><text fill="#000000" font-family="sans-serif" font-size="11" lengthAdjust="spacingAndGlyphs" textLength="162" x="598.5" y="919.1768">void checkAccess(ThreadGroup)</text><ellipse cx="589.5" cy="930.0117" fill="#84BE84" rx="3" ry="3" style="stroke: #038048; stroke-width: 1.0;"/><text fill="#000000" font-family="sans-serif" font-size="11" lengthAdjust="spacingAndGlyphs" textLength="88" x="598.5" y="933.0127">void checkExit(int)</text><ellipse cx="589.5" cy="943.8477" fill="#84BE84" rx="3" ry="3" style="stroke: #038048; stroke-width: 1.0;"/><text fill="#000000" font-family="sans-serif" font-size="11" lengthAdjust="spacingAndGlyphs" textLength="112" x="598.5" y="946.8486">void checkExec(String)</text><ellipse cx="589.5" cy="957.6836" fill="#84BE84" rx="3" ry="3" style="stroke: #038048; stroke-width: 1.0;"/><text fill="#000000" font-family="sans-serif" font-size="11" lengthAdjust="spacingAndGlyphs" textLength="107" x="598.5" y="960.6846">void checkLink(String)</text><ellipse cx="589.5" cy="971.5195" fill="#84BE84" rx="3" ry="3" style="stroke: #038048; stroke-width: 1.0;"/><text fill="#000000" font-family="sans-serif" font-size="11" lengthAdjust="spacingAndGlyphs" textLength="151" x="598.5" y="974.5205">void checkRead(FileDescriptor)</text><ellipse cx="589.5" cy="985.3555" fill="#84BE84" rx="3" ry="3" style="stroke: #038048; stroke-width: 1.0;"/><text fill="#000000" font-family="sans-serif" font-size="11" lengthAdjust="spacingAndGlyphs" textLength="113" x="598.5" y="988.3564">void checkRead(String)</text><ellipse cx="589.5" cy="999.1914" fill="#84BE84" rx="3" ry="3" style="stroke: #038048; stroke-width: 1.0;"/><text fill="#000000" font-family="sans-serif" font-size="11" lengthAdjust="spacingAndGlyphs" textLength="147" x="598.5" y="1002.1924">void checkRead(String,Object)</text><ellipse cx="589.5" cy="1013.0273" fill="#84BE84" rx="3" ry="3" style="stroke: #038048; stroke-width: 1.0;"/><text fill="#000000" font-family="sans-serif" font-size="11" lengthAdjust="spacingAndGlyphs" textLength="151" x="598.5" y="1016.0283">void checkWrite(FileDescriptor)</text><ellipse cx="589.5" cy="1026.8633" fill="#84BE84" rx="3" ry="3" style="stroke: #038048; stroke-width: 1.0;"/><text fill="#000000" font-family="sans-serif" font-size="11" lengthAdjust="spacingAndGlyphs" textLength="113" x="598.5" y="1029.8643">void checkWrite(String)</text><ellipse cx="589.5" cy="1040.6992" fill="#84BE84" rx="3" ry="3" style="stroke: #038048; stroke-width: 1.0;"/><text fill="#000000" font-family="sans-serif" font-size="11" lengthAdjust="spacingAndGlyphs" textLength="118" x="598.5" y="1043.7002">void checkDelete(String)</text><ellipse cx="589.5" cy="1054.5352" fill="#84BE84" rx="3" ry="3" style="stroke: #038048; stroke-width: 1.0;"/><text fill="#000000" font-family="sans-serif" font-size="11" lengthAdjust="spacingAndGlyphs" textLength="142" x="598.5" y="1057.5361">void checkConnect(String,int)</text><ellipse cx="589.5" cy="1068.3711" fill="#84BE84" rx="3" ry="3" style="stroke: #038048; stroke-width: 1.0;"/><text fill="#000000" font-family="sans-serif" font-size="11" lengthAdjust="spacingAndGlyphs" textLength="176" x="598.5" y="1071.3721">void checkConnect(String,int,Object)</text><ellipse cx="589.5" cy="1082.207" fill="#84BE84" rx="3" ry="3" style="stroke: #038048; stroke-width: 1.0;"/><text fill="#000000" font-family="sans-serif" font-size="11" lengthAdjust="spacingAndGlyphs" textLength="100" x="598.5" y="1085.208">void checkListen(int)</text><ellipse cx="589.5" cy="1096.043" fill="#84BE84" rx="3" ry="3" style="stroke: #038048; stroke-width: 1.0;"/><text fill="#000000" font-family="sans-serif" font-size="11" lengthAdjust="spacingAndGlyphs" textLength="137" x="598.5" y="1099.0439">void checkAccept(String,int)</text><ellipse cx="589.5" cy="1109.8789" fill="#84BE84" rx="3" ry="3" style="stroke: #038048; stroke-width: 1.0;"/><text fill="#000000" font-family="sans-serif" font-size="11" lengthAdjust="spacingAndGlyphs" textLength="161" x="598.5" y="1112.8799">void checkMulticast(InetAddress)</text><ellipse cx="589.5" cy="1123.7148" fill="#84BE84" rx="3" ry="3" style="stroke: #038048; stroke-width: 1.0;"/><text fill="#000000" font-family="sans-serif" font-size="11" lengthAdjust="spacingAndGlyphs" textLength="185" x="598.5" y="1126.7158">void checkMulticast(InetAddress,byte)</text><ellipse cx="589.5" cy="1137.5508" fill="#84BE84" rx="3" ry="3" style="stroke: #038048; stroke-width: 1.0;"/><text fill="#000000" font-family="sans-serif" font-size="11" lengthAdjust="spacingAndGlyphs" textLength="147" x="598.5" y="1140.5518">void checkPropertiesAccess()</text><ellipse cx="589.5" cy="1151.3867" fill="#84BE84" rx="3" ry="3" style="stroke: #038048; stroke-width: 1.0;"/><text fill="#000000" font-family="sans-serif" font-size="11" lengthAdjust="spacingAndGlyphs" textLength="167" x="598.5" y="1154.3877">void checkPropertyAccess(String)</text><ellipse cx="589.5" cy="1165.2227" fill="#84BE84" rx="3" ry="3" style="stroke: #038048; stroke-width: 1.0;"/><text fill="#000000" font-family="sans-serif" font-size="11" lengthAdjust="spacingAndGlyphs" textLength="193" x="598.5" y="1168.2236">boolean checkTopLevelWindow(Object)</text><ellipse cx="589.5" cy="1179.0586" fill="#84BE84" rx="3" ry="3" style="stroke: #038048; stroke-width: 1.0;"/><text fill="#000000" font-family="sans-serif" font-size="11" lengthAdjust="spacingAndGlyphs" textLength="136" x="598.5" y="1182.0596">void checkPrintJobAccess()</text><ellipse cx="589.5" cy="1192.8945" fill="#84BE84" rx="3" ry="3" style="stroke: #038048; stroke-width: 1.0;"/><text fill="#000000" font-family="sans-serif" font-size="11" lengthAdjust="spacingAndGlyphs" textLength="179" x="598.5" y="1195.8955">void checkSystemClipboardAccess()</text><ellipse cx="589.5" cy="1206.7305" fill="#84BE84" rx="3" ry="3" style="stroke: #038048; stroke-width: 1.0;"/><text fill="#000000" font-family="sans-serif" font-size="11" lengthAdjust="spacingAndGlyphs" textLength="178" x="598.5" y="1209.7314">void checkAwtEventQueueAccess()</text><rect fill="#F24D5C" height="6" style="stroke: #C82930; stroke-width: 1.0;" width="6" x="586.5" y="1217.5664"/><text fill="#000000" font-family="sans-serif" font-size="11" lengthAdjust="spacingAndGlyphs" text-decoration="underline" textLength="135" x="598.5" y="1223.5674">String[] getPackages(String)</text><line style="stroke: #000000; stroke-width: 1.0;" x1="598.5" x2="733.5" y1="1225.5674" y2="1225.5674"/><ellipse cx="589.5" cy="1234.4023" fill="#84BE84" rx="3" ry="3" style="stroke: #038048; stroke-width: 1.0;"/><text fill="#000000" font-family="sans-serif" font-size="11" lengthAdjust="spacingAndGlyphs" textLength="167" x="598.5" y="1237.4033">void checkPackageAccess(String)</text><ellipse cx="589.5" cy="1248.2383" fill="#84BE84" rx="3" ry="3" style="stroke: #038048; stroke-width: 1.0;"/><text fill="#000000" font-family="sans-serif" font-size="11" lengthAdjust="spacingAndGlyphs" textLength="173" x="598.5" y="1251.2393">void checkPackageDefinition(String)</text><ellipse cx="589.5" cy="1262.0742" fill="#84BE84" rx="3" ry="3" style="stroke: #038048; stroke-width: 1.0;"/><text fill="#000000" font-family="sans-serif" font-size="11" lengthAdjust="spacingAndGlyphs" textLength="113" x="598.5" y="1265.0752">void checkSetFactory()</text><ellipse cx="589.5" cy="1275.9102" fill="#84BE84" rx="3" ry="3" style="stroke: #038048; stroke-width: 1.0;"/><text fill="#000000" font-family="sans-serif" font-size="11" lengthAdjust="spacingAndGlyphs" textLength="193" x="598.5" y="1278.9111">void checkMemberAccess(Class&lt;*&gt;,int)</text><ellipse cx="589.5" cy="1289.7461" fill="#84BE84" rx="3" ry="3" style="stroke: #038048; stroke-width: 1.0;"/><text fill="#000000" font-family="sans-serif" font-size="11" lengthAdjust="spacingAndGlyphs" textLength="166" x="598.5" y="1292.7471">void checkSecurityAccess(String)</text><rect fill="#F24D5C" height="6" style="stroke: #C82930; stroke-width: 1.0;" width="6" x="586.5" y="1300.582"/><text fill="#000000" font-family="sans-serif" font-size="11" lengthAdjust="spacingAndGlyphs" textLength="154" x="598.5" y="1306.583">Class&lt;*&gt; currentLoadedClass0)</text><ellipse cx="589.5" cy="1317.418" fill="#84BE84" rx="3" ry="3" style="stroke: #038048; stroke-width: 1.0;"/><text fill="#000000" font-family="sans-serif" font-size="11" lengthAdjust="spacingAndGlyphs" textLength="154" x="598.5" y="1320.4189">ThreadGroup getThreadGroup()</text><polygon fill="#4177AF" points="589.5,1327.2539,585.5,1333.2539,593.5,1333.2539" style="stroke: #1963A0; stroke-width: 1.0;"/><text fill="#000000" font-family="sans-serif" font-size="11" lengthAdjust="spacingAndGlyphs" text-decoration="underline" textLength="64" x="598.5" y="1334.2549">void &lt;clinit&gt;()</text><line style="stroke: #000000; stroke-width: 1.0;" x1="598.5" x2="662.5" y1="1336.2549" y2="1336.2549"/><!--class java.lang.Appendable--><rect fill="#FEFECE" filter="url(#f1rysc1cneh67s)" height="89.5078" id="java.lang.Appendable" style="stroke: #A80036; stroke-width: 1.5;" width="235" x="308" y="866.5"/><ellipse cx="387.25" cy="882.5" fill="#B4A7E5" rx="11" ry="11" style="stroke: #A80036; stroke-width: 1.0;"/><path d="M388.2031,879.1406 L388.2031,885.7969 L389.9219,885.7969 Q390.5313,885.7969 390.7969,886.0313 Q391.0625,886.2656 391.0625,886.6563 Q391.0625,887.0313 390.7969,887.2656 Q390.5313,887.5 389.9219,887.5 L384.7813,887.5 Q384.1719,887.5 383.9063,887.2656 Q383.6406,887.0313 383.6406,886.6406 Q383.6406,886.2656 383.9063,886.0313 Q384.1719,885.7969 384.7813,885.7969 L386.5,885.7969 L386.5,879.1406 L384.7813,879.1406 Q384.1719,879.1406 383.9063,878.9063 Q383.6406,878.6719 383.6406,878.2813 Q383.6406,877.9063 383.9063,877.6719 Q384.1719,877.4375 384.7813,877.4375 L389.9219,877.4375 Q390.5313,877.4375 390.7969,877.6719 Q391.0625,877.9063 391.0625,878.2813 Q391.0625,878.6719 390.7969,878.9063 Q390.5313,879.1406 389.9219,879.1406 L388.2031,879.1406 Z "/><text fill="#000000" font-family="sans-serif" font-size="12" font-style="italic" lengthAdjust="spacingAndGlyphs" textLength="68" x="407.75" y="887.4102">Appendable</text><line style="stroke: #A80036; stroke-width: 1.5;" x1="309" x2="542" y1="898.5" y2="898.5"/><line style="stroke: #A80036; stroke-width: 1.5;" x1="309" x2="542" y1="906.5" y2="906.5"/><ellipse cx="319" cy="918.918" fill="#84BE84" rx="3" ry="3" style="stroke: #038048; stroke-width: 1.0;"/><text fill="#000000" font-family="sans-serif" font-size="11" font-style="italic" lengthAdjust="spacingAndGlyphs" textLength="179" x="328" y="921.9189">Appendable append(CharSequence)</text><ellipse cx="319" cy="932.7539" fill="#84BE84" rx="3" ry="3" style="stroke: #038048; stroke-width: 1.0;"/><text fill="#000000" font-family="sans-serif" font-size="11" font-style="italic" lengthAdjust="spacingAndGlyphs" textLength="209" x="328" y="935.7549">Appendable append(CharSequence,int,int)</text><ellipse cx="319" cy="946.5898" fill="#84BE84" rx="3" ry="3" style="stroke: #038048; stroke-width: 1.0;"/><text fill="#000000" font-family="sans-serif" font-size="11" font-style="italic" lengthAdjust="spacingAndGlyphs" textLength="128" x="328" y="949.5908">Appendable append(char)</text><!--class App--><rect fill="#FEFECE" filter="url(#f1rysc1cneh67s)" height="75.6719" id="App" style="stroke: #A80036; stroke-width: 1.5;" width="113" x="235" y="157"/><ellipse cx="277" cy="173" fill="#ADD1B2" rx="11" ry="11" style="stroke: #A80036; stroke-width: 1.0;"/><path d="M279.7656,168.875 Q279.9219,168.6563 280.1094,168.5469 Q280.2969,168.4375 280.5156,168.4375 Q280.8906,168.4375 281.125,168.6953 Q281.3594,168.9531 281.3594,169.5625 L281.3594,171.0156 Q281.3594,171.625 281.125,171.8906 Q280.8906,172.1563 280.5156,172.1563 Q280.1719,172.1563 279.9688,171.9531 Q279.7656,171.7656 279.6563,171.25 Q279.6094,170.8906 279.4219,170.7031 Q279.0938,170.3281 278.4844,170.1094 Q277.875,169.8906 277.25,169.8906 Q276.4844,169.8906 275.8516,170.2188 Q275.2188,170.5469 274.7266,171.2969 Q274.2344,172.0469 274.2344,173.0781 L274.2344,174.1719 Q274.2344,175.4063 275.125,176.2266 Q276.0156,177.0469 277.6094,177.0469 Q278.5469,177.0469 279.2031,176.7969 Q279.5938,176.6406 280.0156,176.2031 Q280.2813,175.9375 280.4297,175.8594 Q280.5781,175.7813 280.7813,175.7813 Q281.1094,175.7813 281.3672,176.0391 Q281.625,176.2969 281.625,176.6406 Q281.625,176.9844 281.2813,177.3906 Q280.7813,177.9688 279.9844,178.2969 Q278.9063,178.75 277.6094,178.75 Q276.0938,178.75 274.8906,178.125 Q273.9063,177.625 273.2188,176.5547 Q272.5313,175.4844 272.5313,174.2031 L272.5313,173.0469 Q272.5313,171.7188 273.1484,170.5703 Q273.7656,169.4219 274.8594,168.8047 Q275.9531,168.1875 277.1875,168.1875 Q277.9219,168.1875 278.5703,168.3516 Q279.2188,168.5156 279.7656,168.875 Z "/><text fill="#000000" font-family="sans-serif" font-size="12" lengthAdjust="spacingAndGlyphs" textLength="21" x="297" y="177.9102">App</text><line style="stroke: #A80036; stroke-width: 1.5;" x1="236" x2="347" y1="189" y2="189"/><line style="stroke: #A80036; stroke-width: 1.5;" x1="236" x2="347" y1="197" y2="197"/><ellipse cx="246" cy="209.418" fill="#84BE84" rx="3" ry="3" style="stroke: #038048; stroke-width: 1.0;"/><text fill="#000000" font-family="sans-serif" font-size="11" lengthAdjust="spacingAndGlyphs" textLength="51" x="255" y="212.4189">void App()</text><ellipse cx="246" cy="223.2539" fill="#84BE84" rx="3" ry="3" style="stroke: #038048; stroke-width: 1.0;"/><text fill="#000000" font-family="sans-serif" font-size="11" lengthAdjust="spacingAndGlyphs" text-decoration="underline" textLength="87" x="255" y="226.2549">void main(String[])</text><line style="stroke: #000000; stroke-width: 1.0;" x1="255" x2="342" y1="228.2549" y2="228.2549"/><!--class SecurityManagerBackdoor--><rect fill="#FEFECE" filter="url(#f1rysc1cneh67s)" height="75.6719" id="SecurityManagerBackdoor" style="stroke: #A80036; stroke-width: 1.5;" width="267" x="6" y="873.5"/><ellipse cx="63.75" cy="889.5" fill="#ADD1B2" rx="11" ry="11" style="stroke: #A80036; stroke-width: 1.0;"/><path d="M66.5156,885.375 Q66.6719,885.1563 66.8594,885.0469 Q67.0469,884.9375 67.2656,884.9375 Q67.6406,884.9375 67.875,885.1953 Q68.1094,885.4531 68.1094,886.0625 L68.1094,887.5156 Q68.1094,888.125 67.875,888.3906 Q67.6406,888.6563 67.2656,888.6563 Q66.9219,888.6563 66.7188,888.4531 Q66.5156,888.2656 66.4063,887.75 Q66.3594,887.3906 66.1719,887.2031 Q65.8438,886.8281 65.2344,886.6094 Q64.625,886.3906 64,886.3906 Q63.2344,886.3906 62.6016,886.7188 Q61.9688,887.0469 61.4766,887.7969 Q60.9844,888.5469 60.9844,889.5781 L60.9844,890.6719 Q60.9844,891.9063 61.875,892.7266 Q62.7656,893.5469 64.3594,893.5469 Q65.2969,893.5469 65.9531,893.2969 Q66.3438,893.1406 66.7656,892.7031 Q67.0313,892.4375 67.1797,892.3594 Q67.3281,892.2813 67.5313,892.2813 Q67.8594,892.2813 68.1172,892.5391 Q68.375,892.7969 68.375,893.1406 Q68.375,893.4844 68.0313,893.8906 Q67.5313,894.4688 66.7344,894.7969 Q65.6563,895.25 64.3594,895.25 Q62.8438,895.25 61.6406,894.625 Q60.6563,894.125 59.9688,893.0547 Q59.2813,891.9844 59.2813,890.7031 L59.2813,889.5469 Q59.2813,888.2188 59.8984,887.0703 Q60.5156,885.9219 61.6094,885.3047 Q62.7031,884.6875 63.9375,884.6875 Q64.6719,884.6875 65.3203,884.8516 Q65.9688,885.0156 66.5156,885.375 Z "/><text fill="#000000" font-family="sans-serif" font-size="12" lengthAdjust="spacingAndGlyphs" textLength="143" x="84.25" y="894.4102">SecurityManagerBackdoor</text><line style="stroke: #A80036; stroke-width: 1.5;" x1="7" x2="272" y1="905.5" y2="905.5"/><line style="stroke: #A80036; stroke-width: 1.5;" x1="7" x2="272" y1="913.5" y2="913.5"/><ellipse cx="17" cy="925.918" fill="#84BE84" rx="3" ry="3" style="stroke: #038048; stroke-width: 1.0;"/><text fill="#000000" font-family="sans-serif" font-size="11" lengthAdjust="spacingAndGlyphs" textLength="241" x="26" y="928.9189">void SecurityManagerBackdoor(SecurityManager)</text><ellipse cx="17" cy="939.7539" fill="#84BE84" rx="3" ry="3" style="stroke: #038048; stroke-width: 1.0;"/><text fill="#000000" font-family="sans-serif" font-size="11" lengthAdjust="spacingAndGlyphs" textLength="137" x="26" y="942.7549">void checkAccept(String,int)</text><!--class SecurityManagerBackDoorDecorator--><rect fill="#98FB98" filter="url(#f1rysc1cneh67s)" height="374.4141" id="SecurityManagerBackDoorDecorator" style="stroke: #A80036; stroke-width: 1.5;" width="316" x="434.5" y="8"/><ellipse cx="487.75" cy="28.0938" fill="#A9DCDF" rx="11" ry="11" style="stroke: #A80036; stroke-width: 1.0;"/><path d="M489.9375,29.8594 L485.7969,29.8594 L485.375,30.8906 L485.7969,30.8906 Q486.4063,30.8906 486.6719,31.125 Q486.9375,31.3594 486.9375,31.75 Q486.9375,32.125 486.6719,32.3594 Q486.4063,32.5938 485.7969,32.5938 L483.5,32.5938 Q482.8906,32.5938 482.6328,32.3594 Q482.375,32.125 482.375,31.7344 Q482.375,31.3594 482.6484,31.1172 Q482.9219,30.875 483.5469,30.8906 L486.2188,24.2344 L485.1094,24.2344 Q484.5,24.2344 484.2344,24 Q483.9688,23.7656 483.9688,23.375 Q483.9688,23 484.2344,22.7656 Q484.5,22.5313 485.1094,22.5313 L488.7813,22.5313 L492.1719,30.8906 Q492.7656,30.8906 492.9531,31.0313 Q493.3438,31.2969 493.3438,31.75 Q493.3438,32.125 493.0859,32.3594 Q492.8281,32.5938 492.2188,32.5938 L489.9219,32.5938 Q489.3125,32.5938 489.0469,32.3594 Q488.7813,32.125 488.7813,31.7344 Q488.7813,31.3594 489.0469,31.125 Q489.3125,30.8906 489.9219,30.8906 L490.3438,30.8906 L489.9375,29.8594 Z M489.2188,28.1563 L487.8594,24.7813 L486.4844,28.1563 L489.2188,28.1563 Z "/><text fill="#000000" font-family="sans-serif" font-size="12" font-style="italic" lengthAdjust="spacingAndGlyphs" textLength="68" x="574.75" y="25.457">«Decorator»</text><text fill="#000000" font-family="sans-serif" font-size="12" font-style="italic" lengthAdjust="spacingAndGlyphs" textLength="201" x="508.25" y="40.5508">SecurityManagerBackDoorDecorator</text><line style="stroke: #A80036; stroke-width: 1.5;" x1="435.5" x2="749.5" y1="48.1875" y2="48.1875"/><polygon fill="none" points="445.5,55.6055,449.5,59.6055,445.5,63.6055,441.5,59.6055" style="stroke: #B38D22; stroke-width: 1.0;"/><text fill="#000000" font-family="sans-serif" font-size="11" lengthAdjust="spacingAndGlyphs" textLength="134" x="454.5" y="63.6064">SecurityManager decorated</text><polygon fill="none" points="445.5,69.4414,449.5,73.4414,445.5,77.4414,441.5,73.4414" style="stroke: #B38D22; stroke-width: 1.0;"/><text fill="#000000" font-family="sans-serif" font-size="11" lengthAdjust="spacingAndGlyphs" textLength="98" x="454.5" y="77.4424">boolean isDoorOpen</text><line style="stroke: #A80036; stroke-width: 1.5;" x1="435.5" x2="749.5" y1="83.8594" y2="83.8594"/><ellipse cx="445.5" cy="96.2773" fill="#84BE84" rx="3" ry="3" style="stroke: #038048; stroke-width: 1.0;"/><text fill="#000000" font-family="sans-serif" font-size="11" lengthAdjust="spacingAndGlyphs" textLength="290" x="454.5" y="99.2783">void SecurityManagerBackDoorDecorator(SecurityManager)</text><ellipse cx="445.5" cy="110.1133" fill="#84BE84" rx="3" ry="3" style="stroke: #038048; stroke-width: 1.0;"/><text fill="#000000" font-family="sans-serif" font-size="11" font-style="italic" lengthAdjust="spacingAndGlyphs" textLength="139" x="454.5" y="113.1143">void checkAccept(String,int)</text><ellipse cx="445.5" cy="123.9492" fill="#84BE84" rx="3" ry="3" style="stroke: #038048; stroke-width: 1.0;"/><text fill="#000000" font-family="sans-serif" font-size="11" lengthAdjust="spacingAndGlyphs" textLength="132" x="454.5" y="126.9502">void checkAccess(Thread)</text><ellipse cx="445.5" cy="137.7852" fill="#84BE84" rx="3" ry="3" style="stroke: #038048; stroke-width: 1.0;"/><text fill="#000000" font-family="sans-serif" font-size="11" lengthAdjust="spacingAndGlyphs" textLength="162" x="454.5" y="140.7861">void checkAccess(ThreadGroup)</text><ellipse cx="445.5" cy="151.6211" fill="#84BE84" rx="3" ry="3" style="stroke: #038048; stroke-width: 1.0;"/><text fill="#000000" font-family="sans-serif" font-size="11" lengthAdjust="spacingAndGlyphs" textLength="142" x="454.5" y="154.6221">void checkConnect(String,int)</text><ellipse cx="445.5" cy="165.457" fill="#84BE84" rx="3" ry="3" style="stroke: #038048; stroke-width: 1.0;"/><text fill="#000000" font-family="sans-serif" font-size="11" lengthAdjust="spacingAndGlyphs" textLength="176" x="454.5" y="168.458">void checkConnect(String,int,Object)</text><ellipse cx="445.5" cy="179.293" fill="#84BE84" rx="3" ry="3" style="stroke: #038048; stroke-width: 1.0;"/><text fill="#000000" font-family="sans-serif" font-size="11" lengthAdjust="spacingAndGlyphs" textLength="153" x="454.5" y="182.2939">void checkCreateClassLoader()</text><ellipse cx="445.5" cy="193.1289" fill="#84BE84" rx="3" ry="3" style="stroke: #038048; stroke-width: 1.0;"/><text fill="#000000" font-family="sans-serif" font-size="11" lengthAdjust="spacingAndGlyphs" textLength="118" x="454.5" y="196.1299">void checkDelete(String)</text><ellipse cx="445.5" cy="206.9648" fill="#84BE84" rx="3" ry="3" style="stroke: #038048; stroke-width: 1.0;"/><text fill="#000000" font-family="sans-serif" font-size="11" lengthAdjust="spacingAndGlyphs" textLength="112" x="454.5" y="209.9658">void checkExec(String)</text><ellipse cx="445.5" cy="220.8008" fill="#84BE84" rx="3" ry="3" style="stroke: #038048; stroke-width: 1.0;"/><text fill="#000000" font-family="sans-serif" font-size="11" lengthAdjust="spacingAndGlyphs" textLength="88" x="454.5" y="223.8018">void checkExit(int)</text><ellipse cx="445.5" cy="234.6367" fill="#84BE84" rx="3" ry="3" style="stroke: #038048; stroke-width: 1.0;"/><text fill="#000000" font-family="sans-serif" font-size="11" lengthAdjust="spacingAndGlyphs" textLength="100" x="454.5" y="237.6377">void checkListen(int)</text><ellipse cx="445.5" cy="248.4727" fill="#84BE84" rx="3" ry="3" style="stroke: #038048; stroke-width: 1.0;"/><text fill="#000000" font-family="sans-serif" font-size="11" lengthAdjust="spacingAndGlyphs" textLength="161" x="454.5" y="251.4736">void checkMulticast(InetAddress)</text><ellipse cx="445.5" cy="262.3086" fill="#84BE84" rx="3" ry="3" style="stroke: #038048; stroke-width: 1.0;"/><text fill="#000000" font-family="sans-serif" font-size="11" lengthAdjust="spacingAndGlyphs" textLength="167" x="454.5" y="265.3096">void checkPackageAccess(String)</text><ellipse cx="445.5" cy="276.1445" fill="#84BE84" rx="3" ry="3" style="stroke: #038048; stroke-width: 1.0;"/><text fill="#000000" font-family="sans-serif" font-size="11" lengthAdjust="spacingAndGlyphs" textLength="173" x="454.5" y="279.1455">void checkPackageDefinition(String)</text><ellipse cx="445.5" cy="289.9805" fill="#84BE84" rx="3" ry="3" style="stroke: #038048; stroke-width: 1.0;"/><text fill="#000000" font-family="sans-serif" font-size="11" lengthAdjust="spacingAndGlyphs" textLength="136" x="454.5" y="292.9814">void checkPrintJobAccess()</text><ellipse cx="445.5" cy="303.8164" fill="#84BE84" rx="3" ry="3" style="stroke: #038048; stroke-width: 1.0;"/><text fill="#000000" font-family="sans-serif" font-size="11" lengthAdjust="spacingAndGlyphs" textLength="147" x="454.5" y="306.8174">void checkPropertiesAccess()</text><ellipse cx="445.5" cy="317.6523" fill="#84BE84" rx="3" ry="3" style="stroke: #038048; stroke-width: 1.0;"/><text fill="#000000" font-family="sans-serif" font-size="11" lengthAdjust="spacingAndGlyphs" textLength="151" x="454.5" y="320.6533">void checkRead(FileDescriptor)</text><ellipse cx="445.5" cy="331.4883" fill="#84BE84" rx="3" ry="3" style="stroke: #038048; stroke-width: 1.0;"/><text fill="#000000" font-family="sans-serif" font-size="11" lengthAdjust="spacingAndGlyphs" textLength="166" x="454.5" y="334.4893">void checkSecurityAccess(String)</text><ellipse cx="445.5" cy="345.3242" fill="#84BE84" rx="3" ry="3" style="stroke: #038048; stroke-width: 1.0;"/><text fill="#000000" font-family="sans-serif" font-size="11" lengthAdjust="spacingAndGlyphs" textLength="113" x="454.5" y="348.3252">void checkSetFactory()</text><ellipse cx="445.5" cy="359.1602" fill="#84BE84" rx="3" ry="3" style="stroke: #038048; stroke-width: 1.0;"/><text fill="#000000" font-family="sans-serif" font-size="11" lengthAdjust="spacingAndGlyphs" textLength="151" x="454.5" y="362.1611">void checkWrite(FileDescriptor)</text><ellipse cx="445.5" cy="372.9961" fill="#84BE84" rx="3" ry="3" style="stroke: #038048; stroke-width: 1.0;"/><text fill="#000000" font-family="sans-serif" font-size="11" lengthAdjust="spacingAndGlyphs" textLength="113" x="454.5" y="375.9971">void checkWrite(String)</text><!--link SecurityManagerBackDoorDecorator to SecurityManagerBackdoor--><path d="M414.152,308 C414.152,308 254,308 254,308 C254,308 254,740.629 254,873.291 " fill="none" id="SecurityManagerBackDoorDecorator-SecurityManagerBackdoor" style="stroke: #A80036; stroke-width: 1.0;"/><polygon fill="none" points="414.152,301,434.152,308,414.152,315,414.152,301" style="stroke: #A80036; stroke-width: 1.0;"/><!--link java.lang.SecurityManager to SecurityManagerBackDoorDecorator--><path d="M693.167,461.784 C693.167,461.784 693.167,382.334 693.167,382.334 " fill="none" id="java.lang.SecurityManager-SecurityManagerBackDoorDecorator" style="stroke: #A80036; stroke-width: 1.0;"/><polygon fill="none" points="700.167,461.784,693.167,481.784,686.167,461.784,700.167,461.784" style="stroke: #A80036; stroke-width: 1.0;"/><!--link SecurityManagerBackDoorDecorator to java.lang.SecurityManager--><path d="M635.833,382.316 C635.833,382.316 635.833,476.703 635.833,476.703 " fill="none" id="SecurityManagerBackDoorDecorator-java.lang.SecurityManager" style="stroke: #008000; stroke-width: 1.0;"/><polygon fill="#008000" points="635.833,481.703,639.833,472.703,635.833,476.703,631.833,472.703,635.833,481.703" style="stroke: #008000; stroke-width: 1.0;"/><text fill="#000000" font-family="sans-serif" font-size="13" lengthAdjust="spacingAndGlyphs" textLength="73" x="593.5" y="426.4951">«Decorates»</text><!--link App to java.lang.SecurityManager--><path d="M328,233.02 C328,335.71 328,611 328,611 C328,611 573.285,611 573.285,611 " fill="none" id="App-java.lang.SecurityManager" style="stroke: #A80036; stroke-width: 1.0; stroke-dasharray: 7.0,7.0;"/><polygon fill="#A80036" points="578.285,611,569.285,607,573.285,611,569.285,615,578.285,611" style="stroke: #A80036; stroke-width: 1.0;"/><!--link SecurityManagerBackdoor to java.lang.SecurityManager--><path d="M263.5,873.217 C263.5,822.397 263.5,739 263.5,739 C263.5,739 573.311,739 573.311,739 " fill="none" id="SecurityManagerBackdoor-java.lang.SecurityManager" style="stroke: #A80036; stroke-width: 1.0; stroke-dasharray: 7.0,7.0;"/><polygon fill="#A80036" points="578.311,739,569.311,735,573.311,739,569.311,743,578.311,739" style="stroke: #A80036; stroke-width: 1.0;"/><!--link App to SecurityManagerBackdoor--><path d="M244.5,233.02 C244.5,233.02 244.5,868.141 244.5,868.141 " fill="none" id="App-SecurityManagerBackdoor" style="stroke: #A80036; stroke-width: 1.0; stroke-dasharray: 7.0,7.0;"/><polygon fill="#A80036" points="244.5,873.141,248.5,864.141,244.5,868.141,240.5,864.141,244.5,873.141" style="stroke: #A80036; stroke-width: 1.0;"/></g></svg>