<?xml version="1.0" encoding="UTF-8" standalone="no"?><svg xmlns="http://www.w3.org/2000/svg" xmlns:xlink="http://www.w3.org/1999/xlink" contentScriptType="application/ecmascript" contentStyleType="text/css" height="2316px" preserveAspectRatio="none" style="width:3185px;height:2316px;" version="1.1" viewBox="0 0 3185 2316" width="3185px" zoomAndPan="magnify"><defs><filter height="300%" id="f1sj1xw269qi7r" width="300%" x="-1" y="-1"><feGaussianBlur result="blurOut" stdDeviation="2.0"/><feColorMatrix in="blurOut" result="blurOut2" type="matrix" values="0 0 0 0 0 0 0 0 0 0 0 0 0 0 0 0 0 0 .4 0"/><feOffset dx="4.0" dy="4.0" in="blurOut2" result="blurOut3"/><feBlend in="SourceGraphic" in2="blurOut3" mode="normal"/></filter></defs><g><line style="stroke: #A80036; stroke-width: 1.0; stroke-dasharray: 5.0,5.0;" x1="40" x2="40" y1="39.6094" y2="2275.1094"/><line style="stroke: #A80036; stroke-width: 1.0; stroke-dasharray: 5.0,5.0;" x1="143" x2="143" y1="39.6094" y2="2275.1094"/><line style="stroke: #A80036; stroke-width: 1.0; stroke-dasharray: 5.0,5.0;" x1="475.5" x2="475.5" y1="39.6094" y2="2275.1094"/><line style="stroke: #A80036; stroke-width: 1.0; stroke-dasharray: 5.0,5.0;" x1="598.5" x2="598.5" y1="39.6094" y2="2275.1094"/><line style="stroke: #A80036; stroke-width: 1.0; stroke-dasharray: 5.0,5.0;" x1="715.5" x2="715.5" y1="39.6094" y2="2275.1094"/><line style="stroke: #A80036; stroke-width: 1.0; stroke-dasharray: 5.0,5.0;" x1="805.5" x2="805.5" y1="39.6094" y2="2275.1094"/><line style="stroke: #A80036; stroke-width: 1.0; stroke-dasharray: 5.0,5.0;" x1="891.5" x2="891.5" y1="39.6094" y2="2275.1094"/><line style="stroke: #A80036; stroke-width: 1.0; stroke-dasharray: 5.0,5.0;" x1="1015.5" x2="1015.5" y1="39.6094" y2="2275.1094"/><line style="stroke: #A80036; stroke-width: 1.0; stroke-dasharray: 5.0,5.0;" x1="1145.5" x2="1145.5" y1="39.6094" y2="2275.1094"/><line style="stroke: #A80036; stroke-width: 1.0; stroke-dasharray: 5.0,5.0;" x1="1246.5" x2="1246.5" y1="39.6094" y2="2275.1094"/><line style="stroke: #A80036; stroke-width: 1.0; stroke-dasharray: 5.0,5.0;" x1="1325.5" x2="1325.5" y1="39.6094" y2="2275.1094"/><line style="stroke: #A80036; stroke-width: 1.0; stroke-dasharray: 5.0,5.0;" x1="1501.5" x2="1501.5" y1="39.6094" y2="2275.1094"/><line style="stroke: #A80036; stroke-width: 1.0; stroke-dasharray: 5.0,5.0;" x1="1828" x2="1828" y1="39.6094" y2="2275.1094"/><line style="stroke: #A80036; stroke-width: 1.0; stroke-dasharray: 5.0,5.0;" x1="1928" x2="1928" y1="39.6094" y2="2275.1094"/><line style="stroke: #A80036; stroke-width: 1.0; stroke-dasharray: 5.0,5.0;" x1="2145.5" x2="2145.5" y1="39.6094" y2="2275.1094"/><line style="stroke: #A80036; stroke-width: 1.0; stroke-dasharray: 5.0,5.0;" x1="2306.5" x2="2306.5" y1="39.6094" y2="2275.1094"/><line style="stroke: #A80036; stroke-width: 1.0; stroke-dasharray: 5.0,5.0;" x1="2423.5" x2="2423.5" y1="39.6094" y2="2275.1094"/><line style="stroke: #A80036; stroke-width: 1.0; stroke-dasharray: 5.0,5.0;" x1="2518.5" x2="2518.5" y1="39.6094" y2="2275.1094"/><line style="stroke: #A80036; stroke-width: 1.0; stroke-dasharray: 5.0,5.0;" x1="2648.5" x2="2648.5" y1="39.6094" y2="2275.1094"/><line style="stroke: #A80036; stroke-width: 1.0; stroke-dasharray: 5.0,5.0;" x1="2795.5" x2="2795.5" y1="39.6094" y2="2275.1094"/><line style="stroke: #A80036; stroke-width: 1.0; stroke-dasharray: 5.0,5.0;" x1="2922.5" x2="2922.5" y1="39.6094" y2="2275.1094"/><line style="stroke: #A80036; stroke-width: 1.0; stroke-dasharray: 5.0,5.0;" x1="3048.5" x2="3048.5" y1="39.6094" y2="2275.1094"/><line style="stroke: #A80036; stroke-width: 1.0; stroke-dasharray: 5.0,5.0;" x1="3142.5" x2="3142.5" y1="39.6094" y2="2275.1094"/><rect fill="#FEFECE" filter="url(#f1sj1xw269qi7r)" height="31.6094" style="stroke: #A80036; stroke-width: 1.5;" width="61" x="8" y="3"/><text fill="#000000" font-family="sans-serif" font-size="14" lengthAdjust="spacingAndGlyphs" textLength="47" x="15" y="24.5332">Runner</text><rect fill="#FEFECE" filter="url(#f1sj1xw269qi7r)" height="31.6094" style="stroke: #A80036; stroke-width: 1.5;" width="61" x="8" y="2274.1094"/><text fill="#000000" font-family="sans-serif" font-size="14" lengthAdjust="spacingAndGlyphs" textLength="47" x="15" y="2295.6426">Runner</text><rect fill="#FEFECE" filter="url(#f1sj1xw269qi7r)" height="31.6094" style="stroke: #A80036; stroke-width: 1.5;" width="117" x="83" y="3"/><text fill="#000000" font-family="sans-serif" font-size="14" lengthAdjust="spacingAndGlyphs" textLength="103" x="90" y="24.5332">PropertiesSetter</text><rect fill="#FEFECE" filter="url(#f1sj1xw269qi7r)" height="31.6094" style="stroke: #A80036; stroke-width: 1.5;" width="117" x="83" y="2274.1094"/><text fill="#000000" font-family="sans-serif" font-size="14" lengthAdjust="spacingAndGlyphs" textLength="103" x="90" y="2295.6426">PropertiesSetter</text><rect fill="#FEFECE" filter="url(#f1sj1xw269qi7r)" height="31.6094" style="stroke: #A80036; stroke-width: 1.5;" width="126" x="410.5" y="3"/><text fill="#000000" font-family="sans-serif" font-size="14" lengthAdjust="spacingAndGlyphs" textLength="112" x="417.5" y="24.5332">ArrayListMultimap</text><rect fill="#FEFECE" filter="url(#f1sj1xw269qi7r)" height="31.6094" style="stroke: #A80036; stroke-width: 1.5;" width="126" x="410.5" y="2274.1094"/><text fill="#000000" font-family="sans-serif" font-size="14" lengthAdjust="spacingAndGlyphs" textLength="112" x="417.5" y="2295.6426">ArrayListMultimap</text><rect fill="#FEFECE" filter="url(#f1sj1xw269qi7r)" height="31.6094" style="stroke: #A80036; stroke-width: 1.5;" width="92" x="550.5" y="3"/><text fill="#000000" font-family="sans-serif" font-size="14" lengthAdjust="spacingAndGlyphs" textLength="78" x="557.5" y="24.5332">ListMultimap</text><rect fill="#FEFECE" filter="url(#f1sj1xw269qi7r)" height="31.6094" style="stroke: #A80036; stroke-width: 1.5;" width="92" x="550.5" y="2274.1094"/><text fill="#000000" font-family="sans-serif" font-size="14" lengthAdjust="spacingAndGlyphs" textLength="78" x="557.5" y="2295.6426">ListMultimap</text><rect fill="#FEFECE" filter="url(#f1sj1xw269qi7r)" height="31.6094" style="stroke: #A80036; stroke-width: 1.5;" width="115" x="656.5" y="3"/><text fill="#000000" font-family="sans-serif" font-size="14" lengthAdjust="spacingAndGlyphs" textLength="101" x="663.5" y="24.5332">IdentityArrayList</text><rect fill="#FEFECE" filter="url(#f1sj1xw269qi7r)" height="31.6094" style="stroke: #A80036; stroke-width: 1.5;" width="115" x="656.5" y="2274.1094"/><text fill="#000000" font-family="sans-serif" font-size="14" lengthAdjust="spacingAndGlyphs" textLength="101" x="663.5" y="2295.6426">IdentityArrayList</text><rect fill="#FEFECE" filter="url(#f1sj1xw269qi7r)" height="31.6094" style="stroke: #A80036; stroke-width: 1.5;" width="36" x="785.5" y="3"/><text fill="#000000" font-family="sans-serif" font-size="14" lengthAdjust="spacingAndGlyphs" textLength="22" x="792.5" y="24.5332">List</text><rect fill="#FEFECE" filter="url(#f1sj1xw269qi7r)" height="31.6094" style="stroke: #A80036; stroke-width: 1.5;" width="36" x="785.5" y="2274.1094"/><text fill="#000000" font-family="sans-serif" font-size="14" lengthAdjust="spacingAndGlyphs" textLength="22" x="792.5" y="2295.6426">List</text><rect fill="#FEFECE" filter="url(#f1sj1xw269qi7r)" height="31.6094" style="stroke: #A80036; stroke-width: 1.5;" width="109" x="835.5" y="3"/><text fill="#000000" font-family="sans-serif" font-size="14" lengthAdjust="spacingAndGlyphs" textLength="95" x="842.5" y="24.5332">InvokeDynamic</text><rect fill="#FEFECE" filter="url(#f1sj1xw269qi7r)" height="31.6094" style="stroke: #A80036; stroke-width: 1.5;" width="109" x="835.5" y="2274.1094"/><text fill="#000000" font-family="sans-serif" font-size="14" lengthAdjust="spacingAndGlyphs" textLength="95" x="842.5" y="2295.6426">InvokeDynamic</text><rect fill="#FEFECE" filter="url(#f1sj1xw269qi7r)" height="31.6094" style="stroke: #A80036; stroke-width: 1.5;" width="110" x="958.5" y="3"/><text fill="#000000" font-family="sans-serif" font-size="14" lengthAdjust="spacingAndGlyphs" textLength="96" x="965.5" y="24.5332">PipelineModule</text><rect fill="#FEFECE" filter="url(#f1sj1xw269qi7r)" height="31.6094" style="stroke: #A80036; stroke-width: 1.5;" width="110" x="958.5" y="2274.1094"/><text fill="#000000" font-family="sans-serif" font-size="14" lengthAdjust="spacingAndGlyphs" textLength="96" x="965.5" y="2295.6426">PipelineModule</text><rect fill="#FEFECE" filter="url(#f1sj1xw269qi7r)" height="31.6094" style="stroke: #A80036; stroke-width: 1.5;" width="123" x="1082.5" y="3"/><text fill="#000000" font-family="sans-serif" font-size="14" lengthAdjust="spacingAndGlyphs" textLength="109" x="1089.5" y="24.5332">ReflectionModule</text><rect fill="#FEFECE" filter="url(#f1sj1xw269qi7r)" height="31.6094" style="stroke: #A80036; stroke-width: 1.5;" width="123" x="1082.5" y="2274.1094"/><text fill="#000000" font-family="sans-serif" font-size="14" lengthAdjust="spacingAndGlyphs" textLength="109" x="1089.5" y="2295.6426">ReflectionModule</text><rect fill="#FEFECE" filter="url(#f1sj1xw269qi7r)" height="31.6094" style="stroke: #A80036; stroke-width: 1.5;" width="51" x="1219.5" y="3"/><text fill="#000000" font-family="sans-serif" font-size="14" lengthAdjust="spacingAndGlyphs" textLength="37" x="1226.5" y="24.5332">Guice</text><rect fill="#FEFECE" filter="url(#f1sj1xw269qi7r)" height="31.6094" style="stroke: #A80036; stroke-width: 1.5;" width="51" x="1219.5" y="2274.1094"/><text fill="#000000" font-family="sans-serif" font-size="14" lengthAdjust="spacingAndGlyphs" textLength="37" x="1226.5" y="2295.6426">Guice</text><rect fill="#FEFECE" filter="url(#f1sj1xw269qi7r)" height="31.6094" style="stroke: #A80036; stroke-width: 1.5;" width="78" x="1284.5" y="3"/><text fill="#000000" font-family="sans-serif" font-size="14" lengthAdjust="spacingAndGlyphs" textLength="64" x="1291.5" y="24.5332">Processor</text><rect fill="#FEFECE" filter="url(#f1sj1xw269qi7r)" height="31.6094" style="stroke: #A80036; stroke-width: 1.5;" width="78" x="1284.5" y="2274.1094"/><text fill="#000000" font-family="sans-serif" font-size="14" lengthAdjust="spacingAndGlyphs" textLength="64" x="1291.5" y="2295.6426">Processor</text><rect fill="#FEFECE" filter="url(#f1sj1xw269qi7r)" height="31.6094" style="stroke: #A80036; stroke-width: 1.5;" width="247" x="1376.5" y="3"/><text fill="#000000" font-family="sans-serif" font-size="14" lengthAdjust="spacingAndGlyphs" textLength="233" x="1383.5" y="24.5332">InheritanceOverCompositionAnalyzer</text><rect fill="#FEFECE" filter="url(#f1sj1xw269qi7r)" height="31.6094" style="stroke: #A80036; stroke-width: 1.5;" width="247" x="1376.5" y="2274.1094"/><text fill="#000000" font-family="sans-serif" font-size="14" lengthAdjust="spacingAndGlyphs" textLength="233" x="1383.5" y="2295.6426">InheritanceOverCompositionAnalyzer</text><rect fill="#FEFECE" filter="url(#f1sj1xw269qi7r)" height="31.6094" style="stroke: #A80036; stroke-width: 1.5;" width="112" x="1770" y="3"/><text fill="#000000" font-family="sans-serif" font-size="14" lengthAdjust="spacingAndGlyphs" textLength="98" x="1777" y="24.5332">AnalyzerBundle</text><rect fill="#FEFECE" filter="url(#f1sj1xw269qi7r)" height="31.6094" style="stroke: #A80036; stroke-width: 1.5;" width="112" x="1770" y="2274.1094"/><text fill="#000000" font-family="sans-serif" font-size="14" lengthAdjust="spacingAndGlyphs" textLength="98" x="1777" y="2295.6426">AnalyzerBundle</text><rect fill="#FEFECE" filter="url(#f1sj1xw269qi7r)" height="31.6094" style="stroke: #A80036; stroke-width: 1.5;" width="60" x="1896" y="3"/><text fill="#000000" font-family="sans-serif" font-size="14" lengthAdjust="spacingAndGlyphs" textLength="46" x="1903" y="24.5332">Pattern</text><rect fill="#FEFECE" filter="url(#f1sj1xw269qi7r)" height="31.6094" style="stroke: #A80036; stroke-width: 1.5;" width="60" x="1896" y="2274.1094"/><text fill="#000000" font-family="sans-serif" font-size="14" lengthAdjust="spacingAndGlyphs" textLength="46" x="1903" y="2295.6426">Pattern</text><rect fill="#FEFECE" filter="url(#f1sj1xw269qi7r)" height="31.6094" style="stroke: #A80036; stroke-width: 1.5;" width="191" x="2048.5" y="3"/><text fill="#000000" font-family="sans-serif" font-size="14" lengthAdjust="spacingAndGlyphs" textLength="177" x="2055.5" y="24.5332">TypeAnnotationLocationInfo</text><rect fill="#FEFECE" filter="url(#f1sj1xw269qi7r)" height="31.6094" style="stroke: #A80036; stroke-width: 1.5;" width="191" x="2048.5" y="2274.1094"/><text fill="#000000" font-family="sans-serif" font-size="14" lengthAdjust="spacingAndGlyphs" textLength="177" x="2055.5" y="2295.6426">TypeAnnotationLocationInfo</text><rect fill="#FEFECE" filter="url(#f1sj1xw269qi7r)" height="31.6094" style="stroke: #A80036; stroke-width: 1.5;" width="102" x="2253.5" y="3"/><text fill="#000000" font-family="sans-serif" font-size="14" lengthAdjust="spacingAndGlyphs" textLength="88" x="2260.5" y="24.5332">HashMultimap</text><rect fill="#FEFECE" filter="url(#f1sj1xw269qi7r)" height="31.6094" style="stroke: #A80036; stroke-width: 1.5;" width="102" x="2253.5" y="2274.1094"/><text fill="#000000" font-family="sans-serif" font-size="14" lengthAdjust="spacingAndGlyphs" textLength="88" x="2260.5" y="2295.6426">HashMultimap</text><rect fill="#FEFECE" filter="url(#f1sj1xw269qi7r)" height="31.6094" style="stroke: #A80036; stroke-width: 1.5;" width="104" x="2369.5" y="3"/><text fill="#000000" font-family="sans-serif" font-size="14" lengthAdjust="spacingAndGlyphs" textLength="90" x="2376.5" y="24.5332">QueueReader</text><rect fill="#FEFECE" filter="url(#f1sj1xw269qi7r)" height="31.6094" style="stroke: #A80036; stroke-width: 1.5;" width="104" x="2369.5" y="2274.1094"/><text fill="#000000" font-family="sans-serif" font-size="14" lengthAdjust="spacingAndGlyphs" textLength="90" x="2376.5" y="2295.6426">QueueReader</text><rect fill="#FEFECE" filter="url(#f1sj1xw269qi7r)" height="31.6094" style="stroke: #A80036; stroke-width: 1.5;" width="59" x="2487.5" y="3"/><text fill="#000000" font-family="sans-serif" font-size="14" lengthAdjust="spacingAndGlyphs" textLength="45" x="2494.5" y="24.5332">Iterator</text><rect fill="#FEFECE" filter="url(#f1sj1xw269qi7r)" height="31.6094" style="stroke: #A80036; stroke-width: 1.5;" width="59" x="2487.5" y="2274.1094"/><text fill="#000000" font-family="sans-serif" font-size="14" lengthAdjust="spacingAndGlyphs" textLength="45" x="2494.5" y="2295.6426">Iterator</text><rect fill="#FEFECE" filter="url(#f1sj1xw269qi7r)" height="31.6094" style="stroke: #A80036; stroke-width: 1.5;" width="173" x="2560.5" y="3"/><text fill="#000000" font-family="sans-serif" font-size="14" lengthAdjust="spacingAndGlyphs" textLength="159" x="2567.5" y="24.5332">SegmentColoredIterator2</text><rect fill="#FEFECE" filter="url(#f1sj1xw269qi7r)" height="31.6094" style="stroke: #A80036; stroke-width: 1.5;" width="173" x="2560.5" y="2274.1094"/><text fill="#000000" font-family="sans-serif" font-size="14" lengthAdjust="spacingAndGlyphs" textLength="159" x="2567.5" y="2295.6426">SegmentColoredIterator2</text><rect fill="#FEFECE" filter="url(#f1sj1xw269qi7r)" height="31.6094" style="stroke: #A80036; stroke-width: 1.5;" width="92" x="2747.5" y="3"/><text fill="#000000" font-family="sans-serif" font-size="14" lengthAdjust="spacingAndGlyphs" textLength="78" x="2754.5" y="24.5332">Relationship</text><rect fill="#FEFECE" filter="url(#f1sj1xw269qi7r)" height="31.6094" style="stroke: #A80036; stroke-width: 1.5;" width="92" x="2747.5" y="2274.1094"/><text fill="#000000" font-family="sans-serif" font-size="14" lengthAdjust="spacingAndGlyphs" textLength="78" x="2754.5" y="2295.6426">Relationship</text><rect fill="#FEFECE" filter="url(#f1sj1xw269qi7r)" height="31.6094" style="stroke: #A80036; stroke-width: 1.5;" width="134" x="2853.5" y="3"/><text fill="#000000" font-family="sans-serif" font-size="14" lengthAdjust="spacingAndGlyphs" textLength="120" x="2860.5" y="24.5332">ImmutableMultimap</text><rect fill="#FEFECE" filter="url(#f1sj1xw269qi7r)" height="31.6094" style="stroke: #A80036; stroke-width: 1.5;" width="134" x="2853.5" y="2274.1094"/><text fill="#000000" font-family="sans-serif" font-size="14" lengthAdjust="spacingAndGlyphs" textLength="120" x="2860.5" y="2295.6426">ImmutableMultimap</text><rect fill="#FEFECE" filter="url(#f1sj1xw269qi7r)" height="31.6094" style="stroke: #A80036; stroke-width: 1.5;" width="91" x="3001.5" y="3"/><text fill="#000000" font-family="sans-serif" font-size="14" lengthAdjust="spacingAndGlyphs" textLength="77" x="3008.5" y="24.5332">SetMultimap</text><rect fill="#FEFECE" filter="url(#f1sj1xw269qi7r)" height="31.6094" style="stroke: #A80036; stroke-width: 1.5;" width="91" x="3001.5" y="2274.1094"/><text fill="#000000" font-family="sans-serif" font-size="14" lengthAdjust="spacingAndGlyphs" textLength="77" x="3008.5" y="2295.6426">SetMultimap</text><rect fill="#FEFECE" filter="url(#f1sj1xw269qi7r)" height="31.6094" style="stroke: #A80036; stroke-width: 1.5;" width="68" x="3106.5" y="3"/><text fill="#000000" font-family="sans-serif" font-size="14" lengthAdjust="spacingAndGlyphs" textLength="54" x="3113.5" y="24.5332">Analyzer</text><rect fill="#FEFECE" filter="url(#f1sj1xw269qi7r)" height="31.6094" style="stroke: #A80036; stroke-width: 1.5;" width="68" x="3106.5" y="2274.1094"/><text fill="#000000" font-family="sans-serif" font-size="14" lengthAdjust="spacingAndGlyphs" textLength="54" x="3113.5" y="2295.6426">Analyzer</text><polygon fill="#A80036" points="131.5,67.6094,141.5,71.6094,131.5,75.6094,135.5,71.6094" style="stroke: #A80036; stroke-width: 1.0;"/><line style="stroke: #A80036; stroke-width: 1.0;" x1="40.5" x2="137.5" y1="71.6094" y2="71.6094"/><text fill="#000000" font-family="sans-serif" font-size="13" lengthAdjust="spacingAndGlyphs" textLength="68" x="47.5" y="67.1045">set(String[])</text><line style="stroke: #A80036; stroke-width: 1.0;" x1="143.5" x2="185.5" y1="102.3125" y2="102.3125"/><line style="stroke: #A80036; stroke-width: 1.0;" x1="185.5" x2="185.5" y1="102.3125" y2="115.3125"/><line style="stroke: #A80036; stroke-width: 1.0;" x1="144.5" x2="185.5" y1="115.3125" y2="115.3125"/><polygon fill="#A80036" points="154.5,111.3125,144.5,115.3125,154.5,119.3125,150.5,115.3125" style="stroke: #A80036; stroke-width: 1.0;"/><text fill="#000000" font-family="sans-serif" font-size="13" lengthAdjust="spacingAndGlyphs" textLength="104" x="150.5" y="97.4561">setConfig(String[])</text><line style="stroke: #A80036; stroke-width: 1.0;" x1="143.5" x2="185.5" y1="145.6641" y2="145.6641"/><line style="stroke: #A80036; stroke-width: 1.0;" x1="185.5" x2="185.5" y1="145.6641" y2="158.6641"/><line style="stroke: #A80036; stroke-width: 1.0;" x1="144.5" x2="185.5" y1="158.6641" y2="158.6641"/><polygon fill="#A80036" points="154.5,154.6641,144.5,158.6641,154.5,162.6641,150.5,158.6641" style="stroke: #A80036; stroke-width: 1.0;"/><text fill="#000000" font-family="sans-serif" font-size="13" lengthAdjust="spacingAndGlyphs" textLength="141" x="150.5" y="140.8076">preprocessArgs(String[])</text><line style="stroke: #A80036; stroke-width: 1.0; stroke-dasharray: 2.0,2.0;" x1="143.5" x2="185.5" y1="189.0156" y2="189.0156"/><line style="stroke: #A80036; stroke-width: 1.0; stroke-dasharray: 2.0,2.0;" x1="185.5" x2="185.5" y1="189.0156" y2="202.0156"/><line style="stroke: #A80036; stroke-width: 1.0; stroke-dasharray: 2.0,2.0;" x1="144.5" x2="185.5" y1="202.0156" y2="202.0156"/><polygon fill="#A80036" points="154.5,198.0156,144.5,202.0156,154.5,206.0156,150.5,202.0156" style="stroke: #A80036; stroke-width: 1.0;"/><text fill="#000000" font-family="sans-serif" font-size="13" lengthAdjust="spacingAndGlyphs" textLength="42" x="150.5" y="184.1592">String[]</text><line style="stroke: #A80036; stroke-width: 1.0;" x1="143.5" x2="185.5" y1="232.3672" y2="232.3672"/><line style="stroke: #A80036; stroke-width: 1.0;" x1="185.5" x2="185.5" y1="232.3672" y2="245.3672"/><line style="stroke: #A80036; stroke-width: 1.0;" x1="144.5" x2="185.5" y1="245.3672" y2="245.3672"/><polygon fill="#A80036" points="154.5,241.3672,144.5,245.3672,154.5,249.3672,150.5,245.3672" style="stroke: #A80036; stroke-width: 1.0;"/><text fill="#000000" font-family="sans-serif" font-size="13" lengthAdjust="spacingAndGlyphs" textLength="82" x="150.5" y="227.5107">parse(String[])</text><polygon fill="#A80036" points="463.5,271.3672,473.5,275.3672,463.5,279.3672,467.5,275.3672" style="stroke: #A80036; stroke-width: 1.0;"/><line style="stroke: #A80036; stroke-width: 1.0;" x1="143.5" x2="469.5" y1="275.3672" y2="275.3672"/><text fill="#000000" font-family="sans-serif" font-size="13" lengthAdjust="spacingAndGlyphs" textLength="44" x="150.5" y="270.8623">create()</text><line style="stroke: #A80036; stroke-width: 1.0; stroke-dasharray: 2.0,2.0;" x1="475.5" x2="517.5" y1="306.0703" y2="306.0703"/><line style="stroke: #A80036; stroke-width: 1.0; stroke-dasharray: 2.0,2.0;" x1="517.5" x2="517.5" y1="306.0703" y2="319.0703"/><line style="stroke: #A80036; stroke-width: 1.0; stroke-dasharray: 2.0,2.0;" x1="476.5" x2="517.5" y1="319.0703" y2="319.0703"/><polygon fill="#A80036" points="486.5,315.0703,476.5,319.0703,486.5,323.0703,482.5,319.0703" style="stroke: #A80036; stroke-width: 1.0;"/><text fill="#000000" font-family="sans-serif" font-size="13" lengthAdjust="spacingAndGlyphs" textLength="105" x="482.5" y="301.2139">ArrayListMultimap</text><polygon fill="#A80036" points="463.5,345.0703,473.5,349.0703,463.5,353.0703,467.5,349.0703" style="stroke: #A80036; stroke-width: 1.0;"/><line style="stroke: #A80036; stroke-width: 1.0;" x1="143.5" x2="469.5" y1="349.0703" y2="349.0703"/><text fill="#000000" font-family="sans-serif" font-size="13" lengthAdjust="spacingAndGlyphs" textLength="106" x="150.5" y="344.5654">put(Object,Object)</text><polygon fill="#A80036" points="586.5,375.4219,596.5,379.4219,586.5,383.4219,590.5,379.4219" style="stroke: #A80036; stroke-width: 1.0;"/><line style="stroke: #A80036; stroke-width: 1.0; stroke-dasharray: 2.0,2.0;" x1="475.5" x2="592.5" y1="379.4219" y2="379.4219"/><text fill="#000000" font-family="sans-serif" font-size="13" lengthAdjust="spacingAndGlyphs" textLength="45" x="482.5" y="374.917">boolean</text><polygon fill="#A80036" points="463.5,405.7734,473.5,409.7734,463.5,413.7734,467.5,409.7734" style="stroke: #A80036; stroke-width: 1.0;"/><line style="stroke: #A80036; stroke-width: 1.0;" x1="143.5" x2="469.5" y1="409.7734" y2="409.7734"/><text fill="#000000" font-family="sans-serif" font-size="13" lengthAdjust="spacingAndGlyphs" textLength="106" x="150.5" y="405.2686">put(Object,Object)</text><polygon fill="#A80036" points="586.5,436.125,596.5,440.125,586.5,444.125,590.5,440.125" style="stroke: #A80036; stroke-width: 1.0;"/><line style="stroke: #A80036; stroke-width: 1.0; stroke-dasharray: 2.0,2.0;" x1="475.5" x2="592.5" y1="440.125" y2="440.125"/><text fill="#000000" font-family="sans-serif" font-size="13" lengthAdjust="spacingAndGlyphs" textLength="45" x="482.5" y="435.6201">boolean</text><line style="stroke: #A80036; stroke-width: 1.0; stroke-dasharray: 2.0,2.0;" x1="143.5" x2="185.5" y1="470.8281" y2="470.8281"/><line style="stroke: #A80036; stroke-width: 1.0; stroke-dasharray: 2.0,2.0;" x1="185.5" x2="185.5" y1="470.8281" y2="483.8281"/><line style="stroke: #A80036; stroke-width: 1.0; stroke-dasharray: 2.0,2.0;" x1="144.5" x2="185.5" y1="483.8281" y2="483.8281"/><polygon fill="#A80036" points="154.5,479.8281,144.5,483.8281,154.5,487.8281,150.5,483.8281" style="stroke: #A80036; stroke-width: 1.0;"/><text fill="#000000" font-family="sans-serif" font-size="13" lengthAdjust="spacingAndGlyphs" textLength="162" x="150.5" y="465.9717">ListMultimap&lt;String,String&gt;</text><line style="stroke: #A80036; stroke-width: 1.0;" x1="143.5" x2="185.5" y1="514.1797" y2="514.1797"/><line style="stroke: #A80036; stroke-width: 1.0;" x1="185.5" x2="185.5" y1="514.1797" y2="527.1797"/><line style="stroke: #A80036; stroke-width: 1.0;" x1="144.5" x2="185.5" y1="527.1797" y2="527.1797"/><polygon fill="#A80036" points="154.5,523.1797,144.5,527.1797,154.5,531.1797,150.5,527.1797" style="stroke: #A80036; stroke-width: 1.0;"/><text fill="#000000" font-family="sans-serif" font-size="13" lengthAdjust="spacingAndGlyphs" textLength="251" x="150.5" y="509.3232">loadConfigFile(ListMultimap&lt;String,String&gt;)</text><polygon fill="#A80036" points="463.5,553.1797,473.5,557.1797,463.5,561.1797,467.5,557.1797" style="stroke: #A80036; stroke-width: 1.0;"/><line style="stroke: #A80036; stroke-width: 1.0;" x1="143.5" x2="469.5" y1="557.1797" y2="557.1797"/><text fill="#000000" font-family="sans-serif" font-size="13" lengthAdjust="spacingAndGlyphs" textLength="64" x="150.5" y="552.6748">get(Object)</text><polygon fill="#A80036" points="586.5,583.5313,596.5,587.5313,586.5,591.5313,590.5,587.5313" style="stroke: #A80036; stroke-width: 1.0;"/><line style="stroke: #A80036; stroke-width: 1.0; stroke-dasharray: 2.0,2.0;" x1="475.5" x2="592.5" y1="587.5313" y2="587.5313"/><text fill="#000000" font-family="sans-serif" font-size="13" lengthAdjust="spacingAndGlyphs" textLength="21" x="482.5" y="583.0264">List</text><polygon fill="#A80036" points="704,613.8828,714,617.8828,704,621.8828,708,617.8828" style="stroke: #A80036; stroke-width: 1.0;"/><line style="stroke: #A80036; stroke-width: 1.0;" x1="143.5" x2="710" y1="617.8828" y2="617.8828"/><text fill="#000000" font-family="sans-serif" font-size="13" lengthAdjust="spacingAndGlyphs" textLength="32" x="150.5" y="613.3779">size()</text><polygon fill="#A80036" points="793.5,644.2344,803.5,648.2344,793.5,652.2344,797.5,648.2344" style="stroke: #A80036; stroke-width: 1.0;"/><line style="stroke: #A80036; stroke-width: 1.0; stroke-dasharray: 2.0,2.0;" x1="716" x2="799.5" y1="648.2344" y2="648.2344"/><text fill="#000000" font-family="sans-serif" font-size="13" lengthAdjust="spacingAndGlyphs" textLength="14" x="723" y="643.7295">int</text><line style="stroke: #A80036; stroke-width: 1.0; stroke-dasharray: 2.0,2.0;" x1="143.5" x2="185.5" y1="678.9375" y2="678.9375"/><line style="stroke: #A80036; stroke-width: 1.0; stroke-dasharray: 2.0,2.0;" x1="185.5" x2="185.5" y1="678.9375" y2="691.9375"/><line style="stroke: #A80036; stroke-width: 1.0; stroke-dasharray: 2.0,2.0;" x1="144.5" x2="185.5" y1="691.9375" y2="691.9375"/><polygon fill="#A80036" points="154.5,687.9375,144.5,691.9375,154.5,695.9375,150.5,691.9375" style="stroke: #A80036; stroke-width: 1.0;"/><text fill="#000000" font-family="sans-serif" font-size="13" lengthAdjust="spacingAndGlyphs" textLength="70" x="150.5" y="674.0811">InputStream</text><line style="stroke: #A80036; stroke-width: 1.0;" x1="143.5" x2="185.5" y1="722.2891" y2="722.2891"/><line style="stroke: #A80036; stroke-width: 1.0;" x1="185.5" x2="185.5" y1="722.2891" y2="735.2891"/><line style="stroke: #A80036; stroke-width: 1.0;" x1="144.5" x2="185.5" y1="735.2891" y2="735.2891"/><polygon fill="#A80036" points="154.5,731.2891,144.5,735.2891,154.5,739.2891,150.5,735.2891" style="stroke: #A80036; stroke-width: 1.0;"/><text fill="#000000" font-family="sans-serif" font-size="13" lengthAdjust="spacingAndGlyphs" textLength="200" x="150.5" y="717.4326">setSystemProperties(InputStream)</text><line style="stroke: #A80036; stroke-width: 1.0;" x1="143.5" x2="185.5" y1="765.6406" y2="765.6406"/><line style="stroke: #A80036; stroke-width: 1.0;" x1="185.5" x2="185.5" y1="765.6406" y2="778.6406"/><line style="stroke: #A80036; stroke-width: 1.0;" x1="144.5" x2="185.5" y1="778.6406" y2="778.6406"/><polygon fill="#A80036" points="154.5,774.6406,144.5,778.6406,154.5,782.6406,150.5,778.6406" style="stroke: #A80036; stroke-width: 1.0;"/><text fill="#000000" font-family="sans-serif" font-size="13" lengthAdjust="spacingAndGlyphs" textLength="318" x="150.5" y="760.7842">overrideSystemProperties(ListMultimap&lt;String,String&gt;)</text><polygon fill="#A80036" points="463.5,804.6406,473.5,808.6406,463.5,812.6406,467.5,808.6406" style="stroke: #A80036; stroke-width: 1.0;"/><line style="stroke: #A80036; stroke-width: 1.0;" x1="143.5" x2="469.5" y1="808.6406" y2="808.6406"/><text fill="#000000" font-family="sans-serif" font-size="13" lengthAdjust="spacingAndGlyphs" textLength="36" x="150.5" y="804.1357">keys()</text><polygon fill="#A80036" points="586.5,834.9922,596.5,838.9922,586.5,842.9922,590.5,838.9922" style="stroke: #A80036; stroke-width: 1.0;"/><line style="stroke: #A80036; stroke-width: 1.0; stroke-dasharray: 2.0,2.0;" x1="475.5" x2="592.5" y1="838.9922" y2="838.9922"/><text fill="#000000" font-family="sans-serif" font-size="13" lengthAdjust="spacingAndGlyphs" textLength="46" x="482.5" y="834.4873">Multiset</text><polygon fill="#A80036" points="880,865.3438,890,869.3438,880,873.3438,884,869.3438" style="stroke: #A80036; stroke-width: 1.0;"/><line style="stroke: #A80036; stroke-width: 1.0;" x1="143.5" x2="886" y1="869.3438" y2="869.3438"/><text fill="#000000" font-family="sans-serif" font-size="13" lengthAdjust="spacingAndGlyphs" textLength="121" x="150.5" y="864.8389">accept(ListMultimap)</text><line style="stroke: #A80036; stroke-width: 1.0; stroke-dasharray: 2.0,2.0;" x1="892" x2="934" y1="900.0469" y2="900.0469"/><line style="stroke: #A80036; stroke-width: 1.0; stroke-dasharray: 2.0,2.0;" x1="934" x2="934" y1="900.0469" y2="913.0469"/><line style="stroke: #A80036; stroke-width: 1.0; stroke-dasharray: 2.0,2.0;" x1="893" x2="934" y1="913.0469" y2="913.0469"/><polygon fill="#A80036" points="903,909.0469,893,913.0469,903,917.0469,899,913.0469" style="stroke: #A80036; stroke-width: 1.0;"/><text fill="#000000" font-family="sans-serif" font-size="13" lengthAdjust="spacingAndGlyphs" textLength="59" x="899" y="895.1904">Consumer</text><polygon fill="#A80036" points="1003.5,939.0469,1013.5,943.0469,1003.5,947.0469,1007.5,943.0469" style="stroke: #A80036; stroke-width: 1.0;"/><line style="stroke: #A80036; stroke-width: 1.0;" x1="40.5" x2="1009.5" y1="943.0469" y2="943.0469"/><text fill="#000000" font-family="sans-serif" font-size="13" lengthAdjust="spacingAndGlyphs" textLength="123" x="47.5" y="938.542">new PipelineModule()</text><polygon fill="#A80036" points="1134,969.3984,1144,973.3984,1134,977.3984,1138,973.3984" style="stroke: #A80036; stroke-width: 1.0;"/><line style="stroke: #A80036; stroke-width: 1.0;" x1="40.5" x2="1140" y1="973.3984" y2="973.3984"/><text fill="#000000" font-family="sans-serif" font-size="13" lengthAdjust="spacingAndGlyphs" textLength="134" x="47.5" y="968.8936">new ReflectionModule()</text><polygon fill="#A80036" points="1235,999.75,1245,1003.75,1235,1007.75,1239,1003.75" style="stroke: #A80036; stroke-width: 1.0;"/><line style="stroke: #A80036; stroke-width: 1.0;" x1="40.5" x2="1241" y1="1003.75" y2="1003.75"/><text fill="#000000" font-family="sans-serif" font-size="13" lengthAdjust="spacingAndGlyphs" textLength="136" x="47.5" y="999.2451">createInjector(Module[])</text><line style="stroke: #A80036; stroke-width: 1.0; stroke-dasharray: 2.0,2.0;" x1="1247" x2="1289" y1="1034.4531" y2="1034.4531"/><line style="stroke: #A80036; stroke-width: 1.0; stroke-dasharray: 2.0,2.0;" x1="1289" x2="1289" y1="1034.4531" y2="1047.4531"/><line style="stroke: #A80036; stroke-width: 1.0; stroke-dasharray: 2.0,2.0;" x1="1248" x2="1289" y1="1047.4531" y2="1047.4531"/><polygon fill="#A80036" points="1258,1043.4531,1248,1047.4531,1258,1051.4531,1254,1047.4531" style="stroke: #A80036; stroke-width: 1.0;"/><text fill="#000000" font-family="sans-serif" font-size="13" lengthAdjust="spacingAndGlyphs" textLength="42" x="1254" y="1029.5967">Injector</text><polygon fill="#A80036" points="1313.5,1073.4531,1323.5,1077.4531,1313.5,1081.4531,1317.5,1077.4531" style="stroke: #A80036; stroke-width: 1.0;"/><line style="stroke: #A80036; stroke-width: 1.0;" x1="40.5" x2="1319.5" y1="1077.4531" y2="1077.4531"/><text fill="#000000" font-family="sans-serif" font-size="13" lengthAdjust="spacingAndGlyphs" textLength="100" x="47.5" y="1072.9482">executePipeline()</text><polygon fill="#A80036" points="727,1103.8047,717,1107.8047,727,1111.8047,723,1107.8047" style="stroke: #A80036; stroke-width: 1.0;"/><line style="stroke: #A80036; stroke-width: 1.0;" x1="721" x2="1324.5" y1="1107.8047" y2="1107.8047"/><text fill="#000000" font-family="sans-serif" font-size="13" lengthAdjust="spacingAndGlyphs" textLength="32" x="733" y="1103.2998">size()</text><polygon fill="#A80036" points="793.5,1134.1563,803.5,1138.1563,793.5,1142.1563,797.5,1138.1563" style="stroke: #A80036; stroke-width: 1.0;"/><line style="stroke: #A80036; stroke-width: 1.0; stroke-dasharray: 2.0,2.0;" x1="716" x2="799.5" y1="1138.1563" y2="1138.1563"/><text fill="#000000" font-family="sans-serif" font-size="13" lengthAdjust="spacingAndGlyphs" textLength="14" x="723" y="1133.6514">int</text><polygon fill="#A80036" points="1490,1164.5078,1500,1168.5078,1490,1172.5078,1494,1168.5078" style="stroke: #A80036; stroke-width: 1.0;"/><line style="stroke: #A80036; stroke-width: 1.0;" x1="1325.5" x2="1496" y1="1168.5078" y2="1168.5078"/><text fill="#000000" font-family="sans-serif" font-size="13" lengthAdjust="spacingAndGlyphs" textLength="145" x="1332.5" y="1164.0029">execute(AnalyzerBundle)</text><polygon fill="#A80036" points="1816,1194.8594,1826,1198.8594,1816,1202.8594,1820,1198.8594" style="stroke: #A80036; stroke-width: 1.0;"/><line style="stroke: #A80036; stroke-width: 1.0;" x1="1502" x2="1822" y1="1198.8594" y2="1198.8594"/><text fill="#000000" font-family="sans-serif" font-size="13" lengthAdjust="spacingAndGlyphs" textLength="118" x="1509" y="1194.3545">getList(String,Class)</text><line style="stroke: #A80036; stroke-width: 1.0; stroke-dasharray: 2.0,2.0;" x1="1828" x2="1870" y1="1229.5625" y2="1229.5625"/><line style="stroke: #A80036; stroke-width: 1.0; stroke-dasharray: 2.0,2.0;" x1="1870" x2="1870" y1="1229.5625" y2="1242.5625"/><line style="stroke: #A80036; stroke-width: 1.0; stroke-dasharray: 2.0,2.0;" x1="1829" x2="1870" y1="1242.5625" y2="1242.5625"/><polygon fill="#A80036" points="1839,1238.5625,1829,1242.5625,1839,1246.5625,1835,1242.5625" style="stroke: #A80036; stroke-width: 1.0;"/><text fill="#000000" font-family="sans-serif" font-size="13" lengthAdjust="spacingAndGlyphs" textLength="21" x="1835" y="1224.7061">List</text><polygon fill="#A80036" points="1816,1268.5625,1826,1272.5625,1816,1276.5625,1820,1272.5625" style="stroke: #A80036; stroke-width: 1.0;"/><line style="stroke: #A80036; stroke-width: 1.0;" x1="1502" x2="1822" y1="1272.5625" y2="1272.5625"/><text fill="#000000" font-family="sans-serif" font-size="13" lengthAdjust="spacingAndGlyphs" textLength="118" x="1509" y="1268.0576">getList(String,Class)</text><line style="stroke: #A80036; stroke-width: 1.0; stroke-dasharray: 2.0,2.0;" x1="1828" x2="1870" y1="1303.2656" y2="1303.2656"/><line style="stroke: #A80036; stroke-width: 1.0; stroke-dasharray: 2.0,2.0;" x1="1870" x2="1870" y1="1303.2656" y2="1316.2656"/><line style="stroke: #A80036; stroke-width: 1.0; stroke-dasharray: 2.0,2.0;" x1="1829" x2="1870" y1="1316.2656" y2="1316.2656"/><polygon fill="#A80036" points="1839,1312.2656,1829,1316.2656,1839,1320.2656,1835,1316.2656" style="stroke: #A80036; stroke-width: 1.0;"/><text fill="#000000" font-family="sans-serif" font-size="13" lengthAdjust="spacingAndGlyphs" textLength="21" x="1835" y="1298.4092">List</text><line style="stroke: #A80036; stroke-width: 1.0;" x1="1502" x2="1544" y1="1346.6172" y2="1346.6172"/><line style="stroke: #A80036; stroke-width: 1.0;" x1="1544" x2="1544" y1="1346.6172" y2="1359.6172"/><line style="stroke: #A80036; stroke-width: 1.0;" x1="1503" x2="1544" y1="1359.6172" y2="1359.6172"/><polygon fill="#A80036" points="1513,1355.6172,1503,1359.6172,1513,1363.6172,1509,1359.6172" style="stroke: #A80036; stroke-width: 1.0;"/><text fill="#000000" font-family="sans-serif" font-size="13" lengthAdjust="spacingAndGlyphs" textLength="312" x="1509" y="1341.7607">checkRelationships(List&lt;Pattern&gt;,List&lt;Relationship&gt;)</text><polygon fill="#A80036" points="1916,1385.6172,1926,1389.6172,1916,1393.6172,1920,1389.6172" style="stroke: #A80036; stroke-width: 1.0;"/><line style="stroke: #A80036; stroke-width: 1.0;" x1="1502" x2="1922" y1="1389.6172" y2="1389.6172"/><text fill="#000000" font-family="sans-serif" font-size="13" lengthAdjust="spacingAndGlyphs" textLength="111" x="1509" y="1385.1123">new Pattern(String)</text><polygon fill="#A80036" points="2134,1415.9688,2144,1419.9688,2134,1423.9688,2138,1419.9688" style="stroke: #A80036; stroke-width: 1.0;"/><line style="stroke: #A80036; stroke-width: 1.0;" x1="1928" x2="2140" y1="1419.9688" y2="1419.9688"/><text fill="#000000" font-family="sans-serif" font-size="13" lengthAdjust="spacingAndGlyphs" textLength="194" x="1935" y="1415.4639">new TypeAnnotationLocationInfo()</text><polygon fill="#A80036" points="2294.5,1446.3203,2304.5,1450.3203,2294.5,1454.3203,2298.5,1450.3203" style="stroke: #A80036; stroke-width: 1.0;"/><line style="stroke: #A80036; stroke-width: 1.0;" x1="1928" x2="2300.5" y1="1450.3203" y2="1450.3203"/><text fill="#000000" font-family="sans-serif" font-size="13" lengthAdjust="spacingAndGlyphs" textLength="44" x="1935" y="1445.8154">create()</text><line style="stroke: #A80036; stroke-width: 1.0; stroke-dasharray: 2.0,2.0;" x1="2306.5" x2="2348.5" y1="1481.0234" y2="1481.0234"/><line style="stroke: #A80036; stroke-width: 1.0; stroke-dasharray: 2.0,2.0;" x1="2348.5" x2="2348.5" y1="1481.0234" y2="1494.0234"/><line style="stroke: #A80036; stroke-width: 1.0; stroke-dasharray: 2.0,2.0;" x1="2307.5" x2="2348.5" y1="1494.0234" y2="1494.0234"/><polygon fill="#A80036" points="2317.5,1490.0234,2307.5,1494.0234,2317.5,1498.0234,2313.5,1494.0234" style="stroke: #A80036; stroke-width: 1.0;"/><text fill="#000000" font-family="sans-serif" font-size="13" lengthAdjust="spacingAndGlyphs" textLength="83" x="2313.5" y="1476.167">HashMultimap</text><polygon fill="#A80036" points="2294.5,1520.0234,2304.5,1524.0234,2294.5,1528.0234,2298.5,1524.0234" style="stroke: #A80036; stroke-width: 1.0;"/><line style="stroke: #A80036; stroke-width: 1.0;" x1="1928" x2="2300.5" y1="1524.0234" y2="1524.0234"/><text fill="#000000" font-family="sans-serif" font-size="13" lengthAdjust="spacingAndGlyphs" textLength="44" x="1935" y="1519.5186">create()</text><line style="stroke: #A80036; stroke-width: 1.0; stroke-dasharray: 2.0,2.0;" x1="2306.5" x2="2348.5" y1="1554.7266" y2="1554.7266"/><line style="stroke: #A80036; stroke-width: 1.0; stroke-dasharray: 2.0,2.0;" x1="2348.5" x2="2348.5" y1="1554.7266" y2="1567.7266"/><line style="stroke: #A80036; stroke-width: 1.0; stroke-dasharray: 2.0,2.0;" x1="2307.5" x2="2348.5" y1="1567.7266" y2="1567.7266"/><polygon fill="#A80036" points="2317.5,1563.7266,2307.5,1567.7266,2317.5,1571.7266,2313.5,1567.7266" style="stroke: #A80036; stroke-width: 1.0;"/><text fill="#000000" font-family="sans-serif" font-size="13" lengthAdjust="spacingAndGlyphs" textLength="83" x="2313.5" y="1549.8701">HashMultimap</text><polygon fill="#A80036" points="2411.5,1593.7266,2421.5,1597.7266,2411.5,1601.7266,2415.5,1597.7266" style="stroke: #A80036; stroke-width: 1.0;"/><line style="stroke: #A80036; stroke-width: 1.0;" x1="1502" x2="2417.5" y1="1597.7266" y2="1597.7266"/><text fill="#000000" font-family="sans-serif" font-size="13" lengthAdjust="spacingAndGlyphs" textLength="56" x="1509" y="1593.2217">hasNext()</text><polygon fill="#A80036" points="2507,1624.0781,2517,1628.0781,2507,1632.0781,2511,1628.0781" style="stroke: #A80036; stroke-width: 1.0;"/><line style="stroke: #A80036; stroke-width: 1.0; stroke-dasharray: 2.0,2.0;" x1="2423.5" x2="2513" y1="1628.0781" y2="1628.0781"/><text fill="#000000" font-family="sans-serif" font-size="13" lengthAdjust="spacingAndGlyphs" textLength="45" x="2430.5" y="1623.5732">boolean</text><polygon fill="#A80036" points="2637,1654.4297,2647,1658.4297,2637,1662.4297,2641,1658.4297" style="stroke: #A80036; stroke-width: 1.0;"/><line style="stroke: #A80036; stroke-width: 1.0;" x1="1502" x2="2643" y1="1658.4297" y2="1658.4297"/><text fill="#000000" font-family="sans-serif" font-size="13" lengthAdjust="spacingAndGlyphs" textLength="33" x="1509" y="1653.9248">next()</text><polygon fill="#A80036" points="2530,1684.7813,2520,1688.7813,2530,1692.7813,2526,1688.7813" style="stroke: #A80036; stroke-width: 1.0;"/><line style="stroke: #A80036; stroke-width: 1.0; stroke-dasharray: 2.0,2.0;" x1="2524" x2="2648" y1="1688.7813" y2="1688.7813"/><text fill="#000000" font-family="sans-serif" font-size="13" lengthAdjust="spacingAndGlyphs" textLength="38" x="2536" y="1684.2764">Object</text><polygon fill="#A80036" points="2783.5,1715.1328,2793.5,1719.1328,2783.5,1723.1328,2787.5,1719.1328" style="stroke: #A80036; stroke-width: 1.0;"/><line style="stroke: #A80036; stroke-width: 1.0;" x1="1502" x2="2789.5" y1="1719.1328" y2="1719.1328"/><text fill="#000000" font-family="sans-serif" font-size="13" lengthAdjust="spacingAndGlyphs" textLength="73" x="1509" y="1714.6279">getRelation()</text><line style="stroke: #A80036; stroke-width: 1.0; stroke-dasharray: 2.0,2.0;" x1="2795.5" x2="2837.5" y1="1749.8359" y2="1749.8359"/><line style="stroke: #A80036; stroke-width: 1.0; stroke-dasharray: 2.0,2.0;" x1="2837.5" x2="2837.5" y1="1749.8359" y2="1762.8359"/><line style="stroke: #A80036; stroke-width: 1.0; stroke-dasharray: 2.0,2.0;" x1="2796.5" x2="2837.5" y1="1762.8359" y2="1762.8359"/><polygon fill="#A80036" points="2806.5,1758.8359,2796.5,1762.8359,2806.5,1766.8359,2802.5,1762.8359" style="stroke: #A80036; stroke-width: 1.0;"/><text fill="#000000" font-family="sans-serif" font-size="13" lengthAdjust="spacingAndGlyphs" textLength="47" x="2802.5" y="1744.9795">Relation</text><polygon fill="#A80036" points="1916,1788.8359,1926,1792.8359,1916,1796.8359,1920,1792.8359" style="stroke: #A80036; stroke-width: 1.0;"/><line style="stroke: #A80036; stroke-width: 1.0;" x1="1502" x2="1922" y1="1792.8359" y2="1792.8359"/><text fill="#000000" font-family="sans-serif" font-size="13" lengthAdjust="spacingAndGlyphs" textLength="135" x="1509" y="1788.3311">put(String,Relationship)</text><polygon fill="#A80036" points="2910.5,1819.1875,2920.5,1823.1875,2910.5,1827.1875,2914.5,1823.1875" style="stroke: #A80036; stroke-width: 1.0;"/><line style="stroke: #A80036; stroke-width: 1.0;" x1="1928" x2="2916.5" y1="1823.1875" y2="1823.1875"/><text fill="#000000" font-family="sans-serif" font-size="13" lengthAdjust="spacingAndGlyphs" textLength="106" x="1935" y="1818.6826">put(Object,Object)</text><polygon fill="#A80036" points="3037,1849.5391,3047,1853.5391,3037,1857.5391,3041,1853.5391" style="stroke: #A80036; stroke-width: 1.0;"/><line style="stroke: #A80036; stroke-width: 1.0; stroke-dasharray: 2.0,2.0;" x1="2922.5" x2="3043" y1="1853.5391" y2="1853.5391"/><text fill="#000000" font-family="sans-serif" font-size="13" lengthAdjust="spacingAndGlyphs" textLength="45" x="2929.5" y="1849.0342">boolean</text><polygon fill="#A80036" points="2783.5,1879.8906,2793.5,1883.8906,2783.5,1887.8906,2787.5,1883.8906" style="stroke: #A80036; stroke-width: 1.0;"/><line style="stroke: #A80036; stroke-width: 1.0;" x1="1502" x2="2789.5" y1="1883.8906" y2="1883.8906"/><text fill="#000000" font-family="sans-serif" font-size="13" lengthAdjust="spacingAndGlyphs" textLength="89" x="1509" y="1879.3857">getFromClass()</text><line style="stroke: #A80036; stroke-width: 1.0; stroke-dasharray: 2.0,2.0;" x1="2795.5" x2="2837.5" y1="1914.5938" y2="1914.5938"/><line style="stroke: #A80036; stroke-width: 1.0; stroke-dasharray: 2.0,2.0;" x1="2837.5" x2="2837.5" y1="1914.5938" y2="1927.5938"/><line style="stroke: #A80036; stroke-width: 1.0; stroke-dasharray: 2.0,2.0;" x1="2796.5" x2="2837.5" y1="1927.5938" y2="1927.5938"/><polygon fill="#A80036" points="2806.5,1923.5938,2796.5,1927.5938,2806.5,1931.5938,2802.5,1927.5938" style="stroke: #A80036; stroke-width: 1.0;"/><text fill="#000000" font-family="sans-serif" font-size="13" lengthAdjust="spacingAndGlyphs" textLength="60" x="2802.5" y="1909.7373">SootClass</text><polygon fill="#A80036" points="1916,1953.5938,1926,1957.5938,1916,1961.5938,1920,1957.5938" style="stroke: #A80036; stroke-width: 1.0;"/><line style="stroke: #A80036; stroke-width: 1.0;" x1="1502" x2="1922" y1="1957.5938" y2="1957.5938"/><text fill="#000000" font-family="sans-serif" font-size="13" lengthAdjust="spacingAndGlyphs" textLength="124" x="1509" y="1953.0889">put(String,SootClass)</text><polygon fill="#A80036" points="2910.5,1983.9453,2920.5,1987.9453,2910.5,1991.9453,2914.5,1987.9453" style="stroke: #A80036; stroke-width: 1.0;"/><line style="stroke: #A80036; stroke-width: 1.0;" x1="1928" x2="2916.5" y1="1987.9453" y2="1987.9453"/><text fill="#000000" font-family="sans-serif" font-size="13" lengthAdjust="spacingAndGlyphs" textLength="106" x="1935" y="1983.4404">put(Object,Object)</text><polygon fill="#A80036" points="3037,2014.2969,3047,2018.2969,3037,2022.2969,3041,2018.2969" style="stroke: #A80036; stroke-width: 1.0;"/><line style="stroke: #A80036; stroke-width: 1.0; stroke-dasharray: 2.0,2.0;" x1="2922.5" x2="3043" y1="2018.2969" y2="2018.2969"/><text fill="#000000" font-family="sans-serif" font-size="13" lengthAdjust="spacingAndGlyphs" textLength="45" x="2929.5" y="2013.792">boolean</text><polygon fill="#A80036" points="2783.5,2044.6484,2793.5,2048.6484,2783.5,2052.6484,2787.5,2048.6484" style="stroke: #A80036; stroke-width: 1.0;"/><line style="stroke: #A80036; stroke-width: 1.0;" x1="1502" x2="2789.5" y1="2048.6484" y2="2048.6484"/><text fill="#000000" font-family="sans-serif" font-size="13" lengthAdjust="spacingAndGlyphs" textLength="73" x="1509" y="2044.1436">getToClass()</text><line style="stroke: #A80036; stroke-width: 1.0; stroke-dasharray: 2.0,2.0;" x1="2795.5" x2="2837.5" y1="2079.3516" y2="2079.3516"/><line style="stroke: #A80036; stroke-width: 1.0; stroke-dasharray: 2.0,2.0;" x1="2837.5" x2="2837.5" y1="2079.3516" y2="2092.3516"/><line style="stroke: #A80036; stroke-width: 1.0; stroke-dasharray: 2.0,2.0;" x1="2796.5" x2="2837.5" y1="2092.3516" y2="2092.3516"/><polygon fill="#A80036" points="2806.5,2088.3516,2796.5,2092.3516,2806.5,2096.3516,2802.5,2092.3516" style="stroke: #A80036; stroke-width: 1.0;"/><text fill="#000000" font-family="sans-serif" font-size="13" lengthAdjust="spacingAndGlyphs" textLength="60" x="2802.5" y="2074.4951">SootClass</text><polygon fill="#A80036" points="1916,2118.3516,1926,2122.3516,1916,2126.3516,1920,2122.3516" style="stroke: #A80036; stroke-width: 1.0;"/><line style="stroke: #A80036; stroke-width: 1.0;" x1="1502" x2="1922" y1="2122.3516" y2="2122.3516"/><text fill="#000000" font-family="sans-serif" font-size="13" lengthAdjust="spacingAndGlyphs" textLength="124" x="1509" y="2117.8467">put(String,SootClass)</text><polygon fill="#A80036" points="2910.5,2148.7031,2920.5,2152.7031,2910.5,2156.7031,2914.5,2152.7031" style="stroke: #A80036; stroke-width: 1.0;"/><line style="stroke: #A80036; stroke-width: 1.0;" x1="1928" x2="2916.5" y1="2152.7031" y2="2152.7031"/><text fill="#000000" font-family="sans-serif" font-size="13" lengthAdjust="spacingAndGlyphs" textLength="106" x="1935" y="2148.1982">put(Object,Object)</text><polygon fill="#A80036" points="3037,2179.0547,3047,2183.0547,3037,2187.0547,3041,2183.0547" style="stroke: #A80036; stroke-width: 1.0;"/><line style="stroke: #A80036; stroke-width: 1.0; stroke-dasharray: 2.0,2.0;" x1="2922.5" x2="3043" y1="2183.0547" y2="2183.0547"/><text fill="#000000" font-family="sans-serif" font-size="13" lengthAdjust="spacingAndGlyphs" textLength="45" x="2929.5" y="2178.5498">boolean</text><polygon fill="#A80036" points="3130.5,2209.4063,3140.5,2213.4063,3130.5,2217.4063,3134.5,2213.4063" style="stroke: #A80036; stroke-width: 1.0;"/><line style="stroke: #A80036; stroke-width: 1.0; stroke-dasharray: 2.0,2.0;" x1="1502" x2="3136.5" y1="2213.4063" y2="2213.4063"/><text fill="#000000" font-family="sans-serif" font-size="13" lengthAdjust="spacingAndGlyphs" textLength="91" x="1509" y="2208.9014">AnalyzerBundle</text><line style="stroke: #A80036; stroke-width: 1.0; stroke-dasharray: 2.0,2.0;" x1="1325.5" x2="1367.5" y1="2244.1094" y2="2244.1094"/><line style="stroke: #A80036; stroke-width: 1.0; stroke-dasharray: 2.0,2.0;" x1="1367.5" x2="1367.5" y1="2244.1094" y2="2257.1094"/><line style="stroke: #A80036; stroke-width: 1.0; stroke-dasharray: 2.0,2.0;" x1="1326.5" x2="1367.5" y1="2257.1094" y2="2257.1094"/><polygon fill="#A80036" points="1336.5,2253.1094,1326.5,2257.1094,1336.5,2261.1094,1332.5,2257.1094" style="stroke: #A80036; stroke-width: 1.0;"/><text fill="#000000" font-family="sans-serif" font-size="13" lengthAdjust="spacingAndGlyphs" textLength="91" x="1332.5" y="2239.2529">AnalyzerBundle</text></g></svg>