<?xml version="1.0" encoding="UTF-8" standalone="no"?><svg xmlns="http://www.w3.org/2000/svg" xmlns:xlink="http://www.w3.org/1999/xlink" contentScriptType="application/ecmascript" contentStyleType="text/css" height="1367px" preserveAspectRatio="none" style="width:1262px;height:1367px;" version="1.1" viewBox="0 0 1262 1367" width="1262px" zoomAndPan="magnify"><defs><filter height="300%" id="fhs48xs2fjx7z" width="300%" x="-1" y="-1"><feGaussianBlur result="blurOut" stdDeviation="2.0"/><feColorMatrix in="blurOut" result="blurOut2" type="matrix" values="0 0 0 0 0 0 0 0 0 0 0 0 0 0 0 0 0 0 .4 0"/><feOffset dx="4.0" dy="4.0" in="blurOut2" result="blurOut3"/><feBlend in="SourceGraphic" in2="blurOut3" mode="normal"/></filter></defs><g><line style="stroke: #A80036; stroke-width: 1.0; stroke-dasharray: 5.0,5.0;" x1="59" x2="59" y1="39.6094" y2="1325.5625"/><line style="stroke: #A80036; stroke-width: 1.0; stroke-dasharray: 5.0,5.0;" x1="264.5" x2="264.5" y1="39.6094" y2="1325.5625"/><line style="stroke: #A80036; stroke-width: 1.0; stroke-dasharray: 5.0,5.0;" x1="503.5" x2="503.5" y1="39.6094" y2="1325.5625"/><line style="stroke: #A80036; stroke-width: 1.0; stroke-dasharray: 5.0,5.0;" x1="606.5" x2="606.5" y1="39.6094" y2="1325.5625"/><line style="stroke: #A80036; stroke-width: 1.0; stroke-dasharray: 5.0,5.0;" x1="829.5" x2="829.5" y1="39.6094" y2="1325.5625"/><line style="stroke: #A80036; stroke-width: 1.0; stroke-dasharray: 5.0,5.0;" x1="1048" x2="1048" y1="39.6094" y2="1325.5625"/><line style="stroke: #A80036; stroke-width: 1.0; stroke-dasharray: 5.0,5.0;" x1="1129" x2="1129" y1="39.6094" y2="1325.5625"/><line style="stroke: #A80036; stroke-width: 1.0; stroke-dasharray: 5.0,5.0;" x1="1216" x2="1216" y1="39.6094" y2="1325.5625"/><rect fill="#FEFECE" filter="url(#fhs48xs2fjx7z)" height="31.6094" style="stroke: #A80036; stroke-width: 1.5;" width="98" x="8" y="3"/><text fill="#000000" font-family="sans-serif" font-size="14" lengthAdjust="spacingAndGlyphs" textLength="84" x="15" y="24.5332">WeatherData</text><rect fill="#FEFECE" filter="url(#fhs48xs2fjx7z)" height="31.6094" style="stroke: #A80036; stroke-width: 1.5;" width="98" x="8" y="1324.5625"/><text fill="#000000" font-family="sans-serif" font-size="14" lengthAdjust="spacingAndGlyphs" textLength="84" x="15" y="1346.0957">WeatherData</text><rect fill="#FEFECE" filter="url(#fhs48xs2fjx7z)" height="31.6094" style="stroke: #A80036; stroke-width: 1.5;" width="175" x="175.5" y="3"/><text fill="#000000" font-family="sans-serif" font-size="14" lengthAdjust="spacingAndGlyphs" textLength="161" x="182.5" y="24.5332">CurrentConditionsDisplay</text><rect fill="#FEFECE" filter="url(#fhs48xs2fjx7z)" height="31.6094" style="stroke: #A80036; stroke-width: 1.5;" width="175" x="175.5" y="1324.5625"/><text fill="#000000" font-family="sans-serif" font-size="14" lengthAdjust="spacingAndGlyphs" textLength="161" x="182.5" y="1346.0957">CurrentConditionsDisplay</text><rect fill="#FEFECE" filter="url(#fhs48xs2fjx7z)" height="31.6094" style="stroke: #A80036; stroke-width: 1.5;" width="61" x="471.5" y="3"/><text fill="#000000" font-family="sans-serif" font-size="14" lengthAdjust="spacingAndGlyphs" textLength="47" x="478.5" y="24.5332">Subject</text><rect fill="#FEFECE" filter="url(#fhs48xs2fjx7z)" height="31.6094" style="stroke: #A80036; stroke-width: 1.5;" width="61" x="471.5" y="1324.5625"/><text fill="#000000" font-family="sans-serif" font-size="14" lengthAdjust="spacingAndGlyphs" textLength="47" x="478.5" y="1346.0957">Subject</text><rect fill="#FEFECE" filter="url(#fhs48xs2fjx7z)" height="31.6094" style="stroke: #A80036; stroke-width: 1.5;" width="116" x="546.5" y="3"/><text fill="#000000" font-family="sans-serif" font-size="14" lengthAdjust="spacingAndGlyphs" textLength="102" x="553.5" y="24.5332">StatisticsDisplay</text><rect fill="#FEFECE" filter="url(#fhs48xs2fjx7z)" height="31.6094" style="stroke: #A80036; stroke-width: 1.5;" width="116" x="546.5" y="1324.5625"/><text fill="#000000" font-family="sans-serif" font-size="14" lengthAdjust="spacingAndGlyphs" textLength="102" x="553.5" y="1346.0957">StatisticsDisplay</text><rect fill="#FEFECE" filter="url(#fhs48xs2fjx7z)" height="31.6094" style="stroke: #A80036; stroke-width: 1.5;" width="116" x="769.5" y="3"/><text fill="#000000" font-family="sans-serif" font-size="14" lengthAdjust="spacingAndGlyphs" textLength="102" x="776.5" y="24.5332">ForecastDisplay</text><rect fill="#FEFECE" filter="url(#fhs48xs2fjx7z)" height="31.6094" style="stroke: #A80036; stroke-width: 1.5;" width="116" x="769.5" y="1324.5625"/><text fill="#000000" font-family="sans-serif" font-size="14" lengthAdjust="spacingAndGlyphs" textLength="102" x="776.5" y="1346.0957">ForecastDisplay</text><rect fill="#FEFECE" filter="url(#fhs48xs2fjx7z)" height="31.6094" style="stroke: #A80036; stroke-width: 1.5;" width="59" x="1017" y="3"/><text fill="#000000" font-family="sans-serif" font-size="14" lengthAdjust="spacingAndGlyphs" textLength="45" x="1024" y="24.5332">Iterator</text><rect fill="#FEFECE" filter="url(#fhs48xs2fjx7z)" height="31.6094" style="stroke: #A80036; stroke-width: 1.5;" width="59" x="1017" y="1324.5625"/><text fill="#000000" font-family="sans-serif" font-size="14" lengthAdjust="spacingAndGlyphs" textLength="45" x="1024" y="1346.0957">Iterator</text><rect fill="#FEFECE" filter="url(#fhs48xs2fjx7z)" height="31.6094" style="stroke: #A80036; stroke-width: 1.5;" width="74" x="1090" y="3"/><text fill="#000000" font-family="sans-serif" font-size="14" lengthAdjust="spacingAndGlyphs" textLength="60" x="1097" y="24.5332">TypeDecl</text><rect fill="#FEFECE" filter="url(#fhs48xs2fjx7z)" height="31.6094" style="stroke: #A80036; stroke-width: 1.5;" width="74" x="1090" y="1324.5625"/><text fill="#000000" font-family="sans-serif" font-size="14" lengthAdjust="spacingAndGlyphs" textLength="60" x="1097" y="1346.0957">TypeDecl</text><rect fill="#FEFECE" filter="url(#fhs48xs2fjx7z)" height="31.6094" style="stroke: #A80036; stroke-width: 1.5;" width="73" x="1178" y="3"/><text fill="#000000" font-family="sans-serif" font-size="14" lengthAdjust="spacingAndGlyphs" textLength="59" x="1185" y="24.5332">Observer</text><rect fill="#FEFECE" filter="url(#fhs48xs2fjx7z)" height="31.6094" style="stroke: #A80036; stroke-width: 1.5;" width="73" x="1178" y="1324.5625"/><text fill="#000000" font-family="sans-serif" font-size="14" lengthAdjust="spacingAndGlyphs" textLength="59" x="1185" y="1346.0957">Observer</text><line style="stroke: #A80036; stroke-width: 1.0;" x1="59" x2="101" y1="71.9609" y2="71.9609"/><line style="stroke: #A80036; stroke-width: 1.0;" x1="101" x2="101" y1="71.9609" y2="84.9609"/><line style="stroke: #A80036; stroke-width: 1.0;" x1="60" x2="101" y1="84.9609" y2="84.9609"/><polygon fill="#A80036" points="70,80.9609,60,84.9609,70,88.9609,66,84.9609" style="stroke: #A80036; stroke-width: 1.0;"/><text fill="#000000" font-family="sans-serif" font-size="13" lengthAdjust="spacingAndGlyphs" textLength="111" x="66" y="67.1045">new WeatherData()</text><line style="stroke: #A80036; stroke-width: 1.0;" x1="265" x2="307" y1="115.3125" y2="115.3125"/><line style="stroke: #A80036; stroke-width: 1.0;" x1="307" x2="307" y1="115.3125" y2="128.3125"/><line style="stroke: #A80036; stroke-width: 1.0;" x1="266" x2="307" y1="128.3125" y2="128.3125"/><polygon fill="#A80036" points="276,124.3125,266,128.3125,276,132.3125,272,128.3125" style="stroke: #A80036; stroke-width: 1.0;"/><text fill="#000000" font-family="sans-serif" font-size="13" lengthAdjust="spacingAndGlyphs" textLength="225" x="272" y="110.4561">new CurrentConditionsDisplay(Subject)</text><polygon fill="#A80036" points="70,154.3125,60,158.3125,70,162.3125,66,158.3125" style="stroke: #A80036; stroke-width: 1.0;"/><line style="stroke: #A80036; stroke-width: 1.0;" x1="64" x2="503" y1="158.3125" y2="158.3125"/><text fill="#000000" font-family="sans-serif" font-size="13" lengthAdjust="spacingAndGlyphs" textLength="153" x="76" y="153.8076">registerObserver(Observer)</text><line style="stroke: #A80036; stroke-width: 1.0;" x1="606.5" x2="648.5" y1="189.0156" y2="189.0156"/><line style="stroke: #A80036; stroke-width: 1.0;" x1="648.5" x2="648.5" y1="189.0156" y2="202.0156"/><line style="stroke: #A80036; stroke-width: 1.0;" x1="607.5" x2="648.5" y1="202.0156" y2="202.0156"/><polygon fill="#A80036" points="617.5,198.0156,607.5,202.0156,617.5,206.0156,613.5,202.0156" style="stroke: #A80036; stroke-width: 1.0;"/><text fill="#000000" font-family="sans-serif" font-size="13" lengthAdjust="spacingAndGlyphs" textLength="209" x="613.5" y="184.1592">new StatisticsDisplay(WeatherData)</text><line style="stroke: #A80036; stroke-width: 1.0;" x1="59" x2="101" y1="232.3672" y2="232.3672"/><line style="stroke: #A80036; stroke-width: 1.0;" x1="101" x2="101" y1="232.3672" y2="245.3672"/><line style="stroke: #A80036; stroke-width: 1.0;" x1="60" x2="101" y1="245.3672" y2="245.3672"/><polygon fill="#A80036" points="70,241.3672,60,245.3672,70,249.3672,66,245.3672" style="stroke: #A80036; stroke-width: 1.0;"/><text fill="#000000" font-family="sans-serif" font-size="13" lengthAdjust="spacingAndGlyphs" textLength="153" x="66" y="227.5107">registerObserver(Observer)</text><line style="stroke: #A80036; stroke-width: 1.0;" x1="829.5" x2="871.5" y1="275.7188" y2="275.7188"/><line style="stroke: #A80036; stroke-width: 1.0;" x1="871.5" x2="871.5" y1="275.7188" y2="288.7188"/><line style="stroke: #A80036; stroke-width: 1.0;" x1="830.5" x2="871.5" y1="288.7188" y2="288.7188"/><polygon fill="#A80036" points="840.5,284.7188,830.5,288.7188,840.5,292.7188,836.5,288.7188" style="stroke: #A80036; stroke-width: 1.0;"/><text fill="#000000" font-family="sans-serif" font-size="13" lengthAdjust="spacingAndGlyphs" textLength="205" x="836.5" y="270.8623">new ForecastDisplay(WeatherData)</text><line style="stroke: #A80036; stroke-width: 1.0;" x1="59" x2="101" y1="319.0703" y2="319.0703"/><line style="stroke: #A80036; stroke-width: 1.0;" x1="101" x2="101" y1="319.0703" y2="332.0703"/><line style="stroke: #A80036; stroke-width: 1.0;" x1="60" x2="101" y1="332.0703" y2="332.0703"/><polygon fill="#A80036" points="70,328.0703,60,332.0703,70,336.0703,66,332.0703" style="stroke: #A80036; stroke-width: 1.0;"/><text fill="#000000" font-family="sans-serif" font-size="13" lengthAdjust="spacingAndGlyphs" textLength="153" x="66" y="314.2139">registerObserver(Observer)</text><line style="stroke: #A80036; stroke-width: 1.0;" x1="59" x2="101" y1="362.4219" y2="362.4219"/><line style="stroke: #A80036; stroke-width: 1.0;" x1="101" x2="101" y1="362.4219" y2="375.4219"/><line style="stroke: #A80036; stroke-width: 1.0;" x1="60" x2="101" y1="375.4219" y2="375.4219"/><polygon fill="#A80036" points="70,371.4219,60,375.4219,70,379.4219,66,375.4219" style="stroke: #A80036; stroke-width: 1.0;"/><text fill="#000000" font-family="sans-serif" font-size="13" lengthAdjust="spacingAndGlyphs" textLength="192" x="66" y="357.5654">setMeasurements(float,float,float)</text><line style="stroke: #A80036; stroke-width: 1.0;" x1="59" x2="101" y1="405.7734" y2="405.7734"/><line style="stroke: #A80036; stroke-width: 1.0;" x1="101" x2="101" y1="405.7734" y2="418.7734"/><line style="stroke: #A80036; stroke-width: 1.0;" x1="60" x2="101" y1="418.7734" y2="418.7734"/><polygon fill="#A80036" points="70,414.7734,60,418.7734,70,422.7734,66,418.7734" style="stroke: #A80036; stroke-width: 1.0;"/><text fill="#000000" font-family="sans-serif" font-size="13" lengthAdjust="spacingAndGlyphs" textLength="145" x="66" y="400.917">measurementsChanged()</text><line style="stroke: #A80036; stroke-width: 1.0;" x1="59" x2="101" y1="449.125" y2="449.125"/><line style="stroke: #A80036; stroke-width: 1.0;" x1="101" x2="101" y1="449.125" y2="462.125"/><line style="stroke: #A80036; stroke-width: 1.0;" x1="60" x2="101" y1="462.125" y2="462.125"/><polygon fill="#A80036" points="70,458.125,60,462.125,70,466.125,66,462.125" style="stroke: #A80036; stroke-width: 1.0;"/><text fill="#000000" font-family="sans-serif" font-size="13" lengthAdjust="spacingAndGlyphs" textLength="97" x="66" y="444.2686">notifyObservers()</text><polygon fill="#A80036" points="1117,488.125,1127,492.125,1117,496.125,1121,492.125" style="stroke: #A80036; stroke-width: 1.0;"/><line style="stroke: #A80036; stroke-width: 1.0;" x1="1048.5" x2="1123" y1="492.125" y2="492.125"/><text fill="#000000" font-family="sans-serif" font-size="13" lengthAdjust="spacingAndGlyphs" textLength="56" x="1055.5" y="487.6201">hasNext()</text><polygon fill="#A80036" points="1059.5,518.4766,1049.5,522.4766,1059.5,526.4766,1055.5,522.4766" style="stroke: #A80036; stroke-width: 1.0;"/><line style="stroke: #A80036; stroke-width: 1.0; stroke-dasharray: 2.0,2.0;" x1="1053.5" x2="1128" y1="522.4766" y2="522.4766"/><text fill="#000000" font-family="sans-serif" font-size="13" lengthAdjust="spacingAndGlyphs" textLength="45" x="1065.5" y="517.9717">boolean</text><polygon fill="#A80036" points="1117,548.8281,1127,552.8281,1117,556.8281,1121,552.8281" style="stroke: #A80036; stroke-width: 1.0;"/><line style="stroke: #A80036; stroke-width: 1.0;" x1="1048.5" x2="1123" y1="552.8281" y2="552.8281"/><text fill="#000000" font-family="sans-serif" font-size="13" lengthAdjust="spacingAndGlyphs" textLength="33" x="1055.5" y="548.3232">next()</text><polygon fill="#A80036" points="1059.5,579.1797,1049.5,583.1797,1059.5,587.1797,1055.5,583.1797" style="stroke: #A80036; stroke-width: 1.0;"/><line style="stroke: #A80036; stroke-width: 1.0; stroke-dasharray: 2.0,2.0;" x1="1053.5" x2="1128" y1="583.1797" y2="583.1797"/><text fill="#000000" font-family="sans-serif" font-size="13" lengthAdjust="spacingAndGlyphs" textLength="38" x="1065.5" y="578.6748">Object</text><polygon fill="#A80036" points="840.5,609.5313,830.5,613.5313,840.5,617.5313,836.5,613.5313" style="stroke: #A80036; stroke-width: 1.0;"/><line style="stroke: #A80036; stroke-width: 1.0;" x1="834.5" x2="1215.5" y1="613.5313" y2="613.5313"/><text fill="#000000" font-family="sans-serif" font-size="13" lengthAdjust="spacingAndGlyphs" textLength="127" x="846.5" y="609.0264">update(float,float,float)</text><line style="stroke: #A80036; stroke-width: 1.0;" x1="829.5" x2="871.5" y1="644.2344" y2="644.2344"/><line style="stroke: #A80036; stroke-width: 1.0;" x1="871.5" x2="871.5" y1="644.2344" y2="657.2344"/><line style="stroke: #A80036; stroke-width: 1.0;" x1="830.5" x2="871.5" y1="657.2344" y2="657.2344"/><polygon fill="#A80036" points="840.5,653.2344,830.5,657.2344,840.5,661.2344,836.5,657.2344" style="stroke: #A80036; stroke-width: 1.0;"/><text fill="#000000" font-family="sans-serif" font-size="13" lengthAdjust="spacingAndGlyphs" textLength="49" x="836.5" y="639.3779">display()</text><line style="stroke: #A80036; stroke-width: 1.0;" x1="59" x2="101" y1="687.5859" y2="687.5859"/><line style="stroke: #A80036; stroke-width: 1.0;" x1="101" x2="101" y1="687.5859" y2="700.5859"/><line style="stroke: #A80036; stroke-width: 1.0;" x1="60" x2="101" y1="700.5859" y2="700.5859"/><polygon fill="#A80036" points="70,696.5859,60,700.5859,70,704.5859,66,700.5859" style="stroke: #A80036; stroke-width: 1.0;"/><text fill="#000000" font-family="sans-serif" font-size="13" lengthAdjust="spacingAndGlyphs" textLength="192" x="66" y="682.7295">setMeasurements(float,float,float)</text><line style="stroke: #A80036; stroke-width: 1.0;" x1="59" x2="101" y1="730.9375" y2="730.9375"/><line style="stroke: #A80036; stroke-width: 1.0;" x1="101" x2="101" y1="730.9375" y2="743.9375"/><line style="stroke: #A80036; stroke-width: 1.0;" x1="60" x2="101" y1="743.9375" y2="743.9375"/><polygon fill="#A80036" points="70,739.9375,60,743.9375,70,747.9375,66,743.9375" style="stroke: #A80036; stroke-width: 1.0;"/><text fill="#000000" font-family="sans-serif" font-size="13" lengthAdjust="spacingAndGlyphs" textLength="145" x="66" y="726.0811">measurementsChanged()</text><line style="stroke: #A80036; stroke-width: 1.0;" x1="59" x2="101" y1="774.2891" y2="774.2891"/><line style="stroke: #A80036; stroke-width: 1.0;" x1="101" x2="101" y1="774.2891" y2="787.2891"/><line style="stroke: #A80036; stroke-width: 1.0;" x1="60" x2="101" y1="787.2891" y2="787.2891"/><polygon fill="#A80036" points="70,783.2891,60,787.2891,70,791.2891,66,787.2891" style="stroke: #A80036; stroke-width: 1.0;"/><text fill="#000000" font-family="sans-serif" font-size="13" lengthAdjust="spacingAndGlyphs" textLength="97" x="66" y="769.4326">notifyObservers()</text><polygon fill="#A80036" points="1117,813.2891,1127,817.2891,1117,821.2891,1121,817.2891" style="stroke: #A80036; stroke-width: 1.0;"/><line style="stroke: #A80036; stroke-width: 1.0;" x1="1048.5" x2="1123" y1="817.2891" y2="817.2891"/><text fill="#000000" font-family="sans-serif" font-size="13" lengthAdjust="spacingAndGlyphs" textLength="56" x="1055.5" y="812.7842">hasNext()</text><polygon fill="#A80036" points="1059.5,843.6406,1049.5,847.6406,1059.5,851.6406,1055.5,847.6406" style="stroke: #A80036; stroke-width: 1.0;"/><line style="stroke: #A80036; stroke-width: 1.0; stroke-dasharray: 2.0,2.0;" x1="1053.5" x2="1128" y1="847.6406" y2="847.6406"/><text fill="#000000" font-family="sans-serif" font-size="13" lengthAdjust="spacingAndGlyphs" textLength="45" x="1065.5" y="843.1357">boolean</text><polygon fill="#A80036" points="1117,873.9922,1127,877.9922,1117,881.9922,1121,877.9922" style="stroke: #A80036; stroke-width: 1.0;"/><line style="stroke: #A80036; stroke-width: 1.0;" x1="1048.5" x2="1123" y1="877.9922" y2="877.9922"/><text fill="#000000" font-family="sans-serif" font-size="13" lengthAdjust="spacingAndGlyphs" textLength="33" x="1055.5" y="873.4873">next()</text><polygon fill="#A80036" points="1059.5,904.3438,1049.5,908.3438,1059.5,912.3438,1055.5,908.3438" style="stroke: #A80036; stroke-width: 1.0;"/><line style="stroke: #A80036; stroke-width: 1.0; stroke-dasharray: 2.0,2.0;" x1="1053.5" x2="1128" y1="908.3438" y2="908.3438"/><text fill="#000000" font-family="sans-serif" font-size="13" lengthAdjust="spacingAndGlyphs" textLength="38" x="1065.5" y="903.8389">Object</text><polygon fill="#A80036" points="840.5,934.6953,830.5,938.6953,840.5,942.6953,836.5,938.6953" style="stroke: #A80036; stroke-width: 1.0;"/><line style="stroke: #A80036; stroke-width: 1.0;" x1="834.5" x2="1215.5" y1="938.6953" y2="938.6953"/><text fill="#000000" font-family="sans-serif" font-size="13" lengthAdjust="spacingAndGlyphs" textLength="127" x="846.5" y="934.1904">update(float,float,float)</text><line style="stroke: #A80036; stroke-width: 1.0;" x1="829.5" x2="871.5" y1="969.3984" y2="969.3984"/><line style="stroke: #A80036; stroke-width: 1.0;" x1="871.5" x2="871.5" y1="969.3984" y2="982.3984"/><line style="stroke: #A80036; stroke-width: 1.0;" x1="830.5" x2="871.5" y1="982.3984" y2="982.3984"/><polygon fill="#A80036" points="840.5,978.3984,830.5,982.3984,840.5,986.3984,836.5,982.3984" style="stroke: #A80036; stroke-width: 1.0;"/><text fill="#000000" font-family="sans-serif" font-size="13" lengthAdjust="spacingAndGlyphs" textLength="49" x="836.5" y="964.542">display()</text><line style="stroke: #A80036; stroke-width: 1.0;" x1="59" x2="101" y1="1012.75" y2="1012.75"/><line style="stroke: #A80036; stroke-width: 1.0;" x1="101" x2="101" y1="1012.75" y2="1025.75"/><line style="stroke: #A80036; stroke-width: 1.0;" x1="60" x2="101" y1="1025.75" y2="1025.75"/><polygon fill="#A80036" points="70,1021.75,60,1025.75,70,1029.75,66,1025.75" style="stroke: #A80036; stroke-width: 1.0;"/><text fill="#000000" font-family="sans-serif" font-size="13" lengthAdjust="spacingAndGlyphs" textLength="192" x="66" y="1007.8936">setMeasurements(float,float,float)</text><line style="stroke: #A80036; stroke-width: 1.0;" x1="59" x2="101" y1="1056.1016" y2="1056.1016"/><line style="stroke: #A80036; stroke-width: 1.0;" x1="101" x2="101" y1="1056.1016" y2="1069.1016"/><line style="stroke: #A80036; stroke-width: 1.0;" x1="60" x2="101" y1="1069.1016" y2="1069.1016"/><polygon fill="#A80036" points="70,1065.1016,60,1069.1016,70,1073.1016,66,1069.1016" style="stroke: #A80036; stroke-width: 1.0;"/><text fill="#000000" font-family="sans-serif" font-size="13" lengthAdjust="spacingAndGlyphs" textLength="145" x="66" y="1051.2451">measurementsChanged()</text><line style="stroke: #A80036; stroke-width: 1.0;" x1="59" x2="101" y1="1099.4531" y2="1099.4531"/><line style="stroke: #A80036; stroke-width: 1.0;" x1="101" x2="101" y1="1099.4531" y2="1112.4531"/><line style="stroke: #A80036; stroke-width: 1.0;" x1="60" x2="101" y1="1112.4531" y2="1112.4531"/><polygon fill="#A80036" points="70,1108.4531,60,1112.4531,70,1116.4531,66,1112.4531" style="stroke: #A80036; stroke-width: 1.0;"/><text fill="#000000" font-family="sans-serif" font-size="13" lengthAdjust="spacingAndGlyphs" textLength="97" x="66" y="1094.5967">notifyObservers()</text><polygon fill="#A80036" points="1117,1138.4531,1127,1142.4531,1117,1146.4531,1121,1142.4531" style="stroke: #A80036; stroke-width: 1.0;"/><line style="stroke: #A80036; stroke-width: 1.0;" x1="1048.5" x2="1123" y1="1142.4531" y2="1142.4531"/><text fill="#000000" font-family="sans-serif" font-size="13" lengthAdjust="spacingAndGlyphs" textLength="56" x="1055.5" y="1137.9482">hasNext()</text><polygon fill="#A80036" points="1059.5,1168.8047,1049.5,1172.8047,1059.5,1176.8047,1055.5,1172.8047" style="stroke: #A80036; stroke-width: 1.0;"/><line style="stroke: #A80036; stroke-width: 1.0; stroke-dasharray: 2.0,2.0;" x1="1053.5" x2="1128" y1="1172.8047" y2="1172.8047"/><text fill="#000000" font-family="sans-serif" font-size="13" lengthAdjust="spacingAndGlyphs" textLength="45" x="1065.5" y="1168.2998">boolean</text><polygon fill="#A80036" points="1117,1199.1563,1127,1203.1563,1117,1207.1563,1121,1203.1563" style="stroke: #A80036; stroke-width: 1.0;"/><line style="stroke: #A80036; stroke-width: 1.0;" x1="1048.5" x2="1123" y1="1203.1563" y2="1203.1563"/><text fill="#000000" font-family="sans-serif" font-size="13" lengthAdjust="spacingAndGlyphs" textLength="33" x="1055.5" y="1198.6514">next()</text><polygon fill="#A80036" points="1059.5,1229.5078,1049.5,1233.5078,1059.5,1237.5078,1055.5,1233.5078" style="stroke: #A80036; stroke-width: 1.0;"/><line style="stroke: #A80036; stroke-width: 1.0; stroke-dasharray: 2.0,2.0;" x1="1053.5" x2="1128" y1="1233.5078" y2="1233.5078"/><text fill="#000000" font-family="sans-serif" font-size="13" lengthAdjust="spacingAndGlyphs" textLength="38" x="1065.5" y="1229.0029">Object</text><polygon fill="#A80036" points="840.5,1259.8594,830.5,1263.8594,840.5,1267.8594,836.5,1263.8594" style="stroke: #A80036; stroke-width: 1.0;"/><line style="stroke: #A80036; stroke-width: 1.0;" x1="834.5" x2="1215.5" y1="1263.8594" y2="1263.8594"/><text fill="#000000" font-family="sans-serif" font-size="13" lengthAdjust="spacingAndGlyphs" textLength="127" x="846.5" y="1259.3545">update(float,float,float)</text><line style="stroke: #A80036; stroke-width: 1.0;" x1="829.5" x2="871.5" y1="1294.5625" y2="1294.5625"/><line style="stroke: #A80036; stroke-width: 1.0;" x1="871.5" x2="871.5" y1="1294.5625" y2="1307.5625"/><line style="stroke: #A80036; stroke-width: 1.0;" x1="830.5" x2="871.5" y1="1307.5625" y2="1307.5625"/><polygon fill="#A80036" points="840.5,1303.5625,830.5,1307.5625,840.5,1311.5625,836.5,1307.5625" style="stroke: #A80036; stroke-width: 1.0;"/><text fill="#000000" font-family="sans-serif" font-size="13" lengthAdjust="spacingAndGlyphs" textLength="49" x="836.5" y="1289.7061">display()</text></g></svg>