<?xml version="1.0" encoding="UTF-8" standalone="no"?><svg xmlns="http://www.w3.org/2000/svg" xmlns:xlink="http://www.w3.org/1999/xlink" contentScriptType="application/ecmascript" contentStyleType="text/css" height="1956px" preserveAspectRatio="none" style="width:2620px;height:1956px;" version="1.1" viewBox="0 0 2620 1956" width="2620px" zoomAndPan="magnify"><defs><filter height="300%" id="f1ccu05jvxedwq" width="300%" x="-1" y="-1"><feGaussianBlur result="blurOut" stdDeviation="2.0"/><feColorMatrix in="blurOut" result="blurOut2" type="matrix" values="0 0 0 0 0 0 0 0 0 0 0 0 0 0 0 0 0 0 .4 0"/><feOffset dx="4.0" dy="4.0" in="blurOut2" result="blurOut3"/><feBlend in="SourceGraphic" in2="blurOut3" mode="normal"/></filter></defs><g><line style="stroke: #A80036; stroke-width: 1.0; stroke-dasharray: 5.0,5.0;" x1="50" x2="50" y1="39.6094" y2="1915.1875"/><line style="stroke: #A80036; stroke-width: 1.0; stroke-dasharray: 5.0,5.0;" x1="173" x2="173" y1="39.6094" y2="1915.1875"/><line style="stroke: #A80036; stroke-width: 1.0; stroke-dasharray: 5.0,5.0;" x1="289" x2="289" y1="39.6094" y2="1915.1875"/><line style="stroke: #A80036; stroke-width: 1.0; stroke-dasharray: 5.0,5.0;" x1="621.5" x2="621.5" y1="39.6094" y2="1915.1875"/><line style="stroke: #A80036; stroke-width: 1.0; stroke-dasharray: 5.0,5.0;" x1="751.5" x2="751.5" y1="39.6094" y2="1915.1875"/><line style="stroke: #A80036; stroke-width: 1.0; stroke-dasharray: 5.0,5.0;" x1="865.5" x2="865.5" y1="39.6094" y2="1915.1875"/><line style="stroke: #A80036; stroke-width: 1.0; stroke-dasharray: 5.0,5.0;" x1="1001" x2="1001" y1="39.6094" y2="1915.1875"/><line style="stroke: #A80036; stroke-width: 1.0; stroke-dasharray: 5.0,5.0;" x1="1137.5" x2="1137.5" y1="39.6094" y2="1915.1875"/><line style="stroke: #A80036; stroke-width: 1.0; stroke-dasharray: 5.0,5.0;" x1="1285.5" x2="1285.5" y1="39.6094" y2="1915.1875"/><line style="stroke: #A80036; stroke-width: 1.0; stroke-dasharray: 5.0,5.0;" x1="1436" x2="1436" y1="39.6094" y2="1915.1875"/><line style="stroke: #A80036; stroke-width: 1.0; stroke-dasharray: 5.0,5.0;" x1="1550" x2="1550" y1="39.6094" y2="1915.1875"/><line style="stroke: #A80036; stroke-width: 1.0; stroke-dasharray: 5.0,5.0;" x1="1718.5" x2="1718.5" y1="39.6094" y2="1915.1875"/><line style="stroke: #A80036; stroke-width: 1.0; stroke-dasharray: 5.0,5.0;" x1="1808.5" x2="1808.5" y1="39.6094" y2="1915.1875"/><line style="stroke: #A80036; stroke-width: 1.0; stroke-dasharray: 5.0,5.0;" x1="1931" x2="1931" y1="39.6094" y2="1915.1875"/><line style="stroke: #A80036; stroke-width: 1.0; stroke-dasharray: 5.0,5.0;" x1="2012" x2="2012" y1="39.6094" y2="1915.1875"/><line style="stroke: #A80036; stroke-width: 1.0; stroke-dasharray: 5.0,5.0;" x1="2097" x2="2097" y1="39.6094" y2="1915.1875"/><line style="stroke: #A80036; stroke-width: 1.0; stroke-dasharray: 5.0,5.0;" x1="2178" x2="2178" y1="39.6094" y2="1915.1875"/><line style="stroke: #A80036; stroke-width: 1.0; stroke-dasharray: 5.0,5.0;" x1="2252" x2="2252" y1="39.6094" y2="1915.1875"/><line style="stroke: #A80036; stroke-width: 1.0; stroke-dasharray: 5.0,5.0;" x1="2429.5" x2="2429.5" y1="39.6094" y2="1915.1875"/><line style="stroke: #A80036; stroke-width: 1.0; stroke-dasharray: 5.0,5.0;" x1="2541.5" x2="2541.5" y1="39.6094" y2="1915.1875"/><rect fill="#FEFECE" filter="url(#f1ccu05jvxedwq)" height="31.6094" style="stroke: #A80036; stroke-width: 1.5;" width="81" x="8" y="3"/><text fill="#000000" font-family="sans-serif" font-size="14" lengthAdjust="spacingAndGlyphs" textLength="67" x="15" y="24.5332">ICalculator</text><rect fill="#FEFECE" filter="url(#f1ccu05jvxedwq)" height="31.6094" style="stroke: #A80036; stroke-width: 1.5;" width="81" x="8" y="1914.1875"/><text fill="#000000" font-family="sans-serif" font-size="14" lengthAdjust="spacingAndGlyphs" textLength="67" x="15" y="1935.7207">ICalculator</text><rect fill="#FEFECE" filter="url(#f1ccu05jvxedwq)" height="31.6094" style="stroke: #A80036; stroke-width: 1.5;" width="87" x="128" y="3"/><text fill="#000000" font-family="sans-serif" font-size="14" lengthAdjust="spacingAndGlyphs" textLength="73" x="135" y="24.5332">CalculatorB</text><rect fill="#FEFECE" filter="url(#f1ccu05jvxedwq)" height="31.6094" style="stroke: #A80036; stroke-width: 1.5;" width="87" x="128" y="1914.1875"/><text fill="#000000" font-family="sans-serif" font-size="14" lengthAdjust="spacingAndGlyphs" textLength="73" x="135" y="1935.7207">CalculatorB</text><rect fill="#FEFECE" filter="url(#f1ccu05jvxedwq)" height="31.6094" style="stroke: #A80036; stroke-width: 1.5;" width="117" x="229" y="3"/><text fill="#000000" font-family="sans-serif" font-size="14" lengthAdjust="spacingAndGlyphs" textLength="103" x="236" y="24.5332">PropertiesSetter</text><rect fill="#FEFECE" filter="url(#f1ccu05jvxedwq)" height="31.6094" style="stroke: #A80036; stroke-width: 1.5;" width="117" x="229" y="1914.1875"/><text fill="#000000" font-family="sans-serif" font-size="14" lengthAdjust="spacingAndGlyphs" textLength="103" x="236" y="1935.7207">PropertiesSetter</text><rect fill="#FEFECE" filter="url(#f1ccu05jvxedwq)" height="31.6094" style="stroke: #A80036; stroke-width: 1.5;" width="126" x="556.5" y="3"/><text fill="#000000" font-family="sans-serif" font-size="14" lengthAdjust="spacingAndGlyphs" textLength="112" x="563.5" y="24.5332">ArrayListMultimap</text><rect fill="#FEFECE" filter="url(#f1ccu05jvxedwq)" height="31.6094" style="stroke: #A80036; stroke-width: 1.5;" width="126" x="556.5" y="1914.1875"/><text fill="#000000" font-family="sans-serif" font-size="14" lengthAdjust="spacingAndGlyphs" textLength="112" x="563.5" y="1935.7207">ArrayListMultimap</text><rect fill="#FEFECE" filter="url(#f1ccu05jvxedwq)" height="31.6094" style="stroke: #A80036; stroke-width: 1.5;" width="92" x="703.5" y="3"/><text fill="#000000" font-family="sans-serif" font-size="14" lengthAdjust="spacingAndGlyphs" textLength="78" x="710.5" y="24.5332">ListMultimap</text><rect fill="#FEFECE" filter="url(#f1ccu05jvxedwq)" height="31.6094" style="stroke: #A80036; stroke-width: 1.5;" width="92" x="703.5" y="1914.1875"/><text fill="#000000" font-family="sans-serif" font-size="14" lengthAdjust="spacingAndGlyphs" textLength="78" x="710.5" y="1935.7207">ListMultimap</text><rect fill="#FEFECE" filter="url(#f1ccu05jvxedwq)" height="31.6094" style="stroke: #A80036; stroke-width: 1.5;" width="109" x="809.5" y="3"/><text fill="#000000" font-family="sans-serif" font-size="14" lengthAdjust="spacingAndGlyphs" textLength="95" x="816.5" y="24.5332">InvokeDynamic</text><rect fill="#FEFECE" filter="url(#f1ccu05jvxedwq)" height="31.6094" style="stroke: #A80036; stroke-width: 1.5;" width="109" x="809.5" y="1914.1875"/><text fill="#000000" font-family="sans-serif" font-size="14" lengthAdjust="spacingAndGlyphs" textLength="95" x="816.5" y="1935.7207">InvokeDynamic</text><rect fill="#FEFECE" filter="url(#f1ccu05jvxedwq)" height="31.6094" style="stroke: #A80036; stroke-width: 1.5;" width="110" x="944" y="3"/><text fill="#000000" font-family="sans-serif" font-size="14" lengthAdjust="spacingAndGlyphs" textLength="96" x="951" y="24.5332">PipelineModule</text><rect fill="#FEFECE" filter="url(#f1ccu05jvxedwq)" height="31.6094" style="stroke: #A80036; stroke-width: 1.5;" width="110" x="944" y="1914.1875"/><text fill="#000000" font-family="sans-serif" font-size="14" lengthAdjust="spacingAndGlyphs" textLength="96" x="951" y="1935.7207">PipelineModule</text><rect fill="#FEFECE" filter="url(#f1ccu05jvxedwq)" height="31.6094" style="stroke: #A80036; stroke-width: 1.5;" width="123" x="1074.5" y="3"/><text fill="#000000" font-family="sans-serif" font-size="14" lengthAdjust="spacingAndGlyphs" textLength="109" x="1081.5" y="24.5332">ReflectionModule</text><rect fill="#FEFECE" filter="url(#f1ccu05jvxedwq)" height="31.6094" style="stroke: #A80036; stroke-width: 1.5;" width="123" x="1074.5" y="1914.1875"/><text fill="#000000" font-family="sans-serif" font-size="14" lengthAdjust="spacingAndGlyphs" textLength="109" x="1081.5" y="1935.7207">ReflectionModule</text><rect fill="#FEFECE" filter="url(#f1ccu05jvxedwq)" height="31.6094" style="stroke: #A80036; stroke-width: 1.5;" width="51" x="1258.5" y="3"/><text fill="#000000" font-family="sans-serif" font-size="14" lengthAdjust="spacingAndGlyphs" textLength="37" x="1265.5" y="24.5332">Guice</text><rect fill="#FEFECE" filter="url(#f1ccu05jvxedwq)" height="31.6094" style="stroke: #A80036; stroke-width: 1.5;" width="51" x="1258.5" y="1914.1875"/><text fill="#000000" font-family="sans-serif" font-size="14" lengthAdjust="spacingAndGlyphs" textLength="37" x="1265.5" y="1935.7207">Guice</text><rect fill="#FEFECE" filter="url(#f1ccu05jvxedwq)" height="31.6094" style="stroke: #A80036; stroke-width: 1.5;" width="78" x="1395" y="3"/><text fill="#000000" font-family="sans-serif" font-size="14" lengthAdjust="spacingAndGlyphs" textLength="64" x="1402" y="24.5332">Processor</text><rect fill="#FEFECE" filter="url(#f1ccu05jvxedwq)" height="31.6094" style="stroke: #A80036; stroke-width: 1.5;" width="78" x="1395" y="1914.1875"/><text fill="#000000" font-family="sans-serif" font-size="14" lengthAdjust="spacingAndGlyphs" textLength="64" x="1402" y="1935.7207">Processor</text><rect fill="#FEFECE" filter="url(#f1ccu05jvxedwq)" height="31.6094" style="stroke: #A80036; stroke-width: 1.5;" width="68" x="1514" y="3"/><text fill="#000000" font-family="sans-serif" font-size="14" lengthAdjust="spacingAndGlyphs" textLength="54" x="1521" y="24.5332">Analyzer</text><rect fill="#FEFECE" filter="url(#f1ccu05jvxedwq)" height="31.6094" style="stroke: #A80036; stroke-width: 1.5;" width="68" x="1514" y="1914.1875"/><text fill="#000000" font-family="sans-serif" font-size="14" lengthAdjust="spacingAndGlyphs" textLength="54" x="1521" y="1935.7207">Analyzer</text><rect fill="#FEFECE" filter="url(#f1ccu05jvxedwq)" height="31.6094" style="stroke: #A80036; stroke-width: 1.5;" width="97" x="1668.5" y="3"/><text fill="#000000" font-family="sans-serif" font-size="14" lengthAdjust="spacingAndGlyphs" textLength="83" x="1675.5" y="24.5332">SootAnalyzer</text><rect fill="#FEFECE" filter="url(#f1ccu05jvxedwq)" height="31.6094" style="stroke: #A80036; stroke-width: 1.5;" width="97" x="1668.5" y="1914.1875"/><text fill="#000000" font-family="sans-serif" font-size="14" lengthAdjust="spacingAndGlyphs" textLength="83" x="1675.5" y="1935.7207">SootAnalyzer</text><rect fill="#FEFECE" filter="url(#f1ccu05jvxedwq)" height="31.6094" style="stroke: #A80036; stroke-width: 1.5;" width="54" x="1779.5" y="3"/><text fill="#000000" font-family="sans-serif" font-size="14" lengthAdjust="spacingAndGlyphs" textLength="40" x="1786.5" y="24.5332">Scene</text><rect fill="#FEFECE" filter="url(#f1ccu05jvxedwq)" height="31.6094" style="stroke: #A80036; stroke-width: 1.5;" width="54" x="1779.5" y="1914.1875"/><text fill="#000000" font-family="sans-serif" font-size="14" lengthAdjust="spacingAndGlyphs" textLength="40" x="1786.5" y="1935.7207">Scene</text><rect fill="#FEFECE" filter="url(#f1ccu05jvxedwq)" height="31.6094" style="stroke: #A80036; stroke-width: 1.5;" width="51" x="1904" y="3"/><text fill="#000000" font-family="sans-serif" font-size="14" lengthAdjust="spacingAndGlyphs" textLength="37" x="1911" y="24.5332">Chain</text><rect fill="#FEFECE" filter="url(#f1ccu05jvxedwq)" height="31.6094" style="stroke: #A80036; stroke-width: 1.5;" width="51" x="1904" y="1914.1875"/><text fill="#000000" font-family="sans-serif" font-size="14" lengthAdjust="spacingAndGlyphs" textLength="37" x="1911" y="1935.7207">Chain</text><rect fill="#FEFECE" filter="url(#f1ccu05jvxedwq)" height="31.6094" style="stroke: #A80036; stroke-width: 1.5;" width="83" x="1969" y="3"/><text fill="#000000" font-family="sans-serif" font-size="14" lengthAdjust="spacingAndGlyphs" textLength="69" x="1976" y="24.5332">HashChain</text><rect fill="#FEFECE" filter="url(#f1ccu05jvxedwq)" height="31.6094" style="stroke: #A80036; stroke-width: 1.5;" width="83" x="1969" y="1914.1875"/><text fill="#000000" font-family="sans-serif" font-size="14" lengthAdjust="spacingAndGlyphs" textLength="69" x="1976" y="1935.7207">HashChain</text><rect fill="#FEFECE" filter="url(#f1ccu05jvxedwq)" height="31.6094" style="stroke: #A80036; stroke-width: 1.5;" width="59" x="2066" y="3"/><text fill="#000000" font-family="sans-serif" font-size="14" lengthAdjust="spacingAndGlyphs" textLength="45" x="2073" y="24.5332">Iterator</text><rect fill="#FEFECE" filter="url(#f1ccu05jvxedwq)" height="31.6094" style="stroke: #A80036; stroke-width: 1.5;" width="59" x="2066" y="1914.1875"/><text fill="#000000" font-family="sans-serif" font-size="14" lengthAdjust="spacingAndGlyphs" textLength="45" x="2073" y="1935.7207">Iterator</text><rect fill="#FEFECE" filter="url(#f1ccu05jvxedwq)" height="31.6094" style="stroke: #A80036; stroke-width: 1.5;" width="74" x="2139" y="3"/><text fill="#000000" font-family="sans-serif" font-size="14" lengthAdjust="spacingAndGlyphs" textLength="60" x="2146" y="24.5332">TypeDecl</text><rect fill="#FEFECE" filter="url(#f1ccu05jvxedwq)" height="31.6094" style="stroke: #A80036; stroke-width: 1.5;" width="74" x="2139" y="1914.1875"/><text fill="#000000" font-family="sans-serif" font-size="14" lengthAdjust="spacingAndGlyphs" textLength="60" x="2146" y="1935.7207">TypeDecl</text><rect fill="#FEFECE" filter="url(#f1ccu05jvxedwq)" height="31.6094" style="stroke: #A80036; stroke-width: 1.5;" width="46" x="2227" y="3"/><text fill="#000000" font-family="sans-serif" font-size="14" lengthAdjust="spacingAndGlyphs" textLength="32" x="2234" y="24.5332">Filter</text><rect fill="#FEFECE" filter="url(#f1ccu05jvxedwq)" height="31.6094" style="stroke: #A80036; stroke-width: 1.5;" width="46" x="2227" y="1914.1875"/><text fill="#000000" font-family="sans-serif" font-size="14" lengthAdjust="spacingAndGlyphs" textLength="32" x="2234" y="1935.7207">Filter</text><rect fill="#FEFECE" filter="url(#f1ccu05jvxedwq)" height="31.6094" style="stroke: #A80036; stroke-width: 1.5;" width="117" x="2369.5" y="3"/><text fill="#000000" font-family="sans-serif" font-size="14" lengthAdjust="spacingAndGlyphs" textLength="103" x="2376.5" y="24.5332">ClassNameFilter</text><rect fill="#FEFECE" filter="url(#f1ccu05jvxedwq)" height="31.6094" style="stroke: #A80036; stroke-width: 1.5;" width="117" x="2369.5" y="1914.1875"/><text fill="#000000" font-family="sans-serif" font-size="14" lengthAdjust="spacingAndGlyphs" textLength="103" x="2376.5" y="1935.7207">ClassNameFilter</text><rect fill="#FEFECE" filter="url(#f1ccu05jvxedwq)" height="31.6094" style="stroke: #A80036; stroke-width: 1.5;" width="78" x="2500.5" y="3"/><text fill="#000000" font-family="sans-serif" font-size="14" lengthAdjust="spacingAndGlyphs" textLength="64" x="2507.5" y="24.5332">SootClass</text><rect fill="#FEFECE" filter="url(#f1ccu05jvxedwq)" height="31.6094" style="stroke: #A80036; stroke-width: 1.5;" width="78" x="2500.5" y="1914.1875"/><text fill="#000000" font-family="sans-serif" font-size="14" lengthAdjust="spacingAndGlyphs" textLength="64" x="2507.5" y="1935.7207">SootClass</text><polygon fill="#A80036" points="161.5,67.6094,171.5,71.6094,161.5,75.6094,165.5,71.6094" style="stroke: #A80036; stroke-width: 1.0;"/><line style="stroke: #A80036; stroke-width: 1.0;" x1="50.5" x2="167.5" y1="71.6094" y2="71.6094"/><text fill="#000000" font-family="sans-serif" font-size="13" lengthAdjust="spacingAndGlyphs" textLength="99" x="57.5" y="67.1045">multiply(double[])</text><polygon fill="#A80036" points="61.5,97.9609,51.5,101.9609,61.5,105.9609,57.5,101.9609" style="stroke: #A80036; stroke-width: 1.0;"/><line style="stroke: #A80036; stroke-width: 1.0; stroke-dasharray: 2.0,2.0;" x1="55.5" x2="172.5" y1="101.9609" y2="101.9609"/><text fill="#000000" font-family="sans-serif" font-size="13" lengthAdjust="spacingAndGlyphs" textLength="38" x="67.5" y="97.4561">double</text><line style="stroke: #A80036; stroke-width: 1.0;" x1="289.5" x2="331.5" y1="132.6641" y2="132.6641"/><line style="stroke: #A80036; stroke-width: 1.0;" x1="331.5" x2="331.5" y1="132.6641" y2="145.6641"/><line style="stroke: #A80036; stroke-width: 1.0;" x1="290.5" x2="331.5" y1="145.6641" y2="145.6641"/><polygon fill="#A80036" points="300.5,141.6641,290.5,145.6641,300.5,149.6641,296.5,145.6641" style="stroke: #A80036; stroke-width: 1.0;"/><text fill="#000000" font-family="sans-serif" font-size="13" lengthAdjust="spacingAndGlyphs" textLength="68" x="296.5" y="127.8076">set(String[])</text><line style="stroke: #A80036; stroke-width: 1.0;" x1="289.5" x2="331.5" y1="176.0156" y2="176.0156"/><line style="stroke: #A80036; stroke-width: 1.0;" x1="331.5" x2="331.5" y1="176.0156" y2="189.0156"/><line style="stroke: #A80036; stroke-width: 1.0;" x1="290.5" x2="331.5" y1="189.0156" y2="189.0156"/><polygon fill="#A80036" points="300.5,185.0156,290.5,189.0156,300.5,193.0156,296.5,189.0156" style="stroke: #A80036; stroke-width: 1.0;"/><text fill="#000000" font-family="sans-serif" font-size="13" lengthAdjust="spacingAndGlyphs" textLength="104" x="296.5" y="171.1592">setConfig(String[])</text><line style="stroke: #A80036; stroke-width: 1.0;" x1="289.5" x2="331.5" y1="219.3672" y2="219.3672"/><line style="stroke: #A80036; stroke-width: 1.0;" x1="331.5" x2="331.5" y1="219.3672" y2="232.3672"/><line style="stroke: #A80036; stroke-width: 1.0;" x1="290.5" x2="331.5" y1="232.3672" y2="232.3672"/><polygon fill="#A80036" points="300.5,228.3672,290.5,232.3672,300.5,236.3672,296.5,232.3672" style="stroke: #A80036; stroke-width: 1.0;"/><text fill="#000000" font-family="sans-serif" font-size="13" lengthAdjust="spacingAndGlyphs" textLength="141" x="296.5" y="214.5107">preprocessArgs(String[])</text><line style="stroke: #A80036; stroke-width: 1.0; stroke-dasharray: 2.0,2.0;" x1="289.5" x2="331.5" y1="262.7188" y2="262.7188"/><line style="stroke: #A80036; stroke-width: 1.0; stroke-dasharray: 2.0,2.0;" x1="331.5" x2="331.5" y1="262.7188" y2="275.7188"/><line style="stroke: #A80036; stroke-width: 1.0; stroke-dasharray: 2.0,2.0;" x1="290.5" x2="331.5" y1="275.7188" y2="275.7188"/><polygon fill="#A80036" points="300.5,271.7188,290.5,275.7188,300.5,279.7188,296.5,275.7188" style="stroke: #A80036; stroke-width: 1.0;"/><text fill="#000000" font-family="sans-serif" font-size="13" lengthAdjust="spacingAndGlyphs" textLength="42" x="296.5" y="257.8623">String[]</text><line style="stroke: #A80036; stroke-width: 1.0;" x1="289.5" x2="331.5" y1="306.0703" y2="306.0703"/><line style="stroke: #A80036; stroke-width: 1.0;" x1="331.5" x2="331.5" y1="306.0703" y2="319.0703"/><line style="stroke: #A80036; stroke-width: 1.0;" x1="290.5" x2="331.5" y1="319.0703" y2="319.0703"/><polygon fill="#A80036" points="300.5,315.0703,290.5,319.0703,300.5,323.0703,296.5,319.0703" style="stroke: #A80036; stroke-width: 1.0;"/><text fill="#000000" font-family="sans-serif" font-size="13" lengthAdjust="spacingAndGlyphs" textLength="82" x="296.5" y="301.2139">parse(String[])</text><line style="stroke: #A80036; stroke-width: 1.0;" x1="621.5" x2="663.5" y1="349.4219" y2="349.4219"/><line style="stroke: #A80036; stroke-width: 1.0;" x1="663.5" x2="663.5" y1="349.4219" y2="362.4219"/><line style="stroke: #A80036; stroke-width: 1.0;" x1="622.5" x2="663.5" y1="362.4219" y2="362.4219"/><polygon fill="#A80036" points="632.5,358.4219,622.5,362.4219,632.5,366.4219,628.5,362.4219" style="stroke: #A80036; stroke-width: 1.0;"/><text fill="#000000" font-family="sans-serif" font-size="13" lengthAdjust="spacingAndGlyphs" textLength="44" x="628.5" y="344.5654">create()</text><line style="stroke: #A80036; stroke-width: 1.0; stroke-dasharray: 2.0,2.0;" x1="621.5" x2="663.5" y1="392.7734" y2="392.7734"/><line style="stroke: #A80036; stroke-width: 1.0; stroke-dasharray: 2.0,2.0;" x1="663.5" x2="663.5" y1="392.7734" y2="405.7734"/><line style="stroke: #A80036; stroke-width: 1.0; stroke-dasharray: 2.0,2.0;" x1="622.5" x2="663.5" y1="405.7734" y2="405.7734"/><polygon fill="#A80036" points="632.5,401.7734,622.5,405.7734,632.5,409.7734,628.5,405.7734" style="stroke: #A80036; stroke-width: 1.0;"/><text fill="#000000" font-family="sans-serif" font-size="13" lengthAdjust="spacingAndGlyphs" textLength="105" x="628.5" y="387.917">ArrayListMultimap</text><polygon fill="#A80036" points="632.5,431.7734,622.5,435.7734,632.5,439.7734,628.5,435.7734" style="stroke: #A80036; stroke-width: 1.0;"/><line style="stroke: #A80036; stroke-width: 1.0;" x1="626.5" x2="750.5" y1="435.7734" y2="435.7734"/><text fill="#000000" font-family="sans-serif" font-size="13" lengthAdjust="spacingAndGlyphs" textLength="106" x="638.5" y="431.2686">put(Object,Object)</text><polygon fill="#A80036" points="739.5,462.125,749.5,466.125,739.5,470.125,743.5,466.125" style="stroke: #A80036; stroke-width: 1.0;"/><line style="stroke: #A80036; stroke-width: 1.0; stroke-dasharray: 2.0,2.0;" x1="621.5" x2="745.5" y1="466.125" y2="466.125"/><text fill="#000000" font-family="sans-serif" font-size="13" lengthAdjust="spacingAndGlyphs" textLength="45" x="628.5" y="461.6201">boolean</text><polygon fill="#A80036" points="632.5,492.4766,622.5,496.4766,632.5,500.4766,628.5,496.4766" style="stroke: #A80036; stroke-width: 1.0;"/><line style="stroke: #A80036; stroke-width: 1.0;" x1="626.5" x2="750.5" y1="496.4766" y2="496.4766"/><text fill="#000000" font-family="sans-serif" font-size="13" lengthAdjust="spacingAndGlyphs" textLength="106" x="638.5" y="491.9717">put(Object,Object)</text><polygon fill="#A80036" points="739.5,522.8281,749.5,526.8281,739.5,530.8281,743.5,526.8281" style="stroke: #A80036; stroke-width: 1.0;"/><line style="stroke: #A80036; stroke-width: 1.0; stroke-dasharray: 2.0,2.0;" x1="621.5" x2="745.5" y1="526.8281" y2="526.8281"/><text fill="#000000" font-family="sans-serif" font-size="13" lengthAdjust="spacingAndGlyphs" textLength="45" x="628.5" y="522.3232">boolean</text><line style="stroke: #A80036; stroke-width: 1.0; stroke-dasharray: 2.0,2.0;" x1="289.5" x2="331.5" y1="557.5313" y2="557.5313"/><line style="stroke: #A80036; stroke-width: 1.0; stroke-dasharray: 2.0,2.0;" x1="331.5" x2="331.5" y1="557.5313" y2="570.5313"/><line style="stroke: #A80036; stroke-width: 1.0; stroke-dasharray: 2.0,2.0;" x1="290.5" x2="331.5" y1="570.5313" y2="570.5313"/><polygon fill="#A80036" points="300.5,566.5313,290.5,570.5313,300.5,574.5313,296.5,570.5313" style="stroke: #A80036; stroke-width: 1.0;"/><text fill="#000000" font-family="sans-serif" font-size="13" lengthAdjust="spacingAndGlyphs" textLength="162" x="296.5" y="552.6748">ListMultimap&lt;String,String&gt;</text><line style="stroke: #A80036; stroke-width: 1.0;" x1="289.5" x2="331.5" y1="600.8828" y2="600.8828"/><line style="stroke: #A80036; stroke-width: 1.0;" x1="331.5" x2="331.5" y1="600.8828" y2="613.8828"/><line style="stroke: #A80036; stroke-width: 1.0;" x1="290.5" x2="331.5" y1="613.8828" y2="613.8828"/><polygon fill="#A80036" points="300.5,609.8828,290.5,613.8828,300.5,617.8828,296.5,613.8828" style="stroke: #A80036; stroke-width: 1.0;"/><text fill="#000000" font-family="sans-serif" font-size="13" lengthAdjust="spacingAndGlyphs" textLength="251" x="296.5" y="596.0264">loadConfigFile(ListMultimap&lt;String,String&gt;)</text><polygon fill="#A80036" points="632.5,639.8828,622.5,643.8828,632.5,647.8828,628.5,643.8828" style="stroke: #A80036; stroke-width: 1.0;"/><line style="stroke: #A80036; stroke-width: 1.0;" x1="626.5" x2="750.5" y1="643.8828" y2="643.8828"/><text fill="#000000" font-family="sans-serif" font-size="13" lengthAdjust="spacingAndGlyphs" textLength="64" x="638.5" y="639.3779">get(Object)</text><polygon fill="#A80036" points="739.5,670.2344,749.5,674.2344,739.5,678.2344,743.5,674.2344" style="stroke: #A80036; stroke-width: 1.0;"/><line style="stroke: #A80036; stroke-width: 1.0; stroke-dasharray: 2.0,2.0;" x1="621.5" x2="745.5" y1="674.2344" y2="674.2344"/><text fill="#000000" font-family="sans-serif" font-size="13" lengthAdjust="spacingAndGlyphs" textLength="21" x="628.5" y="669.7295">List</text><line style="stroke: #A80036; stroke-width: 1.0; stroke-dasharray: 2.0,2.0;" x1="289.5" x2="331.5" y1="704.9375" y2="704.9375"/><line style="stroke: #A80036; stroke-width: 1.0; stroke-dasharray: 2.0,2.0;" x1="331.5" x2="331.5" y1="704.9375" y2="717.9375"/><line style="stroke: #A80036; stroke-width: 1.0; stroke-dasharray: 2.0,2.0;" x1="290.5" x2="331.5" y1="717.9375" y2="717.9375"/><polygon fill="#A80036" points="300.5,713.9375,290.5,717.9375,300.5,721.9375,296.5,717.9375" style="stroke: #A80036; stroke-width: 1.0;"/><text fill="#000000" font-family="sans-serif" font-size="13" lengthAdjust="spacingAndGlyphs" textLength="70" x="296.5" y="700.0811">InputStream</text><line style="stroke: #A80036; stroke-width: 1.0;" x1="289.5" x2="331.5" y1="748.2891" y2="748.2891"/><line style="stroke: #A80036; stroke-width: 1.0;" x1="331.5" x2="331.5" y1="748.2891" y2="761.2891"/><line style="stroke: #A80036; stroke-width: 1.0;" x1="290.5" x2="331.5" y1="761.2891" y2="761.2891"/><polygon fill="#A80036" points="300.5,757.2891,290.5,761.2891,300.5,765.2891,296.5,761.2891" style="stroke: #A80036; stroke-width: 1.0;"/><text fill="#000000" font-family="sans-serif" font-size="13" lengthAdjust="spacingAndGlyphs" textLength="200" x="296.5" y="743.4326">setSystemProperties(InputStream)</text><line style="stroke: #A80036; stroke-width: 1.0;" x1="289.5" x2="331.5" y1="791.6406" y2="791.6406"/><line style="stroke: #A80036; stroke-width: 1.0;" x1="331.5" x2="331.5" y1="791.6406" y2="804.6406"/><line style="stroke: #A80036; stroke-width: 1.0;" x1="290.5" x2="331.5" y1="804.6406" y2="804.6406"/><polygon fill="#A80036" points="300.5,800.6406,290.5,804.6406,300.5,808.6406,296.5,804.6406" style="stroke: #A80036; stroke-width: 1.0;"/><text fill="#000000" font-family="sans-serif" font-size="13" lengthAdjust="spacingAndGlyphs" textLength="318" x="296.5" y="786.7842">overrideSystemProperties(ListMultimap&lt;String,String&gt;)</text><polygon fill="#A80036" points="632.5,830.6406,622.5,834.6406,632.5,838.6406,628.5,834.6406" style="stroke: #A80036; stroke-width: 1.0;"/><line style="stroke: #A80036; stroke-width: 1.0;" x1="626.5" x2="750.5" y1="834.6406" y2="834.6406"/><text fill="#000000" font-family="sans-serif" font-size="13" lengthAdjust="spacingAndGlyphs" textLength="36" x="638.5" y="830.1357">keys()</text><polygon fill="#A80036" points="739.5,860.9922,749.5,864.9922,739.5,868.9922,743.5,864.9922" style="stroke: #A80036; stroke-width: 1.0;"/><line style="stroke: #A80036; stroke-width: 1.0; stroke-dasharray: 2.0,2.0;" x1="621.5" x2="745.5" y1="864.9922" y2="864.9922"/><text fill="#000000" font-family="sans-serif" font-size="13" lengthAdjust="spacingAndGlyphs" textLength="46" x="628.5" y="860.4873">Multiset</text><line style="stroke: #A80036; stroke-width: 1.0;" x1="866" x2="908" y1="895.6953" y2="895.6953"/><line style="stroke: #A80036; stroke-width: 1.0;" x1="908" x2="908" y1="895.6953" y2="908.6953"/><line style="stroke: #A80036; stroke-width: 1.0;" x1="867" x2="908" y1="908.6953" y2="908.6953"/><polygon fill="#A80036" points="877,904.6953,867,908.6953,877,912.6953,873,908.6953" style="stroke: #A80036; stroke-width: 1.0;"/><text fill="#000000" font-family="sans-serif" font-size="13" lengthAdjust="spacingAndGlyphs" textLength="121" x="873" y="890.8389">accept(ListMultimap)</text><line style="stroke: #A80036; stroke-width: 1.0; stroke-dasharray: 2.0,2.0;" x1="866" x2="908" y1="939.0469" y2="939.0469"/><line style="stroke: #A80036; stroke-width: 1.0; stroke-dasharray: 2.0,2.0;" x1="908" x2="908" y1="939.0469" y2="952.0469"/><line style="stroke: #A80036; stroke-width: 1.0; stroke-dasharray: 2.0,2.0;" x1="867" x2="908" y1="952.0469" y2="952.0469"/><polygon fill="#A80036" points="877,948.0469,867,952.0469,877,956.0469,873,952.0469" style="stroke: #A80036; stroke-width: 1.0;"/><text fill="#000000" font-family="sans-serif" font-size="13" lengthAdjust="spacingAndGlyphs" textLength="59" x="873" y="934.1904">Consumer</text><line style="stroke: #A80036; stroke-width: 1.0;" x1="1001" x2="1043" y1="982.3984" y2="982.3984"/><line style="stroke: #A80036; stroke-width: 1.0;" x1="1043" x2="1043" y1="982.3984" y2="995.3984"/><line style="stroke: #A80036; stroke-width: 1.0;" x1="1002" x2="1043" y1="995.3984" y2="995.3984"/><polygon fill="#A80036" points="1012,991.3984,1002,995.3984,1012,999.3984,1008,995.3984" style="stroke: #A80036; stroke-width: 1.0;"/><text fill="#000000" font-family="sans-serif" font-size="13" lengthAdjust="spacingAndGlyphs" textLength="123" x="1008" y="977.542">new PipelineModule()</text><line style="stroke: #A80036; stroke-width: 1.0;" x1="1138" x2="1180" y1="1025.75" y2="1025.75"/><line style="stroke: #A80036; stroke-width: 1.0;" x1="1180" x2="1180" y1="1025.75" y2="1038.75"/><line style="stroke: #A80036; stroke-width: 1.0;" x1="1139" x2="1180" y1="1038.75" y2="1038.75"/><polygon fill="#A80036" points="1149,1034.75,1139,1038.75,1149,1042.75,1145,1038.75" style="stroke: #A80036; stroke-width: 1.0;"/><text fill="#000000" font-family="sans-serif" font-size="13" lengthAdjust="spacingAndGlyphs" textLength="134" x="1145" y="1020.8936">new ReflectionModule()</text><line style="stroke: #A80036; stroke-width: 1.0;" x1="1286" x2="1328" y1="1069.1016" y2="1069.1016"/><line style="stroke: #A80036; stroke-width: 1.0;" x1="1328" x2="1328" y1="1069.1016" y2="1082.1016"/><line style="stroke: #A80036; stroke-width: 1.0;" x1="1287" x2="1328" y1="1082.1016" y2="1082.1016"/><polygon fill="#A80036" points="1297,1078.1016,1287,1082.1016,1297,1086.1016,1293,1082.1016" style="stroke: #A80036; stroke-width: 1.0;"/><text fill="#000000" font-family="sans-serif" font-size="13" lengthAdjust="spacingAndGlyphs" textLength="136" x="1293" y="1064.2451">createInjector(Module[])</text><line style="stroke: #A80036; stroke-width: 1.0; stroke-dasharray: 2.0,2.0;" x1="1286" x2="1328" y1="1112.4531" y2="1112.4531"/><line style="stroke: #A80036; stroke-width: 1.0; stroke-dasharray: 2.0,2.0;" x1="1328" x2="1328" y1="1112.4531" y2="1125.4531"/><line style="stroke: #A80036; stroke-width: 1.0; stroke-dasharray: 2.0,2.0;" x1="1287" x2="1328" y1="1125.4531" y2="1125.4531"/><polygon fill="#A80036" points="1297,1121.4531,1287,1125.4531,1297,1129.4531,1293,1125.4531" style="stroke: #A80036; stroke-width: 1.0;"/><text fill="#000000" font-family="sans-serif" font-size="13" lengthAdjust="spacingAndGlyphs" textLength="42" x="1293" y="1107.5967">Injector</text><line style="stroke: #A80036; stroke-width: 1.0;" x1="1436" x2="1478" y1="1155.8047" y2="1155.8047"/><line style="stroke: #A80036; stroke-width: 1.0;" x1="1478" x2="1478" y1="1155.8047" y2="1168.8047"/><line style="stroke: #A80036; stroke-width: 1.0;" x1="1437" x2="1478" y1="1168.8047" y2="1168.8047"/><polygon fill="#A80036" points="1447,1164.8047,1437,1168.8047,1447,1172.8047,1443,1168.8047" style="stroke: #A80036; stroke-width: 1.0;"/><text fill="#000000" font-family="sans-serif" font-size="13" lengthAdjust="spacingAndGlyphs" textLength="100" x="1443" y="1150.9482">executePipeline()</text><polygon fill="#A80036" points="1707,1194.8047,1717,1198.8047,1707,1202.8047,1711,1198.8047" style="stroke: #A80036; stroke-width: 1.0;"/><line style="stroke: #A80036; stroke-width: 1.0;" x1="1550" x2="1713" y1="1198.8047" y2="1198.8047"/><text fill="#000000" font-family="sans-serif" font-size="13" lengthAdjust="spacingAndGlyphs" textLength="145" x="1557" y="1194.2998">execute(AnalyzerBundle)</text><line style="stroke: #A80036; stroke-width: 1.0;" x1="1808.5" x2="1850.5" y1="1229.5078" y2="1229.5078"/><line style="stroke: #A80036; stroke-width: 1.0;" x1="1850.5" x2="1850.5" y1="1229.5078" y2="1242.5078"/><line style="stroke: #A80036; stroke-width: 1.0;" x1="1809.5" x2="1850.5" y1="1242.5078" y2="1242.5078"/><polygon fill="#A80036" points="1819.5,1238.5078,1809.5,1242.5078,1819.5,1246.5078,1815.5,1242.5078" style="stroke: #A80036; stroke-width: 1.0;"/><text fill="#000000" font-family="sans-serif" font-size="13" lengthAdjust="spacingAndGlyphs" textLength="69" x="1815.5" y="1224.6514">getClasses)</text><line style="stroke: #A80036; stroke-width: 1.0; stroke-dasharray: 2.0,2.0;" x1="1808.5" x2="1850.5" y1="1272.8594" y2="1272.8594"/><line style="stroke: #A80036; stroke-width: 1.0; stroke-dasharray: 2.0,2.0;" x1="1850.5" x2="1850.5" y1="1272.8594" y2="1285.8594"/><line style="stroke: #A80036; stroke-width: 1.0; stroke-dasharray: 2.0,2.0;" x1="1809.5" x2="1850.5" y1="1285.8594" y2="1285.8594"/><polygon fill="#A80036" points="1819.5,1281.8594,1809.5,1285.8594,1819.5,1289.8594,1815.5,1285.8594" style="stroke: #A80036; stroke-width: 1.0;"/><text fill="#000000" font-family="sans-serif" font-size="13" lengthAdjust="spacingAndGlyphs" textLength="109" x="1815.5" y="1268.0029">Chain&lt;SootClass&gt;</text><polygon fill="#A80036" points="2000.5,1311.8594,2010.5,1315.8594,2000.5,1319.8594,2004.5,1315.8594" style="stroke: #A80036; stroke-width: 1.0;"/><line style="stroke: #A80036; stroke-width: 1.0;" x1="1931.5" x2="2006.5" y1="1315.8594" y2="1315.8594"/><text fill="#000000" font-family="sans-serif" font-size="13" lengthAdjust="spacingAndGlyphs" textLength="48" x="1938.5" y="1311.3545">iterator()</text><polygon fill="#A80036" points="1942.5,1342.2109,1932.5,1346.2109,1942.5,1350.2109,1938.5,1346.2109" style="stroke: #A80036; stroke-width: 1.0;"/><line style="stroke: #A80036; stroke-width: 1.0; stroke-dasharray: 2.0,2.0;" x1="1936.5" x2="2011.5" y1="1346.2109" y2="1346.2109"/><text fill="#000000" font-family="sans-serif" font-size="13" lengthAdjust="spacingAndGlyphs" textLength="40" x="1948.5" y="1341.7061">Iterator</text><polygon fill="#A80036" points="2166,1372.5625,2176,1376.5625,2166,1380.5625,2170,1376.5625" style="stroke: #A80036; stroke-width: 1.0;"/><line style="stroke: #A80036; stroke-width: 1.0;" x1="2097.5" x2="2172" y1="1376.5625" y2="1376.5625"/><text fill="#000000" font-family="sans-serif" font-size="13" lengthAdjust="spacingAndGlyphs" textLength="56" x="2104.5" y="1372.0576">hasNext()</text><polygon fill="#A80036" points="2108.5,1402.9141,2098.5,1406.9141,2108.5,1410.9141,2104.5,1406.9141" style="stroke: #A80036; stroke-width: 1.0;"/><line style="stroke: #A80036; stroke-width: 1.0; stroke-dasharray: 2.0,2.0;" x1="2102.5" x2="2177" y1="1406.9141" y2="1406.9141"/><text fill="#000000" font-family="sans-serif" font-size="13" lengthAdjust="spacingAndGlyphs" textLength="45" x="2114.5" y="1402.4092">boolean</text><polygon fill="#A80036" points="2166,1433.2656,2176,1437.2656,2166,1441.2656,2170,1437.2656" style="stroke: #A80036; stroke-width: 1.0;"/><line style="stroke: #A80036; stroke-width: 1.0;" x1="2097.5" x2="2172" y1="1437.2656" y2="1437.2656"/><text fill="#000000" font-family="sans-serif" font-size="13" lengthAdjust="spacingAndGlyphs" textLength="33" x="2104.5" y="1432.7607">next()</text><polygon fill="#A80036" points="2108.5,1463.6172,2098.5,1467.6172,2108.5,1471.6172,2104.5,1467.6172" style="stroke: #A80036; stroke-width: 1.0;"/><line style="stroke: #A80036; stroke-width: 1.0; stroke-dasharray: 2.0,2.0;" x1="2102.5" x2="2177" y1="1467.6172" y2="1467.6172"/><text fill="#000000" font-family="sans-serif" font-size="13" lengthAdjust="spacingAndGlyphs" textLength="38" x="2114.5" y="1463.1123">Object</text><line style="stroke: #A80036; stroke-width: 1.0;" x1="1550" x2="1592" y1="1498.3203" y2="1498.3203"/><line style="stroke: #A80036; stroke-width: 1.0;" x1="1592" x2="1592" y1="1498.3203" y2="1511.3203"/><line style="stroke: #A80036; stroke-width: 1.0;" x1="1551" x2="1592" y1="1511.3203" y2="1511.3203"/><polygon fill="#A80036" points="1561,1507.3203,1551,1511.3203,1561,1515.3203,1557,1511.3203" style="stroke: #A80036; stroke-width: 1.0;"/><text fill="#000000" font-family="sans-serif" font-size="13" lengthAdjust="spacingAndGlyphs" textLength="146" x="1557" y="1493.4639">passesFilters(SootClass)</text><polygon fill="#A80036" points="2166,1537.3203,2176,1541.3203,2166,1545.3203,2170,1541.3203" style="stroke: #A80036; stroke-width: 1.0;"/><line style="stroke: #A80036; stroke-width: 1.0;" x1="2097.5" x2="2172" y1="1541.3203" y2="1541.3203"/><text fill="#000000" font-family="sans-serif" font-size="13" lengthAdjust="spacingAndGlyphs" textLength="56" x="2104.5" y="1536.8154">hasNext()</text><polygon fill="#A80036" points="2108.5,1567.6719,2098.5,1571.6719,2108.5,1575.6719,2104.5,1571.6719" style="stroke: #A80036; stroke-width: 1.0;"/><line style="stroke: #A80036; stroke-width: 1.0; stroke-dasharray: 2.0,2.0;" x1="2102.5" x2="2177" y1="1571.6719" y2="1571.6719"/><text fill="#000000" font-family="sans-serif" font-size="13" lengthAdjust="spacingAndGlyphs" textLength="45" x="2114.5" y="1567.167">boolean</text><polygon fill="#A80036" points="2166,1598.0234,2176,1602.0234,2166,1606.0234,2170,1602.0234" style="stroke: #A80036; stroke-width: 1.0;"/><line style="stroke: #A80036; stroke-width: 1.0;" x1="2097.5" x2="2172" y1="1602.0234" y2="1602.0234"/><text fill="#000000" font-family="sans-serif" font-size="13" lengthAdjust="spacingAndGlyphs" textLength="33" x="2104.5" y="1597.5186">next()</text><polygon fill="#A80036" points="2108.5,1628.375,2098.5,1632.375,2108.5,1636.375,2104.5,1632.375" style="stroke: #A80036; stroke-width: 1.0;"/><line style="stroke: #A80036; stroke-width: 1.0; stroke-dasharray: 2.0,2.0;" x1="2102.5" x2="2177" y1="1632.375" y2="1632.375"/><text fill="#000000" font-family="sans-serif" font-size="13" lengthAdjust="spacingAndGlyphs" textLength="38" x="2114.5" y="1627.8701">Object</text><polygon fill="#A80036" points="2418,1658.7266,2428,1662.7266,2418,1666.7266,2422,1662.7266" style="stroke: #A80036; stroke-width: 1.0;"/><line style="stroke: #A80036; stroke-width: 1.0;" x1="2252" x2="2424" y1="1662.7266" y2="1662.7266"/><text fill="#000000" font-family="sans-serif" font-size="13" lengthAdjust="spacingAndGlyphs" textLength="154" x="2259" y="1658.2217">shouldProcess(SootClass)</text><line style="stroke: #A80036; stroke-width: 1.0;" x1="2541.5" x2="2583.5" y1="1693.4297" y2="1693.4297"/><line style="stroke: #A80036; stroke-width: 1.0;" x1="2583.5" x2="2583.5" y1="1693.4297" y2="1706.4297"/><line style="stroke: #A80036; stroke-width: 1.0;" x1="2542.5" x2="2583.5" y1="1706.4297" y2="1706.4297"/><polygon fill="#A80036" points="2552.5,1702.4297,2542.5,1706.4297,2552.5,1710.4297,2548.5,1706.4297" style="stroke: #A80036; stroke-width: 1.0;"/><text fill="#000000" font-family="sans-serif" font-size="13" lengthAdjust="spacingAndGlyphs" textLength="60" x="2548.5" y="1688.5732">getName()</text><line style="stroke: #A80036; stroke-width: 1.0; stroke-dasharray: 2.0,2.0;" x1="2541.5" x2="2583.5" y1="1736.7813" y2="1736.7813"/><line style="stroke: #A80036; stroke-width: 1.0; stroke-dasharray: 2.0,2.0;" x1="2583.5" x2="2583.5" y1="1736.7813" y2="1749.7813"/><line style="stroke: #A80036; stroke-width: 1.0; stroke-dasharray: 2.0,2.0;" x1="2542.5" x2="2583.5" y1="1749.7813" y2="1749.7813"/><polygon fill="#A80036" points="2552.5,1745.7813,2542.5,1749.7813,2552.5,1753.7813,2548.5,1749.7813" style="stroke: #A80036; stroke-width: 1.0;"/><text fill="#000000" font-family="sans-serif" font-size="13" lengthAdjust="spacingAndGlyphs" textLength="34" x="2548.5" y="1731.9248">String</text><polygon fill="#A80036" points="2263,1775.7813,2253,1779.7813,2263,1783.7813,2259,1779.7813" style="stroke: #A80036; stroke-width: 1.0;"/><line style="stroke: #A80036; stroke-width: 1.0; stroke-dasharray: 2.0,2.0;" x1="2257" x2="2429" y1="1779.7813" y2="1779.7813"/><text fill="#000000" font-family="sans-serif" font-size="13" lengthAdjust="spacingAndGlyphs" textLength="45" x="2269" y="1775.2764">boolean</text><line style="stroke: #A80036; stroke-width: 1.0; stroke-dasharray: 2.0,2.0;" x1="1550" x2="1592" y1="1810.4844" y2="1810.4844"/><line style="stroke: #A80036; stroke-width: 1.0; stroke-dasharray: 2.0,2.0;" x1="1592" x2="1592" y1="1810.4844" y2="1823.4844"/><line style="stroke: #A80036; stroke-width: 1.0; stroke-dasharray: 2.0,2.0;" x1="1551" x2="1592" y1="1823.4844" y2="1823.4844"/><polygon fill="#A80036" points="1561,1819.4844,1551,1823.4844,1561,1827.4844,1557,1823.4844" style="stroke: #A80036; stroke-width: 1.0;"/><text fill="#000000" font-family="sans-serif" font-size="13" lengthAdjust="spacingAndGlyphs" textLength="45" x="1557" y="1805.6279">boolean</text><polygon fill="#A80036" points="1561,1849.4844,1551,1853.4844,1561,1857.4844,1557,1853.4844" style="stroke: #A80036; stroke-width: 1.0;"/><line style="stroke: #A80036; stroke-width: 1.0; stroke-dasharray: 2.0,2.0;" x1="1555" x2="1718" y1="1853.4844" y2="1853.4844"/><text fill="#000000" font-family="sans-serif" font-size="13" lengthAdjust="spacingAndGlyphs" textLength="91" x="1567" y="1848.9795">AnalyzerBundle</text><line style="stroke: #A80036; stroke-width: 1.0; stroke-dasharray: 2.0,2.0;" x1="1436" x2="1478" y1="1884.1875" y2="1884.1875"/><line style="stroke: #A80036; stroke-width: 1.0; stroke-dasharray: 2.0,2.0;" x1="1478" x2="1478" y1="1884.1875" y2="1897.1875"/><line style="stroke: #A80036; stroke-width: 1.0; stroke-dasharray: 2.0,2.0;" x1="1437" x2="1478" y1="1897.1875" y2="1897.1875"/><polygon fill="#A80036" points="1447,1893.1875,1437,1897.1875,1447,1901.1875,1443,1897.1875" style="stroke: #A80036; stroke-width: 1.0;"/><text fill="#000000" font-family="sans-serif" font-size="13" lengthAdjust="spacingAndGlyphs" textLength="91" x="1443" y="1879.3311">AnalyzerBundle</text></g></svg>