<?xml version="1.0" encoding="UTF-8" standalone="no"?><svg xmlns="http://www.w3.org/2000/svg" xmlns:xlink="http://www.w3.org/1999/xlink" contentScriptType="application/ecmascript" contentStyleType="text/css" height="1211px" preserveAspectRatio="none" style="width:1334px;height:1211px;" version="1.1" viewBox="0 0 1334 1211" width="1334px" zoomAndPan="magnify"><defs><filter height="300%" id="f1gle1mduw9hg9" width="300%" x="-1" y="-1"><feGaussianBlur result="blurOut" stdDeviation="2.0"/><feColorMatrix in="blurOut" result="blurOut2" type="matrix" values="0 0 0 0 0 0 0 0 0 0 0 0 0 0 0 0 0 0 .4 0"/><feOffset dx="4.0" dy="4.0" in="blurOut2" result="blurOut3"/><feBlend in="SourceGraphic" in2="blurOut3" mode="normal"/></filter></defs><g><line style="stroke: #A80036; stroke-width: 1.0; stroke-dasharray: 5.0,5.0;" x1="68" x2="68" y1="39.6094" y2="1169.4531"/><line style="stroke: #A80036; stroke-width: 1.0; stroke-dasharray: 5.0,5.0;" x1="400.5" x2="400.5" y1="39.6094" y2="1169.4531"/><line style="stroke: #A80036; stroke-width: 1.0; stroke-dasharray: 5.0,5.0;" x1="530.5" x2="530.5" y1="39.6094" y2="1169.4531"/><line style="stroke: #A80036; stroke-width: 1.0; stroke-dasharray: 5.0,5.0;" x1="644.5" x2="644.5" y1="39.6094" y2="1169.4531"/><line style="stroke: #A80036; stroke-width: 1.0; stroke-dasharray: 5.0,5.0;" x1="780" x2="780" y1="39.6094" y2="1169.4531"/><line style="stroke: #A80036; stroke-width: 1.0; stroke-dasharray: 5.0,5.0;" x1="916.5" x2="916.5" y1="39.6094" y2="1169.4531"/><line style="stroke: #A80036; stroke-width: 1.0; stroke-dasharray: 5.0,5.0;" x1="1064.5" x2="1064.5" y1="39.6094" y2="1169.4531"/><line style="stroke: #A80036; stroke-width: 1.0; stroke-dasharray: 5.0,5.0;" x1="1215" x2="1215" y1="39.6094" y2="1169.4531"/><rect fill="#FEFECE" filter="url(#f1gle1mduw9hg9)" height="31.6094" style="stroke: #A80036; stroke-width: 1.5;" width="117" x="8" y="3"/><text fill="#000000" font-family="sans-serif" font-size="14" lengthAdjust="spacingAndGlyphs" textLength="103" x="15" y="24.5332">PropertiesSetter</text><rect fill="#FEFECE" filter="url(#f1gle1mduw9hg9)" height="31.6094" style="stroke: #A80036; stroke-width: 1.5;" width="117" x="8" y="1168.4531"/><text fill="#000000" font-family="sans-serif" font-size="14" lengthAdjust="spacingAndGlyphs" textLength="103" x="15" y="1189.9863">PropertiesSetter</text><rect fill="#FEFECE" filter="url(#f1gle1mduw9hg9)" height="31.6094" style="stroke: #A80036; stroke-width: 1.5;" width="126" x="335.5" y="3"/><text fill="#000000" font-family="sans-serif" font-size="14" lengthAdjust="spacingAndGlyphs" textLength="112" x="342.5" y="24.5332">ArrayListMultimap</text><rect fill="#FEFECE" filter="url(#f1gle1mduw9hg9)" height="31.6094" style="stroke: #A80036; stroke-width: 1.5;" width="126" x="335.5" y="1168.4531"/><text fill="#000000" font-family="sans-serif" font-size="14" lengthAdjust="spacingAndGlyphs" textLength="112" x="342.5" y="1189.9863">ArrayListMultimap</text><rect fill="#FEFECE" filter="url(#f1gle1mduw9hg9)" height="31.6094" style="stroke: #A80036; stroke-width: 1.5;" width="92" x="482.5" y="3"/><text fill="#000000" font-family="sans-serif" font-size="14" lengthAdjust="spacingAndGlyphs" textLength="78" x="489.5" y="24.5332">ListMultimap</text><rect fill="#FEFECE" filter="url(#f1gle1mduw9hg9)" height="31.6094" style="stroke: #A80036; stroke-width: 1.5;" width="92" x="482.5" y="1168.4531"/><text fill="#000000" font-family="sans-serif" font-size="14" lengthAdjust="spacingAndGlyphs" textLength="78" x="489.5" y="1189.9863">ListMultimap</text><rect fill="#FEFECE" filter="url(#f1gle1mduw9hg9)" height="31.6094" style="stroke: #A80036; stroke-width: 1.5;" width="109" x="588.5" y="3"/><text fill="#000000" font-family="sans-serif" font-size="14" lengthAdjust="spacingAndGlyphs" textLength="95" x="595.5" y="24.5332">InvokeDynamic</text><rect fill="#FEFECE" filter="url(#f1gle1mduw9hg9)" height="31.6094" style="stroke: #A80036; stroke-width: 1.5;" width="109" x="588.5" y="1168.4531"/><text fill="#000000" font-family="sans-serif" font-size="14" lengthAdjust="spacingAndGlyphs" textLength="95" x="595.5" y="1189.9863">InvokeDynamic</text><rect fill="#FEFECE" filter="url(#f1gle1mduw9hg9)" height="31.6094" style="stroke: #A80036; stroke-width: 1.5;" width="110" x="723" y="3"/><text fill="#000000" font-family="sans-serif" font-size="14" lengthAdjust="spacingAndGlyphs" textLength="96" x="730" y="24.5332">PipelineModule</text><rect fill="#FEFECE" filter="url(#f1gle1mduw9hg9)" height="31.6094" style="stroke: #A80036; stroke-width: 1.5;" width="110" x="723" y="1168.4531"/><text fill="#000000" font-family="sans-serif" font-size="14" lengthAdjust="spacingAndGlyphs" textLength="96" x="730" y="1189.9863">PipelineModule</text><rect fill="#FEFECE" filter="url(#f1gle1mduw9hg9)" height="31.6094" style="stroke: #A80036; stroke-width: 1.5;" width="123" x="853.5" y="3"/><text fill="#000000" font-family="sans-serif" font-size="14" lengthAdjust="spacingAndGlyphs" textLength="109" x="860.5" y="24.5332">ReflectionModule</text><rect fill="#FEFECE" filter="url(#f1gle1mduw9hg9)" height="31.6094" style="stroke: #A80036; stroke-width: 1.5;" width="123" x="853.5" y="1168.4531"/><text fill="#000000" font-family="sans-serif" font-size="14" lengthAdjust="spacingAndGlyphs" textLength="109" x="860.5" y="1189.9863">ReflectionModule</text><rect fill="#FEFECE" filter="url(#f1gle1mduw9hg9)" height="31.6094" style="stroke: #A80036; stroke-width: 1.5;" width="51" x="1037.5" y="3"/><text fill="#000000" font-family="sans-serif" font-size="14" lengthAdjust="spacingAndGlyphs" textLength="37" x="1044.5" y="24.5332">Guice</text><rect fill="#FEFECE" filter="url(#f1gle1mduw9hg9)" height="31.6094" style="stroke: #A80036; stroke-width: 1.5;" width="51" x="1037.5" y="1168.4531"/><text fill="#000000" font-family="sans-serif" font-size="14" lengthAdjust="spacingAndGlyphs" textLength="37" x="1044.5" y="1189.9863">Guice</text><rect fill="#FEFECE" filter="url(#f1gle1mduw9hg9)" height="31.6094" style="stroke: #A80036; stroke-width: 1.5;" width="78" x="1174" y="3"/><text fill="#000000" font-family="sans-serif" font-size="14" lengthAdjust="spacingAndGlyphs" textLength="64" x="1181" y="24.5332">Processor</text><rect fill="#FEFECE" filter="url(#f1gle1mduw9hg9)" height="31.6094" style="stroke: #A80036; stroke-width: 1.5;" width="78" x="1174" y="1168.4531"/><text fill="#000000" font-family="sans-serif" font-size="14" lengthAdjust="spacingAndGlyphs" textLength="64" x="1181" y="1189.9863">Processor</text><line style="stroke: #A80036; stroke-width: 1.0;" x1="68.5" x2="110.5" y1="71.9609" y2="71.9609"/><line style="stroke: #A80036; stroke-width: 1.0;" x1="110.5" x2="110.5" y1="71.9609" y2="84.9609"/><line style="stroke: #A80036; stroke-width: 1.0;" x1="69.5" x2="110.5" y1="84.9609" y2="84.9609"/><polygon fill="#A80036" points="79.5,80.9609,69.5,84.9609,79.5,88.9609,75.5,84.9609" style="stroke: #A80036; stroke-width: 1.0;"/><text fill="#000000" font-family="sans-serif" font-size="13" lengthAdjust="spacingAndGlyphs" textLength="68" x="75.5" y="67.1045">set(String[])</text><line style="stroke: #A80036; stroke-width: 1.0;" x1="68.5" x2="110.5" y1="115.3125" y2="115.3125"/><line style="stroke: #A80036; stroke-width: 1.0;" x1="110.5" x2="110.5" y1="115.3125" y2="128.3125"/><line style="stroke: #A80036; stroke-width: 1.0;" x1="69.5" x2="110.5" y1="128.3125" y2="128.3125"/><polygon fill="#A80036" points="79.5,124.3125,69.5,128.3125,79.5,132.3125,75.5,128.3125" style="stroke: #A80036; stroke-width: 1.0;"/><text fill="#000000" font-family="sans-serif" font-size="13" lengthAdjust="spacingAndGlyphs" textLength="104" x="75.5" y="110.4561">setConfig(String[])</text><line style="stroke: #A80036; stroke-width: 1.0;" x1="68.5" x2="110.5" y1="158.6641" y2="158.6641"/><line style="stroke: #A80036; stroke-width: 1.0;" x1="110.5" x2="110.5" y1="158.6641" y2="171.6641"/><line style="stroke: #A80036; stroke-width: 1.0;" x1="69.5" x2="110.5" y1="171.6641" y2="171.6641"/><polygon fill="#A80036" points="79.5,167.6641,69.5,171.6641,79.5,175.6641,75.5,171.6641" style="stroke: #A80036; stroke-width: 1.0;"/><text fill="#000000" font-family="sans-serif" font-size="13" lengthAdjust="spacingAndGlyphs" textLength="141" x="75.5" y="153.8076">preprocessArgs(String[])</text><line style="stroke: #A80036; stroke-width: 1.0; stroke-dasharray: 2.0,2.0;" x1="68.5" x2="110.5" y1="202.0156" y2="202.0156"/><line style="stroke: #A80036; stroke-width: 1.0; stroke-dasharray: 2.0,2.0;" x1="110.5" x2="110.5" y1="202.0156" y2="215.0156"/><line style="stroke: #A80036; stroke-width: 1.0; stroke-dasharray: 2.0,2.0;" x1="69.5" x2="110.5" y1="215.0156" y2="215.0156"/><polygon fill="#A80036" points="79.5,211.0156,69.5,215.0156,79.5,219.0156,75.5,215.0156" style="stroke: #A80036; stroke-width: 1.0;"/><text fill="#000000" font-family="sans-serif" font-size="13" lengthAdjust="spacingAndGlyphs" textLength="42" x="75.5" y="197.1592">String[]</text><line style="stroke: #A80036; stroke-width: 1.0;" x1="68.5" x2="110.5" y1="245.3672" y2="245.3672"/><line style="stroke: #A80036; stroke-width: 1.0;" x1="110.5" x2="110.5" y1="245.3672" y2="258.3672"/><line style="stroke: #A80036; stroke-width: 1.0;" x1="69.5" x2="110.5" y1="258.3672" y2="258.3672"/><polygon fill="#A80036" points="79.5,254.3672,69.5,258.3672,79.5,262.3672,75.5,258.3672" style="stroke: #A80036; stroke-width: 1.0;"/><text fill="#000000" font-family="sans-serif" font-size="13" lengthAdjust="spacingAndGlyphs" textLength="82" x="75.5" y="240.5107">parse(String[])</text><line style="stroke: #A80036; stroke-width: 1.0;" x1="400.5" x2="442.5" y1="288.7188" y2="288.7188"/><line style="stroke: #A80036; stroke-width: 1.0;" x1="442.5" x2="442.5" y1="288.7188" y2="301.7188"/><line style="stroke: #A80036; stroke-width: 1.0;" x1="401.5" x2="442.5" y1="301.7188" y2="301.7188"/><polygon fill="#A80036" points="411.5,297.7188,401.5,301.7188,411.5,305.7188,407.5,301.7188" style="stroke: #A80036; stroke-width: 1.0;"/><text fill="#000000" font-family="sans-serif" font-size="13" lengthAdjust="spacingAndGlyphs" textLength="44" x="407.5" y="283.8623">create()</text><line style="stroke: #A80036; stroke-width: 1.0; stroke-dasharray: 2.0,2.0;" x1="400.5" x2="442.5" y1="332.0703" y2="332.0703"/><line style="stroke: #A80036; stroke-width: 1.0; stroke-dasharray: 2.0,2.0;" x1="442.5" x2="442.5" y1="332.0703" y2="345.0703"/><line style="stroke: #A80036; stroke-width: 1.0; stroke-dasharray: 2.0,2.0;" x1="401.5" x2="442.5" y1="345.0703" y2="345.0703"/><polygon fill="#A80036" points="411.5,341.0703,401.5,345.0703,411.5,349.0703,407.5,345.0703" style="stroke: #A80036; stroke-width: 1.0;"/><text fill="#000000" font-family="sans-serif" font-size="13" lengthAdjust="spacingAndGlyphs" textLength="105" x="407.5" y="327.2139">ArrayListMultimap</text><polygon fill="#A80036" points="411.5,371.0703,401.5,375.0703,411.5,379.0703,407.5,375.0703" style="stroke: #A80036; stroke-width: 1.0;"/><line style="stroke: #A80036; stroke-width: 1.0;" x1="405.5" x2="529.5" y1="375.0703" y2="375.0703"/><text fill="#000000" font-family="sans-serif" font-size="13" lengthAdjust="spacingAndGlyphs" textLength="106" x="417.5" y="370.5654">put(Object,Object)</text><polygon fill="#A80036" points="518.5,401.4219,528.5,405.4219,518.5,409.4219,522.5,405.4219" style="stroke: #A80036; stroke-width: 1.0;"/><line style="stroke: #A80036; stroke-width: 1.0; stroke-dasharray: 2.0,2.0;" x1="400.5" x2="524.5" y1="405.4219" y2="405.4219"/><text fill="#000000" font-family="sans-serif" font-size="13" lengthAdjust="spacingAndGlyphs" textLength="45" x="407.5" y="400.917">boolean</text><polygon fill="#A80036" points="411.5,431.7734,401.5,435.7734,411.5,439.7734,407.5,435.7734" style="stroke: #A80036; stroke-width: 1.0;"/><line style="stroke: #A80036; stroke-width: 1.0;" x1="405.5" x2="529.5" y1="435.7734" y2="435.7734"/><text fill="#000000" font-family="sans-serif" font-size="13" lengthAdjust="spacingAndGlyphs" textLength="106" x="417.5" y="431.2686">put(Object,Object)</text><polygon fill="#A80036" points="518.5,462.125,528.5,466.125,518.5,470.125,522.5,466.125" style="stroke: #A80036; stroke-width: 1.0;"/><line style="stroke: #A80036; stroke-width: 1.0; stroke-dasharray: 2.0,2.0;" x1="400.5" x2="524.5" y1="466.125" y2="466.125"/><text fill="#000000" font-family="sans-serif" font-size="13" lengthAdjust="spacingAndGlyphs" textLength="45" x="407.5" y="461.6201">boolean</text><line style="stroke: #A80036; stroke-width: 1.0; stroke-dasharray: 2.0,2.0;" x1="68.5" x2="110.5" y1="496.8281" y2="496.8281"/><line style="stroke: #A80036; stroke-width: 1.0; stroke-dasharray: 2.0,2.0;" x1="110.5" x2="110.5" y1="496.8281" y2="509.8281"/><line style="stroke: #A80036; stroke-width: 1.0; stroke-dasharray: 2.0,2.0;" x1="69.5" x2="110.5" y1="509.8281" y2="509.8281"/><polygon fill="#A80036" points="79.5,505.8281,69.5,509.8281,79.5,513.8281,75.5,509.8281" style="stroke: #A80036; stroke-width: 1.0;"/><text fill="#000000" font-family="sans-serif" font-size="13" lengthAdjust="spacingAndGlyphs" textLength="162" x="75.5" y="491.9717">ListMultimap&lt;String,String&gt;</text><line style="stroke: #A80036; stroke-width: 1.0;" x1="68.5" x2="110.5" y1="540.1797" y2="540.1797"/><line style="stroke: #A80036; stroke-width: 1.0;" x1="110.5" x2="110.5" y1="540.1797" y2="553.1797"/><line style="stroke: #A80036; stroke-width: 1.0;" x1="69.5" x2="110.5" y1="553.1797" y2="553.1797"/><polygon fill="#A80036" points="79.5,549.1797,69.5,553.1797,79.5,557.1797,75.5,553.1797" style="stroke: #A80036; stroke-width: 1.0;"/><text fill="#000000" font-family="sans-serif" font-size="13" lengthAdjust="spacingAndGlyphs" textLength="251" x="75.5" y="535.3232">loadConfigFile(ListMultimap&lt;String,String&gt;)</text><polygon fill="#A80036" points="411.5,579.1797,401.5,583.1797,411.5,587.1797,407.5,583.1797" style="stroke: #A80036; stroke-width: 1.0;"/><line style="stroke: #A80036; stroke-width: 1.0;" x1="405.5" x2="529.5" y1="583.1797" y2="583.1797"/><text fill="#000000" font-family="sans-serif" font-size="13" lengthAdjust="spacingAndGlyphs" textLength="64" x="417.5" y="578.6748">get(Object)</text><polygon fill="#A80036" points="518.5,609.5313,528.5,613.5313,518.5,617.5313,522.5,613.5313" style="stroke: #A80036; stroke-width: 1.0;"/><line style="stroke: #A80036; stroke-width: 1.0; stroke-dasharray: 2.0,2.0;" x1="400.5" x2="524.5" y1="613.5313" y2="613.5313"/><text fill="#000000" font-family="sans-serif" font-size="13" lengthAdjust="spacingAndGlyphs" textLength="21" x="407.5" y="609.0264">List</text><line style="stroke: #A80036; stroke-width: 1.0; stroke-dasharray: 2.0,2.0;" x1="68.5" x2="110.5" y1="644.2344" y2="644.2344"/><line style="stroke: #A80036; stroke-width: 1.0; stroke-dasharray: 2.0,2.0;" x1="110.5" x2="110.5" y1="644.2344" y2="657.2344"/><line style="stroke: #A80036; stroke-width: 1.0; stroke-dasharray: 2.0,2.0;" x1="69.5" x2="110.5" y1="657.2344" y2="657.2344"/><polygon fill="#A80036" points="79.5,653.2344,69.5,657.2344,79.5,661.2344,75.5,657.2344" style="stroke: #A80036; stroke-width: 1.0;"/><text fill="#000000" font-family="sans-serif" font-size="13" lengthAdjust="spacingAndGlyphs" textLength="70" x="75.5" y="639.3779">InputStream</text><line style="stroke: #A80036; stroke-width: 1.0;" x1="68.5" x2="110.5" y1="687.5859" y2="687.5859"/><line style="stroke: #A80036; stroke-width: 1.0;" x1="110.5" x2="110.5" y1="687.5859" y2="700.5859"/><line style="stroke: #A80036; stroke-width: 1.0;" x1="69.5" x2="110.5" y1="700.5859" y2="700.5859"/><polygon fill="#A80036" points="79.5,696.5859,69.5,700.5859,79.5,704.5859,75.5,700.5859" style="stroke: #A80036; stroke-width: 1.0;"/><text fill="#000000" font-family="sans-serif" font-size="13" lengthAdjust="spacingAndGlyphs" textLength="200" x="75.5" y="682.7295">setSystemProperties(InputStream)</text><line style="stroke: #A80036; stroke-width: 1.0;" x1="68.5" x2="110.5" y1="730.9375" y2="730.9375"/><line style="stroke: #A80036; stroke-width: 1.0;" x1="110.5" x2="110.5" y1="730.9375" y2="743.9375"/><line style="stroke: #A80036; stroke-width: 1.0;" x1="69.5" x2="110.5" y1="743.9375" y2="743.9375"/><polygon fill="#A80036" points="79.5,739.9375,69.5,743.9375,79.5,747.9375,75.5,743.9375" style="stroke: #A80036; stroke-width: 1.0;"/><text fill="#000000" font-family="sans-serif" font-size="13" lengthAdjust="spacingAndGlyphs" textLength="318" x="75.5" y="726.0811">overrideSystemProperties(ListMultimap&lt;String,String&gt;)</text><polygon fill="#A80036" points="411.5,769.9375,401.5,773.9375,411.5,777.9375,407.5,773.9375" style="stroke: #A80036; stroke-width: 1.0;"/><line style="stroke: #A80036; stroke-width: 1.0;" x1="405.5" x2="529.5" y1="773.9375" y2="773.9375"/><text fill="#000000" font-family="sans-serif" font-size="13" lengthAdjust="spacingAndGlyphs" textLength="36" x="417.5" y="769.4326">keys()</text><polygon fill="#A80036" points="518.5,800.2891,528.5,804.2891,518.5,808.2891,522.5,804.2891" style="stroke: #A80036; stroke-width: 1.0;"/><line style="stroke: #A80036; stroke-width: 1.0; stroke-dasharray: 2.0,2.0;" x1="400.5" x2="524.5" y1="804.2891" y2="804.2891"/><text fill="#000000" font-family="sans-serif" font-size="13" lengthAdjust="spacingAndGlyphs" textLength="46" x="407.5" y="799.7842">Multiset</text><line style="stroke: #A80036; stroke-width: 1.0;" x1="645" x2="687" y1="834.9922" y2="834.9922"/><line style="stroke: #A80036; stroke-width: 1.0;" x1="687" x2="687" y1="834.9922" y2="847.9922"/><line style="stroke: #A80036; stroke-width: 1.0;" x1="646" x2="687" y1="847.9922" y2="847.9922"/><polygon fill="#A80036" points="656,843.9922,646,847.9922,656,851.9922,652,847.9922" style="stroke: #A80036; stroke-width: 1.0;"/><text fill="#000000" font-family="sans-serif" font-size="13" lengthAdjust="spacingAndGlyphs" textLength="121" x="652" y="830.1357">accept(ListMultimap)</text><line style="stroke: #A80036; stroke-width: 1.0; stroke-dasharray: 2.0,2.0;" x1="645" x2="687" y1="878.3438" y2="878.3438"/><line style="stroke: #A80036; stroke-width: 1.0; stroke-dasharray: 2.0,2.0;" x1="687" x2="687" y1="878.3438" y2="891.3438"/><line style="stroke: #A80036; stroke-width: 1.0; stroke-dasharray: 2.0,2.0;" x1="646" x2="687" y1="891.3438" y2="891.3438"/><polygon fill="#A80036" points="656,887.3438,646,891.3438,656,895.3438,652,891.3438" style="stroke: #A80036; stroke-width: 1.0;"/><text fill="#000000" font-family="sans-serif" font-size="13" lengthAdjust="spacingAndGlyphs" textLength="59" x="652" y="873.4873">Consumer</text><line style="stroke: #A80036; stroke-width: 1.0;" x1="780" x2="822" y1="921.6953" y2="921.6953"/><line style="stroke: #A80036; stroke-width: 1.0;" x1="822" x2="822" y1="921.6953" y2="934.6953"/><line style="stroke: #A80036; stroke-width: 1.0;" x1="781" x2="822" y1="934.6953" y2="934.6953"/><polygon fill="#A80036" points="791,930.6953,781,934.6953,791,938.6953,787,934.6953" style="stroke: #A80036; stroke-width: 1.0;"/><text fill="#000000" font-family="sans-serif" font-size="13" lengthAdjust="spacingAndGlyphs" textLength="123" x="787" y="916.8389">new PipelineModule()</text><line style="stroke: #A80036; stroke-width: 1.0;" x1="917" x2="959" y1="965.0469" y2="965.0469"/><line style="stroke: #A80036; stroke-width: 1.0;" x1="959" x2="959" y1="965.0469" y2="978.0469"/><line style="stroke: #A80036; stroke-width: 1.0;" x1="918" x2="959" y1="978.0469" y2="978.0469"/><polygon fill="#A80036" points="928,974.0469,918,978.0469,928,982.0469,924,978.0469" style="stroke: #A80036; stroke-width: 1.0;"/><text fill="#000000" font-family="sans-serif" font-size="13" lengthAdjust="spacingAndGlyphs" textLength="134" x="924" y="960.1904">new ReflectionModule()</text><line style="stroke: #A80036; stroke-width: 1.0;" x1="1065" x2="1107" y1="1008.3984" y2="1008.3984"/><line style="stroke: #A80036; stroke-width: 1.0;" x1="1107" x2="1107" y1="1008.3984" y2="1021.3984"/><line style="stroke: #A80036; stroke-width: 1.0;" x1="1066" x2="1107" y1="1021.3984" y2="1021.3984"/><polygon fill="#A80036" points="1076,1017.3984,1066,1021.3984,1076,1025.3984,1072,1021.3984" style="stroke: #A80036; stroke-width: 1.0;"/><text fill="#000000" font-family="sans-serif" font-size="13" lengthAdjust="spacingAndGlyphs" textLength="136" x="1072" y="1003.542">createInjector(Module[])</text><line style="stroke: #A80036; stroke-width: 1.0; stroke-dasharray: 2.0,2.0;" x1="1065" x2="1107" y1="1051.75" y2="1051.75"/><line style="stroke: #A80036; stroke-width: 1.0; stroke-dasharray: 2.0,2.0;" x1="1107" x2="1107" y1="1051.75" y2="1064.75"/><line style="stroke: #A80036; stroke-width: 1.0; stroke-dasharray: 2.0,2.0;" x1="1066" x2="1107" y1="1064.75" y2="1064.75"/><polygon fill="#A80036" points="1076,1060.75,1066,1064.75,1076,1068.75,1072,1064.75" style="stroke: #A80036; stroke-width: 1.0;"/><text fill="#000000" font-family="sans-serif" font-size="13" lengthAdjust="spacingAndGlyphs" textLength="42" x="1072" y="1046.8936">Injector</text><line style="stroke: #A80036; stroke-width: 1.0;" x1="1215" x2="1257" y1="1095.1016" y2="1095.1016"/><line style="stroke: #A80036; stroke-width: 1.0;" x1="1257" x2="1257" y1="1095.1016" y2="1108.1016"/><line style="stroke: #A80036; stroke-width: 1.0;" x1="1216" x2="1257" y1="1108.1016" y2="1108.1016"/><polygon fill="#A80036" points="1226,1104.1016,1216,1108.1016,1226,1112.1016,1222,1108.1016" style="stroke: #A80036; stroke-width: 1.0;"/><text fill="#000000" font-family="sans-serif" font-size="13" lengthAdjust="spacingAndGlyphs" textLength="100" x="1222" y="1090.2451">executePipeline()</text><line style="stroke: #A80036; stroke-width: 1.0; stroke-dasharray: 2.0,2.0;" x1="1215" x2="1257" y1="1138.4531" y2="1138.4531"/><line style="stroke: #A80036; stroke-width: 1.0; stroke-dasharray: 2.0,2.0;" x1="1257" x2="1257" y1="1138.4531" y2="1151.4531"/><line style="stroke: #A80036; stroke-width: 1.0; stroke-dasharray: 2.0,2.0;" x1="1216" x2="1257" y1="1151.4531" y2="1151.4531"/><polygon fill="#A80036" points="1226,1147.4531,1216,1151.4531,1226,1155.4531,1222,1151.4531" style="stroke: #A80036; stroke-width: 1.0;"/><text fill="#000000" font-family="sans-serif" font-size="13" lengthAdjust="spacingAndGlyphs" textLength="91" x="1222" y="1133.5967">AnalyzerBundle</text></g></svg>