<?xml version="1.0" encoding="UTF-8" standalone="no"?><svg xmlns="http://www.w3.org/2000/svg" xmlns:xlink="http://www.w3.org/1999/xlink" contentScriptType="application/ecmascript" contentStyleType="text/css" height="2260px" preserveAspectRatio="none" style="width:2854px;height:2260px;" version="1.1" viewBox="0 0 2854 2260" width="2854px" zoomAndPan="magnify"><defs><filter height="300%" id="f1w6ab6pki4y0" width="300%" x="-1" y="-1"><feGaussianBlur result="blurOut" stdDeviation="2.0"/><feColorMatrix in="blurOut" result="blurOut2" type="matrix" values="0 0 0 0 0 0 0 0 0 0 0 0 0 0 0 0 0 0 .4 0"/><feOffset dx="4.0" dy="4.0" in="blurOut2" result="blurOut3"/><feBlend in="SourceGraphic" in2="blurOut3" mode="normal"/></filter></defs><g><line style="stroke: #A80036; stroke-width: 1.0; stroke-dasharray: 5.0,5.0;" x1="50" x2="50" y1="39.6094" y2="2218.7031"/><line style="stroke: #A80036; stroke-width: 1.0; stroke-dasharray: 5.0,5.0;" x1="173" x2="173" y1="39.6094" y2="2218.7031"/><line style="stroke: #A80036; stroke-width: 1.0; stroke-dasharray: 5.0,5.0;" x1="289" x2="289" y1="39.6094" y2="2218.7031"/><line style="stroke: #A80036; stroke-width: 1.0; stroke-dasharray: 5.0,5.0;" x1="621.5" x2="621.5" y1="39.6094" y2="2218.7031"/><line style="stroke: #A80036; stroke-width: 1.0; stroke-dasharray: 5.0,5.0;" x1="751.5" x2="751.5" y1="39.6094" y2="2218.7031"/><line style="stroke: #A80036; stroke-width: 1.0; stroke-dasharray: 5.0,5.0;" x1="829.5" x2="829.5" y1="39.6094" y2="2218.7031"/><line style="stroke: #A80036; stroke-width: 1.0; stroke-dasharray: 5.0,5.0;" x1="920" x2="920" y1="39.6094" y2="2218.7031"/><line style="stroke: #A80036; stroke-width: 1.0; stroke-dasharray: 5.0,5.0;" x1="1046" x2="1046" y1="39.6094" y2="2218.7031"/><line style="stroke: #A80036; stroke-width: 1.0; stroke-dasharray: 5.0,5.0;" x1="1181.5" x2="1181.5" y1="39.6094" y2="2218.7031"/><line style="stroke: #A80036; stroke-width: 1.0; stroke-dasharray: 5.0,5.0;" x1="1318" x2="1318" y1="39.6094" y2="2218.7031"/><line style="stroke: #A80036; stroke-width: 1.0; stroke-dasharray: 5.0,5.0;" x1="1466" x2="1466" y1="39.6094" y2="2218.7031"/><line style="stroke: #A80036; stroke-width: 1.0; stroke-dasharray: 5.0,5.0;" x1="1616.5" x2="1616.5" y1="39.6094" y2="2218.7031"/><line style="stroke: #A80036; stroke-width: 1.0; stroke-dasharray: 5.0,5.0;" x1="1730.5" x2="1730.5" y1="39.6094" y2="2218.7031"/><line style="stroke: #A80036; stroke-width: 1.0; stroke-dasharray: 5.0,5.0;" x1="1899" x2="1899" y1="39.6094" y2="2218.7031"/><line style="stroke: #A80036; stroke-width: 1.0; stroke-dasharray: 5.0,5.0;" x1="1989" x2="1989" y1="39.6094" y2="2218.7031"/><line style="stroke: #A80036; stroke-width: 1.0; stroke-dasharray: 5.0,5.0;" x1="2111.5" x2="2111.5" y1="39.6094" y2="2218.7031"/><line style="stroke: #A80036; stroke-width: 1.0; stroke-dasharray: 5.0,5.0;" x1="2192.5" x2="2192.5" y1="39.6094" y2="2218.7031"/><line style="stroke: #A80036; stroke-width: 1.0; stroke-dasharray: 5.0,5.0;" x1="2277.5" x2="2277.5" y1="39.6094" y2="2218.7031"/><line style="stroke: #A80036; stroke-width: 1.0; stroke-dasharray: 5.0,5.0;" x1="2358.5" x2="2358.5" y1="39.6094" y2="2218.7031"/><line style="stroke: #A80036; stroke-width: 1.0; stroke-dasharray: 5.0,5.0;" x1="2432.5" x2="2432.5" y1="39.6094" y2="2218.7031"/><line style="stroke: #A80036; stroke-width: 1.0; stroke-dasharray: 5.0,5.0;" x1="2610" x2="2610" y1="39.6094" y2="2218.7031"/><line style="stroke: #A80036; stroke-width: 1.0; stroke-dasharray: 5.0,5.0;" x1="2699" x2="2699" y1="39.6094" y2="2218.7031"/><rect fill="#FEFECE" filter="url(#f1w6ab6pki4y0)" height="31.6094" style="stroke: #A80036; stroke-width: 1.5;" width="81" x="8" y="3"/><text fill="#000000" font-family="sans-serif" font-size="14" lengthAdjust="spacingAndGlyphs" textLength="67" x="15" y="24.5332">ICalculator</text><rect fill="#FEFECE" filter="url(#f1w6ab6pki4y0)" height="31.6094" style="stroke: #A80036; stroke-width: 1.5;" width="81" x="8" y="2217.7031"/><text fill="#000000" font-family="sans-serif" font-size="14" lengthAdjust="spacingAndGlyphs" textLength="67" x="15" y="2239.2363">ICalculator</text><rect fill="#FEFECE" filter="url(#f1w6ab6pki4y0)" height="31.6094" style="stroke: #A80036; stroke-width: 1.5;" width="87" x="128" y="3"/><text fill="#000000" font-family="sans-serif" font-size="14" lengthAdjust="spacingAndGlyphs" textLength="73" x="135" y="24.5332">CalculatorB</text><rect fill="#FEFECE" filter="url(#f1w6ab6pki4y0)" height="31.6094" style="stroke: #A80036; stroke-width: 1.5;" width="87" x="128" y="2217.7031"/><text fill="#000000" font-family="sans-serif" font-size="14" lengthAdjust="spacingAndGlyphs" textLength="73" x="135" y="2239.2363">CalculatorB</text><rect fill="#FEFECE" filter="url(#f1w6ab6pki4y0)" height="31.6094" style="stroke: #A80036; stroke-width: 1.5;" width="117" x="229" y="3"/><text fill="#000000" font-family="sans-serif" font-size="14" lengthAdjust="spacingAndGlyphs" textLength="103" x="236" y="24.5332">PropertiesSetter</text><rect fill="#FEFECE" filter="url(#f1w6ab6pki4y0)" height="31.6094" style="stroke: #A80036; stroke-width: 1.5;" width="117" x="229" y="2217.7031"/><text fill="#000000" font-family="sans-serif" font-size="14" lengthAdjust="spacingAndGlyphs" textLength="103" x="236" y="2239.2363">PropertiesSetter</text><rect fill="#FEFECE" filter="url(#f1w6ab6pki4y0)" height="31.6094" style="stroke: #A80036; stroke-width: 1.5;" width="126" x="556.5" y="3"/><text fill="#000000" font-family="sans-serif" font-size="14" lengthAdjust="spacingAndGlyphs" textLength="112" x="563.5" y="24.5332">ArrayListMultimap</text><rect fill="#FEFECE" filter="url(#f1w6ab6pki4y0)" height="31.6094" style="stroke: #A80036; stroke-width: 1.5;" width="126" x="556.5" y="2217.7031"/><text fill="#000000" font-family="sans-serif" font-size="14" lengthAdjust="spacingAndGlyphs" textLength="112" x="563.5" y="2239.2363">ArrayListMultimap</text><rect fill="#FEFECE" filter="url(#f1w6ab6pki4y0)" height="31.6094" style="stroke: #A80036; stroke-width: 1.5;" width="92" x="703.5" y="3"/><text fill="#000000" font-family="sans-serif" font-size="14" lengthAdjust="spacingAndGlyphs" textLength="78" x="710.5" y="24.5332">ListMultimap</text><rect fill="#FEFECE" filter="url(#f1w6ab6pki4y0)" height="31.6094" style="stroke: #A80036; stroke-width: 1.5;" width="92" x="703.5" y="2217.7031"/><text fill="#000000" font-family="sans-serif" font-size="14" lengthAdjust="spacingAndGlyphs" textLength="78" x="710.5" y="2239.2363">ListMultimap</text><rect fill="#FEFECE" filter="url(#f1w6ab6pki4y0)" height="31.6094" style="stroke: #A80036; stroke-width: 1.5;" width="36" x="809.5" y="3"/><text fill="#000000" font-family="sans-serif" font-size="14" lengthAdjust="spacingAndGlyphs" textLength="22" x="816.5" y="24.5332">List</text><rect fill="#FEFECE" filter="url(#f1w6ab6pki4y0)" height="31.6094" style="stroke: #A80036; stroke-width: 1.5;" width="36" x="809.5" y="2217.7031"/><text fill="#000000" font-family="sans-serif" font-size="14" lengthAdjust="spacingAndGlyphs" textLength="22" x="816.5" y="2239.2363">List</text><rect fill="#FEFECE" filter="url(#f1w6ab6pki4y0)" height="31.6094" style="stroke: #A80036; stroke-width: 1.5;" width="115" x="861" y="3"/><text fill="#000000" font-family="sans-serif" font-size="14" lengthAdjust="spacingAndGlyphs" textLength="101" x="868" y="24.5332">IdentityArrayList</text><rect fill="#FEFECE" filter="url(#f1w6ab6pki4y0)" height="31.6094" style="stroke: #A80036; stroke-width: 1.5;" width="115" x="861" y="2217.7031"/><text fill="#000000" font-family="sans-serif" font-size="14" lengthAdjust="spacingAndGlyphs" textLength="101" x="868" y="2239.2363">IdentityArrayList</text><rect fill="#FEFECE" filter="url(#f1w6ab6pki4y0)" height="31.6094" style="stroke: #A80036; stroke-width: 1.5;" width="109" x="990" y="3"/><text fill="#000000" font-family="sans-serif" font-size="14" lengthAdjust="spacingAndGlyphs" textLength="95" x="997" y="24.5332">InvokeDynamic</text><rect fill="#FEFECE" filter="url(#f1w6ab6pki4y0)" height="31.6094" style="stroke: #A80036; stroke-width: 1.5;" width="109" x="990" y="2217.7031"/><text fill="#000000" font-family="sans-serif" font-size="14" lengthAdjust="spacingAndGlyphs" textLength="95" x="997" y="2239.2363">InvokeDynamic</text><rect fill="#FEFECE" filter="url(#f1w6ab6pki4y0)" height="31.6094" style="stroke: #A80036; stroke-width: 1.5;" width="110" x="1124.5" y="3"/><text fill="#000000" font-family="sans-serif" font-size="14" lengthAdjust="spacingAndGlyphs" textLength="96" x="1131.5" y="24.5332">PipelineModule</text><rect fill="#FEFECE" filter="url(#f1w6ab6pki4y0)" height="31.6094" style="stroke: #A80036; stroke-width: 1.5;" width="110" x="1124.5" y="2217.7031"/><text fill="#000000" font-family="sans-serif" font-size="14" lengthAdjust="spacingAndGlyphs" textLength="96" x="1131.5" y="2239.2363">PipelineModule</text><rect fill="#FEFECE" filter="url(#f1w6ab6pki4y0)" height="31.6094" style="stroke: #A80036; stroke-width: 1.5;" width="123" x="1255" y="3"/><text fill="#000000" font-family="sans-serif" font-size="14" lengthAdjust="spacingAndGlyphs" textLength="109" x="1262" y="24.5332">ReflectionModule</text><rect fill="#FEFECE" filter="url(#f1w6ab6pki4y0)" height="31.6094" style="stroke: #A80036; stroke-width: 1.5;" width="123" x="1255" y="2217.7031"/><text fill="#000000" font-family="sans-serif" font-size="14" lengthAdjust="spacingAndGlyphs" textLength="109" x="1262" y="2239.2363">ReflectionModule</text><rect fill="#FEFECE" filter="url(#f1w6ab6pki4y0)" height="31.6094" style="stroke: #A80036; stroke-width: 1.5;" width="51" x="1439" y="3"/><text fill="#000000" font-family="sans-serif" font-size="14" lengthAdjust="spacingAndGlyphs" textLength="37" x="1446" y="24.5332">Guice</text><rect fill="#FEFECE" filter="url(#f1w6ab6pki4y0)" height="31.6094" style="stroke: #A80036; stroke-width: 1.5;" width="51" x="1439" y="2217.7031"/><text fill="#000000" font-family="sans-serif" font-size="14" lengthAdjust="spacingAndGlyphs" textLength="37" x="1446" y="2239.2363">Guice</text><rect fill="#FEFECE" filter="url(#f1w6ab6pki4y0)" height="31.6094" style="stroke: #A80036; stroke-width: 1.5;" width="78" x="1575.5" y="3"/><text fill="#000000" font-family="sans-serif" font-size="14" lengthAdjust="spacingAndGlyphs" textLength="64" x="1582.5" y="24.5332">Processor</text><rect fill="#FEFECE" filter="url(#f1w6ab6pki4y0)" height="31.6094" style="stroke: #A80036; stroke-width: 1.5;" width="78" x="1575.5" y="2217.7031"/><text fill="#000000" font-family="sans-serif" font-size="14" lengthAdjust="spacingAndGlyphs" textLength="64" x="1582.5" y="2239.2363">Processor</text><rect fill="#FEFECE" filter="url(#f1w6ab6pki4y0)" height="31.6094" style="stroke: #A80036; stroke-width: 1.5;" width="68" x="1694.5" y="3"/><text fill="#000000" font-family="sans-serif" font-size="14" lengthAdjust="spacingAndGlyphs" textLength="54" x="1701.5" y="24.5332">Analyzer</text><rect fill="#FEFECE" filter="url(#f1w6ab6pki4y0)" height="31.6094" style="stroke: #A80036; stroke-width: 1.5;" width="68" x="1694.5" y="2217.7031"/><text fill="#000000" font-family="sans-serif" font-size="14" lengthAdjust="spacingAndGlyphs" textLength="54" x="1701.5" y="2239.2363">Analyzer</text><rect fill="#FEFECE" filter="url(#f1w6ab6pki4y0)" height="31.6094" style="stroke: #A80036; stroke-width: 1.5;" width="97" x="1849" y="3"/><text fill="#000000" font-family="sans-serif" font-size="14" lengthAdjust="spacingAndGlyphs" textLength="83" x="1856" y="24.5332">SootAnalyzer</text><rect fill="#FEFECE" filter="url(#f1w6ab6pki4y0)" height="31.6094" style="stroke: #A80036; stroke-width: 1.5;" width="97" x="1849" y="2217.7031"/><text fill="#000000" font-family="sans-serif" font-size="14" lengthAdjust="spacingAndGlyphs" textLength="83" x="1856" y="2239.2363">SootAnalyzer</text><rect fill="#FEFECE" filter="url(#f1w6ab6pki4y0)" height="31.6094" style="stroke: #A80036; stroke-width: 1.5;" width="54" x="1960" y="3"/><text fill="#000000" font-family="sans-serif" font-size="14" lengthAdjust="spacingAndGlyphs" textLength="40" x="1967" y="24.5332">Scene</text><rect fill="#FEFECE" filter="url(#f1w6ab6pki4y0)" height="31.6094" style="stroke: #A80036; stroke-width: 1.5;" width="54" x="1960" y="2217.7031"/><text fill="#000000" font-family="sans-serif" font-size="14" lengthAdjust="spacingAndGlyphs" textLength="40" x="1967" y="2239.2363">Scene</text><rect fill="#FEFECE" filter="url(#f1w6ab6pki4y0)" height="31.6094" style="stroke: #A80036; stroke-width: 1.5;" width="51" x="2084.5" y="3"/><text fill="#000000" font-family="sans-serif" font-size="14" lengthAdjust="spacingAndGlyphs" textLength="37" x="2091.5" y="24.5332">Chain</text><rect fill="#FEFECE" filter="url(#f1w6ab6pki4y0)" height="31.6094" style="stroke: #A80036; stroke-width: 1.5;" width="51" x="2084.5" y="2217.7031"/><text fill="#000000" font-family="sans-serif" font-size="14" lengthAdjust="spacingAndGlyphs" textLength="37" x="2091.5" y="2239.2363">Chain</text><rect fill="#FEFECE" filter="url(#f1w6ab6pki4y0)" height="31.6094" style="stroke: #A80036; stroke-width: 1.5;" width="83" x="2149.5" y="3"/><text fill="#000000" font-family="sans-serif" font-size="14" lengthAdjust="spacingAndGlyphs" textLength="69" x="2156.5" y="24.5332">HashChain</text><rect fill="#FEFECE" filter="url(#f1w6ab6pki4y0)" height="31.6094" style="stroke: #A80036; stroke-width: 1.5;" width="83" x="2149.5" y="2217.7031"/><text fill="#000000" font-family="sans-serif" font-size="14" lengthAdjust="spacingAndGlyphs" textLength="69" x="2156.5" y="2239.2363">HashChain</text><rect fill="#FEFECE" filter="url(#f1w6ab6pki4y0)" height="31.6094" style="stroke: #A80036; stroke-width: 1.5;" width="59" x="2246.5" y="3"/><text fill="#000000" font-family="sans-serif" font-size="14" lengthAdjust="spacingAndGlyphs" textLength="45" x="2253.5" y="24.5332">Iterator</text><rect fill="#FEFECE" filter="url(#f1w6ab6pki4y0)" height="31.6094" style="stroke: #A80036; stroke-width: 1.5;" width="59" x="2246.5" y="2217.7031"/><text fill="#000000" font-family="sans-serif" font-size="14" lengthAdjust="spacingAndGlyphs" textLength="45" x="2253.5" y="2239.2363">Iterator</text><rect fill="#FEFECE" filter="url(#f1w6ab6pki4y0)" height="31.6094" style="stroke: #A80036; stroke-width: 1.5;" width="74" x="2319.5" y="3"/><text fill="#000000" font-family="sans-serif" font-size="14" lengthAdjust="spacingAndGlyphs" textLength="60" x="2326.5" y="24.5332">TypeDecl</text><rect fill="#FEFECE" filter="url(#f1w6ab6pki4y0)" height="31.6094" style="stroke: #A80036; stroke-width: 1.5;" width="74" x="2319.5" y="2217.7031"/><text fill="#000000" font-family="sans-serif" font-size="14" lengthAdjust="spacingAndGlyphs" textLength="60" x="2326.5" y="2239.2363">TypeDecl</text><rect fill="#FEFECE" filter="url(#f1w6ab6pki4y0)" height="31.6094" style="stroke: #A80036; stroke-width: 1.5;" width="46" x="2407.5" y="3"/><text fill="#000000" font-family="sans-serif" font-size="14" lengthAdjust="spacingAndGlyphs" textLength="32" x="2414.5" y="24.5332">Filter</text><rect fill="#FEFECE" filter="url(#f1w6ab6pki4y0)" height="31.6094" style="stroke: #A80036; stroke-width: 1.5;" width="46" x="2407.5" y="2217.7031"/><text fill="#000000" font-family="sans-serif" font-size="14" lengthAdjust="spacingAndGlyphs" textLength="32" x="2414.5" y="2239.2363">Filter</text><rect fill="#FEFECE" filter="url(#f1w6ab6pki4y0)" height="31.6094" style="stroke: #A80036; stroke-width: 1.5;" width="71" x="2573" y="3"/><text fill="#000000" font-family="sans-serif" font-size="14" lengthAdjust="spacingAndGlyphs" textLength="57" x="2580" y="24.5332">JDKFilter</text><rect fill="#FEFECE" filter="url(#f1w6ab6pki4y0)" height="31.6094" style="stroke: #A80036; stroke-width: 1.5;" width="71" x="2573" y="2217.7031"/><text fill="#000000" font-family="sans-serif" font-size="14" lengthAdjust="spacingAndGlyphs" textLength="57" x="2580" y="2239.2363">JDKFilter</text><rect fill="#FEFECE" filter="url(#f1w6ab6pki4y0)" height="31.6094" style="stroke: #A80036; stroke-width: 1.5;" width="78" x="2658" y="3"/><text fill="#000000" font-family="sans-serif" font-size="14" lengthAdjust="spacingAndGlyphs" textLength="64" x="2665" y="24.5332">SootClass</text><rect fill="#FEFECE" filter="url(#f1w6ab6pki4y0)" height="31.6094" style="stroke: #A80036; stroke-width: 1.5;" width="78" x="2658" y="2217.7031"/><text fill="#000000" font-family="sans-serif" font-size="14" lengthAdjust="spacingAndGlyphs" textLength="64" x="2665" y="2239.2363">SootClass</text><polygon fill="#A80036" points="161.5,67.6094,171.5,71.6094,161.5,75.6094,165.5,71.6094" style="stroke: #A80036; stroke-width: 1.0;"/><line style="stroke: #A80036; stroke-width: 1.0;" x1="50.5" x2="167.5" y1="71.6094" y2="71.6094"/><text fill="#000000" font-family="sans-serif" font-size="13" lengthAdjust="spacingAndGlyphs" textLength="99" x="57.5" y="67.1045">multiply(double[])</text><polygon fill="#A80036" points="61.5,97.9609,51.5,101.9609,61.5,105.9609,57.5,101.9609" style="stroke: #A80036; stroke-width: 1.0;"/><line style="stroke: #A80036; stroke-width: 1.0; stroke-dasharray: 2.0,2.0;" x1="55.5" x2="172.5" y1="101.9609" y2="101.9609"/><text fill="#000000" font-family="sans-serif" font-size="13" lengthAdjust="spacingAndGlyphs" textLength="38" x="67.5" y="97.4561">double</text><line style="stroke: #A80036; stroke-width: 1.0;" x1="289.5" x2="331.5" y1="132.6641" y2="132.6641"/><line style="stroke: #A80036; stroke-width: 1.0;" x1="331.5" x2="331.5" y1="132.6641" y2="145.6641"/><line style="stroke: #A80036; stroke-width: 1.0;" x1="290.5" x2="331.5" y1="145.6641" y2="145.6641"/><polygon fill="#A80036" points="300.5,141.6641,290.5,145.6641,300.5,149.6641,296.5,145.6641" style="stroke: #A80036; stroke-width: 1.0;"/><text fill="#000000" font-family="sans-serif" font-size="13" lengthAdjust="spacingAndGlyphs" textLength="68" x="296.5" y="127.8076">set(String[])</text><line style="stroke: #A80036; stroke-width: 1.0;" x1="289.5" x2="331.5" y1="176.0156" y2="176.0156"/><line style="stroke: #A80036; stroke-width: 1.0;" x1="331.5" x2="331.5" y1="176.0156" y2="189.0156"/><line style="stroke: #A80036; stroke-width: 1.0;" x1="290.5" x2="331.5" y1="189.0156" y2="189.0156"/><polygon fill="#A80036" points="300.5,185.0156,290.5,189.0156,300.5,193.0156,296.5,189.0156" style="stroke: #A80036; stroke-width: 1.0;"/><text fill="#000000" font-family="sans-serif" font-size="13" lengthAdjust="spacingAndGlyphs" textLength="104" x="296.5" y="171.1592">setConfig(String[])</text><line style="stroke: #A80036; stroke-width: 1.0;" x1="289.5" x2="331.5" y1="219.3672" y2="219.3672"/><line style="stroke: #A80036; stroke-width: 1.0;" x1="331.5" x2="331.5" y1="219.3672" y2="232.3672"/><line style="stroke: #A80036; stroke-width: 1.0;" x1="290.5" x2="331.5" y1="232.3672" y2="232.3672"/><polygon fill="#A80036" points="300.5,228.3672,290.5,232.3672,300.5,236.3672,296.5,232.3672" style="stroke: #A80036; stroke-width: 1.0;"/><text fill="#000000" font-family="sans-serif" font-size="13" lengthAdjust="spacingAndGlyphs" textLength="141" x="296.5" y="214.5107">preprocessArgs(String[])</text><line style="stroke: #A80036; stroke-width: 1.0; stroke-dasharray: 2.0,2.0;" x1="289.5" x2="331.5" y1="262.7188" y2="262.7188"/><line style="stroke: #A80036; stroke-width: 1.0; stroke-dasharray: 2.0,2.0;" x1="331.5" x2="331.5" y1="262.7188" y2="275.7188"/><line style="stroke: #A80036; stroke-width: 1.0; stroke-dasharray: 2.0,2.0;" x1="290.5" x2="331.5" y1="275.7188" y2="275.7188"/><polygon fill="#A80036" points="300.5,271.7188,290.5,275.7188,300.5,279.7188,296.5,275.7188" style="stroke: #A80036; stroke-width: 1.0;"/><text fill="#000000" font-family="sans-serif" font-size="13" lengthAdjust="spacingAndGlyphs" textLength="42" x="296.5" y="257.8623">String[]</text><line style="stroke: #A80036; stroke-width: 1.0;" x1="289.5" x2="331.5" y1="306.0703" y2="306.0703"/><line style="stroke: #A80036; stroke-width: 1.0;" x1="331.5" x2="331.5" y1="306.0703" y2="319.0703"/><line style="stroke: #A80036; stroke-width: 1.0;" x1="290.5" x2="331.5" y1="319.0703" y2="319.0703"/><polygon fill="#A80036" points="300.5,315.0703,290.5,319.0703,300.5,323.0703,296.5,319.0703" style="stroke: #A80036; stroke-width: 1.0;"/><text fill="#000000" font-family="sans-serif" font-size="13" lengthAdjust="spacingAndGlyphs" textLength="82" x="296.5" y="301.2139">parse(String[])</text><line style="stroke: #A80036; stroke-width: 1.0;" x1="621.5" x2="663.5" y1="349.4219" y2="349.4219"/><line style="stroke: #A80036; stroke-width: 1.0;" x1="663.5" x2="663.5" y1="349.4219" y2="362.4219"/><line style="stroke: #A80036; stroke-width: 1.0;" x1="622.5" x2="663.5" y1="362.4219" y2="362.4219"/><polygon fill="#A80036" points="632.5,358.4219,622.5,362.4219,632.5,366.4219,628.5,362.4219" style="stroke: #A80036; stroke-width: 1.0;"/><text fill="#000000" font-family="sans-serif" font-size="13" lengthAdjust="spacingAndGlyphs" textLength="44" x="628.5" y="344.5654">create()</text><line style="stroke: #A80036; stroke-width: 1.0; stroke-dasharray: 2.0,2.0;" x1="621.5" x2="663.5" y1="392.7734" y2="392.7734"/><line style="stroke: #A80036; stroke-width: 1.0; stroke-dasharray: 2.0,2.0;" x1="663.5" x2="663.5" y1="392.7734" y2="405.7734"/><line style="stroke: #A80036; stroke-width: 1.0; stroke-dasharray: 2.0,2.0;" x1="622.5" x2="663.5" y1="405.7734" y2="405.7734"/><polygon fill="#A80036" points="632.5,401.7734,622.5,405.7734,632.5,409.7734,628.5,405.7734" style="stroke: #A80036; stroke-width: 1.0;"/><text fill="#000000" font-family="sans-serif" font-size="13" lengthAdjust="spacingAndGlyphs" textLength="105" x="628.5" y="387.917">ArrayListMultimap</text><polygon fill="#A80036" points="632.5,431.7734,622.5,435.7734,632.5,439.7734,628.5,435.7734" style="stroke: #A80036; stroke-width: 1.0;"/><line style="stroke: #A80036; stroke-width: 1.0;" x1="626.5" x2="750.5" y1="435.7734" y2="435.7734"/><text fill="#000000" font-family="sans-serif" font-size="13" lengthAdjust="spacingAndGlyphs" textLength="106" x="638.5" y="431.2686">put(Object,Object)</text><polygon fill="#A80036" points="739.5,462.125,749.5,466.125,739.5,470.125,743.5,466.125" style="stroke: #A80036; stroke-width: 1.0;"/><line style="stroke: #A80036; stroke-width: 1.0; stroke-dasharray: 2.0,2.0;" x1="621.5" x2="745.5" y1="466.125" y2="466.125"/><text fill="#000000" font-family="sans-serif" font-size="13" lengthAdjust="spacingAndGlyphs" textLength="45" x="628.5" y="461.6201">boolean</text><polygon fill="#A80036" points="632.5,492.4766,622.5,496.4766,632.5,500.4766,628.5,496.4766" style="stroke: #A80036; stroke-width: 1.0;"/><line style="stroke: #A80036; stroke-width: 1.0;" x1="626.5" x2="750.5" y1="496.4766" y2="496.4766"/><text fill="#000000" font-family="sans-serif" font-size="13" lengthAdjust="spacingAndGlyphs" textLength="106" x="638.5" y="491.9717">put(Object,Object)</text><polygon fill="#A80036" points="739.5,522.8281,749.5,526.8281,739.5,530.8281,743.5,526.8281" style="stroke: #A80036; stroke-width: 1.0;"/><line style="stroke: #A80036; stroke-width: 1.0; stroke-dasharray: 2.0,2.0;" x1="621.5" x2="745.5" y1="526.8281" y2="526.8281"/><text fill="#000000" font-family="sans-serif" font-size="13" lengthAdjust="spacingAndGlyphs" textLength="45" x="628.5" y="522.3232">boolean</text><line style="stroke: #A80036; stroke-width: 1.0; stroke-dasharray: 2.0,2.0;" x1="289.5" x2="331.5" y1="557.5313" y2="557.5313"/><line style="stroke: #A80036; stroke-width: 1.0; stroke-dasharray: 2.0,2.0;" x1="331.5" x2="331.5" y1="557.5313" y2="570.5313"/><line style="stroke: #A80036; stroke-width: 1.0; stroke-dasharray: 2.0,2.0;" x1="290.5" x2="331.5" y1="570.5313" y2="570.5313"/><polygon fill="#A80036" points="300.5,566.5313,290.5,570.5313,300.5,574.5313,296.5,570.5313" style="stroke: #A80036; stroke-width: 1.0;"/><text fill="#000000" font-family="sans-serif" font-size="13" lengthAdjust="spacingAndGlyphs" textLength="162" x="296.5" y="552.6748">ListMultimap&lt;String,String&gt;</text><line style="stroke: #A80036; stroke-width: 1.0;" x1="289.5" x2="331.5" y1="600.8828" y2="600.8828"/><line style="stroke: #A80036; stroke-width: 1.0;" x1="331.5" x2="331.5" y1="600.8828" y2="613.8828"/><line style="stroke: #A80036; stroke-width: 1.0;" x1="290.5" x2="331.5" y1="613.8828" y2="613.8828"/><polygon fill="#A80036" points="300.5,609.8828,290.5,613.8828,300.5,617.8828,296.5,613.8828" style="stroke: #A80036; stroke-width: 1.0;"/><text fill="#000000" font-family="sans-serif" font-size="13" lengthAdjust="spacingAndGlyphs" textLength="251" x="296.5" y="596.0264">loadConfigFile(ListMultimap&lt;String,String&gt;)</text><polygon fill="#A80036" points="632.5,639.8828,622.5,643.8828,632.5,647.8828,628.5,643.8828" style="stroke: #A80036; stroke-width: 1.0;"/><line style="stroke: #A80036; stroke-width: 1.0;" x1="626.5" x2="750.5" y1="643.8828" y2="643.8828"/><text fill="#000000" font-family="sans-serif" font-size="13" lengthAdjust="spacingAndGlyphs" textLength="64" x="638.5" y="639.3779">get(Object)</text><polygon fill="#A80036" points="739.5,670.2344,749.5,674.2344,739.5,678.2344,743.5,674.2344" style="stroke: #A80036; stroke-width: 1.0;"/><line style="stroke: #A80036; stroke-width: 1.0; stroke-dasharray: 2.0,2.0;" x1="621.5" x2="745.5" y1="674.2344" y2="674.2344"/><text fill="#000000" font-family="sans-serif" font-size="13" lengthAdjust="spacingAndGlyphs" textLength="21" x="628.5" y="669.7295">List</text><polygon fill="#A80036" points="908.5,700.5859,918.5,704.5859,908.5,708.5859,912.5,704.5859" style="stroke: #A80036; stroke-width: 1.0;"/><line style="stroke: #A80036; stroke-width: 1.0;" x1="829.5" x2="914.5" y1="704.5859" y2="704.5859"/><text fill="#000000" font-family="sans-serif" font-size="13" lengthAdjust="spacingAndGlyphs" textLength="32" x="836.5" y="700.0811">size()</text><polygon fill="#A80036" points="840.5,730.9375,830.5,734.9375,840.5,738.9375,836.5,734.9375" style="stroke: #A80036; stroke-width: 1.0;"/><line style="stroke: #A80036; stroke-width: 1.0; stroke-dasharray: 2.0,2.0;" x1="834.5" x2="919.5" y1="734.9375" y2="734.9375"/><text fill="#000000" font-family="sans-serif" font-size="13" lengthAdjust="spacingAndGlyphs" textLength="14" x="846.5" y="730.4326">int</text><polygon fill="#A80036" points="908.5,761.2891,918.5,765.2891,908.5,769.2891,912.5,765.2891" style="stroke: #A80036; stroke-width: 1.0;"/><line style="stroke: #A80036; stroke-width: 1.0;" x1="829.5" x2="914.5" y1="765.2891" y2="765.2891"/><text fill="#000000" font-family="sans-serif" font-size="13" lengthAdjust="spacingAndGlyphs" textLength="40" x="836.5" y="760.7842">get(int)</text><polygon fill="#A80036" points="840.5,791.6406,830.5,795.6406,840.5,799.6406,836.5,795.6406" style="stroke: #A80036; stroke-width: 1.0;"/><line style="stroke: #A80036; stroke-width: 1.0; stroke-dasharray: 2.0,2.0;" x1="834.5" x2="919.5" y1="795.6406" y2="795.6406"/><text fill="#000000" font-family="sans-serif" font-size="13" lengthAdjust="spacingAndGlyphs" textLength="38" x="846.5" y="791.1357">Object</text><line style="stroke: #A80036; stroke-width: 1.0; stroke-dasharray: 2.0,2.0;" x1="289.5" x2="331.5" y1="826.3438" y2="826.3438"/><line style="stroke: #A80036; stroke-width: 1.0; stroke-dasharray: 2.0,2.0;" x1="331.5" x2="331.5" y1="826.3438" y2="839.3438"/><line style="stroke: #A80036; stroke-width: 1.0; stroke-dasharray: 2.0,2.0;" x1="290.5" x2="331.5" y1="839.3438" y2="839.3438"/><polygon fill="#A80036" points="300.5,835.3438,290.5,839.3438,300.5,843.3438,296.5,839.3438" style="stroke: #A80036; stroke-width: 1.0;"/><text fill="#000000" font-family="sans-serif" font-size="13" lengthAdjust="spacingAndGlyphs" textLength="70" x="296.5" y="821.4873">InputStream</text><line style="stroke: #A80036; stroke-width: 1.0;" x1="289.5" x2="331.5" y1="869.6953" y2="869.6953"/><line style="stroke: #A80036; stroke-width: 1.0;" x1="331.5" x2="331.5" y1="869.6953" y2="882.6953"/><line style="stroke: #A80036; stroke-width: 1.0;" x1="290.5" x2="331.5" y1="882.6953" y2="882.6953"/><polygon fill="#A80036" points="300.5,878.6953,290.5,882.6953,300.5,886.6953,296.5,882.6953" style="stroke: #A80036; stroke-width: 1.0;"/><text fill="#000000" font-family="sans-serif" font-size="13" lengthAdjust="spacingAndGlyphs" textLength="200" x="296.5" y="864.8389">setSystemProperties(InputStream)</text><line style="stroke: #A80036; stroke-width: 1.0;" x1="289.5" x2="331.5" y1="913.0469" y2="913.0469"/><line style="stroke: #A80036; stroke-width: 1.0;" x1="331.5" x2="331.5" y1="913.0469" y2="926.0469"/><line style="stroke: #A80036; stroke-width: 1.0;" x1="290.5" x2="331.5" y1="926.0469" y2="926.0469"/><polygon fill="#A80036" points="300.5,922.0469,290.5,926.0469,300.5,930.0469,296.5,926.0469" style="stroke: #A80036; stroke-width: 1.0;"/><text fill="#000000" font-family="sans-serif" font-size="13" lengthAdjust="spacingAndGlyphs" textLength="318" x="296.5" y="908.1904">overrideSystemProperties(ListMultimap&lt;String,String&gt;)</text><polygon fill="#A80036" points="632.5,952.0469,622.5,956.0469,632.5,960.0469,628.5,956.0469" style="stroke: #A80036; stroke-width: 1.0;"/><line style="stroke: #A80036; stroke-width: 1.0;" x1="626.5" x2="750.5" y1="956.0469" y2="956.0469"/><text fill="#000000" font-family="sans-serif" font-size="13" lengthAdjust="spacingAndGlyphs" textLength="36" x="638.5" y="951.542">keys()</text><polygon fill="#A80036" points="739.5,982.3984,749.5,986.3984,739.5,990.3984,743.5,986.3984" style="stroke: #A80036; stroke-width: 1.0;"/><line style="stroke: #A80036; stroke-width: 1.0; stroke-dasharray: 2.0,2.0;" x1="621.5" x2="745.5" y1="986.3984" y2="986.3984"/><text fill="#000000" font-family="sans-serif" font-size="13" lengthAdjust="spacingAndGlyphs" textLength="46" x="628.5" y="981.8936">Multiset</text><line style="stroke: #A80036; stroke-width: 1.0;" x1="1046.5" x2="1088.5" y1="1017.1016" y2="1017.1016"/><line style="stroke: #A80036; stroke-width: 1.0;" x1="1088.5" x2="1088.5" y1="1017.1016" y2="1030.1016"/><line style="stroke: #A80036; stroke-width: 1.0;" x1="1047.5" x2="1088.5" y1="1030.1016" y2="1030.1016"/><polygon fill="#A80036" points="1057.5,1026.1016,1047.5,1030.1016,1057.5,1034.1016,1053.5,1030.1016" style="stroke: #A80036; stroke-width: 1.0;"/><text fill="#000000" font-family="sans-serif" font-size="13" lengthAdjust="spacingAndGlyphs" textLength="121" x="1053.5" y="1012.2451">accept(ListMultimap)</text><line style="stroke: #A80036; stroke-width: 1.0; stroke-dasharray: 2.0,2.0;" x1="1046.5" x2="1088.5" y1="1060.4531" y2="1060.4531"/><line style="stroke: #A80036; stroke-width: 1.0; stroke-dasharray: 2.0,2.0;" x1="1088.5" x2="1088.5" y1="1060.4531" y2="1073.4531"/><line style="stroke: #A80036; stroke-width: 1.0; stroke-dasharray: 2.0,2.0;" x1="1047.5" x2="1088.5" y1="1073.4531" y2="1073.4531"/><polygon fill="#A80036" points="1057.5,1069.4531,1047.5,1073.4531,1057.5,1077.4531,1053.5,1073.4531" style="stroke: #A80036; stroke-width: 1.0;"/><text fill="#000000" font-family="sans-serif" font-size="13" lengthAdjust="spacingAndGlyphs" textLength="59" x="1053.5" y="1055.5967">Consumer</text><line style="stroke: #A80036; stroke-width: 1.0;" x1="1181.5" x2="1223.5" y1="1103.8047" y2="1103.8047"/><line style="stroke: #A80036; stroke-width: 1.0;" x1="1223.5" x2="1223.5" y1="1103.8047" y2="1116.8047"/><line style="stroke: #A80036; stroke-width: 1.0;" x1="1182.5" x2="1223.5" y1="1116.8047" y2="1116.8047"/><polygon fill="#A80036" points="1192.5,1112.8047,1182.5,1116.8047,1192.5,1120.8047,1188.5,1116.8047" style="stroke: #A80036; stroke-width: 1.0;"/><text fill="#000000" font-family="sans-serif" font-size="13" lengthAdjust="spacingAndGlyphs" textLength="123" x="1188.5" y="1098.9482">new PipelineModule()</text><line style="stroke: #A80036; stroke-width: 1.0;" x1="1318.5" x2="1360.5" y1="1147.1563" y2="1147.1563"/><line style="stroke: #A80036; stroke-width: 1.0;" x1="1360.5" x2="1360.5" y1="1147.1563" y2="1160.1563"/><line style="stroke: #A80036; stroke-width: 1.0;" x1="1319.5" x2="1360.5" y1="1160.1563" y2="1160.1563"/><polygon fill="#A80036" points="1329.5,1156.1563,1319.5,1160.1563,1329.5,1164.1563,1325.5,1160.1563" style="stroke: #A80036; stroke-width: 1.0;"/><text fill="#000000" font-family="sans-serif" font-size="13" lengthAdjust="spacingAndGlyphs" textLength="134" x="1325.5" y="1142.2998">new ReflectionModule()</text><line style="stroke: #A80036; stroke-width: 1.0;" x1="1466.5" x2="1508.5" y1="1190.5078" y2="1190.5078"/><line style="stroke: #A80036; stroke-width: 1.0;" x1="1508.5" x2="1508.5" y1="1190.5078" y2="1203.5078"/><line style="stroke: #A80036; stroke-width: 1.0;" x1="1467.5" x2="1508.5" y1="1203.5078" y2="1203.5078"/><polygon fill="#A80036" points="1477.5,1199.5078,1467.5,1203.5078,1477.5,1207.5078,1473.5,1203.5078" style="stroke: #A80036; stroke-width: 1.0;"/><text fill="#000000" font-family="sans-serif" font-size="13" lengthAdjust="spacingAndGlyphs" textLength="136" x="1473.5" y="1185.6514">createInjector(Module[])</text><line style="stroke: #A80036; stroke-width: 1.0; stroke-dasharray: 2.0,2.0;" x1="1466.5" x2="1508.5" y1="1233.8594" y2="1233.8594"/><line style="stroke: #A80036; stroke-width: 1.0; stroke-dasharray: 2.0,2.0;" x1="1508.5" x2="1508.5" y1="1233.8594" y2="1246.8594"/><line style="stroke: #A80036; stroke-width: 1.0; stroke-dasharray: 2.0,2.0;" x1="1467.5" x2="1508.5" y1="1246.8594" y2="1246.8594"/><polygon fill="#A80036" points="1477.5,1242.8594,1467.5,1246.8594,1477.5,1250.8594,1473.5,1246.8594" style="stroke: #A80036; stroke-width: 1.0;"/><text fill="#000000" font-family="sans-serif" font-size="13" lengthAdjust="spacingAndGlyphs" textLength="42" x="1473.5" y="1229.0029">Injector</text><line style="stroke: #A80036; stroke-width: 1.0;" x1="1616.5" x2="1658.5" y1="1277.2109" y2="1277.2109"/><line style="stroke: #A80036; stroke-width: 1.0;" x1="1658.5" x2="1658.5" y1="1277.2109" y2="1290.2109"/><line style="stroke: #A80036; stroke-width: 1.0;" x1="1617.5" x2="1658.5" y1="1290.2109" y2="1290.2109"/><polygon fill="#A80036" points="1627.5,1286.2109,1617.5,1290.2109,1627.5,1294.2109,1623.5,1290.2109" style="stroke: #A80036; stroke-width: 1.0;"/><text fill="#000000" font-family="sans-serif" font-size="13" lengthAdjust="spacingAndGlyphs" textLength="100" x="1623.5" y="1272.3545">executePipeline()</text><polygon fill="#A80036" points="908.5,1316.2109,918.5,1320.2109,908.5,1324.2109,912.5,1320.2109" style="stroke: #A80036; stroke-width: 1.0;"/><line style="stroke: #A80036; stroke-width: 1.0;" x1="829.5" x2="914.5" y1="1320.2109" y2="1320.2109"/><text fill="#000000" font-family="sans-serif" font-size="13" lengthAdjust="spacingAndGlyphs" textLength="32" x="836.5" y="1315.7061">size()</text><polygon fill="#A80036" points="840.5,1346.5625,830.5,1350.5625,840.5,1354.5625,836.5,1350.5625" style="stroke: #A80036; stroke-width: 1.0;"/><line style="stroke: #A80036; stroke-width: 1.0; stroke-dasharray: 2.0,2.0;" x1="834.5" x2="919.5" y1="1350.5625" y2="1350.5625"/><text fill="#000000" font-family="sans-serif" font-size="13" lengthAdjust="spacingAndGlyphs" textLength="14" x="846.5" y="1346.0576">int</text><polygon fill="#A80036" points="908.5,1376.9141,918.5,1380.9141,908.5,1384.9141,912.5,1380.9141" style="stroke: #A80036; stroke-width: 1.0;"/><line style="stroke: #A80036; stroke-width: 1.0;" x1="829.5" x2="914.5" y1="1380.9141" y2="1380.9141"/><text fill="#000000" font-family="sans-serif" font-size="13" lengthAdjust="spacingAndGlyphs" textLength="40" x="836.5" y="1376.4092">get(int)</text><polygon fill="#A80036" points="840.5,1407.2656,830.5,1411.2656,840.5,1415.2656,836.5,1411.2656" style="stroke: #A80036; stroke-width: 1.0;"/><line style="stroke: #A80036; stroke-width: 1.0; stroke-dasharray: 2.0,2.0;" x1="834.5" x2="919.5" y1="1411.2656" y2="1411.2656"/><text fill="#000000" font-family="sans-serif" font-size="13" lengthAdjust="spacingAndGlyphs" textLength="38" x="846.5" y="1406.7607">Object</text><polygon fill="#A80036" points="1887.5,1437.6172,1897.5,1441.6172,1887.5,1445.6172,1891.5,1441.6172" style="stroke: #A80036; stroke-width: 1.0;"/><line style="stroke: #A80036; stroke-width: 1.0;" x1="1730.5" x2="1893.5" y1="1441.6172" y2="1441.6172"/><text fill="#000000" font-family="sans-serif" font-size="13" lengthAdjust="spacingAndGlyphs" textLength="145" x="1737.5" y="1437.1123">execute(AnalyzerBundle)</text><line style="stroke: #A80036; stroke-width: 1.0;" x1="1989" x2="2031" y1="1472.3203" y2="1472.3203"/><line style="stroke: #A80036; stroke-width: 1.0;" x1="2031" x2="2031" y1="1472.3203" y2="1485.3203"/><line style="stroke: #A80036; stroke-width: 1.0;" x1="1990" x2="2031" y1="1485.3203" y2="1485.3203"/><polygon fill="#A80036" points="2000,1481.3203,1990,1485.3203,2000,1489.3203,1996,1485.3203" style="stroke: #A80036; stroke-width: 1.0;"/><text fill="#000000" font-family="sans-serif" font-size="13" lengthAdjust="spacingAndGlyphs" textLength="69" x="1996" y="1467.4639">getClasses)</text><line style="stroke: #A80036; stroke-width: 1.0; stroke-dasharray: 2.0,2.0;" x1="1989" x2="2031" y1="1515.6719" y2="1515.6719"/><line style="stroke: #A80036; stroke-width: 1.0; stroke-dasharray: 2.0,2.0;" x1="2031" x2="2031" y1="1515.6719" y2="1528.6719"/><line style="stroke: #A80036; stroke-width: 1.0; stroke-dasharray: 2.0,2.0;" x1="1990" x2="2031" y1="1528.6719" y2="1528.6719"/><polygon fill="#A80036" points="2000,1524.6719,1990,1528.6719,2000,1532.6719,1996,1528.6719" style="stroke: #A80036; stroke-width: 1.0;"/><text fill="#000000" font-family="sans-serif" font-size="13" lengthAdjust="spacingAndGlyphs" textLength="109" x="1996" y="1510.8154">Chain&lt;SootClass&gt;</text><polygon fill="#A80036" points="2181,1554.6719,2191,1558.6719,2181,1562.6719,2185,1558.6719" style="stroke: #A80036; stroke-width: 1.0;"/><line style="stroke: #A80036; stroke-width: 1.0;" x1="2112" x2="2187" y1="1558.6719" y2="1558.6719"/><text fill="#000000" font-family="sans-serif" font-size="13" lengthAdjust="spacingAndGlyphs" textLength="48" x="2119" y="1554.167">iterator()</text><polygon fill="#A80036" points="2123,1585.0234,2113,1589.0234,2123,1593.0234,2119,1589.0234" style="stroke: #A80036; stroke-width: 1.0;"/><line style="stroke: #A80036; stroke-width: 1.0; stroke-dasharray: 2.0,2.0;" x1="2117" x2="2192" y1="1589.0234" y2="1589.0234"/><text fill="#000000" font-family="sans-serif" font-size="13" lengthAdjust="spacingAndGlyphs" textLength="40" x="2129" y="1584.5186">Iterator</text><polygon fill="#A80036" points="2346.5,1615.375,2356.5,1619.375,2346.5,1623.375,2350.5,1619.375" style="stroke: #A80036; stroke-width: 1.0;"/><line style="stroke: #A80036; stroke-width: 1.0;" x1="2278" x2="2352.5" y1="1619.375" y2="1619.375"/><text fill="#000000" font-family="sans-serif" font-size="13" lengthAdjust="spacingAndGlyphs" textLength="56" x="2285" y="1614.8701">hasNext()</text><polygon fill="#A80036" points="2289,1645.7266,2279,1649.7266,2289,1653.7266,2285,1649.7266" style="stroke: #A80036; stroke-width: 1.0;"/><line style="stroke: #A80036; stroke-width: 1.0; stroke-dasharray: 2.0,2.0;" x1="2283" x2="2357.5" y1="1649.7266" y2="1649.7266"/><text fill="#000000" font-family="sans-serif" font-size="13" lengthAdjust="spacingAndGlyphs" textLength="45" x="2295" y="1645.2217">boolean</text><polygon fill="#A80036" points="2346.5,1676.0781,2356.5,1680.0781,2346.5,1684.0781,2350.5,1680.0781" style="stroke: #A80036; stroke-width: 1.0;"/><line style="stroke: #A80036; stroke-width: 1.0;" x1="2278" x2="2352.5" y1="1680.0781" y2="1680.0781"/><text fill="#000000" font-family="sans-serif" font-size="13" lengthAdjust="spacingAndGlyphs" textLength="33" x="2285" y="1675.5732">next()</text><polygon fill="#A80036" points="2289,1706.4297,2279,1710.4297,2289,1714.4297,2285,1710.4297" style="stroke: #A80036; stroke-width: 1.0;"/><line style="stroke: #A80036; stroke-width: 1.0; stroke-dasharray: 2.0,2.0;" x1="2283" x2="2357.5" y1="1710.4297" y2="1710.4297"/><text fill="#000000" font-family="sans-serif" font-size="13" lengthAdjust="spacingAndGlyphs" textLength="38" x="2295" y="1705.9248">Object</text><line style="stroke: #A80036; stroke-width: 1.0;" x1="1730.5" x2="1772.5" y1="1741.1328" y2="1741.1328"/><line style="stroke: #A80036; stroke-width: 1.0;" x1="1772.5" x2="1772.5" y1="1741.1328" y2="1754.1328"/><line style="stroke: #A80036; stroke-width: 1.0;" x1="1731.5" x2="1772.5" y1="1754.1328" y2="1754.1328"/><polygon fill="#A80036" points="1741.5,1750.1328,1731.5,1754.1328,1741.5,1758.1328,1737.5,1754.1328" style="stroke: #A80036; stroke-width: 1.0;"/><text fill="#000000" font-family="sans-serif" font-size="13" lengthAdjust="spacingAndGlyphs" textLength="146" x="1737.5" y="1736.2764">passesFilters(SootClass)</text><polygon fill="#A80036" points="2346.5,1780.1328,2356.5,1784.1328,2346.5,1788.1328,2350.5,1784.1328" style="stroke: #A80036; stroke-width: 1.0;"/><line style="stroke: #A80036; stroke-width: 1.0;" x1="2278" x2="2352.5" y1="1784.1328" y2="1784.1328"/><text fill="#000000" font-family="sans-serif" font-size="13" lengthAdjust="spacingAndGlyphs" textLength="56" x="2285" y="1779.6279">hasNext()</text><polygon fill="#A80036" points="2289,1810.4844,2279,1814.4844,2289,1818.4844,2285,1814.4844" style="stroke: #A80036; stroke-width: 1.0;"/><line style="stroke: #A80036; stroke-width: 1.0; stroke-dasharray: 2.0,2.0;" x1="2283" x2="2357.5" y1="1814.4844" y2="1814.4844"/><text fill="#000000" font-family="sans-serif" font-size="13" lengthAdjust="spacingAndGlyphs" textLength="45" x="2295" y="1809.9795">boolean</text><polygon fill="#A80036" points="2346.5,1840.8359,2356.5,1844.8359,2346.5,1848.8359,2350.5,1844.8359" style="stroke: #A80036; stroke-width: 1.0;"/><line style="stroke: #A80036; stroke-width: 1.0;" x1="2278" x2="2352.5" y1="1844.8359" y2="1844.8359"/><text fill="#000000" font-family="sans-serif" font-size="13" lengthAdjust="spacingAndGlyphs" textLength="33" x="2285" y="1840.3311">next()</text><polygon fill="#A80036" points="2289,1871.1875,2279,1875.1875,2289,1879.1875,2285,1875.1875" style="stroke: #A80036; stroke-width: 1.0;"/><line style="stroke: #A80036; stroke-width: 1.0; stroke-dasharray: 2.0,2.0;" x1="2283" x2="2357.5" y1="1875.1875" y2="1875.1875"/><text fill="#000000" font-family="sans-serif" font-size="13" lengthAdjust="spacingAndGlyphs" textLength="38" x="2295" y="1870.6826">Object</text><polygon fill="#A80036" points="2598.5,1901.5391,2608.5,1905.5391,2598.5,1909.5391,2602.5,1905.5391" style="stroke: #A80036; stroke-width: 1.0;"/><line style="stroke: #A80036; stroke-width: 1.0;" x1="2432.5" x2="2604.5" y1="1905.5391" y2="1905.5391"/><text fill="#000000" font-family="sans-serif" font-size="13" lengthAdjust="spacingAndGlyphs" textLength="154" x="2439.5" y="1901.0342">shouldProcess(SootClass)</text><line style="stroke: #A80036; stroke-width: 1.0;" x1="2699" x2="2741" y1="1936.2422" y2="1936.2422"/><line style="stroke: #A80036; stroke-width: 1.0;" x1="2741" x2="2741" y1="1936.2422" y2="1949.2422"/><line style="stroke: #A80036; stroke-width: 1.0;" x1="2700" x2="2741" y1="1949.2422" y2="1949.2422"/><polygon fill="#A80036" points="2710,1945.2422,2700,1949.2422,2710,1953.2422,2706,1949.2422" style="stroke: #A80036; stroke-width: 1.0;"/><text fill="#000000" font-family="sans-serif" font-size="13" lengthAdjust="spacingAndGlyphs" textLength="136" x="2706" y="1931.3857">getJavaPackageName()</text><line style="stroke: #A80036; stroke-width: 1.0; stroke-dasharray: 2.0,2.0;" x1="2699" x2="2741" y1="1979.5938" y2="1979.5938"/><line style="stroke: #A80036; stroke-width: 1.0; stroke-dasharray: 2.0,2.0;" x1="2741" x2="2741" y1="1979.5938" y2="1992.5938"/><line style="stroke: #A80036; stroke-width: 1.0; stroke-dasharray: 2.0,2.0;" x1="2700" x2="2741" y1="1992.5938" y2="1992.5938"/><polygon fill="#A80036" points="2710,1988.5938,2700,1992.5938,2710,1996.5938,2706,1992.5938" style="stroke: #A80036; stroke-width: 1.0;"/><text fill="#000000" font-family="sans-serif" font-size="13" lengthAdjust="spacingAndGlyphs" textLength="34" x="2706" y="1974.7373">String</text><polygon fill="#A80036" points="2443.5,2018.5938,2433.5,2022.5938,2443.5,2026.5938,2439.5,2022.5938" style="stroke: #A80036; stroke-width: 1.0;"/><line style="stroke: #A80036; stroke-width: 1.0; stroke-dasharray: 2.0,2.0;" x1="2437.5" x2="2609.5" y1="2022.5938" y2="2022.5938"/><text fill="#000000" font-family="sans-serif" font-size="13" lengthAdjust="spacingAndGlyphs" textLength="45" x="2449.5" y="2018.0889">boolean</text><line style="stroke: #A80036; stroke-width: 1.0; stroke-dasharray: 2.0,2.0;" x1="1730.5" x2="1772.5" y1="2053.2969" y2="2053.2969"/><line style="stroke: #A80036; stroke-width: 1.0; stroke-dasharray: 2.0,2.0;" x1="1772.5" x2="1772.5" y1="2053.2969" y2="2066.2969"/><line style="stroke: #A80036; stroke-width: 1.0; stroke-dasharray: 2.0,2.0;" x1="1731.5" x2="1772.5" y1="2066.2969" y2="2066.2969"/><polygon fill="#A80036" points="1741.5,2062.2969,1731.5,2066.2969,1741.5,2070.2969,1737.5,2066.2969" style="stroke: #A80036; stroke-width: 1.0;"/><text fill="#000000" font-family="sans-serif" font-size="13" lengthAdjust="spacingAndGlyphs" textLength="45" x="1737.5" y="2048.4404">boolean</text><polygon fill="#A80036" points="908.5,2092.2969,918.5,2096.2969,908.5,2100.2969,912.5,2096.2969" style="stroke: #A80036; stroke-width: 1.0;"/><line style="stroke: #A80036; stroke-width: 1.0;" x1="829.5" x2="914.5" y1="2096.2969" y2="2096.2969"/><text fill="#000000" font-family="sans-serif" font-size="13" lengthAdjust="spacingAndGlyphs" textLength="67" x="836.5" y="2091.792">add(Object)</text><polygon fill="#A80036" points="840.5,2122.6484,830.5,2126.6484,840.5,2130.6484,836.5,2126.6484" style="stroke: #A80036; stroke-width: 1.0;"/><line style="stroke: #A80036; stroke-width: 1.0; stroke-dasharray: 2.0,2.0;" x1="834.5" x2="919.5" y1="2126.6484" y2="2126.6484"/><text fill="#000000" font-family="sans-serif" font-size="13" lengthAdjust="spacingAndGlyphs" textLength="45" x="846.5" y="2122.1436">boolean</text><polygon fill="#A80036" points="1741.5,2153,1731.5,2157,1741.5,2161,1737.5,2157" style="stroke: #A80036; stroke-width: 1.0;"/><line style="stroke: #A80036; stroke-width: 1.0; stroke-dasharray: 2.0,2.0;" x1="1735.5" x2="1898.5" y1="2157" y2="2157"/><text fill="#000000" font-family="sans-serif" font-size="13" lengthAdjust="spacingAndGlyphs" textLength="91" x="1747.5" y="2152.4951">AnalyzerBundle</text><line style="stroke: #A80036; stroke-width: 1.0; stroke-dasharray: 2.0,2.0;" x1="1616.5" x2="1658.5" y1="2187.7031" y2="2187.7031"/><line style="stroke: #A80036; stroke-width: 1.0; stroke-dasharray: 2.0,2.0;" x1="1658.5" x2="1658.5" y1="2187.7031" y2="2200.7031"/><line style="stroke: #A80036; stroke-width: 1.0; stroke-dasharray: 2.0,2.0;" x1="1617.5" x2="1658.5" y1="2200.7031" y2="2200.7031"/><polygon fill="#A80036" points="1627.5,2196.7031,1617.5,2200.7031,1627.5,2204.7031,1623.5,2200.7031" style="stroke: #A80036; stroke-width: 1.0;"/><text fill="#000000" font-family="sans-serif" font-size="13" lengthAdjust="spacingAndGlyphs" textLength="91" x="1623.5" y="2182.8467">AnalyzerBundle</text></g></svg>