<?xml version="1.0" encoding="UTF-8" standalone="no"?><svg xmlns="http://www.w3.org/2000/svg" xmlns:xlink="http://www.w3.org/1999/xlink" contentScriptType="application/ecmascript" contentStyleType="text/css" height="1757px" preserveAspectRatio="none" style="width:2484px;height:1757px;" version="1.1" viewBox="0 0 2484 1757" width="2484px" zoomAndPan="magnify"><defs><filter height="300%" id="f70hjbqdtq0xg" width="300%" x="-1" y="-1"><feGaussianBlur result="blurOut" stdDeviation="2.0"/><feColorMatrix in="blurOut" result="blurOut2" type="matrix" values="0 0 0 0 0 0 0 0 0 0 0 0 0 0 0 0 0 0 .4 0"/><feOffset dx="4.0" dy="4.0" in="blurOut2" result="blurOut3"/><feBlend in="SourceGraphic" in2="blurOut3" mode="normal"/></filter></defs><g><line style="stroke: #A80036; stroke-width: 1.0; stroke-dasharray: 5.0,5.0;" x1="50" x2="50" y1="39.6094" y2="1715.7266"/><line style="stroke: #A80036; stroke-width: 1.0; stroke-dasharray: 5.0,5.0;" x1="173" x2="173" y1="39.6094" y2="1715.7266"/><line style="stroke: #A80036; stroke-width: 1.0; stroke-dasharray: 5.0,5.0;" x1="289" x2="289" y1="39.6094" y2="1715.7266"/><line style="stroke: #A80036; stroke-width: 1.0; stroke-dasharray: 5.0,5.0;" x1="621.5" x2="621.5" y1="39.6094" y2="1715.7266"/><line style="stroke: #A80036; stroke-width: 1.0; stroke-dasharray: 5.0,5.0;" x1="751.5" x2="751.5" y1="39.6094" y2="1715.7266"/><line style="stroke: #A80036; stroke-width: 1.0; stroke-dasharray: 5.0,5.0;" x1="865.5" x2="865.5" y1="39.6094" y2="1715.7266"/><line style="stroke: #A80036; stroke-width: 1.0; stroke-dasharray: 5.0,5.0;" x1="1001" x2="1001" y1="39.6094" y2="1715.7266"/><line style="stroke: #A80036; stroke-width: 1.0; stroke-dasharray: 5.0,5.0;" x1="1137.5" x2="1137.5" y1="39.6094" y2="1715.7266"/><line style="stroke: #A80036; stroke-width: 1.0; stroke-dasharray: 5.0,5.0;" x1="1285.5" x2="1285.5" y1="39.6094" y2="1715.7266"/><line style="stroke: #A80036; stroke-width: 1.0; stroke-dasharray: 5.0,5.0;" x1="1436" x2="1436" y1="39.6094" y2="1715.7266"/><line style="stroke: #A80036; stroke-width: 1.0; stroke-dasharray: 5.0,5.0;" x1="1550" x2="1550" y1="39.6094" y2="1715.7266"/><line style="stroke: #A80036; stroke-width: 1.0; stroke-dasharray: 5.0,5.0;" x1="1718.5" x2="1718.5" y1="39.6094" y2="1715.7266"/><line style="stroke: #A80036; stroke-width: 1.0; stroke-dasharray: 5.0,5.0;" x1="1837.5" x2="1837.5" y1="39.6094" y2="1715.7266"/><line style="stroke: #A80036; stroke-width: 1.0; stroke-dasharray: 5.0,5.0;" x1="1953.5" x2="1953.5" y1="39.6094" y2="1715.7266"/><line style="stroke: #A80036; stroke-width: 1.0; stroke-dasharray: 5.0,5.0;" x1="2076" x2="2076" y1="39.6094" y2="1715.7266"/><line style="stroke: #A80036; stroke-width: 1.0; stroke-dasharray: 5.0,5.0;" x1="2169" x2="2169" y1="39.6094" y2="1715.7266"/><line style="stroke: #A80036; stroke-width: 1.0; stroke-dasharray: 5.0,5.0;" x1="2259" x2="2259" y1="39.6094" y2="1715.7266"/><line style="stroke: #A80036; stroke-width: 1.0; stroke-dasharray: 5.0,5.0;" x1="2436.5" x2="2436.5" y1="39.6094" y2="1715.7266"/><rect fill="#FEFECE" filter="url(#f70hjbqdtq0xg)" height="31.6094" style="stroke: #A80036; stroke-width: 1.5;" width="81" x="8" y="3"/><text fill="#000000" font-family="sans-serif" font-size="14" lengthAdjust="spacingAndGlyphs" textLength="67" x="15" y="24.5332">ICalculator</text><rect fill="#FEFECE" filter="url(#f70hjbqdtq0xg)" height="31.6094" style="stroke: #A80036; stroke-width: 1.5;" width="81" x="8" y="1714.7266"/><text fill="#000000" font-family="sans-serif" font-size="14" lengthAdjust="spacingAndGlyphs" textLength="67" x="15" y="1736.2598">ICalculator</text><rect fill="#FEFECE" filter="url(#f70hjbqdtq0xg)" height="31.6094" style="stroke: #A80036; stroke-width: 1.5;" width="87" x="128" y="3"/><text fill="#000000" font-family="sans-serif" font-size="14" lengthAdjust="spacingAndGlyphs" textLength="73" x="135" y="24.5332">CalculatorA</text><rect fill="#FEFECE" filter="url(#f70hjbqdtq0xg)" height="31.6094" style="stroke: #A80036; stroke-width: 1.5;" width="87" x="128" y="1714.7266"/><text fill="#000000" font-family="sans-serif" font-size="14" lengthAdjust="spacingAndGlyphs" textLength="73" x="135" y="1736.2598">CalculatorA</text><rect fill="#FEFECE" filter="url(#f70hjbqdtq0xg)" height="31.6094" style="stroke: #A80036; stroke-width: 1.5;" width="117" x="229" y="3"/><text fill="#000000" font-family="sans-serif" font-size="14" lengthAdjust="spacingAndGlyphs" textLength="103" x="236" y="24.5332">PropertiesSetter</text><rect fill="#FEFECE" filter="url(#f70hjbqdtq0xg)" height="31.6094" style="stroke: #A80036; stroke-width: 1.5;" width="117" x="229" y="1714.7266"/><text fill="#000000" font-family="sans-serif" font-size="14" lengthAdjust="spacingAndGlyphs" textLength="103" x="236" y="1736.2598">PropertiesSetter</text><rect fill="#FEFECE" filter="url(#f70hjbqdtq0xg)" height="31.6094" style="stroke: #A80036; stroke-width: 1.5;" width="126" x="556.5" y="3"/><text fill="#000000" font-family="sans-serif" font-size="14" lengthAdjust="spacingAndGlyphs" textLength="112" x="563.5" y="24.5332">ArrayListMultimap</text><rect fill="#FEFECE" filter="url(#f70hjbqdtq0xg)" height="31.6094" style="stroke: #A80036; stroke-width: 1.5;" width="126" x="556.5" y="1714.7266"/><text fill="#000000" font-family="sans-serif" font-size="14" lengthAdjust="spacingAndGlyphs" textLength="112" x="563.5" y="1736.2598">ArrayListMultimap</text><rect fill="#FEFECE" filter="url(#f70hjbqdtq0xg)" height="31.6094" style="stroke: #A80036; stroke-width: 1.5;" width="92" x="703.5" y="3"/><text fill="#000000" font-family="sans-serif" font-size="14" lengthAdjust="spacingAndGlyphs" textLength="78" x="710.5" y="24.5332">ListMultimap</text><rect fill="#FEFECE" filter="url(#f70hjbqdtq0xg)" height="31.6094" style="stroke: #A80036; stroke-width: 1.5;" width="92" x="703.5" y="1714.7266"/><text fill="#000000" font-family="sans-serif" font-size="14" lengthAdjust="spacingAndGlyphs" textLength="78" x="710.5" y="1736.2598">ListMultimap</text><rect fill="#FEFECE" filter="url(#f70hjbqdtq0xg)" height="31.6094" style="stroke: #A80036; stroke-width: 1.5;" width="109" x="809.5" y="3"/><text fill="#000000" font-family="sans-serif" font-size="14" lengthAdjust="spacingAndGlyphs" textLength="95" x="816.5" y="24.5332">InvokeDynamic</text><rect fill="#FEFECE" filter="url(#f70hjbqdtq0xg)" height="31.6094" style="stroke: #A80036; stroke-width: 1.5;" width="109" x="809.5" y="1714.7266"/><text fill="#000000" font-family="sans-serif" font-size="14" lengthAdjust="spacingAndGlyphs" textLength="95" x="816.5" y="1736.2598">InvokeDynamic</text><rect fill="#FEFECE" filter="url(#f70hjbqdtq0xg)" height="31.6094" style="stroke: #A80036; stroke-width: 1.5;" width="110" x="944" y="3"/><text fill="#000000" font-family="sans-serif" font-size="14" lengthAdjust="spacingAndGlyphs" textLength="96" x="951" y="24.5332">PipelineModule</text><rect fill="#FEFECE" filter="url(#f70hjbqdtq0xg)" height="31.6094" style="stroke: #A80036; stroke-width: 1.5;" width="110" x="944" y="1714.7266"/><text fill="#000000" font-family="sans-serif" font-size="14" lengthAdjust="spacingAndGlyphs" textLength="96" x="951" y="1736.2598">PipelineModule</text><rect fill="#FEFECE" filter="url(#f70hjbqdtq0xg)" height="31.6094" style="stroke: #A80036; stroke-width: 1.5;" width="123" x="1074.5" y="3"/><text fill="#000000" font-family="sans-serif" font-size="14" lengthAdjust="spacingAndGlyphs" textLength="109" x="1081.5" y="24.5332">ReflectionModule</text><rect fill="#FEFECE" filter="url(#f70hjbqdtq0xg)" height="31.6094" style="stroke: #A80036; stroke-width: 1.5;" width="123" x="1074.5" y="1714.7266"/><text fill="#000000" font-family="sans-serif" font-size="14" lengthAdjust="spacingAndGlyphs" textLength="109" x="1081.5" y="1736.2598">ReflectionModule</text><rect fill="#FEFECE" filter="url(#f70hjbqdtq0xg)" height="31.6094" style="stroke: #A80036; stroke-width: 1.5;" width="51" x="1258.5" y="3"/><text fill="#000000" font-family="sans-serif" font-size="14" lengthAdjust="spacingAndGlyphs" textLength="37" x="1265.5" y="24.5332">Guice</text><rect fill="#FEFECE" filter="url(#f70hjbqdtq0xg)" height="31.6094" style="stroke: #A80036; stroke-width: 1.5;" width="51" x="1258.5" y="1714.7266"/><text fill="#000000" font-family="sans-serif" font-size="14" lengthAdjust="spacingAndGlyphs" textLength="37" x="1265.5" y="1736.2598">Guice</text><rect fill="#FEFECE" filter="url(#f70hjbqdtq0xg)" height="31.6094" style="stroke: #A80036; stroke-width: 1.5;" width="78" x="1395" y="3"/><text fill="#000000" font-family="sans-serif" font-size="14" lengthAdjust="spacingAndGlyphs" textLength="64" x="1402" y="24.5332">Processor</text><rect fill="#FEFECE" filter="url(#f70hjbqdtq0xg)" height="31.6094" style="stroke: #A80036; stroke-width: 1.5;" width="78" x="1395" y="1714.7266"/><text fill="#000000" font-family="sans-serif" font-size="14" lengthAdjust="spacingAndGlyphs" textLength="64" x="1402" y="1736.2598">Processor</text><rect fill="#FEFECE" filter="url(#f70hjbqdtq0xg)" height="31.6094" style="stroke: #A80036; stroke-width: 1.5;" width="68" x="1514" y="3"/><text fill="#000000" font-family="sans-serif" font-size="14" lengthAdjust="spacingAndGlyphs" textLength="54" x="1521" y="24.5332">Analyzer</text><rect fill="#FEFECE" filter="url(#f70hjbqdtq0xg)" height="31.6094" style="stroke: #A80036; stroke-width: 1.5;" width="68" x="1514" y="1714.7266"/><text fill="#000000" font-family="sans-serif" font-size="14" lengthAdjust="spacingAndGlyphs" textLength="54" x="1521" y="1736.2598">Analyzer</text><rect fill="#FEFECE" filter="url(#f70hjbqdtq0xg)" height="31.6094" style="stroke: #A80036; stroke-width: 1.5;" width="97" x="1668.5" y="3"/><text fill="#000000" font-family="sans-serif" font-size="14" lengthAdjust="spacingAndGlyphs" textLength="83" x="1675.5" y="24.5332">SootAnalyzer</text><rect fill="#FEFECE" filter="url(#f70hjbqdtq0xg)" height="31.6094" style="stroke: #A80036; stroke-width: 1.5;" width="97" x="1668.5" y="1714.7266"/><text fill="#000000" font-family="sans-serif" font-size="14" lengthAdjust="spacingAndGlyphs" textLength="83" x="1675.5" y="1736.2598">SootAnalyzer</text><rect fill="#FEFECE" filter="url(#f70hjbqdtq0xg)" height="31.6094" style="stroke: #A80036; stroke-width: 1.5;" width="112" x="1779.5" y="3"/><text fill="#000000" font-family="sans-serif" font-size="14" lengthAdjust="spacingAndGlyphs" textLength="98" x="1786.5" y="24.5332">AnalyzerBundle</text><rect fill="#FEFECE" filter="url(#f70hjbqdtq0xg)" height="31.6094" style="stroke: #A80036; stroke-width: 1.5;" width="112" x="1779.5" y="1714.7266"/><text fill="#000000" font-family="sans-serif" font-size="14" lengthAdjust="spacingAndGlyphs" textLength="98" x="1786.5" y="1736.2598">AnalyzerBundle</text><rect fill="#FEFECE" filter="url(#f70hjbqdtq0xg)" height="31.6094" style="stroke: #A80036; stroke-width: 1.5;" width="54" x="1924.5" y="3"/><text fill="#000000" font-family="sans-serif" font-size="14" lengthAdjust="spacingAndGlyphs" textLength="40" x="1931.5" y="24.5332">Scene</text><rect fill="#FEFECE" filter="url(#f70hjbqdtq0xg)" height="31.6094" style="stroke: #A80036; stroke-width: 1.5;" width="54" x="1924.5" y="1714.7266"/><text fill="#000000" font-family="sans-serif" font-size="14" lengthAdjust="spacingAndGlyphs" textLength="40" x="1931.5" y="1736.2598">Scene</text><rect fill="#FEFECE" filter="url(#f70hjbqdtq0xg)" height="31.6094" style="stroke: #A80036; stroke-width: 1.5;" width="51" x="2049" y="3"/><text fill="#000000" font-family="sans-serif" font-size="14" lengthAdjust="spacingAndGlyphs" textLength="37" x="2056" y="24.5332">Chain</text><rect fill="#FEFECE" filter="url(#f70hjbqdtq0xg)" height="31.6094" style="stroke: #A80036; stroke-width: 1.5;" width="51" x="2049" y="1714.7266"/><text fill="#000000" font-family="sans-serif" font-size="14" lengthAdjust="spacingAndGlyphs" textLength="37" x="2056" y="1736.2598">Chain</text><rect fill="#FEFECE" filter="url(#f70hjbqdtq0xg)" height="31.6094" style="stroke: #A80036; stroke-width: 1.5;" width="106" x="2114" y="3"/><text fill="#000000" font-family="sans-serif" font-size="14" lengthAdjust="spacingAndGlyphs" textLength="92" x="2121" y="24.5332">PatchingChain</text><rect fill="#FEFECE" filter="url(#f70hjbqdtq0xg)" height="31.6094" style="stroke: #A80036; stroke-width: 1.5;" width="106" x="2114" y="1714.7266"/><text fill="#000000" font-family="sans-serif" font-size="14" lengthAdjust="spacingAndGlyphs" textLength="92" x="2121" y="1736.2598">PatchingChain</text><rect fill="#FEFECE" filter="url(#f70hjbqdtq0xg)" height="31.6094" style="stroke: #A80036; stroke-width: 1.5;" width="46" x="2234" y="3"/><text fill="#000000" font-family="sans-serif" font-size="14" lengthAdjust="spacingAndGlyphs" textLength="32" x="2241" y="24.5332">Filter</text><rect fill="#FEFECE" filter="url(#f70hjbqdtq0xg)" height="31.6094" style="stroke: #A80036; stroke-width: 1.5;" width="46" x="2234" y="1714.7266"/><text fill="#000000" font-family="sans-serif" font-size="14" lengthAdjust="spacingAndGlyphs" textLength="32" x="2241" y="1736.2598">Filter</text><rect fill="#FEFECE" filter="url(#f70hjbqdtq0xg)" height="31.6094" style="stroke: #A80036; stroke-width: 1.5;" width="77" x="2396.5" y="3"/><text fill="#000000" font-family="sans-serif" font-size="14" lengthAdjust="spacingAndGlyphs" textLength="63" x="2403.5" y="24.5332">ClinitFilter</text><rect fill="#FEFECE" filter="url(#f70hjbqdtq0xg)" height="31.6094" style="stroke: #A80036; stroke-width: 1.5;" width="77" x="2396.5" y="1714.7266"/><text fill="#000000" font-family="sans-serif" font-size="14" lengthAdjust="spacingAndGlyphs" textLength="63" x="2403.5" y="1736.2598">ClinitFilter</text><polygon fill="#A80036" points="161.5,67.6094,171.5,71.6094,161.5,75.6094,165.5,71.6094" style="stroke: #A80036; stroke-width: 1.0;"/><line style="stroke: #A80036; stroke-width: 1.0;" x1="50.5" x2="167.5" y1="71.6094" y2="71.6094"/><text fill="#000000" font-family="sans-serif" font-size="13" lengthAdjust="spacingAndGlyphs" textLength="99" x="57.5" y="67.1045">multiply(double[])</text><polygon fill="#A80036" points="61.5,97.9609,51.5,101.9609,61.5,105.9609,57.5,101.9609" style="stroke: #A80036; stroke-width: 1.0;"/><line style="stroke: #A80036; stroke-width: 1.0; stroke-dasharray: 2.0,2.0;" x1="55.5" x2="172.5" y1="101.9609" y2="101.9609"/><text fill="#000000" font-family="sans-serif" font-size="13" lengthAdjust="spacingAndGlyphs" textLength="38" x="67.5" y="97.4561">double</text><line style="stroke: #A80036; stroke-width: 1.0;" x1="289.5" x2="331.5" y1="132.6641" y2="132.6641"/><line style="stroke: #A80036; stroke-width: 1.0;" x1="331.5" x2="331.5" y1="132.6641" y2="145.6641"/><line style="stroke: #A80036; stroke-width: 1.0;" x1="290.5" x2="331.5" y1="145.6641" y2="145.6641"/><polygon fill="#A80036" points="300.5,141.6641,290.5,145.6641,300.5,149.6641,296.5,145.6641" style="stroke: #A80036; stroke-width: 1.0;"/><text fill="#000000" font-family="sans-serif" font-size="13" lengthAdjust="spacingAndGlyphs" textLength="68" x="296.5" y="127.8076">set(String[])</text><line style="stroke: #A80036; stroke-width: 1.0;" x1="289.5" x2="331.5" y1="176.0156" y2="176.0156"/><line style="stroke: #A80036; stroke-width: 1.0;" x1="331.5" x2="331.5" y1="176.0156" y2="189.0156"/><line style="stroke: #A80036; stroke-width: 1.0;" x1="290.5" x2="331.5" y1="189.0156" y2="189.0156"/><polygon fill="#A80036" points="300.5,185.0156,290.5,189.0156,300.5,193.0156,296.5,189.0156" style="stroke: #A80036; stroke-width: 1.0;"/><text fill="#000000" font-family="sans-serif" font-size="13" lengthAdjust="spacingAndGlyphs" textLength="104" x="296.5" y="171.1592">setConfig(String[])</text><line style="stroke: #A80036; stroke-width: 1.0;" x1="289.5" x2="331.5" y1="219.3672" y2="219.3672"/><line style="stroke: #A80036; stroke-width: 1.0;" x1="331.5" x2="331.5" y1="219.3672" y2="232.3672"/><line style="stroke: #A80036; stroke-width: 1.0;" x1="290.5" x2="331.5" y1="232.3672" y2="232.3672"/><polygon fill="#A80036" points="300.5,228.3672,290.5,232.3672,300.5,236.3672,296.5,232.3672" style="stroke: #A80036; stroke-width: 1.0;"/><text fill="#000000" font-family="sans-serif" font-size="13" lengthAdjust="spacingAndGlyphs" textLength="141" x="296.5" y="214.5107">preprocessArgs(String[])</text><line style="stroke: #A80036; stroke-width: 1.0; stroke-dasharray: 2.0,2.0;" x1="289.5" x2="331.5" y1="262.7188" y2="262.7188"/><line style="stroke: #A80036; stroke-width: 1.0; stroke-dasharray: 2.0,2.0;" x1="331.5" x2="331.5" y1="262.7188" y2="275.7188"/><line style="stroke: #A80036; stroke-width: 1.0; stroke-dasharray: 2.0,2.0;" x1="290.5" x2="331.5" y1="275.7188" y2="275.7188"/><polygon fill="#A80036" points="300.5,271.7188,290.5,275.7188,300.5,279.7188,296.5,275.7188" style="stroke: #A80036; stroke-width: 1.0;"/><text fill="#000000" font-family="sans-serif" font-size="13" lengthAdjust="spacingAndGlyphs" textLength="42" x="296.5" y="257.8623">String[]</text><line style="stroke: #A80036; stroke-width: 1.0;" x1="289.5" x2="331.5" y1="306.0703" y2="306.0703"/><line style="stroke: #A80036; stroke-width: 1.0;" x1="331.5" x2="331.5" y1="306.0703" y2="319.0703"/><line style="stroke: #A80036; stroke-width: 1.0;" x1="290.5" x2="331.5" y1="319.0703" y2="319.0703"/><polygon fill="#A80036" points="300.5,315.0703,290.5,319.0703,300.5,323.0703,296.5,319.0703" style="stroke: #A80036; stroke-width: 1.0;"/><text fill="#000000" font-family="sans-serif" font-size="13" lengthAdjust="spacingAndGlyphs" textLength="82" x="296.5" y="301.2139">parse(String[])</text><line style="stroke: #A80036; stroke-width: 1.0;" x1="621.5" x2="663.5" y1="349.4219" y2="349.4219"/><line style="stroke: #A80036; stroke-width: 1.0;" x1="663.5" x2="663.5" y1="349.4219" y2="362.4219"/><line style="stroke: #A80036; stroke-width: 1.0;" x1="622.5" x2="663.5" y1="362.4219" y2="362.4219"/><polygon fill="#A80036" points="632.5,358.4219,622.5,362.4219,632.5,366.4219,628.5,362.4219" style="stroke: #A80036; stroke-width: 1.0;"/><text fill="#000000" font-family="sans-serif" font-size="13" lengthAdjust="spacingAndGlyphs" textLength="44" x="628.5" y="344.5654">create()</text><line style="stroke: #A80036; stroke-width: 1.0; stroke-dasharray: 2.0,2.0;" x1="621.5" x2="663.5" y1="392.7734" y2="392.7734"/><line style="stroke: #A80036; stroke-width: 1.0; stroke-dasharray: 2.0,2.0;" x1="663.5" x2="663.5" y1="392.7734" y2="405.7734"/><line style="stroke: #A80036; stroke-width: 1.0; stroke-dasharray: 2.0,2.0;" x1="622.5" x2="663.5" y1="405.7734" y2="405.7734"/><polygon fill="#A80036" points="632.5,401.7734,622.5,405.7734,632.5,409.7734,628.5,405.7734" style="stroke: #A80036; stroke-width: 1.0;"/><text fill="#000000" font-family="sans-serif" font-size="13" lengthAdjust="spacingAndGlyphs" textLength="105" x="628.5" y="387.917">ArrayListMultimap</text><polygon fill="#A80036" points="632.5,431.7734,622.5,435.7734,632.5,439.7734,628.5,435.7734" style="stroke: #A80036; stroke-width: 1.0;"/><line style="stroke: #A80036; stroke-width: 1.0;" x1="626.5" x2="750.5" y1="435.7734" y2="435.7734"/><text fill="#000000" font-family="sans-serif" font-size="13" lengthAdjust="spacingAndGlyphs" textLength="106" x="638.5" y="431.2686">put(Object,Object)</text><polygon fill="#A80036" points="739.5,462.125,749.5,466.125,739.5,470.125,743.5,466.125" style="stroke: #A80036; stroke-width: 1.0;"/><line style="stroke: #A80036; stroke-width: 1.0; stroke-dasharray: 2.0,2.0;" x1="621.5" x2="745.5" y1="466.125" y2="466.125"/><text fill="#000000" font-family="sans-serif" font-size="13" lengthAdjust="spacingAndGlyphs" textLength="45" x="628.5" y="461.6201">boolean</text><polygon fill="#A80036" points="632.5,492.4766,622.5,496.4766,632.5,500.4766,628.5,496.4766" style="stroke: #A80036; stroke-width: 1.0;"/><line style="stroke: #A80036; stroke-width: 1.0;" x1="626.5" x2="750.5" y1="496.4766" y2="496.4766"/><text fill="#000000" font-family="sans-serif" font-size="13" lengthAdjust="spacingAndGlyphs" textLength="106" x="638.5" y="491.9717">put(Object,Object)</text><polygon fill="#A80036" points="739.5,522.8281,749.5,526.8281,739.5,530.8281,743.5,526.8281" style="stroke: #A80036; stroke-width: 1.0;"/><line style="stroke: #A80036; stroke-width: 1.0; stroke-dasharray: 2.0,2.0;" x1="621.5" x2="745.5" y1="526.8281" y2="526.8281"/><text fill="#000000" font-family="sans-serif" font-size="13" lengthAdjust="spacingAndGlyphs" textLength="45" x="628.5" y="522.3232">boolean</text><line style="stroke: #A80036; stroke-width: 1.0; stroke-dasharray: 2.0,2.0;" x1="289.5" x2="331.5" y1="557.5313" y2="557.5313"/><line style="stroke: #A80036; stroke-width: 1.0; stroke-dasharray: 2.0,2.0;" x1="331.5" x2="331.5" y1="557.5313" y2="570.5313"/><line style="stroke: #A80036; stroke-width: 1.0; stroke-dasharray: 2.0,2.0;" x1="290.5" x2="331.5" y1="570.5313" y2="570.5313"/><polygon fill="#A80036" points="300.5,566.5313,290.5,570.5313,300.5,574.5313,296.5,570.5313" style="stroke: #A80036; stroke-width: 1.0;"/><text fill="#000000" font-family="sans-serif" font-size="13" lengthAdjust="spacingAndGlyphs" textLength="162" x="296.5" y="552.6748">ListMultimap&lt;String,String&gt;</text><line style="stroke: #A80036; stroke-width: 1.0;" x1="289.5" x2="331.5" y1="600.8828" y2="600.8828"/><line style="stroke: #A80036; stroke-width: 1.0;" x1="331.5" x2="331.5" y1="600.8828" y2="613.8828"/><line style="stroke: #A80036; stroke-width: 1.0;" x1="290.5" x2="331.5" y1="613.8828" y2="613.8828"/><polygon fill="#A80036" points="300.5,609.8828,290.5,613.8828,300.5,617.8828,296.5,613.8828" style="stroke: #A80036; stroke-width: 1.0;"/><text fill="#000000" font-family="sans-serif" font-size="13" lengthAdjust="spacingAndGlyphs" textLength="251" x="296.5" y="596.0264">loadConfigFile(ListMultimap&lt;String,String&gt;)</text><polygon fill="#A80036" points="632.5,639.8828,622.5,643.8828,632.5,647.8828,628.5,643.8828" style="stroke: #A80036; stroke-width: 1.0;"/><line style="stroke: #A80036; stroke-width: 1.0;" x1="626.5" x2="750.5" y1="643.8828" y2="643.8828"/><text fill="#000000" font-family="sans-serif" font-size="13" lengthAdjust="spacingAndGlyphs" textLength="64" x="638.5" y="639.3779">get(Object)</text><polygon fill="#A80036" points="739.5,670.2344,749.5,674.2344,739.5,678.2344,743.5,674.2344" style="stroke: #A80036; stroke-width: 1.0;"/><line style="stroke: #A80036; stroke-width: 1.0; stroke-dasharray: 2.0,2.0;" x1="621.5" x2="745.5" y1="674.2344" y2="674.2344"/><text fill="#000000" font-family="sans-serif" font-size="13" lengthAdjust="spacingAndGlyphs" textLength="21" x="628.5" y="669.7295">List</text><line style="stroke: #A80036; stroke-width: 1.0; stroke-dasharray: 2.0,2.0;" x1="289.5" x2="331.5" y1="704.9375" y2="704.9375"/><line style="stroke: #A80036; stroke-width: 1.0; stroke-dasharray: 2.0,2.0;" x1="331.5" x2="331.5" y1="704.9375" y2="717.9375"/><line style="stroke: #A80036; stroke-width: 1.0; stroke-dasharray: 2.0,2.0;" x1="290.5" x2="331.5" y1="717.9375" y2="717.9375"/><polygon fill="#A80036" points="300.5,713.9375,290.5,717.9375,300.5,721.9375,296.5,717.9375" style="stroke: #A80036; stroke-width: 1.0;"/><text fill="#000000" font-family="sans-serif" font-size="13" lengthAdjust="spacingAndGlyphs" textLength="70" x="296.5" y="700.0811">InputStream</text><line style="stroke: #A80036; stroke-width: 1.0;" x1="289.5" x2="331.5" y1="748.2891" y2="748.2891"/><line style="stroke: #A80036; stroke-width: 1.0;" x1="331.5" x2="331.5" y1="748.2891" y2="761.2891"/><line style="stroke: #A80036; stroke-width: 1.0;" x1="290.5" x2="331.5" y1="761.2891" y2="761.2891"/><polygon fill="#A80036" points="300.5,757.2891,290.5,761.2891,300.5,765.2891,296.5,761.2891" style="stroke: #A80036; stroke-width: 1.0;"/><text fill="#000000" font-family="sans-serif" font-size="13" lengthAdjust="spacingAndGlyphs" textLength="200" x="296.5" y="743.4326">setSystemProperties(InputStream)</text><line style="stroke: #A80036; stroke-width: 1.0;" x1="289.5" x2="331.5" y1="791.6406" y2="791.6406"/><line style="stroke: #A80036; stroke-width: 1.0;" x1="331.5" x2="331.5" y1="791.6406" y2="804.6406"/><line style="stroke: #A80036; stroke-width: 1.0;" x1="290.5" x2="331.5" y1="804.6406" y2="804.6406"/><polygon fill="#A80036" points="300.5,800.6406,290.5,804.6406,300.5,808.6406,296.5,804.6406" style="stroke: #A80036; stroke-width: 1.0;"/><text fill="#000000" font-family="sans-serif" font-size="13" lengthAdjust="spacingAndGlyphs" textLength="318" x="296.5" y="786.7842">overrideSystemProperties(ListMultimap&lt;String,String&gt;)</text><polygon fill="#A80036" points="632.5,830.6406,622.5,834.6406,632.5,838.6406,628.5,834.6406" style="stroke: #A80036; stroke-width: 1.0;"/><line style="stroke: #A80036; stroke-width: 1.0;" x1="626.5" x2="750.5" y1="834.6406" y2="834.6406"/><text fill="#000000" font-family="sans-serif" font-size="13" lengthAdjust="spacingAndGlyphs" textLength="36" x="638.5" y="830.1357">keys()</text><polygon fill="#A80036" points="739.5,860.9922,749.5,864.9922,739.5,868.9922,743.5,864.9922" style="stroke: #A80036; stroke-width: 1.0;"/><line style="stroke: #A80036; stroke-width: 1.0; stroke-dasharray: 2.0,2.0;" x1="621.5" x2="745.5" y1="864.9922" y2="864.9922"/><text fill="#000000" font-family="sans-serif" font-size="13" lengthAdjust="spacingAndGlyphs" textLength="46" x="628.5" y="860.4873">Multiset</text><line style="stroke: #A80036; stroke-width: 1.0;" x1="866" x2="908" y1="895.6953" y2="895.6953"/><line style="stroke: #A80036; stroke-width: 1.0;" x1="908" x2="908" y1="895.6953" y2="908.6953"/><line style="stroke: #A80036; stroke-width: 1.0;" x1="867" x2="908" y1="908.6953" y2="908.6953"/><polygon fill="#A80036" points="877,904.6953,867,908.6953,877,912.6953,873,908.6953" style="stroke: #A80036; stroke-width: 1.0;"/><text fill="#000000" font-family="sans-serif" font-size="13" lengthAdjust="spacingAndGlyphs" textLength="121" x="873" y="890.8389">accept(ListMultimap)</text><line style="stroke: #A80036; stroke-width: 1.0; stroke-dasharray: 2.0,2.0;" x1="866" x2="908" y1="939.0469" y2="939.0469"/><line style="stroke: #A80036; stroke-width: 1.0; stroke-dasharray: 2.0,2.0;" x1="908" x2="908" y1="939.0469" y2="952.0469"/><line style="stroke: #A80036; stroke-width: 1.0; stroke-dasharray: 2.0,2.0;" x1="867" x2="908" y1="952.0469" y2="952.0469"/><polygon fill="#A80036" points="877,948.0469,867,952.0469,877,956.0469,873,952.0469" style="stroke: #A80036; stroke-width: 1.0;"/><text fill="#000000" font-family="sans-serif" font-size="13" lengthAdjust="spacingAndGlyphs" textLength="59" x="873" y="934.1904">Consumer</text><line style="stroke: #A80036; stroke-width: 1.0;" x1="1001" x2="1043" y1="982.3984" y2="982.3984"/><line style="stroke: #A80036; stroke-width: 1.0;" x1="1043" x2="1043" y1="982.3984" y2="995.3984"/><line style="stroke: #A80036; stroke-width: 1.0;" x1="1002" x2="1043" y1="995.3984" y2="995.3984"/><polygon fill="#A80036" points="1012,991.3984,1002,995.3984,1012,999.3984,1008,995.3984" style="stroke: #A80036; stroke-width: 1.0;"/><text fill="#000000" font-family="sans-serif" font-size="13" lengthAdjust="spacingAndGlyphs" textLength="123" x="1008" y="977.542">new PipelineModule()</text><line style="stroke: #A80036; stroke-width: 1.0;" x1="1138" x2="1180" y1="1025.75" y2="1025.75"/><line style="stroke: #A80036; stroke-width: 1.0;" x1="1180" x2="1180" y1="1025.75" y2="1038.75"/><line style="stroke: #A80036; stroke-width: 1.0;" x1="1139" x2="1180" y1="1038.75" y2="1038.75"/><polygon fill="#A80036" points="1149,1034.75,1139,1038.75,1149,1042.75,1145,1038.75" style="stroke: #A80036; stroke-width: 1.0;"/><text fill="#000000" font-family="sans-serif" font-size="13" lengthAdjust="spacingAndGlyphs" textLength="134" x="1145" y="1020.8936">new ReflectionModule()</text><line style="stroke: #A80036; stroke-width: 1.0;" x1="1286" x2="1328" y1="1069.1016" y2="1069.1016"/><line style="stroke: #A80036; stroke-width: 1.0;" x1="1328" x2="1328" y1="1069.1016" y2="1082.1016"/><line style="stroke: #A80036; stroke-width: 1.0;" x1="1287" x2="1328" y1="1082.1016" y2="1082.1016"/><polygon fill="#A80036" points="1297,1078.1016,1287,1082.1016,1297,1086.1016,1293,1082.1016" style="stroke: #A80036; stroke-width: 1.0;"/><text fill="#000000" font-family="sans-serif" font-size="13" lengthAdjust="spacingAndGlyphs" textLength="136" x="1293" y="1064.2451">createInjector(Module[])</text><line style="stroke: #A80036; stroke-width: 1.0; stroke-dasharray: 2.0,2.0;" x1="1286" x2="1328" y1="1112.4531" y2="1112.4531"/><line style="stroke: #A80036; stroke-width: 1.0; stroke-dasharray: 2.0,2.0;" x1="1328" x2="1328" y1="1112.4531" y2="1125.4531"/><line style="stroke: #A80036; stroke-width: 1.0; stroke-dasharray: 2.0,2.0;" x1="1287" x2="1328" y1="1125.4531" y2="1125.4531"/><polygon fill="#A80036" points="1297,1121.4531,1287,1125.4531,1297,1129.4531,1293,1125.4531" style="stroke: #A80036; stroke-width: 1.0;"/><text fill="#000000" font-family="sans-serif" font-size="13" lengthAdjust="spacingAndGlyphs" textLength="42" x="1293" y="1107.5967">Injector</text><line style="stroke: #A80036; stroke-width: 1.0;" x1="1436" x2="1478" y1="1155.8047" y2="1155.8047"/><line style="stroke: #A80036; stroke-width: 1.0;" x1="1478" x2="1478" y1="1155.8047" y2="1168.8047"/><line style="stroke: #A80036; stroke-width: 1.0;" x1="1437" x2="1478" y1="1168.8047" y2="1168.8047"/><polygon fill="#A80036" points="1447,1164.8047,1437,1168.8047,1447,1172.8047,1443,1168.8047" style="stroke: #A80036; stroke-width: 1.0;"/><text fill="#000000" font-family="sans-serif" font-size="13" lengthAdjust="spacingAndGlyphs" textLength="100" x="1443" y="1150.9482">executePipeline()</text><polygon fill="#A80036" points="1707,1194.8047,1717,1198.8047,1707,1202.8047,1711,1198.8047" style="stroke: #A80036; stroke-width: 1.0;"/><line style="stroke: #A80036; stroke-width: 1.0;" x1="1550" x2="1713" y1="1198.8047" y2="1198.8047"/><text fill="#000000" font-family="sans-serif" font-size="13" lengthAdjust="spacingAndGlyphs" textLength="145" x="1557" y="1194.2998">execute(AnalyzerBundle)</text><line style="stroke: #A80036; stroke-width: 1.0;" x1="1837.5" x2="1879.5" y1="1229.5078" y2="1229.5078"/><line style="stroke: #A80036; stroke-width: 1.0;" x1="1879.5" x2="1879.5" y1="1229.5078" y2="1242.5078"/><line style="stroke: #A80036; stroke-width: 1.0;" x1="1838.5" x2="1879.5" y1="1242.5078" y2="1242.5078"/><polygon fill="#A80036" points="1848.5,1238.5078,1838.5,1242.5078,1848.5,1246.5078,1844.5,1242.5078" style="stroke: #A80036; stroke-width: 1.0;"/><text fill="#000000" font-family="sans-serif" font-size="13" lengthAdjust="spacingAndGlyphs" textLength="97" x="1844.5" y="1224.6514">get(String,Class)</text><line style="stroke: #A80036; stroke-width: 1.0; stroke-dasharray: 2.0,2.0;" x1="1837.5" x2="1879.5" y1="1272.8594" y2="1272.8594"/><line style="stroke: #A80036; stroke-width: 1.0; stroke-dasharray: 2.0,2.0;" x1="1879.5" x2="1879.5" y1="1272.8594" y2="1285.8594"/><line style="stroke: #A80036; stroke-width: 1.0; stroke-dasharray: 2.0,2.0;" x1="1838.5" x2="1879.5" y1="1285.8594" y2="1285.8594"/><polygon fill="#A80036" points="1848.5,1281.8594,1838.5,1285.8594,1848.5,1289.8594,1844.5,1285.8594" style="stroke: #A80036; stroke-width: 1.0;"/><text fill="#000000" font-family="sans-serif" font-size="13" lengthAdjust="spacingAndGlyphs" textLength="38" x="1844.5" y="1268.0029">Object</text><line style="stroke: #A80036; stroke-width: 1.0;" x1="1953.5" x2="1995.5" y1="1316.2109" y2="1316.2109"/><line style="stroke: #A80036; stroke-width: 1.0;" x1="1995.5" x2="1995.5" y1="1316.2109" y2="1329.2109"/><line style="stroke: #A80036; stroke-width: 1.0;" x1="1954.5" x2="1995.5" y1="1329.2109" y2="1329.2109"/><polygon fill="#A80036" points="1964.5,1325.2109,1954.5,1329.2109,1964.5,1333.2109,1960.5,1329.2109" style="stroke: #A80036; stroke-width: 1.0;"/><text fill="#000000" font-family="sans-serif" font-size="13" lengthAdjust="spacingAndGlyphs" textLength="69" x="1960.5" y="1311.3545">getClasses)</text><line style="stroke: #A80036; stroke-width: 1.0; stroke-dasharray: 2.0,2.0;" x1="1953.5" x2="1995.5" y1="1359.5625" y2="1359.5625"/><line style="stroke: #A80036; stroke-width: 1.0; stroke-dasharray: 2.0,2.0;" x1="1995.5" x2="1995.5" y1="1359.5625" y2="1372.5625"/><line style="stroke: #A80036; stroke-width: 1.0; stroke-dasharray: 2.0,2.0;" x1="1954.5" x2="1995.5" y1="1372.5625" y2="1372.5625"/><polygon fill="#A80036" points="1964.5,1368.5625,1954.5,1372.5625,1964.5,1376.5625,1960.5,1372.5625" style="stroke: #A80036; stroke-width: 1.0;"/><text fill="#000000" font-family="sans-serif" font-size="13" lengthAdjust="spacingAndGlyphs" textLength="109" x="1960.5" y="1354.7061">Chain&lt;SootClass&gt;</text><polygon fill="#A80036" points="2157,1398.5625,2167,1402.5625,2157,1406.5625,2161,1402.5625" style="stroke: #A80036; stroke-width: 1.0;"/><line style="stroke: #A80036; stroke-width: 1.0;" x1="2076.5" x2="2163" y1="1402.5625" y2="1402.5625"/><text fill="#000000" font-family="sans-serif" font-size="13" lengthAdjust="spacingAndGlyphs" textLength="48" x="2083.5" y="1398.0576">iterator()</text><polygon fill="#A80036" points="2087.5,1428.9141,2077.5,1432.9141,2087.5,1436.9141,2083.5,1432.9141" style="stroke: #A80036; stroke-width: 1.0;"/><line style="stroke: #A80036; stroke-width: 1.0; stroke-dasharray: 2.0,2.0;" x1="2081.5" x2="2168" y1="1432.9141" y2="1432.9141"/><text fill="#000000" font-family="sans-serif" font-size="13" lengthAdjust="spacingAndGlyphs" textLength="40" x="2093.5" y="1428.4092">Iterator</text><line style="stroke: #A80036; stroke-width: 1.0;" x1="1550" x2="1592" y1="1463.6172" y2="1463.6172"/><line style="stroke: #A80036; stroke-width: 1.0;" x1="1592" x2="1592" y1="1463.6172" y2="1476.6172"/><line style="stroke: #A80036; stroke-width: 1.0;" x1="1551" x2="1592" y1="1476.6172" y2="1476.6172"/><polygon fill="#A80036" points="1561,1472.6172,1551,1476.6172,1561,1480.6172,1557,1476.6172" style="stroke: #A80036; stroke-width: 1.0;"/><text fill="#000000" font-family="sans-serif" font-size="13" lengthAdjust="spacingAndGlyphs" textLength="146" x="1557" y="1458.7607">passesFilters(SootClass)</text><polygon fill="#A80036" points="2425,1502.6172,2435,1506.6172,2425,1510.6172,2429,1506.6172" style="stroke: #A80036; stroke-width: 1.0;"/><line style="stroke: #A80036; stroke-width: 1.0;" x1="2259" x2="2431" y1="1506.6172" y2="1506.6172"/><text fill="#000000" font-family="sans-serif" font-size="13" lengthAdjust="spacingAndGlyphs" textLength="154" x="2266" y="1502.1123">shouldProcess(SootClass)</text><polygon fill="#A80036" points="2270,1532.9688,2260,1536.9688,2270,1540.9688,2266,1536.9688" style="stroke: #A80036; stroke-width: 1.0;"/><line style="stroke: #A80036; stroke-width: 1.0; stroke-dasharray: 2.0,2.0;" x1="2264" x2="2436" y1="1536.9688" y2="1536.9688"/><text fill="#000000" font-family="sans-serif" font-size="13" lengthAdjust="spacingAndGlyphs" textLength="45" x="2276" y="1532.4639">boolean</text><line style="stroke: #A80036; stroke-width: 1.0; stroke-dasharray: 2.0,2.0;" x1="1550" x2="1592" y1="1567.6719" y2="1567.6719"/><line style="stroke: #A80036; stroke-width: 1.0; stroke-dasharray: 2.0,2.0;" x1="1592" x2="1592" y1="1567.6719" y2="1580.6719"/><line style="stroke: #A80036; stroke-width: 1.0; stroke-dasharray: 2.0,2.0;" x1="1551" x2="1592" y1="1580.6719" y2="1580.6719"/><polygon fill="#A80036" points="1561,1576.6719,1551,1580.6719,1561,1584.6719,1557,1580.6719" style="stroke: #A80036; stroke-width: 1.0;"/><text fill="#000000" font-family="sans-serif" font-size="13" lengthAdjust="spacingAndGlyphs" textLength="45" x="1557" y="1562.8154">boolean</text><line style="stroke: #A80036; stroke-width: 1.0;" x1="1837.5" x2="1879.5" y1="1611.0234" y2="1611.0234"/><line style="stroke: #A80036; stroke-width: 1.0;" x1="1879.5" x2="1879.5" y1="1611.0234" y2="1624.0234"/><line style="stroke: #A80036; stroke-width: 1.0;" x1="1838.5" x2="1879.5" y1="1624.0234" y2="1624.0234"/><polygon fill="#A80036" points="1848.5,1620.0234,1838.5,1624.0234,1848.5,1628.0234,1844.5,1624.0234" style="stroke: #A80036; stroke-width: 1.0;"/><text fill="#000000" font-family="sans-serif" font-size="13" lengthAdjust="spacingAndGlyphs" textLength="102" x="1844.5" y="1606.167">put(String,Object)</text><polygon fill="#A80036" points="1561,1650.0234,1551,1654.0234,1561,1658.0234,1557,1654.0234" style="stroke: #A80036; stroke-width: 1.0;"/><line style="stroke: #A80036; stroke-width: 1.0; stroke-dasharray: 2.0,2.0;" x1="1555" x2="1718" y1="1654.0234" y2="1654.0234"/><text fill="#000000" font-family="sans-serif" font-size="13" lengthAdjust="spacingAndGlyphs" textLength="91" x="1567" y="1649.5186">AnalyzerBundle</text><line style="stroke: #A80036; stroke-width: 1.0; stroke-dasharray: 2.0,2.0;" x1="1436" x2="1478" y1="1684.7266" y2="1684.7266"/><line style="stroke: #A80036; stroke-width: 1.0; stroke-dasharray: 2.0,2.0;" x1="1478" x2="1478" y1="1684.7266" y2="1697.7266"/><line style="stroke: #A80036; stroke-width: 1.0; stroke-dasharray: 2.0,2.0;" x1="1437" x2="1478" y1="1697.7266" y2="1697.7266"/><polygon fill="#A80036" points="1447,1693.7266,1437,1697.7266,1447,1701.7266,1443,1697.7266" style="stroke: #A80036; stroke-width: 1.0;"/><text fill="#000000" font-family="sans-serif" font-size="13" lengthAdjust="spacingAndGlyphs" textLength="91" x="1443" y="1679.8701">AnalyzerBundle</text></g></svg>