<?xml version="1.0" encoding="UTF-8" standalone="no"?><svg xmlns="http://www.w3.org/2000/svg" xmlns:xlink="http://www.w3.org/1999/xlink" contentScriptType="application/ecmascript" contentStyleType="text/css" height="1735px" preserveAspectRatio="none" style="width:2244px;height:1735px;" version="1.1" viewBox="0 0 2244 1735" width="2244px" zoomAndPan="magnify"><defs><filter height="300%" id="fuyiecrgcius9" width="300%" x="-1" y="-1"><feGaussianBlur result="blurOut" stdDeviation="2.0"/><feColorMatrix in="blurOut" result="blurOut2" type="matrix" values="0 0 0 0 0 0 0 0 0 0 0 0 0 0 0 0 0 0 .4 0"/><feOffset dx="4.0" dy="4.0" in="blurOut2" result="blurOut3"/><feBlend in="SourceGraphic" in2="blurOut3" mode="normal"/></filter></defs><g><line style="stroke: #A80036; stroke-width: 1.0; stroke-dasharray: 5.0,5.0;" x1="40" x2="40" y1="39.6094" y2="1694.1875"/><line style="stroke: #A80036; stroke-width: 1.0; stroke-dasharray: 5.0,5.0;" x1="143" x2="143" y1="39.6094" y2="1694.1875"/><line style="stroke: #A80036; stroke-width: 1.0; stroke-dasharray: 5.0,5.0;" x1="475.5" x2="475.5" y1="39.6094" y2="1694.1875"/><line style="stroke: #A80036; stroke-width: 1.0; stroke-dasharray: 5.0,5.0;" x1="606.5" x2="606.5" y1="39.6094" y2="1694.1875"/><line style="stroke: #A80036; stroke-width: 1.0; stroke-dasharray: 5.0,5.0;" x1="730.5" x2="730.5" y1="39.6094" y2="1694.1875"/><line style="stroke: #A80036; stroke-width: 1.0; stroke-dasharray: 5.0,5.0;" x1="855.5" x2="855.5" y1="39.6094" y2="1694.1875"/><line style="stroke: #A80036; stroke-width: 1.0; stroke-dasharray: 5.0,5.0;" x1="981.5" x2="981.5" y1="39.6094" y2="1694.1875"/><line style="stroke: #A80036; stroke-width: 1.0; stroke-dasharray: 5.0,5.0;" x1="1112.5" x2="1112.5" y1="39.6094" y2="1694.1875"/><line style="stroke: #A80036; stroke-width: 1.0; stroke-dasharray: 5.0,5.0;" x1="1213.5" x2="1213.5" y1="39.6094" y2="1694.1875"/><line style="stroke: #A80036; stroke-width: 1.0; stroke-dasharray: 5.0,5.0;" x1="1292.5" x2="1292.5" y1="39.6094" y2="1694.1875"/><line style="stroke: #A80036; stroke-width: 1.0; stroke-dasharray: 5.0,5.0;" x1="1461" x2="1461" y1="39.6094" y2="1694.1875"/><line style="stroke: #A80036; stroke-width: 1.0; stroke-dasharray: 5.0,5.0;" x1="1594.5" x2="1594.5" y1="39.6094" y2="1694.1875"/><line style="stroke: #A80036; stroke-width: 1.0; stroke-dasharray: 5.0,5.0;" x1="1698.5" x2="1698.5" y1="39.6094" y2="1694.1875"/><line style="stroke: #A80036; stroke-width: 1.0; stroke-dasharray: 5.0,5.0;" x1="1829.5" x2="1829.5" y1="39.6094" y2="1694.1875"/><line style="stroke: #A80036; stroke-width: 1.0; stroke-dasharray: 5.0,5.0;" x1="1933.5" x2="1933.5" y1="39.6094" y2="1694.1875"/><line style="stroke: #A80036; stroke-width: 1.0; stroke-dasharray: 5.0,5.0;" x1="2018.5" x2="2018.5" y1="39.6094" y2="1694.1875"/><line style="stroke: #A80036; stroke-width: 1.0; stroke-dasharray: 5.0,5.0;" x1="2196" x2="2196" y1="39.6094" y2="1694.1875"/><rect fill="#FEFECE" filter="url(#fuyiecrgcius9)" height="31.6094" style="stroke: #A80036; stroke-width: 1.5;" width="61" x="8" y="3"/><text fill="#000000" font-family="sans-serif" font-size="14" lengthAdjust="spacingAndGlyphs" textLength="47" x="15" y="24.5332">Runner</text><rect fill="#FEFECE" filter="url(#fuyiecrgcius9)" height="31.6094" style="stroke: #A80036; stroke-width: 1.5;" width="61" x="8" y="1693.1875"/><text fill="#000000" font-family="sans-serif" font-size="14" lengthAdjust="spacingAndGlyphs" textLength="47" x="15" y="1714.7207">Runner</text><rect fill="#FEFECE" filter="url(#fuyiecrgcius9)" height="31.6094" style="stroke: #A80036; stroke-width: 1.5;" width="117" x="83" y="3"/><text fill="#000000" font-family="sans-serif" font-size="14" lengthAdjust="spacingAndGlyphs" textLength="103" x="90" y="24.5332">PropertiesSetter</text><rect fill="#FEFECE" filter="url(#fuyiecrgcius9)" height="31.6094" style="stroke: #A80036; stroke-width: 1.5;" width="117" x="83" y="1693.1875"/><text fill="#000000" font-family="sans-serif" font-size="14" lengthAdjust="spacingAndGlyphs" textLength="103" x="90" y="1714.7207">PropertiesSetter</text><rect fill="#FEFECE" filter="url(#fuyiecrgcius9)" height="31.6094" style="stroke: #A80036; stroke-width: 1.5;" width="126" x="410.5" y="3"/><text fill="#000000" font-family="sans-serif" font-size="14" lengthAdjust="spacingAndGlyphs" textLength="112" x="417.5" y="24.5332">ArrayListMultimap</text><rect fill="#FEFECE" filter="url(#fuyiecrgcius9)" height="31.6094" style="stroke: #A80036; stroke-width: 1.5;" width="126" x="410.5" y="1693.1875"/><text fill="#000000" font-family="sans-serif" font-size="14" lengthAdjust="spacingAndGlyphs" textLength="112" x="417.5" y="1714.7207">ArrayListMultimap</text><rect fill="#FEFECE" filter="url(#fuyiecrgcius9)" height="31.6094" style="stroke: #A80036; stroke-width: 1.5;" width="109" x="550.5" y="3"/><text fill="#000000" font-family="sans-serif" font-size="14" lengthAdjust="spacingAndGlyphs" textLength="95" x="557.5" y="24.5332">InvokeDynamic</text><rect fill="#FEFECE" filter="url(#fuyiecrgcius9)" height="31.6094" style="stroke: #A80036; stroke-width: 1.5;" width="109" x="550.5" y="1693.1875"/><text fill="#000000" font-family="sans-serif" font-size="14" lengthAdjust="spacingAndGlyphs" textLength="95" x="557.5" y="1714.7207">InvokeDynamic</text><rect fill="#FEFECE" filter="url(#fuyiecrgcius9)" height="31.6094" style="stroke: #A80036; stroke-width: 1.5;" width="110" x="673.5" y="3"/><text fill="#000000" font-family="sans-serif" font-size="14" lengthAdjust="spacingAndGlyphs" textLength="96" x="680.5" y="24.5332">PipelineModule</text><rect fill="#FEFECE" filter="url(#fuyiecrgcius9)" height="31.6094" style="stroke: #A80036; stroke-width: 1.5;" width="110" x="673.5" y="1693.1875"/><text fill="#000000" font-family="sans-serif" font-size="14" lengthAdjust="spacingAndGlyphs" textLength="96" x="680.5" y="1714.7207">PipelineModule</text><rect fill="#FEFECE" filter="url(#fuyiecrgcius9)" height="31.6094" style="stroke: #A80036; stroke-width: 1.5;" width="112" x="797.5" y="3"/><text fill="#000000" font-family="sans-serif" font-size="14" lengthAdjust="spacingAndGlyphs" textLength="98" x="804.5" y="24.5332">AbstractModule</text><rect fill="#FEFECE" filter="url(#fuyiecrgcius9)" height="31.6094" style="stroke: #A80036; stroke-width: 1.5;" width="112" x="797.5" y="1693.1875"/><text fill="#000000" font-family="sans-serif" font-size="14" lengthAdjust="spacingAndGlyphs" textLength="98" x="804.5" y="1714.7207">AbstractModule</text><rect fill="#FEFECE" filter="url(#fuyiecrgcius9)" height="31.6094" style="stroke: #A80036; stroke-width: 1.5;" width="112" x="923.5" y="3"/><text fill="#000000" font-family="sans-serif" font-size="14" lengthAdjust="spacingAndGlyphs" textLength="98" x="930.5" y="24.5332">AnalyzerBundle</text><rect fill="#FEFECE" filter="url(#fuyiecrgcius9)" height="31.6094" style="stroke: #A80036; stroke-width: 1.5;" width="112" x="923.5" y="1693.1875"/><text fill="#000000" font-family="sans-serif" font-size="14" lengthAdjust="spacingAndGlyphs" textLength="98" x="930.5" y="1714.7207">AnalyzerBundle</text><rect fill="#FEFECE" filter="url(#fuyiecrgcius9)" height="31.6094" style="stroke: #A80036; stroke-width: 1.5;" width="123" x="1049.5" y="3"/><text fill="#000000" font-family="sans-serif" font-size="14" lengthAdjust="spacingAndGlyphs" textLength="109" x="1056.5" y="24.5332">ReflectionModule</text><rect fill="#FEFECE" filter="url(#fuyiecrgcius9)" height="31.6094" style="stroke: #A80036; stroke-width: 1.5;" width="123" x="1049.5" y="1693.1875"/><text fill="#000000" font-family="sans-serif" font-size="14" lengthAdjust="spacingAndGlyphs" textLength="109" x="1056.5" y="1714.7207">ReflectionModule</text><rect fill="#FEFECE" filter="url(#fuyiecrgcius9)" height="31.6094" style="stroke: #A80036; stroke-width: 1.5;" width="51" x="1186.5" y="3"/><text fill="#000000" font-family="sans-serif" font-size="14" lengthAdjust="spacingAndGlyphs" textLength="37" x="1193.5" y="24.5332">Guice</text><rect fill="#FEFECE" filter="url(#fuyiecrgcius9)" height="31.6094" style="stroke: #A80036; stroke-width: 1.5;" width="51" x="1186.5" y="1693.1875"/><text fill="#000000" font-family="sans-serif" font-size="14" lengthAdjust="spacingAndGlyphs" textLength="37" x="1193.5" y="1714.7207">Guice</text><rect fill="#FEFECE" filter="url(#fuyiecrgcius9)" height="31.6094" style="stroke: #A80036; stroke-width: 1.5;" width="78" x="1251.5" y="3"/><text fill="#000000" font-family="sans-serif" font-size="14" lengthAdjust="spacingAndGlyphs" textLength="64" x="1258.5" y="24.5332">Processor</text><rect fill="#FEFECE" filter="url(#fuyiecrgcius9)" height="31.6094" style="stroke: #A80036; stroke-width: 1.5;" width="78" x="1251.5" y="1693.1875"/><text fill="#000000" font-family="sans-serif" font-size="14" lengthAdjust="spacingAndGlyphs" textLength="64" x="1258.5" y="1714.7207">Processor</text><rect fill="#FEFECE" filter="url(#fuyiecrgcius9)" height="31.6094" style="stroke: #A80036; stroke-width: 1.5;" width="97" x="1411" y="3"/><text fill="#000000" font-family="sans-serif" font-size="14" lengthAdjust="spacingAndGlyphs" textLength="83" x="1418" y="24.5332">SootAnalyzer</text><rect fill="#FEFECE" filter="url(#fuyiecrgcius9)" height="31.6094" style="stroke: #A80036; stroke-width: 1.5;" width="97" x="1411" y="1693.1875"/><text fill="#000000" font-family="sans-serif" font-size="14" lengthAdjust="spacingAndGlyphs" textLength="83" x="1418" y="1714.7207">SootAnalyzer</text><rect fill="#FEFECE" filter="url(#fuyiecrgcius9)" height="31.6094" style="stroke: #A80036; stroke-width: 1.5;" width="54" x="1565.5" y="3"/><text fill="#000000" font-family="sans-serif" font-size="14" lengthAdjust="spacingAndGlyphs" textLength="40" x="1572.5" y="24.5332">Scene</text><rect fill="#FEFECE" filter="url(#fuyiecrgcius9)" height="31.6094" style="stroke: #A80036; stroke-width: 1.5;" width="54" x="1565.5" y="1693.1875"/><text fill="#000000" font-family="sans-serif" font-size="14" lengthAdjust="spacingAndGlyphs" textLength="40" x="1572.5" y="1714.7207">Scene</text><rect fill="#FEFECE" filter="url(#fuyiecrgcius9)" height="31.6094" style="stroke: #A80036; stroke-width: 1.5;" width="127" x="1633.5" y="3"/><text fill="#000000" font-family="sans-serif" font-size="14" lengthAdjust="spacingAndGlyphs" textLength="113" x="1640.5" y="24.5332">GridPatternGroup</text><rect fill="#FEFECE" filter="url(#fuyiecrgcius9)" height="31.6094" style="stroke: #A80036; stroke-width: 1.5;" width="127" x="1633.5" y="1693.1875"/><text fill="#000000" font-family="sans-serif" font-size="14" lengthAdjust="spacingAndGlyphs" textLength="113" x="1640.5" y="1714.7207">GridPatternGroup</text><rect fill="#FEFECE" filter="url(#fuyiecrgcius9)" height="31.6094" style="stroke: #A80036; stroke-width: 1.5;" width="106" x="1774.5" y="3"/><text fill="#000000" font-family="sans-serif" font-size="14" lengthAdjust="spacingAndGlyphs" textLength="92" x="1781.5" y="24.5332">PatchingChain</text><rect fill="#FEFECE" filter="url(#fuyiecrgcius9)" height="31.6094" style="stroke: #A80036; stroke-width: 1.5;" width="106" x="1774.5" y="1693.1875"/><text fill="#000000" font-family="sans-serif" font-size="14" lengthAdjust="spacingAndGlyphs" textLength="92" x="1781.5" y="1714.7207">PatchingChain</text><rect fill="#FEFECE" filter="url(#fuyiecrgcius9)" height="31.6094" style="stroke: #A80036; stroke-width: 1.5;" width="74" x="1894.5" y="3"/><text fill="#000000" font-family="sans-serif" font-size="14" lengthAdjust="spacingAndGlyphs" textLength="60" x="1901.5" y="24.5332">TypeDecl</text><rect fill="#FEFECE" filter="url(#fuyiecrgcius9)" height="31.6094" style="stroke: #A80036; stroke-width: 1.5;" width="74" x="1894.5" y="1693.1875"/><text fill="#000000" font-family="sans-serif" font-size="14" lengthAdjust="spacingAndGlyphs" textLength="60" x="1901.5" y="1714.7207">TypeDecl</text><rect fill="#FEFECE" filter="url(#fuyiecrgcius9)" height="31.6094" style="stroke: #A80036; stroke-width: 1.5;" width="68" x="1982.5" y="3"/><text fill="#000000" font-family="sans-serif" font-size="14" lengthAdjust="spacingAndGlyphs" textLength="54" x="1989.5" y="24.5332">Analyzer</text><rect fill="#FEFECE" filter="url(#fuyiecrgcius9)" height="31.6094" style="stroke: #A80036; stroke-width: 1.5;" width="68" x="1982.5" y="1693.1875"/><text fill="#000000" font-family="sans-serif" font-size="14" lengthAdjust="spacingAndGlyphs" textLength="54" x="1989.5" y="1714.7207">Analyzer</text><rect fill="#FEFECE" filter="url(#fuyiecrgcius9)" height="31.6094" style="stroke: #A80036; stroke-width: 1.5;" width="77" x="2156" y="3"/><text fill="#000000" font-family="sans-serif" font-size="14" lengthAdjust="spacingAndGlyphs" textLength="63" x="2163" y="24.5332">ClinitFilter</text><rect fill="#FEFECE" filter="url(#fuyiecrgcius9)" height="31.6094" style="stroke: #A80036; stroke-width: 1.5;" width="77" x="2156" y="1693.1875"/><text fill="#000000" font-family="sans-serif" font-size="14" lengthAdjust="spacingAndGlyphs" textLength="63" x="2163" y="1714.7207">ClinitFilter</text><polygon fill="#A80036" points="131.5,67.6094,141.5,71.6094,131.5,75.6094,135.5,71.6094" style="stroke: #A80036; stroke-width: 1.0;"/><line style="stroke: #A80036; stroke-width: 1.0;" x1="40.5" x2="137.5" y1="71.6094" y2="71.6094"/><text fill="#000000" font-family="sans-serif" font-size="13" lengthAdjust="spacingAndGlyphs" textLength="68" x="47.5" y="67.1045">set(String[])</text><line style="stroke: #A80036; stroke-width: 1.0;" x1="143.5" x2="185.5" y1="102.3125" y2="102.3125"/><line style="stroke: #A80036; stroke-width: 1.0;" x1="185.5" x2="185.5" y1="102.3125" y2="115.3125"/><line style="stroke: #A80036; stroke-width: 1.0;" x1="144.5" x2="185.5" y1="115.3125" y2="115.3125"/><polygon fill="#A80036" points="154.5,111.3125,144.5,115.3125,154.5,119.3125,150.5,115.3125" style="stroke: #A80036; stroke-width: 1.0;"/><text fill="#000000" font-family="sans-serif" font-size="13" lengthAdjust="spacingAndGlyphs" textLength="104" x="150.5" y="97.4561">setConfig(String[])</text><line style="stroke: #A80036; stroke-width: 1.0;" x1="143.5" x2="185.5" y1="145.6641" y2="145.6641"/><line style="stroke: #A80036; stroke-width: 1.0;" x1="185.5" x2="185.5" y1="145.6641" y2="158.6641"/><line style="stroke: #A80036; stroke-width: 1.0;" x1="144.5" x2="185.5" y1="158.6641" y2="158.6641"/><polygon fill="#A80036" points="154.5,154.6641,144.5,158.6641,154.5,162.6641,150.5,158.6641" style="stroke: #A80036; stroke-width: 1.0;"/><text fill="#000000" font-family="sans-serif" font-size="13" lengthAdjust="spacingAndGlyphs" textLength="141" x="150.5" y="140.8076">preprocessArgs(String[])</text><line style="stroke: #A80036; stroke-width: 1.0; stroke-dasharray: 2.0,2.0;" x1="143.5" x2="185.5" y1="189.0156" y2="189.0156"/><line style="stroke: #A80036; stroke-width: 1.0; stroke-dasharray: 2.0,2.0;" x1="185.5" x2="185.5" y1="189.0156" y2="202.0156"/><line style="stroke: #A80036; stroke-width: 1.0; stroke-dasharray: 2.0,2.0;" x1="144.5" x2="185.5" y1="202.0156" y2="202.0156"/><polygon fill="#A80036" points="154.5,198.0156,144.5,202.0156,154.5,206.0156,150.5,202.0156" style="stroke: #A80036; stroke-width: 1.0;"/><text fill="#000000" font-family="sans-serif" font-size="13" lengthAdjust="spacingAndGlyphs" textLength="42" x="150.5" y="184.1592">String[]</text><line style="stroke: #A80036; stroke-width: 1.0;" x1="143.5" x2="185.5" y1="232.3672" y2="232.3672"/><line style="stroke: #A80036; stroke-width: 1.0;" x1="185.5" x2="185.5" y1="232.3672" y2="245.3672"/><line style="stroke: #A80036; stroke-width: 1.0;" x1="144.5" x2="185.5" y1="245.3672" y2="245.3672"/><polygon fill="#A80036" points="154.5,241.3672,144.5,245.3672,154.5,249.3672,150.5,245.3672" style="stroke: #A80036; stroke-width: 1.0;"/><text fill="#000000" font-family="sans-serif" font-size="13" lengthAdjust="spacingAndGlyphs" textLength="82" x="150.5" y="227.5107">parse(String[])</text><polygon fill="#A80036" points="463.5,271.3672,473.5,275.3672,463.5,279.3672,467.5,275.3672" style="stroke: #A80036; stroke-width: 1.0;"/><line style="stroke: #A80036; stroke-width: 1.0;" x1="143.5" x2="469.5" y1="275.3672" y2="275.3672"/><text fill="#000000" font-family="sans-serif" font-size="13" lengthAdjust="spacingAndGlyphs" textLength="44" x="150.5" y="270.8623">create()</text><polygon fill="#A80036" points="154.5,301.7188,144.5,305.7188,154.5,309.7188,150.5,305.7188" style="stroke: #A80036; stroke-width: 1.0;"/><line style="stroke: #A80036; stroke-width: 1.0; stroke-dasharray: 2.0,2.0;" x1="148.5" x2="474.5" y1="305.7188" y2="305.7188"/><text fill="#000000" font-family="sans-serif" font-size="13" lengthAdjust="spacingAndGlyphs" textLength="105" x="160.5" y="301.2139">ArrayListMultimap</text><polygon fill="#A80036" points="463.5,332.0703,473.5,336.0703,463.5,340.0703,467.5,336.0703" style="stroke: #A80036; stroke-width: 1.0;"/><line style="stroke: #A80036; stroke-width: 1.0;" x1="143.5" x2="469.5" y1="336.0703" y2="336.0703"/><text fill="#000000" font-family="sans-serif" font-size="13" lengthAdjust="spacingAndGlyphs" textLength="106" x="150.5" y="331.5654">put(Object,Object)</text><polygon fill="#A80036" points="154.5,362.4219,144.5,366.4219,154.5,370.4219,150.5,366.4219" style="stroke: #A80036; stroke-width: 1.0;"/><line style="stroke: #A80036; stroke-width: 1.0; stroke-dasharray: 2.0,2.0;" x1="148.5" x2="474.5" y1="366.4219" y2="366.4219"/><text fill="#000000" font-family="sans-serif" font-size="13" lengthAdjust="spacingAndGlyphs" textLength="45" x="160.5" y="361.917">boolean</text><polygon fill="#A80036" points="463.5,392.7734,473.5,396.7734,463.5,400.7734,467.5,396.7734" style="stroke: #A80036; stroke-width: 1.0;"/><line style="stroke: #A80036; stroke-width: 1.0;" x1="143.5" x2="469.5" y1="396.7734" y2="396.7734"/><text fill="#000000" font-family="sans-serif" font-size="13" lengthAdjust="spacingAndGlyphs" textLength="106" x="150.5" y="392.2686">put(Object,Object)</text><polygon fill="#A80036" points="154.5,423.125,144.5,427.125,154.5,431.125,150.5,427.125" style="stroke: #A80036; stroke-width: 1.0;"/><line style="stroke: #A80036; stroke-width: 1.0; stroke-dasharray: 2.0,2.0;" x1="148.5" x2="474.5" y1="427.125" y2="427.125"/><text fill="#000000" font-family="sans-serif" font-size="13" lengthAdjust="spacingAndGlyphs" textLength="45" x="160.5" y="422.6201">boolean</text><line style="stroke: #A80036; stroke-width: 1.0; stroke-dasharray: 2.0,2.0;" x1="143.5" x2="185.5" y1="457.8281" y2="457.8281"/><line style="stroke: #A80036; stroke-width: 1.0; stroke-dasharray: 2.0,2.0;" x1="185.5" x2="185.5" y1="457.8281" y2="470.8281"/><line style="stroke: #A80036; stroke-width: 1.0; stroke-dasharray: 2.0,2.0;" x1="144.5" x2="185.5" y1="470.8281" y2="470.8281"/><polygon fill="#A80036" points="154.5,466.8281,144.5,470.8281,154.5,474.8281,150.5,470.8281" style="stroke: #A80036; stroke-width: 1.0;"/><text fill="#000000" font-family="sans-serif" font-size="13" lengthAdjust="spacingAndGlyphs" textLength="162" x="150.5" y="452.9717">ListMultimap&lt;String,String&gt;</text><line style="stroke: #A80036; stroke-width: 1.0;" x1="143.5" x2="185.5" y1="501.1797" y2="501.1797"/><line style="stroke: #A80036; stroke-width: 1.0;" x1="185.5" x2="185.5" y1="501.1797" y2="514.1797"/><line style="stroke: #A80036; stroke-width: 1.0;" x1="144.5" x2="185.5" y1="514.1797" y2="514.1797"/><polygon fill="#A80036" points="154.5,510.1797,144.5,514.1797,154.5,518.1797,150.5,514.1797" style="stroke: #A80036; stroke-width: 1.0;"/><text fill="#000000" font-family="sans-serif" font-size="13" lengthAdjust="spacingAndGlyphs" textLength="251" x="150.5" y="496.3232">loadConfigFile(ListMultimap&lt;String,String&gt;)</text><polygon fill="#A80036" points="463.5,540.1797,473.5,544.1797,463.5,548.1797,467.5,544.1797" style="stroke: #A80036; stroke-width: 1.0;"/><line style="stroke: #A80036; stroke-width: 1.0;" x1="143.5" x2="469.5" y1="544.1797" y2="544.1797"/><text fill="#000000" font-family="sans-serif" font-size="13" lengthAdjust="spacingAndGlyphs" textLength="64" x="150.5" y="539.6748">get(Object)</text><polygon fill="#A80036" points="154.5,570.5313,144.5,574.5313,154.5,578.5313,150.5,574.5313" style="stroke: #A80036; stroke-width: 1.0;"/><line style="stroke: #A80036; stroke-width: 1.0; stroke-dasharray: 2.0,2.0;" x1="148.5" x2="474.5" y1="574.5313" y2="574.5313"/><text fill="#000000" font-family="sans-serif" font-size="13" lengthAdjust="spacingAndGlyphs" textLength="21" x="160.5" y="570.0264">List</text><line style="stroke: #A80036; stroke-width: 1.0; stroke-dasharray: 2.0,2.0;" x1="143.5" x2="185.5" y1="605.2344" y2="605.2344"/><line style="stroke: #A80036; stroke-width: 1.0; stroke-dasharray: 2.0,2.0;" x1="185.5" x2="185.5" y1="605.2344" y2="618.2344"/><line style="stroke: #A80036; stroke-width: 1.0; stroke-dasharray: 2.0,2.0;" x1="144.5" x2="185.5" y1="618.2344" y2="618.2344"/><polygon fill="#A80036" points="154.5,614.2344,144.5,618.2344,154.5,622.2344,150.5,618.2344" style="stroke: #A80036; stroke-width: 1.0;"/><text fill="#000000" font-family="sans-serif" font-size="13" lengthAdjust="spacingAndGlyphs" textLength="21" x="150.5" y="600.3779">File</text><line style="stroke: #A80036; stroke-width: 1.0;" x1="143.5" x2="185.5" y1="648.5859" y2="648.5859"/><line style="stroke: #A80036; stroke-width: 1.0;" x1="185.5" x2="185.5" y1="648.5859" y2="661.5859"/><line style="stroke: #A80036; stroke-width: 1.0;" x1="144.5" x2="185.5" y1="661.5859" y2="661.5859"/><polygon fill="#A80036" points="154.5,657.5859,144.5,661.5859,154.5,665.5859,150.5,661.5859" style="stroke: #A80036; stroke-width: 1.0;"/><text fill="#000000" font-family="sans-serif" font-size="13" lengthAdjust="spacingAndGlyphs" textLength="151" x="150.5" y="643.7295">setSystemProperties(File)</text><line style="stroke: #A80036; stroke-width: 1.0;" x1="143.5" x2="185.5" y1="691.9375" y2="691.9375"/><line style="stroke: #A80036; stroke-width: 1.0;" x1="185.5" x2="185.5" y1="691.9375" y2="704.9375"/><line style="stroke: #A80036; stroke-width: 1.0;" x1="144.5" x2="185.5" y1="704.9375" y2="704.9375"/><polygon fill="#A80036" points="154.5,700.9375,144.5,704.9375,154.5,708.9375,150.5,704.9375" style="stroke: #A80036; stroke-width: 1.0;"/><text fill="#000000" font-family="sans-serif" font-size="13" lengthAdjust="spacingAndGlyphs" textLength="318" x="150.5" y="687.0811">overrideSystemProperties(ListMultimap&lt;String,String&gt;)</text><polygon fill="#A80036" points="463.5,730.9375,473.5,734.9375,463.5,738.9375,467.5,734.9375" style="stroke: #A80036; stroke-width: 1.0;"/><line style="stroke: #A80036; stroke-width: 1.0;" x1="143.5" x2="469.5" y1="734.9375" y2="734.9375"/><text fill="#000000" font-family="sans-serif" font-size="13" lengthAdjust="spacingAndGlyphs" textLength="36" x="150.5" y="730.4326">keys()</text><polygon fill="#A80036" points="154.5,761.2891,144.5,765.2891,154.5,769.2891,150.5,765.2891" style="stroke: #A80036; stroke-width: 1.0;"/><line style="stroke: #A80036; stroke-width: 1.0; stroke-dasharray: 2.0,2.0;" x1="148.5" x2="474.5" y1="765.2891" y2="765.2891"/><text fill="#000000" font-family="sans-serif" font-size="13" lengthAdjust="spacingAndGlyphs" textLength="46" x="160.5" y="760.7842">Multiset</text><polygon fill="#A80036" points="595,791.6406,605,795.6406,595,799.6406,599,795.6406" style="stroke: #A80036; stroke-width: 1.0;"/><line style="stroke: #A80036; stroke-width: 1.0;" x1="143.5" x2="601" y1="795.6406" y2="795.6406"/><text fill="#000000" font-family="sans-serif" font-size="13" lengthAdjust="spacingAndGlyphs" textLength="121" x="150.5" y="791.1357">accept(ListMultimap)</text><polygon fill="#A80036" points="154.5,821.9922,144.5,825.9922,154.5,829.9922,150.5,825.9922" style="stroke: #A80036; stroke-width: 1.0;"/><line style="stroke: #A80036; stroke-width: 1.0; stroke-dasharray: 2.0,2.0;" x1="148.5" x2="606" y1="825.9922" y2="825.9922"/><text fill="#000000" font-family="sans-serif" font-size="13" lengthAdjust="spacingAndGlyphs" textLength="59" x="160.5" y="821.4873">Consumer</text><polygon fill="#A80036" points="718.5,852.3438,728.5,856.3438,718.5,860.3438,722.5,856.3438" style="stroke: #A80036; stroke-width: 1.0;"/><line style="stroke: #A80036; stroke-width: 1.0;" x1="40.5" x2="724.5" y1="856.3438" y2="856.3438"/><text fill="#000000" font-family="sans-serif" font-size="13" lengthAdjust="spacingAndGlyphs" textLength="123" x="47.5" y="851.8389">new PipelineModule()</text><polygon fill="#A80036" points="843.5,882.6953,853.5,886.6953,843.5,890.6953,847.5,886.6953" style="stroke: #A80036; stroke-width: 1.0;"/><line style="stroke: #A80036; stroke-width: 1.0;" x1="730.5" x2="849.5" y1="886.6953" y2="886.6953"/><text fill="#000000" font-family="sans-serif" font-size="13" lengthAdjust="spacingAndGlyphs" textLength="40" x="737.5" y="882.1904">super()</text><polygon fill="#A80036" points="969.5,913.0469,979.5,917.0469,969.5,921.0469,973.5,917.0469" style="stroke: #A80036; stroke-width: 1.0;"/><line style="stroke: #A80036; stroke-width: 1.0;" x1="730.5" x2="975.5" y1="917.0469" y2="917.0469"/><text fill="#000000" font-family="sans-serif" font-size="13" lengthAdjust="spacingAndGlyphs" textLength="126" x="737.5" y="912.542">new AnalyzerBundle()</text><polygon fill="#A80036" points="1101,943.3984,1111,947.3984,1101,951.3984,1105,947.3984" style="stroke: #A80036; stroke-width: 1.0;"/><line style="stroke: #A80036; stroke-width: 1.0;" x1="40.5" x2="1107" y1="947.3984" y2="947.3984"/><text fill="#000000" font-family="sans-serif" font-size="13" lengthAdjust="spacingAndGlyphs" textLength="134" x="47.5" y="942.8936">new ReflectionModule()</text><polygon fill="#A80036" points="866.5,973.75,856.5,977.75,866.5,981.75,862.5,977.75" style="stroke: #A80036; stroke-width: 1.0;"/><line style="stroke: #A80036; stroke-width: 1.0;" x1="860.5" x2="1112" y1="977.75" y2="977.75"/><text fill="#000000" font-family="sans-serif" font-size="13" lengthAdjust="spacingAndGlyphs" textLength="40" x="872.5" y="973.2451">super()</text><polygon fill="#A80036" points="1202,1004.1016,1212,1008.1016,1202,1012.1016,1206,1008.1016" style="stroke: #A80036; stroke-width: 1.0;"/><line style="stroke: #A80036; stroke-width: 1.0;" x1="40.5" x2="1208" y1="1008.1016" y2="1008.1016"/><text fill="#000000" font-family="sans-serif" font-size="13" lengthAdjust="spacingAndGlyphs" textLength="136" x="47.5" y="1003.5967">createInjector(Module[])</text><polygon fill="#A80036" points="51.5,1034.4531,41.5,1038.4531,51.5,1042.4531,47.5,1038.4531" style="stroke: #A80036; stroke-width: 1.0;"/><line style="stroke: #A80036; stroke-width: 1.0; stroke-dasharray: 2.0,2.0;" x1="45.5" x2="1213" y1="1038.4531" y2="1038.4531"/><text fill="#000000" font-family="sans-serif" font-size="13" lengthAdjust="spacingAndGlyphs" textLength="42" x="57.5" y="1033.9482">Injector</text><polygon fill="#A80036" points="1280.5,1064.8047,1290.5,1068.8047,1280.5,1072.8047,1284.5,1068.8047" style="stroke: #A80036; stroke-width: 1.0;"/><line style="stroke: #A80036; stroke-width: 1.0;" x1="40.5" x2="1286.5" y1="1068.8047" y2="1068.8047"/><text fill="#000000" font-family="sans-serif" font-size="13" lengthAdjust="spacingAndGlyphs" textLength="100" x="47.5" y="1064.2998">executePipeline()</text><polygon fill="#A80036" points="1449.5,1095.1563,1459.5,1099.1563,1449.5,1103.1563,1453.5,1099.1563" style="stroke: #A80036; stroke-width: 1.0;"/><line style="stroke: #A80036; stroke-width: 1.0;" x1="1292.5" x2="1455.5" y1="1099.1563" y2="1099.1563"/><text fill="#000000" font-family="sans-serif" font-size="13" lengthAdjust="spacingAndGlyphs" textLength="145" x="1299.5" y="1094.6514">execute(AnalyzerBundle)</text><polygon fill="#A80036" points="1582.5,1125.5078,1592.5,1129.5078,1582.5,1133.5078,1586.5,1129.5078" style="stroke: #A80036; stroke-width: 1.0;"/><line style="stroke: #A80036; stroke-width: 1.0;" x1="1461.5" x2="1588.5" y1="1129.5078" y2="1129.5078"/><text fill="#000000" font-family="sans-serif" font-size="13" lengthAdjust="spacingAndGlyphs" textLength="69" x="1468.5" y="1125.0029">getClasses)</text><polygon fill="#A80036" points="1472.5,1155.8594,1462.5,1159.8594,1472.5,1163.8594,1468.5,1159.8594" style="stroke: #A80036; stroke-width: 1.0;"/><line style="stroke: #A80036; stroke-width: 1.0; stroke-dasharray: 2.0,2.0;" x1="1466.5" x2="1593.5" y1="1159.8594" y2="1159.8594"/><text fill="#000000" font-family="sans-serif" font-size="13" lengthAdjust="spacingAndGlyphs" textLength="109" x="1478.5" y="1155.3545">Chain&lt;SootClass&gt;</text><polygon fill="#A80036" points="1687,1186.2109,1697,1190.2109,1687,1194.2109,1691,1190.2109" style="stroke: #A80036; stroke-width: 1.0;"/><line style="stroke: #A80036; stroke-width: 1.0;" x1="1461.5" x2="1693" y1="1190.2109" y2="1190.2109"/><text fill="#000000" font-family="sans-serif" font-size="13" lengthAdjust="spacingAndGlyphs" textLength="136" x="1468.5" y="1185.7061">new GridPatternGroup()</text><polygon fill="#A80036" points="1817.5,1216.5625,1827.5,1220.5625,1817.5,1224.5625,1821.5,1220.5625" style="stroke: #A80036; stroke-width: 1.0;"/><line style="stroke: #A80036; stroke-width: 1.0;" x1="1461.5" x2="1823.5" y1="1220.5625" y2="1220.5625"/><text fill="#000000" font-family="sans-serif" font-size="13" lengthAdjust="spacingAndGlyphs" textLength="48" x="1468.5" y="1216.0576">iterator()</text><polygon fill="#A80036" points="1472.5,1246.9141,1462.5,1250.9141,1472.5,1254.9141,1468.5,1250.9141" style="stroke: #A80036; stroke-width: 1.0;"/><line style="stroke: #A80036; stroke-width: 1.0; stroke-dasharray: 2.0,2.0;" x1="1466.5" x2="1828.5" y1="1250.9141" y2="1250.9141"/><text fill="#000000" font-family="sans-serif" font-size="13" lengthAdjust="spacingAndGlyphs" textLength="40" x="1478.5" y="1246.4092">Iterator</text><polygon fill="#A80036" points="1921.5,1277.2656,1931.5,1281.2656,1921.5,1285.2656,1925.5,1281.2656" style="stroke: #A80036; stroke-width: 1.0;"/><line style="stroke: #A80036; stroke-width: 1.0;" x1="1461.5" x2="1927.5" y1="1281.2656" y2="1281.2656"/><text fill="#000000" font-family="sans-serif" font-size="13" lengthAdjust="spacingAndGlyphs" textLength="56" x="1468.5" y="1276.7607">hasNext()</text><polygon fill="#A80036" points="1472.5,1307.6172,1462.5,1311.6172,1472.5,1315.6172,1468.5,1311.6172" style="stroke: #A80036; stroke-width: 1.0;"/><line style="stroke: #A80036; stroke-width: 1.0; stroke-dasharray: 2.0,2.0;" x1="1466.5" x2="1932.5" y1="1311.6172" y2="1311.6172"/><text fill="#000000" font-family="sans-serif" font-size="13" lengthAdjust="spacingAndGlyphs" textLength="45" x="1478.5" y="1307.1123">boolean</text><polygon fill="#A80036" points="1921.5,1337.9688,1931.5,1341.9688,1921.5,1345.9688,1925.5,1341.9688" style="stroke: #A80036; stroke-width: 1.0;"/><line style="stroke: #A80036; stroke-width: 1.0;" x1="1461.5" x2="1927.5" y1="1341.9688" y2="1341.9688"/><text fill="#000000" font-family="sans-serif" font-size="13" lengthAdjust="spacingAndGlyphs" textLength="33" x="1468.5" y="1337.4639">next()</text><polygon fill="#A80036" points="1472.5,1368.3203,1462.5,1372.3203,1472.5,1376.3203,1468.5,1372.3203" style="stroke: #A80036; stroke-width: 1.0;"/><line style="stroke: #A80036; stroke-width: 1.0; stroke-dasharray: 2.0,2.0;" x1="1466.5" x2="1932.5" y1="1372.3203" y2="1372.3203"/><text fill="#000000" font-family="sans-serif" font-size="13" lengthAdjust="spacingAndGlyphs" textLength="38" x="1478.5" y="1367.8154">Object</text><polygon fill="#A80036" points="2006.5,1398.6719,2016.5,1402.6719,2006.5,1406.6719,2010.5,1402.6719" style="stroke: #A80036; stroke-width: 1.0;"/><line style="stroke: #A80036; stroke-width: 1.0;" x1="1461.5" x2="2012.5" y1="1402.6719" y2="1402.6719"/><text fill="#000000" font-family="sans-serif" font-size="13" lengthAdjust="spacingAndGlyphs" textLength="146" x="1468.5" y="1398.167">passesFilters(SootClass)</text><polygon fill="#A80036" points="1944.5,1429.0234,1934.5,1433.0234,1944.5,1437.0234,1940.5,1433.0234" style="stroke: #A80036; stroke-width: 1.0;"/><line style="stroke: #A80036; stroke-width: 1.0;" x1="1938.5" x2="2017.5" y1="1433.0234" y2="1433.0234"/><text fill="#000000" font-family="sans-serif" font-size="13" lengthAdjust="spacingAndGlyphs" textLength="56" x="1950.5" y="1428.5186">hasNext()</text><polygon fill="#A80036" points="2006.5,1459.375,2016.5,1463.375,2006.5,1467.375,2010.5,1463.375" style="stroke: #A80036; stroke-width: 1.0;"/><line style="stroke: #A80036; stroke-width: 1.0; stroke-dasharray: 2.0,2.0;" x1="1933.5" x2="2012.5" y1="1463.375" y2="1463.375"/><text fill="#000000" font-family="sans-serif" font-size="13" lengthAdjust="spacingAndGlyphs" textLength="45" x="1940.5" y="1458.8701">boolean</text><polygon fill="#A80036" points="1944.5,1489.7266,1934.5,1493.7266,1944.5,1497.7266,1940.5,1493.7266" style="stroke: #A80036; stroke-width: 1.0;"/><line style="stroke: #A80036; stroke-width: 1.0;" x1="1938.5" x2="2017.5" y1="1493.7266" y2="1493.7266"/><text fill="#000000" font-family="sans-serif" font-size="13" lengthAdjust="spacingAndGlyphs" textLength="33" x="1950.5" y="1489.2217">next()</text><polygon fill="#A80036" points="2006.5,1520.0781,2016.5,1524.0781,2006.5,1528.0781,2010.5,1524.0781" style="stroke: #A80036; stroke-width: 1.0;"/><line style="stroke: #A80036; stroke-width: 1.0; stroke-dasharray: 2.0,2.0;" x1="1933.5" x2="2012.5" y1="1524.0781" y2="1524.0781"/><text fill="#000000" font-family="sans-serif" font-size="13" lengthAdjust="spacingAndGlyphs" textLength="38" x="1940.5" y="1519.5732">Object</text><polygon fill="#A80036" points="2184.5,1550.4297,2194.5,1554.4297,2184.5,1558.4297,2188.5,1554.4297" style="stroke: #A80036; stroke-width: 1.0;"/><line style="stroke: #A80036; stroke-width: 1.0;" x1="2018.5" x2="2190.5" y1="1554.4297" y2="1554.4297"/><text fill="#000000" font-family="sans-serif" font-size="13" lengthAdjust="spacingAndGlyphs" textLength="154" x="2025.5" y="1549.9248">shouldProcess(SootClass)</text><polygon fill="#A80036" points="2029.5,1580.7813,2019.5,1584.7813,2029.5,1588.7813,2025.5,1584.7813" style="stroke: #A80036; stroke-width: 1.0;"/><line style="stroke: #A80036; stroke-width: 1.0; stroke-dasharray: 2.0,2.0;" x1="2023.5" x2="2195.5" y1="1584.7813" y2="1584.7813"/><text fill="#000000" font-family="sans-serif" font-size="13" lengthAdjust="spacingAndGlyphs" textLength="45" x="2035.5" y="1580.2764">boolean</text><polygon fill="#A80036" points="1472.5,1611.1328,1462.5,1615.1328,1472.5,1619.1328,1468.5,1615.1328" style="stroke: #A80036; stroke-width: 1.0;"/><line style="stroke: #A80036; stroke-width: 1.0; stroke-dasharray: 2.0,2.0;" x1="1466.5" x2="2017.5" y1="1615.1328" y2="1615.1328"/><text fill="#000000" font-family="sans-serif" font-size="13" lengthAdjust="spacingAndGlyphs" textLength="45" x="1478.5" y="1610.6279">boolean</text><polygon fill="#A80036" points="1303.5,1641.4844,1293.5,1645.4844,1303.5,1649.4844,1299.5,1645.4844" style="stroke: #A80036; stroke-width: 1.0;"/><line style="stroke: #A80036; stroke-width: 1.0; stroke-dasharray: 2.0,2.0;" x1="1297.5" x2="1460.5" y1="1645.4844" y2="1645.4844"/><text fill="#000000" font-family="sans-serif" font-size="13" lengthAdjust="spacingAndGlyphs" textLength="91" x="1309.5" y="1640.9795">AnalyzerBundle</text><polygon fill="#A80036" points="51.5,1671.8359,41.5,1675.8359,51.5,1679.8359,47.5,1675.8359" style="stroke: #A80036; stroke-width: 1.0;"/><line style="stroke: #A80036; stroke-width: 1.0; stroke-dasharray: 2.0,2.0;" x1="45.5" x2="1291.5" y1="1675.8359" y2="1675.8359"/><text fill="#000000" font-family="sans-serif" font-size="13" lengthAdjust="spacingAndGlyphs" textLength="91" x="57.5" y="1671.3311">AnalyzerBundle</text></g></svg>