<?xml version="1.0" encoding="UTF-8" standalone="no"?><svg xmlns="http://www.w3.org/2000/svg" xmlns:xlink="http://www.w3.org/1999/xlink" contentScriptType="application/ecmascript" contentStyleType="text/css" height="344px" preserveAspectRatio="none" style="width:912px;height:344px;" version="1.1" viewBox="0 0 912 344" width="912px" zoomAndPan="magnify"><defs><filter height="300%" id="f1s2um389tyj6n" width="300%" x="-1" y="-1"><feGaussianBlur result="blurOut" stdDeviation="2.0"/><feColorMatrix in="blurOut" result="blurOut2" type="matrix" values="0 0 0 0 0 0 0 0 0 0 0 0 0 0 0 0 0 0 .4 0"/><feOffset dx="4.0" dy="4.0" in="blurOut2" result="blurOut3"/><feBlend in="SourceGraphic" in2="blurOut3" mode="normal"/></filter></defs><g><rect fill="#FFFFFF" filter="url(#f1s2um389tyj6n)" height="121.4063" style="stroke: #A80036; stroke-width: 1.0;" width="10" x="240" y="162.6641"/><rect fill="#FFFFFF" filter="url(#f1s2um389tyj6n)" height="161.1094" style="stroke: #A80036; stroke-width: 1.0;" width="10" x="421" y="132.3125"/><line style="stroke: #A80036; stroke-width: 1.0; stroke-dasharray: 5.0,5.0;" x1="76" x2="76" y1="39.6094" y2="302.4219"/><line style="stroke: #A80036; stroke-width: 1.0; stroke-dasharray: 5.0,5.0;" x1="245" x2="245" y1="39.6094" y2="302.4219"/><line style="stroke: #A80036; stroke-width: 1.0; stroke-dasharray: 5.0,5.0;" x1="426" x2="426" y1="39.6094" y2="302.4219"/><line style="stroke: #A80036; stroke-width: 1.0; stroke-dasharray: 5.0,5.0;" x1="568" x2="568" y1="39.6094" y2="302.4219"/><line style="stroke: #A80036; stroke-width: 1.0; stroke-dasharray: 5.0,5.0;" x1="709" x2="709" y1="39.6094" y2="302.4219"/><line style="stroke: #A80036; stroke-width: 1.0; stroke-dasharray: 5.0,5.0;" x1="839" x2="839" y1="39.6094" y2="302.4219"/><rect fill="#FEFECE" filter="url(#f1s2um389tyj6n)" height="31.6094" style="stroke: #A80036; stroke-width: 1.5;" width="132" x="8" y="3"/><text fill="#000000" font-family="sans-serif" font-size="14" lengthAdjust="spacingAndGlyphs" textLength="118" x="15" y="24.5332">CheeseCakeClient</text><rect fill="#FEFECE" filter="url(#f1s2um389tyj6n)" height="31.6094" style="stroke: #A80036; stroke-width: 1.5;" width="132" x="8" y="301.4219"/><text fill="#000000" font-family="sans-serif" font-size="14" lengthAdjust="spacingAndGlyphs" textLength="118" x="15" y="322.9551">CheeseCakeClient</text><rect fill="#FEFECE" filter="url(#f1s2um389tyj6n)" height="31.6094" style="stroke: #A80036; stroke-width: 1.5;" width="144" x="171" y="3"/><text fill="#000000" font-family="sans-serif" font-size="14" lengthAdjust="spacingAndGlyphs" textLength="130" x="178" y="24.5332">CheeseCakeFactory</text><rect fill="#FEFECE" filter="url(#f1s2um389tyj6n)" height="31.6094" style="stroke: #A80036; stroke-width: 1.5;" width="144" x="171" y="301.4219"/><text fill="#000000" font-family="sans-serif" font-size="14" lengthAdjust="spacingAndGlyphs" textLength="130" x="178" y="322.9551">CheeseCakeFactory</text><rect fill="#FEFECE" filter="url(#f1s2um389tyj6n)" height="31.6094" style="stroke: #A80036; stroke-width: 1.5;" width="108" x="370" y="3"/><text fill="#000000" font-family="sans-serif" font-size="14" lengthAdjust="spacingAndGlyphs" textLength="94" x="377" y="24.5332">CheeseCakeUI</text><rect fill="#FEFECE" filter="url(#f1s2um389tyj6n)" height="31.6094" style="stroke: #A80036; stroke-width: 1.5;" width="108" x="370" y="301.4219"/><text fill="#000000" font-family="sans-serif" font-size="14" lengthAdjust="spacingAndGlyphs" textLength="94" x="377" y="322.9551">CheeseCakeUI</text><rect fill="#FEFECE" filter="url(#f1s2um389tyj6n)" height="31.6094" style="stroke: #A80036; stroke-width: 1.5;" width="149" x="492" y="3"/><text fill="#000000" font-family="sans-serif" font-size="14" lengthAdjust="spacingAndGlyphs" textLength="135" x="499" y="24.5332">GrahamCrackerCrust</text><rect fill="#FEFECE" filter="url(#f1s2um389tyj6n)" height="31.6094" style="stroke: #A80036; stroke-width: 1.5;" width="149" x="492" y="301.4219"/><text fill="#000000" font-family="sans-serif" font-size="14" lengthAdjust="spacingAndGlyphs" textLength="135" x="499" y="322.9551">GrahamCrackerCrust</text><rect fill="#FEFECE" filter="url(#f1s2um389tyj6n)" height="31.6094" style="stroke: #A80036; stroke-width: 1.5;" width="105" x="655" y="3"/><text fill="#000000" font-family="sans-serif" font-size="14" lengthAdjust="spacingAndGlyphs" textLength="91" x="662" y="24.5332">CreamCheese</text><rect fill="#FEFECE" filter="url(#f1s2um389tyj6n)" height="31.6094" style="stroke: #A80036; stroke-width: 1.5;" width="105" x="655" y="301.4219"/><text fill="#000000" font-family="sans-serif" font-size="14" lengthAdjust="spacingAndGlyphs" textLength="91" x="662" y="322.9551">CreamCheese</text><rect fill="#FEFECE" filter="url(#f1s2um389tyj6n)" height="31.6094" style="stroke: #A80036; stroke-width: 1.5;" width="127" x="774" y="3"/><text fill="#000000" font-family="sans-serif" font-size="14" lengthAdjust="spacingAndGlyphs" textLength="113" x="781" y="24.5332">PlainCheeseCake</text><rect fill="#FEFECE" filter="url(#f1s2um389tyj6n)" height="31.6094" style="stroke: #A80036; stroke-width: 1.5;" width="127" x="774" y="301.4219"/><text fill="#000000" font-family="sans-serif" font-size="14" lengthAdjust="spacingAndGlyphs" textLength="113" x="781" y="322.9551">PlainCheeseCake</text><rect fill="#FFFFFF" filter="url(#f1s2um389tyj6n)" height="121.4063" style="stroke: #A80036; stroke-width: 1.0;" width="10" x="240" y="162.6641"/><rect fill="#FFFFFF" filter="url(#f1s2um389tyj6n)" height="161.1094" style="stroke: #A80036; stroke-width: 1.0;" width="10" x="421" y="132.3125"/><polygon fill="#A80036" points="233,67.6094,243,71.6094,233,75.6094,237,71.6094" style="stroke: #A80036; stroke-width: 1.0;"/><line style="stroke: #A80036; stroke-width: 1.0;" x1="76" x2="239" y1="71.6094" y2="71.6094"/><text fill="#000000" font-family="sans-serif" font-size="13" lengthAdjust="spacingAndGlyphs" textLength="145" x="83" y="67.1045">new CheeseCakeFactory</text><polygon fill="#A80036" points="414,97.9609,424,101.9609,414,105.9609,418,101.9609" style="stroke: #A80036; stroke-width: 1.0;"/><line style="stroke: #A80036; stroke-width: 1.0;" x1="76" x2="420" y1="101.9609" y2="101.9609"/><text fill="#000000" font-family="sans-serif" font-size="13" lengthAdjust="spacingAndGlyphs" textLength="113" x="83" y="97.4561">new CheeseCakeUI</text><polygon fill="#A80036" points="409,128.3125,419,132.3125,409,136.3125,413,132.3125" style="stroke: #A80036; stroke-width: 1.0;"/><line style="stroke: #A80036; stroke-width: 1.0;" x1="76" x2="415" y1="132.3125" y2="132.3125"/><text fill="#000000" font-family="sans-serif" font-size="13" lengthAdjust="spacingAndGlyphs" textLength="38" x="83" y="127.8076">show()</text><polygon fill="#A80036" points="261,158.6641,251,162.6641,261,166.6641,257,162.6641" style="stroke: #A80036; stroke-width: 1.0;"/><line style="stroke: #A80036; stroke-width: 1.0;" x1="255" x2="420" y1="162.6641" y2="162.6641"/><text fill="#000000" font-family="sans-serif" font-size="13" lengthAdjust="spacingAndGlyphs" textLength="152" x="267" y="158.1592">createCheeseCake(String)</text><polygon fill="#A80036" points="556.5,189.0156,566.5,193.0156,556.5,197.0156,560.5,193.0156" style="stroke: #A80036; stroke-width: 1.0;"/><line style="stroke: #A80036; stroke-width: 1.0;" x1="250" x2="562.5" y1="193.0156" y2="193.0156"/><text fill="#000000" font-family="sans-serif" font-size="13" lengthAdjust="spacingAndGlyphs" textLength="149" x="257" y="188.5107">new GrahamCrackerCrust</text><polygon fill="#A80036" points="697.5,219.3672,707.5,223.3672,697.5,227.3672,701.5,223.3672" style="stroke: #A80036; stroke-width: 1.0;"/><line style="stroke: #A80036; stroke-width: 1.0;" x1="250" x2="703.5" y1="223.3672" y2="223.3672"/><text fill="#000000" font-family="sans-serif" font-size="13" lengthAdjust="spacingAndGlyphs" textLength="109" x="257" y="218.8623">new CreamCheese</text><polygon fill="#A80036" points="827.5,249.7188,837.5,253.7188,827.5,257.7188,831.5,253.7188" style="stroke: #A80036; stroke-width: 1.0;"/><line style="stroke: #A80036; stroke-width: 1.0;" x1="250" x2="833.5" y1="253.7188" y2="253.7188"/><text fill="#000000" font-family="sans-serif" font-size="13" lengthAdjust="spacingAndGlyphs" textLength="130" x="257" y="249.2139">new PlainCheeseCake</text><polygon fill="#A80036" points="409,280.0703,419,284.0703,409,288.0703,413,284.0703" style="stroke: #A80036; stroke-width: 1.0;"/><line style="stroke: #A80036; stroke-width: 1.0; stroke-dasharray: 2.0,2.0;" x1="245" x2="415" y1="284.0703" y2="284.0703"/><text fill="#000000" font-family="sans-serif" font-size="13" lengthAdjust="spacingAndGlyphs" textLength="103" x="252" y="279.5654">PlainCheeseCake</text></g></svg>