<?xml version="1.0" encoding="UTF-8" standalone="no"?><svg xmlns="http://www.w3.org/2000/svg" xmlns:xlink="http://www.w3.org/1999/xlink" contentScriptType="application/ecmascript" contentStyleType="text/css" height="1531px" preserveAspectRatio="none" style="width:1586px;height:1531px;" version="1.1" viewBox="0 0 1586 1531" width="1586px" zoomAndPan="magnify"><defs><filter height="300%" id="fntdy25f7l0t9" width="300%" x="-1" y="-1"><feGaussianBlur result="blurOut" stdDeviation="2.0"/><feColorMatrix in="blurOut" result="blurOut2" type="matrix" values="0 0 0 0 0 0 0 0 0 0 0 0 0 0 0 0 0 0 .4 0"/><feOffset dx="4.0" dy="4.0" in="blurOut2" result="blurOut3"/><feBlend in="SourceGraphic" in2="blurOut3" mode="normal"/></filter></defs><g><line style="stroke: #A80036; stroke-width: 1.0; stroke-dasharray: 5.0,5.0;" x1="40" x2="40" y1="39.6094" y2="1490.3203"/><line style="stroke: #A80036; stroke-width: 1.0; stroke-dasharray: 5.0,5.0;" x1="143" x2="143" y1="39.6094" y2="1490.3203"/><line style="stroke: #A80036; stroke-width: 1.0; stroke-dasharray: 5.0,5.0;" x1="319.5" x2="319.5" y1="39.6094" y2="1490.3203"/><line style="stroke: #A80036; stroke-width: 1.0; stroke-dasharray: 5.0,5.0;" x1="442.5" x2="442.5" y1="39.6094" y2="1490.3203"/><line style="stroke: #A80036; stroke-width: 1.0; stroke-dasharray: 5.0,5.0;" x1="556.5" x2="556.5" y1="39.6094" y2="1490.3203"/><line style="stroke: #A80036; stroke-width: 1.0; stroke-dasharray: 5.0,5.0;" x1="680.5" x2="680.5" y1="39.6094" y2="1490.3203"/><line style="stroke: #A80036; stroke-width: 1.0; stroke-dasharray: 5.0,5.0;" x1="810.5" x2="810.5" y1="39.6094" y2="1490.3203"/><line style="stroke: #A80036; stroke-width: 1.0; stroke-dasharray: 5.0,5.0;" x1="977.5" x2="977.5" y1="39.6094" y2="1490.3203"/><line style="stroke: #A80036; stroke-width: 1.0; stroke-dasharray: 5.0,5.0;" x1="1108.5" x2="1108.5" y1="39.6094" y2="1490.3203"/><line style="stroke: #A80036; stroke-width: 1.0; stroke-dasharray: 5.0,5.0;" x1="1187.5" x2="1187.5" y1="39.6094" y2="1490.3203"/><line style="stroke: #A80036; stroke-width: 1.0; stroke-dasharray: 5.0,5.0;" x1="1304.5" x2="1304.5" y1="39.6094" y2="1490.3203"/><line style="stroke: #A80036; stroke-width: 1.0; stroke-dasharray: 5.0,5.0;" x1="1439.5" x2="1439.5" y1="39.6094" y2="1490.3203"/><line style="stroke: #A80036; stroke-width: 1.0; stroke-dasharray: 5.0,5.0;" x1="1543.5" x2="1543.5" y1="39.6094" y2="1490.3203"/><rect fill="#FEFECE" filter="url(#fntdy25f7l0t9)" height="31.6094" style="stroke: #A80036; stroke-width: 1.5;" width="61" x="8" y="3"/><text fill="#000000" font-family="sans-serif" font-size="14" lengthAdjust="spacingAndGlyphs" textLength="47" x="15" y="24.5332">Runner</text><rect fill="#FEFECE" filter="url(#fntdy25f7l0t9)" height="31.6094" style="stroke: #A80036; stroke-width: 1.5;" width="61" x="8" y="1489.3203"/><text fill="#000000" font-family="sans-serif" font-size="14" lengthAdjust="spacingAndGlyphs" textLength="47" x="15" y="1510.8535">Runner</text><rect fill="#FEFECE" filter="url(#fntdy25f7l0t9)" height="31.6094" style="stroke: #A80036; stroke-width: 1.5;" width="117" x="83" y="3"/><text fill="#000000" font-family="sans-serif" font-size="14" lengthAdjust="spacingAndGlyphs" textLength="103" x="90" y="24.5332">PropertiesSetter</text><rect fill="#FEFECE" filter="url(#fntdy25f7l0t9)" height="31.6094" style="stroke: #A80036; stroke-width: 1.5;" width="117" x="83" y="1489.3203"/><text fill="#000000" font-family="sans-serif" font-size="14" lengthAdjust="spacingAndGlyphs" textLength="103" x="90" y="1510.8535">PropertiesSetter</text><rect fill="#FEFECE" filter="url(#fntdy25f7l0t9)" height="31.6094" style="stroke: #A80036; stroke-width: 1.5;" width="126" x="254.5" y="3"/><text fill="#000000" font-family="sans-serif" font-size="14" lengthAdjust="spacingAndGlyphs" textLength="112" x="261.5" y="24.5332">ArrayListMultimap</text><rect fill="#FEFECE" filter="url(#fntdy25f7l0t9)" height="31.6094" style="stroke: #A80036; stroke-width: 1.5;" width="126" x="254.5" y="1489.3203"/><text fill="#000000" font-family="sans-serif" font-size="14" lengthAdjust="spacingAndGlyphs" textLength="112" x="261.5" y="1510.8535">ArrayListMultimap</text><rect fill="#FEFECE" filter="url(#fntdy25f7l0t9)" height="31.6094" style="stroke: #A80036; stroke-width: 1.5;" width="92" x="394.5" y="3"/><text fill="#000000" font-family="sans-serif" font-size="14" lengthAdjust="spacingAndGlyphs" textLength="78" x="401.5" y="24.5332">ListMultimap</text><rect fill="#FEFECE" filter="url(#fntdy25f7l0t9)" height="31.6094" style="stroke: #A80036; stroke-width: 1.5;" width="92" x="394.5" y="1489.3203"/><text fill="#000000" font-family="sans-serif" font-size="14" lengthAdjust="spacingAndGlyphs" textLength="78" x="401.5" y="1510.8535">ListMultimap</text><rect fill="#FEFECE" filter="url(#fntdy25f7l0t9)" height="31.6094" style="stroke: #A80036; stroke-width: 1.5;" width="109" x="500.5" y="3"/><text fill="#000000" font-family="sans-serif" font-size="14" lengthAdjust="spacingAndGlyphs" textLength="95" x="507.5" y="24.5332">InvokeDynamic</text><rect fill="#FEFECE" filter="url(#fntdy25f7l0t9)" height="31.6094" style="stroke: #A80036; stroke-width: 1.5;" width="109" x="500.5" y="1489.3203"/><text fill="#000000" font-family="sans-serif" font-size="14" lengthAdjust="spacingAndGlyphs" textLength="95" x="507.5" y="1510.8535">InvokeDynamic</text><rect fill="#FEFECE" filter="url(#fntdy25f7l0t9)" height="31.6094" style="stroke: #A80036; stroke-width: 1.5;" width="110" x="623.5" y="3"/><text fill="#000000" font-family="sans-serif" font-size="14" lengthAdjust="spacingAndGlyphs" textLength="96" x="630.5" y="24.5332">PipelineModule</text><rect fill="#FEFECE" filter="url(#fntdy25f7l0t9)" height="31.6094" style="stroke: #A80036; stroke-width: 1.5;" width="110" x="623.5" y="1489.3203"/><text fill="#000000" font-family="sans-serif" font-size="14" lengthAdjust="spacingAndGlyphs" textLength="96" x="630.5" y="1510.8535">PipelineModule</text><rect fill="#FEFECE" filter="url(#fntdy25f7l0t9)" height="31.6094" style="stroke: #A80036; stroke-width: 1.5;" width="123" x="747.5" y="3"/><text fill="#000000" font-family="sans-serif" font-size="14" lengthAdjust="spacingAndGlyphs" textLength="109" x="754.5" y="24.5332">ReflectionModule</text><rect fill="#FEFECE" filter="url(#fntdy25f7l0t9)" height="31.6094" style="stroke: #A80036; stroke-width: 1.5;" width="123" x="747.5" y="1489.3203"/><text fill="#000000" font-family="sans-serif" font-size="14" lengthAdjust="spacingAndGlyphs" textLength="109" x="754.5" y="1510.8535">ReflectionModule</text><rect fill="#FEFECE" filter="url(#fntdy25f7l0t9)" height="31.6094" style="stroke: #A80036; stroke-width: 1.5;" width="183" x="884.5" y="3"/><text fill="#000000" font-family="sans-serif" font-size="14" lengthAdjust="spacingAndGlyphs" textLength="169" x="891.5" y="24.5332">RendererRelfectionModule</text><rect fill="#FEFECE" filter="url(#fntdy25f7l0t9)" height="31.6094" style="stroke: #A80036; stroke-width: 1.5;" width="183" x="884.5" y="1489.3203"/><text fill="#000000" font-family="sans-serif" font-size="14" lengthAdjust="spacingAndGlyphs" textLength="169" x="891.5" y="1510.8535">RendererRelfectionModule</text><rect fill="#FEFECE" filter="url(#fntdy25f7l0t9)" height="31.6094" style="stroke: #A80036; stroke-width: 1.5;" width="51" x="1081.5" y="3"/><text fill="#000000" font-family="sans-serif" font-size="14" lengthAdjust="spacingAndGlyphs" textLength="37" x="1088.5" y="24.5332">Guice</text><rect fill="#FEFECE" filter="url(#fntdy25f7l0t9)" height="31.6094" style="stroke: #A80036; stroke-width: 1.5;" width="51" x="1081.5" y="1489.3203"/><text fill="#000000" font-family="sans-serif" font-size="14" lengthAdjust="spacingAndGlyphs" textLength="37" x="1088.5" y="1510.8535">Guice</text><rect fill="#FEFECE" filter="url(#fntdy25f7l0t9)" height="31.6094" style="stroke: #A80036; stroke-width: 1.5;" width="78" x="1146.5" y="3"/><text fill="#000000" font-family="sans-serif" font-size="14" lengthAdjust="spacingAndGlyphs" textLength="64" x="1153.5" y="24.5332">Processor</text><rect fill="#FEFECE" filter="url(#fntdy25f7l0t9)" height="31.6094" style="stroke: #A80036; stroke-width: 1.5;" width="78" x="1146.5" y="1489.3203"/><text fill="#000000" font-family="sans-serif" font-size="14" lengthAdjust="spacingAndGlyphs" textLength="64" x="1153.5" y="1510.8535">Processor</text><rect fill="#FEFECE" filter="url(#fntdy25f7l0t9)" height="31.6094" style="stroke: #A80036; stroke-width: 1.5;" width="129" x="1238.5" y="3"/><text fill="#000000" font-family="sans-serif" font-size="14" lengthAdjust="spacingAndGlyphs" textLength="115" x="1245.5" y="24.5332">FileWriterAnalyzer</text><rect fill="#FEFECE" filter="url(#fntdy25f7l0t9)" height="31.6094" style="stroke: #A80036; stroke-width: 1.5;" width="129" x="1238.5" y="1489.3203"/><text fill="#000000" font-family="sans-serif" font-size="14" lengthAdjust="spacingAndGlyphs" textLength="115" x="1245.5" y="1510.8535">FileWriterAnalyzer</text><rect fill="#FEFECE" filter="url(#fntdy25f7l0t9)" height="31.6094" style="stroke: #A80036; stroke-width: 1.5;" width="112" x="1381.5" y="3"/><text fill="#000000" font-family="sans-serif" font-size="14" lengthAdjust="spacingAndGlyphs" textLength="98" x="1388.5" y="24.5332">AnalyzerBundle</text><rect fill="#FEFECE" filter="url(#fntdy25f7l0t9)" height="31.6094" style="stroke: #A80036; stroke-width: 1.5;" width="112" x="1381.5" y="1489.3203"/><text fill="#000000" font-family="sans-serif" font-size="14" lengthAdjust="spacingAndGlyphs" textLength="98" x="1388.5" y="1510.8535">AnalyzerBundle</text><rect fill="#FEFECE" filter="url(#fntdy25f7l0t9)" height="31.6094" style="stroke: #A80036; stroke-width: 1.5;" width="68" x="1507.5" y="3"/><text fill="#000000" font-family="sans-serif" font-size="14" lengthAdjust="spacingAndGlyphs" textLength="54" x="1514.5" y="24.5332">Analyzer</text><rect fill="#FEFECE" filter="url(#fntdy25f7l0t9)" height="31.6094" style="stroke: #A80036; stroke-width: 1.5;" width="68" x="1507.5" y="1489.3203"/><text fill="#000000" font-family="sans-serif" font-size="14" lengthAdjust="spacingAndGlyphs" textLength="54" x="1514.5" y="1510.8535">Analyzer</text><polygon fill="#A80036" points="131.5,67.6094,141.5,71.6094,131.5,75.6094,135.5,71.6094" style="stroke: #A80036; stroke-width: 1.0;"/><line style="stroke: #A80036; stroke-width: 1.0;" x1="40.5" x2="137.5" y1="71.6094" y2="71.6094"/><text fill="#000000" font-family="sans-serif" font-size="13" lengthAdjust="spacingAndGlyphs" textLength="18" x="47.5" y="67.1045">set</text><line style="stroke: #A80036; stroke-width: 1.0;" x1="143.5" x2="185.5" y1="102.3125" y2="102.3125"/><line style="stroke: #A80036; stroke-width: 1.0;" x1="185.5" x2="185.5" y1="102.3125" y2="115.3125"/><line style="stroke: #A80036; stroke-width: 1.0;" x1="144.5" x2="185.5" y1="115.3125" y2="115.3125"/><polygon fill="#A80036" points="154.5,111.3125,144.5,115.3125,154.5,119.3125,150.5,115.3125" style="stroke: #A80036; stroke-width: 1.0;"/><text fill="#000000" font-family="sans-serif" font-size="13" lengthAdjust="spacingAndGlyphs" textLength="54" x="150.5" y="97.4561">setConfig</text><line style="stroke: #A80036; stroke-width: 1.0;" x1="143.5" x2="185.5" y1="145.6641" y2="145.6641"/><line style="stroke: #A80036; stroke-width: 1.0;" x1="185.5" x2="185.5" y1="145.6641" y2="158.6641"/><line style="stroke: #A80036; stroke-width: 1.0;" x1="144.5" x2="185.5" y1="158.6641" y2="158.6641"/><polygon fill="#A80036" points="154.5,154.6641,144.5,158.6641,154.5,162.6641,150.5,158.6641" style="stroke: #A80036; stroke-width: 1.0;"/><text fill="#000000" font-family="sans-serif" font-size="13" lengthAdjust="spacingAndGlyphs" textLength="91" x="150.5" y="140.8076">preprocessArgs</text><line style="stroke: #A80036; stroke-width: 1.0;" x1="143.5" x2="185.5" y1="189.0156" y2="189.0156"/><line style="stroke: #A80036; stroke-width: 1.0;" x1="185.5" x2="185.5" y1="189.0156" y2="202.0156"/><line style="stroke: #A80036; stroke-width: 1.0;" x1="144.5" x2="185.5" y1="202.0156" y2="202.0156"/><polygon fill="#A80036" points="154.5,198.0156,144.5,202.0156,154.5,206.0156,150.5,202.0156" style="stroke: #A80036; stroke-width: 1.0;"/><text fill="#000000" font-family="sans-serif" font-size="13" lengthAdjust="spacingAndGlyphs" textLength="42" x="150.5" y="184.1592">String[]</text><line style="stroke: #A80036; stroke-width: 1.0;" x1="143.5" x2="185.5" y1="232.3672" y2="232.3672"/><line style="stroke: #A80036; stroke-width: 1.0;" x1="185.5" x2="185.5" y1="232.3672" y2="245.3672"/><line style="stroke: #A80036; stroke-width: 1.0;" x1="144.5" x2="185.5" y1="245.3672" y2="245.3672"/><polygon fill="#A80036" points="154.5,241.3672,144.5,245.3672,154.5,249.3672,150.5,245.3672" style="stroke: #A80036; stroke-width: 1.0;"/><text fill="#000000" font-family="sans-serif" font-size="13" lengthAdjust="spacingAndGlyphs" textLength="32" x="150.5" y="227.5107">parse</text><polygon fill="#A80036" points="307.5,271.3672,317.5,275.3672,307.5,279.3672,311.5,275.3672" style="stroke: #A80036; stroke-width: 1.0;"/><line style="stroke: #A80036; stroke-width: 1.0;" x1="143.5" x2="313.5" y1="275.3672" y2="275.3672"/><text fill="#000000" font-family="sans-serif" font-size="13" lengthAdjust="spacingAndGlyphs" textLength="36" x="150.5" y="270.8623">create</text><line style="stroke: #A80036; stroke-width: 1.0;" x1="319.5" x2="361.5" y1="306.0703" y2="306.0703"/><line style="stroke: #A80036; stroke-width: 1.0;" x1="361.5" x2="361.5" y1="306.0703" y2="319.0703"/><line style="stroke: #A80036; stroke-width: 1.0;" x1="320.5" x2="361.5" y1="319.0703" y2="319.0703"/><polygon fill="#A80036" points="330.5,315.0703,320.5,319.0703,330.5,323.0703,326.5,319.0703" style="stroke: #A80036; stroke-width: 1.0;"/><text fill="#000000" font-family="sans-serif" font-size="13" lengthAdjust="spacingAndGlyphs" textLength="105" x="326.5" y="301.2139">ArrayListMultimap</text><polygon fill="#A80036" points="307.5,345.0703,317.5,349.0703,307.5,353.0703,311.5,349.0703" style="stroke: #A80036; stroke-width: 1.0;"/><line style="stroke: #A80036; stroke-width: 1.0;" x1="143.5" x2="313.5" y1="349.0703" y2="349.0703"/><text fill="#000000" font-family="sans-serif" font-size="13" lengthAdjust="spacingAndGlyphs" textLength="18" x="150.5" y="344.5654">put</text><polygon fill="#A80036" points="430.5,375.4219,440.5,379.4219,430.5,383.4219,434.5,379.4219" style="stroke: #A80036; stroke-width: 1.0;"/><line style="stroke: #A80036; stroke-width: 1.0;" x1="319.5" x2="436.5" y1="379.4219" y2="379.4219"/><text fill="#000000" font-family="sans-serif" font-size="13" lengthAdjust="spacingAndGlyphs" textLength="45" x="326.5" y="374.917">boolean</text><polygon fill="#A80036" points="307.5,405.7734,317.5,409.7734,307.5,413.7734,311.5,409.7734" style="stroke: #A80036; stroke-width: 1.0;"/><line style="stroke: #A80036; stroke-width: 1.0;" x1="143.5" x2="313.5" y1="409.7734" y2="409.7734"/><text fill="#000000" font-family="sans-serif" font-size="13" lengthAdjust="spacingAndGlyphs" textLength="18" x="150.5" y="405.2686">put</text><polygon fill="#A80036" points="430.5,436.125,440.5,440.125,430.5,444.125,434.5,440.125" style="stroke: #A80036; stroke-width: 1.0;"/><line style="stroke: #A80036; stroke-width: 1.0;" x1="319.5" x2="436.5" y1="440.125" y2="440.125"/><text fill="#000000" font-family="sans-serif" font-size="13" lengthAdjust="spacingAndGlyphs" textLength="45" x="326.5" y="435.6201">boolean</text><line style="stroke: #A80036; stroke-width: 1.0;" x1="143.5" x2="185.5" y1="470.8281" y2="470.8281"/><line style="stroke: #A80036; stroke-width: 1.0;" x1="185.5" x2="185.5" y1="470.8281" y2="483.8281"/><line style="stroke: #A80036; stroke-width: 1.0;" x1="144.5" x2="185.5" y1="483.8281" y2="483.8281"/><polygon fill="#A80036" points="154.5,479.8281,144.5,483.8281,154.5,487.8281,150.5,483.8281" style="stroke: #A80036; stroke-width: 1.0;"/><text fill="#000000" font-family="sans-serif" font-size="13" lengthAdjust="spacingAndGlyphs" textLength="162" x="150.5" y="465.9717">ListMultimap&lt;String,String&gt;</text><line style="stroke: #A80036; stroke-width: 1.0;" x1="143.5" x2="185.5" y1="514.1797" y2="514.1797"/><line style="stroke: #A80036; stroke-width: 1.0;" x1="185.5" x2="185.5" y1="514.1797" y2="527.1797"/><line style="stroke: #A80036; stroke-width: 1.0;" x1="144.5" x2="185.5" y1="527.1797" y2="527.1797"/><polygon fill="#A80036" points="154.5,523.1797,144.5,527.1797,154.5,531.1797,150.5,527.1797" style="stroke: #A80036; stroke-width: 1.0;"/><text fill="#000000" font-family="sans-serif" font-size="13" lengthAdjust="spacingAndGlyphs" textLength="81" x="150.5" y="509.3232">loadConfigFile</text><polygon fill="#A80036" points="307.5,553.1797,317.5,557.1797,307.5,561.1797,311.5,557.1797" style="stroke: #A80036; stroke-width: 1.0;"/><line style="stroke: #A80036; stroke-width: 1.0;" x1="143.5" x2="313.5" y1="557.1797" y2="557.1797"/><text fill="#000000" font-family="sans-serif" font-size="13" lengthAdjust="spacingAndGlyphs" textLength="18" x="150.5" y="552.6748">get</text><polygon fill="#A80036" points="430.5,583.5313,440.5,587.5313,430.5,591.5313,434.5,587.5313" style="stroke: #A80036; stroke-width: 1.0;"/><line style="stroke: #A80036; stroke-width: 1.0;" x1="319.5" x2="436.5" y1="587.5313" y2="587.5313"/><text fill="#000000" font-family="sans-serif" font-size="13" lengthAdjust="spacingAndGlyphs" textLength="21" x="326.5" y="583.0264">List</text><line style="stroke: #A80036; stroke-width: 1.0;" x1="143.5" x2="185.5" y1="618.2344" y2="618.2344"/><line style="stroke: #A80036; stroke-width: 1.0;" x1="185.5" x2="185.5" y1="618.2344" y2="631.2344"/><line style="stroke: #A80036; stroke-width: 1.0;" x1="144.5" x2="185.5" y1="631.2344" y2="631.2344"/><polygon fill="#A80036" points="154.5,627.2344,144.5,631.2344,154.5,635.2344,150.5,631.2344" style="stroke: #A80036; stroke-width: 1.0;"/><text fill="#000000" font-family="sans-serif" font-size="13" lengthAdjust="spacingAndGlyphs" textLength="70" x="150.5" y="613.3779">InputStream</text><line style="stroke: #A80036; stroke-width: 1.0;" x1="143.5" x2="185.5" y1="661.5859" y2="661.5859"/><line style="stroke: #A80036; stroke-width: 1.0;" x1="185.5" x2="185.5" y1="661.5859" y2="674.5859"/><line style="stroke: #A80036; stroke-width: 1.0;" x1="144.5" x2="185.5" y1="674.5859" y2="674.5859"/><polygon fill="#A80036" points="154.5,670.5859,144.5,674.5859,154.5,678.5859,150.5,674.5859" style="stroke: #A80036; stroke-width: 1.0;"/><text fill="#000000" font-family="sans-serif" font-size="13" lengthAdjust="spacingAndGlyphs" textLength="122" x="150.5" y="656.7295">setSystemProperties</text><line style="stroke: #A80036; stroke-width: 1.0;" x1="143.5" x2="185.5" y1="704.9375" y2="704.9375"/><line style="stroke: #A80036; stroke-width: 1.0;" x1="185.5" x2="185.5" y1="704.9375" y2="717.9375"/><line style="stroke: #A80036; stroke-width: 1.0;" x1="144.5" x2="185.5" y1="717.9375" y2="717.9375"/><polygon fill="#A80036" points="154.5,713.9375,144.5,717.9375,154.5,721.9375,150.5,717.9375" style="stroke: #A80036; stroke-width: 1.0;"/><text fill="#000000" font-family="sans-serif" font-size="13" lengthAdjust="spacingAndGlyphs" textLength="148" x="150.5" y="700.0811">overrideSystemProperties</text><polygon fill="#A80036" points="307.5,743.9375,317.5,747.9375,307.5,751.9375,311.5,747.9375" style="stroke: #A80036; stroke-width: 1.0;"/><line style="stroke: #A80036; stroke-width: 1.0;" x1="143.5" x2="313.5" y1="747.9375" y2="747.9375"/><text fill="#000000" font-family="sans-serif" font-size="13" lengthAdjust="spacingAndGlyphs" textLength="28" x="150.5" y="743.4326">keys</text><polygon fill="#A80036" points="430.5,774.2891,440.5,778.2891,430.5,782.2891,434.5,778.2891" style="stroke: #A80036; stroke-width: 1.0;"/><line style="stroke: #A80036; stroke-width: 1.0;" x1="319.5" x2="436.5" y1="778.2891" y2="778.2891"/><text fill="#000000" font-family="sans-serif" font-size="13" lengthAdjust="spacingAndGlyphs" textLength="46" x="326.5" y="773.7842">Multiset</text><polygon fill="#A80036" points="545,804.6406,555,808.6406,545,812.6406,549,808.6406" style="stroke: #A80036; stroke-width: 1.0;"/><line style="stroke: #A80036; stroke-width: 1.0;" x1="143.5" x2="551" y1="808.6406" y2="808.6406"/><text fill="#000000" font-family="sans-serif" font-size="13" lengthAdjust="spacingAndGlyphs" textLength="39" x="150.5" y="804.1357">accept</text><line style="stroke: #A80036; stroke-width: 1.0;" x1="557" x2="599" y1="839.3438" y2="839.3438"/><line style="stroke: #A80036; stroke-width: 1.0;" x1="599" x2="599" y1="839.3438" y2="852.3438"/><line style="stroke: #A80036; stroke-width: 1.0;" x1="558" x2="599" y1="852.3438" y2="852.3438"/><polygon fill="#A80036" points="568,848.3438,558,852.3438,568,856.3438,564,852.3438" style="stroke: #A80036; stroke-width: 1.0;"/><text fill="#000000" font-family="sans-serif" font-size="13" lengthAdjust="spacingAndGlyphs" textLength="59" x="564" y="834.4873">Consumer</text><polygon fill="#A80036" points="668.5,878.3438,678.5,882.3438,668.5,886.3438,672.5,882.3438" style="stroke: #A80036; stroke-width: 1.0;"/><line style="stroke: #A80036; stroke-width: 1.0;" x1="40.5" x2="674.5" y1="882.3438" y2="882.3438"/><text fill="#000000" font-family="sans-serif" font-size="13" lengthAdjust="spacingAndGlyphs" textLength="115" x="47.5" y="877.8389">new PipelineModule</text><polygon fill="#A80036" points="799,908.6953,809,912.6953,799,916.6953,803,912.6953" style="stroke: #A80036; stroke-width: 1.0;"/><line style="stroke: #A80036; stroke-width: 1.0;" x1="40.5" x2="805" y1="912.6953" y2="912.6953"/><text fill="#000000" font-family="sans-serif" font-size="13" lengthAdjust="spacingAndGlyphs" textLength="126" x="47.5" y="908.1904">new ReflectionModule</text><polygon fill="#A80036" points="966,939.0469,976,943.0469,966,947.0469,970,943.0469" style="stroke: #A80036; stroke-width: 1.0;"/><line style="stroke: #A80036; stroke-width: 1.0;" x1="40.5" x2="972" y1="943.0469" y2="943.0469"/><text fill="#000000" font-family="sans-serif" font-size="13" lengthAdjust="spacingAndGlyphs" textLength="178" x="47.5" y="938.542">new RendererRelfectionModule</text><polygon fill="#A80036" points="1097,969.3984,1107,973.3984,1097,977.3984,1101,973.3984" style="stroke: #A80036; stroke-width: 1.0;"/><line style="stroke: #A80036; stroke-width: 1.0;" x1="40.5" x2="1103" y1="973.3984" y2="973.3984"/><text fill="#000000" font-family="sans-serif" font-size="13" lengthAdjust="spacingAndGlyphs" textLength="78" x="47.5" y="968.8936">createInjector</text><line style="stroke: #A80036; stroke-width: 1.0;" x1="1109" x2="1151" y1="1004.1016" y2="1004.1016"/><line style="stroke: #A80036; stroke-width: 1.0;" x1="1151" x2="1151" y1="1004.1016" y2="1017.1016"/><line style="stroke: #A80036; stroke-width: 1.0;" x1="1110" x2="1151" y1="1017.1016" y2="1017.1016"/><polygon fill="#A80036" points="1120,1013.1016,1110,1017.1016,1120,1021.1016,1116,1017.1016" style="stroke: #A80036; stroke-width: 1.0;"/><text fill="#000000" font-family="sans-serif" font-size="13" lengthAdjust="spacingAndGlyphs" textLength="42" x="1116" y="999.2451">Injector</text><polygon fill="#A80036" points="1175.5,1043.1016,1185.5,1047.1016,1175.5,1051.1016,1179.5,1047.1016" style="stroke: #A80036; stroke-width: 1.0;"/><line style="stroke: #A80036; stroke-width: 1.0;" x1="40.5" x2="1181.5" y1="1047.1016" y2="1047.1016"/><text fill="#000000" font-family="sans-serif" font-size="13" lengthAdjust="spacingAndGlyphs" textLength="92" x="47.5" y="1042.5967">executePipeline</text><polygon fill="#A80036" points="1293,1073.4531,1303,1077.4531,1293,1081.4531,1297,1077.4531" style="stroke: #A80036; stroke-width: 1.0;"/><line style="stroke: #A80036; stroke-width: 1.0;" x1="1187.5" x2="1299" y1="1077.4531" y2="1077.4531"/><text fill="#000000" font-family="sans-serif" font-size="13" lengthAdjust="spacingAndGlyphs" textLength="46" x="1194.5" y="1072.9482">execute</text><polygon fill="#A80036" points="1427.5,1103.8047,1437.5,1107.8047,1427.5,1111.8047,1431.5,1107.8047" style="stroke: #A80036; stroke-width: 1.0;"/><line style="stroke: #A80036; stroke-width: 1.0;" x1="1305" x2="1433.5" y1="1107.8047" y2="1107.8047"/><text fill="#000000" font-family="sans-serif" font-size="13" lengthAdjust="spacingAndGlyphs" textLength="18" x="1312" y="1103.2998">get</text><line style="stroke: #A80036; stroke-width: 1.0;" x1="1439.5" x2="1481.5" y1="1138.5078" y2="1138.5078"/><line style="stroke: #A80036; stroke-width: 1.0;" x1="1481.5" x2="1481.5" y1="1138.5078" y2="1151.5078"/><line style="stroke: #A80036; stroke-width: 1.0;" x1="1440.5" x2="1481.5" y1="1151.5078" y2="1151.5078"/><polygon fill="#A80036" points="1450.5,1147.5078,1440.5,1151.5078,1450.5,1155.5078,1446.5,1151.5078" style="stroke: #A80036; stroke-width: 1.0;"/><text fill="#000000" font-family="sans-serif" font-size="13" lengthAdjust="spacingAndGlyphs" textLength="38" x="1446.5" y="1133.6514">Object</text><line style="stroke: #A80036; stroke-width: 1.0;" x1="1305" x2="1347" y1="1181.8594" y2="1181.8594"/><line style="stroke: #A80036; stroke-width: 1.0;" x1="1347" x2="1347" y1="1181.8594" y2="1194.8594"/><line style="stroke: #A80036; stroke-width: 1.0;" x1="1306" x2="1347" y1="1194.8594" y2="1194.8594"/><polygon fill="#A80036" points="1316,1190.8594,1306,1194.8594,1316,1198.8594,1312,1194.8594" style="stroke: #A80036; stroke-width: 1.0;"/><text fill="#000000" font-family="sans-serif" font-size="13" lengthAdjust="spacingAndGlyphs" textLength="96" x="1312" y="1177.0029">writeStringToFile</text><line style="stroke: #A80036; stroke-width: 1.0;" x1="1305" x2="1347" y1="1225.2109" y2="1225.2109"/><line style="stroke: #A80036; stroke-width: 1.0;" x1="1347" x2="1347" y1="1225.2109" y2="1238.2109"/><line style="stroke: #A80036; stroke-width: 1.0;" x1="1306" x2="1347" y1="1238.2109" y2="1238.2109"/><polygon fill="#A80036" points="1316,1234.2109,1306,1238.2109,1316,1242.2109,1312,1238.2109" style="stroke: #A80036; stroke-width: 1.0;"/><text fill="#000000" font-family="sans-serif" font-size="13" lengthAdjust="spacingAndGlyphs" textLength="48" x="1312" y="1220.3545">writeFile</text><polygon fill="#A80036" points="1427.5,1264.2109,1437.5,1268.2109,1427.5,1272.2109,1431.5,1268.2109" style="stroke: #A80036; stroke-width: 1.0;"/><line style="stroke: #A80036; stroke-width: 1.0;" x1="1305" x2="1433.5" y1="1268.2109" y2="1268.2109"/><text fill="#000000" font-family="sans-serif" font-size="13" lengthAdjust="spacingAndGlyphs" textLength="18" x="1312" y="1263.7061">get</text><line style="stroke: #A80036; stroke-width: 1.0;" x1="1439.5" x2="1481.5" y1="1298.9141" y2="1298.9141"/><line style="stroke: #A80036; stroke-width: 1.0;" x1="1481.5" x2="1481.5" y1="1298.9141" y2="1311.9141"/><line style="stroke: #A80036; stroke-width: 1.0;" x1="1440.5" x2="1481.5" y1="1311.9141" y2="1311.9141"/><polygon fill="#A80036" points="1450.5,1307.9141,1440.5,1311.9141,1450.5,1315.9141,1446.5,1311.9141" style="stroke: #A80036; stroke-width: 1.0;"/><text fill="#000000" font-family="sans-serif" font-size="13" lengthAdjust="spacingAndGlyphs" textLength="38" x="1446.5" y="1294.0576">Object</text><line style="stroke: #A80036; stroke-width: 1.0;" x1="1305" x2="1347" y1="1342.2656" y2="1342.2656"/><line style="stroke: #A80036; stroke-width: 1.0;" x1="1347" x2="1347" y1="1342.2656" y2="1355.2656"/><line style="stroke: #A80036; stroke-width: 1.0;" x1="1306" x2="1347" y1="1355.2656" y2="1355.2656"/><polygon fill="#A80036" points="1316,1351.2656,1306,1355.2656,1316,1359.2656,1312,1355.2656" style="stroke: #A80036; stroke-width: 1.0;"/><text fill="#000000" font-family="sans-serif" font-size="13" lengthAdjust="spacingAndGlyphs" textLength="96" x="1312" y="1337.4092">writeStringToFile</text><line style="stroke: #A80036; stroke-width: 1.0;" x1="1305" x2="1347" y1="1385.6172" y2="1385.6172"/><line style="stroke: #A80036; stroke-width: 1.0;" x1="1347" x2="1347" y1="1385.6172" y2="1398.6172"/><line style="stroke: #A80036; stroke-width: 1.0;" x1="1306" x2="1347" y1="1398.6172" y2="1398.6172"/><polygon fill="#A80036" points="1316,1394.6172,1306,1398.6172,1316,1402.6172,1312,1398.6172" style="stroke: #A80036; stroke-width: 1.0;"/><text fill="#000000" font-family="sans-serif" font-size="13" lengthAdjust="spacingAndGlyphs" textLength="48" x="1312" y="1380.7607">writeFile</text><polygon fill="#A80036" points="1531.5,1424.6172,1541.5,1428.6172,1531.5,1432.6172,1535.5,1428.6172" style="stroke: #A80036; stroke-width: 1.0;"/><line style="stroke: #A80036; stroke-width: 1.0;" x1="1305" x2="1537.5" y1="1428.6172" y2="1428.6172"/><text fill="#000000" font-family="sans-serif" font-size="13" lengthAdjust="spacingAndGlyphs" textLength="91" x="1312" y="1424.1123">AnalyzerBundle</text><line style="stroke: #A80036; stroke-width: 1.0;" x1="1187.5" x2="1229.5" y1="1459.3203" y2="1459.3203"/><line style="stroke: #A80036; stroke-width: 1.0;" x1="1229.5" x2="1229.5" y1="1459.3203" y2="1472.3203"/><line style="stroke: #A80036; stroke-width: 1.0;" x1="1188.5" x2="1229.5" y1="1472.3203" y2="1472.3203"/><polygon fill="#A80036" points="1198.5,1468.3203,1188.5,1472.3203,1198.5,1476.3203,1194.5,1472.3203" style="stroke: #A80036; stroke-width: 1.0;"/><text fill="#000000" font-family="sans-serif" font-size="13" lengthAdjust="spacingAndGlyphs" textLength="91" x="1194.5" y="1454.4639">AnalyzerBundle</text></g></svg>