<?xml version="1.0" encoding="UTF-8" standalone="no"?><svg xmlns="http://www.w3.org/2000/svg" xmlns:xlink="http://www.w3.org/1999/xlink" contentScriptType="application/ecmascript" contentStyleType="text/css" height="2056px" preserveAspectRatio="none" style="width:593px;height:2056px;" version="1.1" viewBox="0 0 593 2056" width="593px" zoomAndPan="magnify"><defs><filter height="300%" id="f1ksvjruccq0oj" width="300%" x="-1" y="-1"><feGaussianBlur result="blurOut" stdDeviation="2.0"/><feColorMatrix in="blurOut" result="blurOut2" type="matrix" values="0 0 0 0 0 0 0 0 0 0 0 0 0 0 0 0 0 0 .4 0"/><feOffset dx="4.0" dy="4.0" in="blurOut2" result="blurOut3"/><feBlend in="SourceGraphic" in2="blurOut3" mode="normal"/></filter></defs><g><line style="stroke: #A80036; stroke-width: 1.0; stroke-dasharray: 5.0,5.0;" x1="29" x2="29" y1="39.6094" y2="2014.8359"/><line style="stroke: #A80036; stroke-width: 1.0; stroke-dasharray: 5.0,5.0;" x1="233" x2="233" y1="39.6094" y2="2014.8359"/><line style="stroke: #A80036; stroke-width: 1.0; stroke-dasharray: 5.0,5.0;" x1="461" x2="461" y1="39.6094" y2="2014.8359"/><rect fill="#FEFECE" filter="url(#f1ksvjruccq0oj)" height="31.6094" style="stroke: #A80036; stroke-width: 1.5;" width="39" x="8" y="3"/><text fill="#000000" font-family="sans-serif" font-size="14" lengthAdjust="spacingAndGlyphs" textLength="25" x="15" y="24.5332">App</text><rect fill="#FEFECE" filter="url(#f1ksvjruccq0oj)" height="31.6094" style="stroke: #A80036; stroke-width: 1.5;" width="39" x="8" y="2013.8359"/><text fill="#000000" font-family="sans-serif" font-size="14" lengthAdjust="spacingAndGlyphs" textLength="25" x="15" y="2035.3691">App</text><rect fill="#FEFECE" filter="url(#f1ksvjruccq0oj)" height="31.6094" style="stroke: #A80036; stroke-width: 1.5;" width="181" x="141" y="3"/><text fill="#000000" font-family="sans-serif" font-size="14" lengthAdjust="spacingAndGlyphs" textLength="167" x="148" y="24.5332">SecurityManagerBackdoor</text><rect fill="#FEFECE" filter="url(#f1ksvjruccq0oj)" height="31.6094" style="stroke: #A80036; stroke-width: 1.5;" width="181" x="141" y="2013.8359"/><text fill="#000000" font-family="sans-serif" font-size="14" lengthAdjust="spacingAndGlyphs" textLength="167" x="148" y="2035.3691">SecurityManagerBackdoor</text><rect fill="#FEFECE" filter="url(#f1ksvjruccq0oj)" height="31.6094" style="stroke: #A80036; stroke-width: 1.5;" width="246" x="336" y="3"/><text fill="#000000" font-family="sans-serif" font-size="14" lengthAdjust="spacingAndGlyphs" textLength="232" x="343" y="24.5332">SecurityManagerBackDoorDecorator</text><rect fill="#FEFECE" filter="url(#f1ksvjruccq0oj)" height="31.6094" style="stroke: #A80036; stroke-width: 1.5;" width="246" x="336" y="2013.8359"/><text fill="#000000" font-family="sans-serif" font-size="14" lengthAdjust="spacingAndGlyphs" textLength="232" x="343" y="2035.3691">SecurityManagerBackDoorDecorator</text><polygon fill="#A80036" points="221.5,67.6094,231.5,71.6094,221.5,75.6094,225.5,71.6094" style="stroke: #A80036; stroke-width: 1.0;"/><line style="stroke: #A80036; stroke-width: 1.0;" x1="29.5" x2="227.5" y1="71.6094" y2="71.6094"/><text fill="#000000" font-family="sans-serif" font-size="13" lengthAdjust="spacingAndGlyphs" textLength="180" x="36.5" y="67.1045">new SecurityManagerBackdoor</text><polygon fill="#A80036" points="449,97.9609,459,101.9609,449,105.9609,453,101.9609" style="stroke: #A80036; stroke-width: 1.0;"/><line style="stroke: #A80036; stroke-width: 1.0;" x1="233.5" x2="455" y1="101.9609" y2="101.9609"/><text fill="#000000" font-family="sans-serif" font-size="13" lengthAdjust="spacingAndGlyphs" textLength="40" x="240.5" y="97.4561">super()</text><polygon fill="#A80036" points="221.5,128.3125,231.5,132.3125,221.5,136.3125,225.5,132.3125" style="stroke: #A80036; stroke-width: 1.0;"/><line style="stroke: #A80036; stroke-width: 1.0;" x1="29.5" x2="227.5" y1="132.3125" y2="132.3125"/><text fill="#000000" font-family="sans-serif" font-size="13" lengthAdjust="spacingAndGlyphs" textLength="76" x="36.5" y="127.8076">checkAccept</text><line style="stroke: #A80036; stroke-width: 1.0;" x1="233.5" x2="275.5" y1="163.0156" y2="163.0156"/><line style="stroke: #A80036; stroke-width: 1.0;" x1="275.5" x2="275.5" y1="163.0156" y2="176.0156"/><line style="stroke: #A80036; stroke-width: 1.0;" x1="234.5" x2="275.5" y1="176.0156" y2="176.0156"/><polygon fill="#A80036" points="244.5,172.0156,234.5,176.0156,244.5,180.0156,240.5,176.0156" style="stroke: #A80036; stroke-width: 1.0;"/><text fill="#000000" font-family="sans-serif" font-size="13" lengthAdjust="spacingAndGlyphs" textLength="76" x="240.5" y="158.1592">checkAccept</text><line style="stroke: #A80036; stroke-width: 1.0;" x1="233.5" x2="275.5" y1="206.3672" y2="206.3672"/><line style="stroke: #A80036; stroke-width: 1.0;" x1="275.5" x2="275.5" y1="206.3672" y2="219.3672"/><line style="stroke: #A80036; stroke-width: 1.0;" x1="234.5" x2="275.5" y1="219.3672" y2="219.3672"/><polygon fill="#A80036" points="244.5,215.3672,234.5,219.3672,244.5,223.3672,240.5,219.3672" style="stroke: #A80036; stroke-width: 1.0;"/><text fill="#000000" font-family="sans-serif" font-size="13" lengthAdjust="spacingAndGlyphs" textLength="76" x="240.5" y="201.5107">checkAccept</text><line style="stroke: #A80036; stroke-width: 1.0;" x1="233.5" x2="275.5" y1="249.7188" y2="249.7188"/><line style="stroke: #A80036; stroke-width: 1.0;" x1="275.5" x2="275.5" y1="249.7188" y2="262.7188"/><line style="stroke: #A80036; stroke-width: 1.0;" x1="234.5" x2="275.5" y1="262.7188" y2="262.7188"/><polygon fill="#A80036" points="244.5,258.7188,234.5,262.7188,244.5,266.7188,240.5,262.7188" style="stroke: #A80036; stroke-width: 1.0;"/><text fill="#000000" font-family="sans-serif" font-size="13" lengthAdjust="spacingAndGlyphs" textLength="76" x="240.5" y="244.8623">checkAccept</text><line style="stroke: #A80036; stroke-width: 1.0;" x1="233.5" x2="275.5" y1="293.0703" y2="293.0703"/><line style="stroke: #A80036; stroke-width: 1.0;" x1="275.5" x2="275.5" y1="293.0703" y2="306.0703"/><line style="stroke: #A80036; stroke-width: 1.0;" x1="234.5" x2="275.5" y1="306.0703" y2="306.0703"/><polygon fill="#A80036" points="244.5,302.0703,234.5,306.0703,244.5,310.0703,240.5,306.0703" style="stroke: #A80036; stroke-width: 1.0;"/><text fill="#000000" font-family="sans-serif" font-size="13" lengthAdjust="spacingAndGlyphs" textLength="76" x="240.5" y="288.2139">checkAccept</text><polygon fill="#A80036" points="221.5,332.0703,231.5,336.0703,221.5,340.0703,225.5,336.0703" style="stroke: #A80036; stroke-width: 1.0;"/><line style="stroke: #A80036; stroke-width: 1.0;" x1="29.5" x2="227.5" y1="336.0703" y2="336.0703"/><text fill="#000000" font-family="sans-serif" font-size="13" lengthAdjust="spacingAndGlyphs" textLength="76" x="36.5" y="331.5654">checkAccept</text><line style="stroke: #A80036; stroke-width: 1.0;" x1="233.5" x2="275.5" y1="366.7734" y2="366.7734"/><line style="stroke: #A80036; stroke-width: 1.0;" x1="275.5" x2="275.5" y1="366.7734" y2="379.7734"/><line style="stroke: #A80036; stroke-width: 1.0;" x1="234.5" x2="275.5" y1="379.7734" y2="379.7734"/><polygon fill="#A80036" points="244.5,375.7734,234.5,379.7734,244.5,383.7734,240.5,379.7734" style="stroke: #A80036; stroke-width: 1.0;"/><text fill="#000000" font-family="sans-serif" font-size="13" lengthAdjust="spacingAndGlyphs" textLength="76" x="240.5" y="361.917">checkAccept</text><line style="stroke: #A80036; stroke-width: 1.0;" x1="233.5" x2="275.5" y1="410.125" y2="410.125"/><line style="stroke: #A80036; stroke-width: 1.0;" x1="275.5" x2="275.5" y1="410.125" y2="423.125"/><line style="stroke: #A80036; stroke-width: 1.0;" x1="234.5" x2="275.5" y1="423.125" y2="423.125"/><polygon fill="#A80036" points="244.5,419.125,234.5,423.125,244.5,427.125,240.5,423.125" style="stroke: #A80036; stroke-width: 1.0;"/><text fill="#000000" font-family="sans-serif" font-size="13" lengthAdjust="spacingAndGlyphs" textLength="76" x="240.5" y="405.2686">checkAccept</text><line style="stroke: #A80036; stroke-width: 1.0;" x1="233.5" x2="275.5" y1="453.4766" y2="453.4766"/><line style="stroke: #A80036; stroke-width: 1.0;" x1="275.5" x2="275.5" y1="453.4766" y2="466.4766"/><line style="stroke: #A80036; stroke-width: 1.0;" x1="234.5" x2="275.5" y1="466.4766" y2="466.4766"/><polygon fill="#A80036" points="244.5,462.4766,234.5,466.4766,244.5,470.4766,240.5,466.4766" style="stroke: #A80036; stroke-width: 1.0;"/><text fill="#000000" font-family="sans-serif" font-size="13" lengthAdjust="spacingAndGlyphs" textLength="76" x="240.5" y="448.6201">checkAccept</text><line style="stroke: #A80036; stroke-width: 1.0;" x1="233.5" x2="275.5" y1="496.8281" y2="496.8281"/><line style="stroke: #A80036; stroke-width: 1.0;" x1="275.5" x2="275.5" y1="496.8281" y2="509.8281"/><line style="stroke: #A80036; stroke-width: 1.0;" x1="234.5" x2="275.5" y1="509.8281" y2="509.8281"/><polygon fill="#A80036" points="244.5,505.8281,234.5,509.8281,244.5,513.8281,240.5,509.8281" style="stroke: #A80036; stroke-width: 1.0;"/><text fill="#000000" font-family="sans-serif" font-size="13" lengthAdjust="spacingAndGlyphs" textLength="76" x="240.5" y="491.9717">checkAccept</text><polygon fill="#A80036" points="221.5,535.8281,231.5,539.8281,221.5,543.8281,225.5,539.8281" style="stroke: #A80036; stroke-width: 1.0;"/><line style="stroke: #A80036; stroke-width: 1.0;" x1="29.5" x2="227.5" y1="539.8281" y2="539.8281"/><text fill="#000000" font-family="sans-serif" font-size="13" lengthAdjust="spacingAndGlyphs" textLength="76" x="36.5" y="535.3232">checkAccept</text><line style="stroke: #A80036; stroke-width: 1.0;" x1="233.5" x2="275.5" y1="570.5313" y2="570.5313"/><line style="stroke: #A80036; stroke-width: 1.0;" x1="275.5" x2="275.5" y1="570.5313" y2="583.5313"/><line style="stroke: #A80036; stroke-width: 1.0;" x1="234.5" x2="275.5" y1="583.5313" y2="583.5313"/><polygon fill="#A80036" points="244.5,579.5313,234.5,583.5313,244.5,587.5313,240.5,583.5313" style="stroke: #A80036; stroke-width: 1.0;"/><text fill="#000000" font-family="sans-serif" font-size="13" lengthAdjust="spacingAndGlyphs" textLength="76" x="240.5" y="565.6748">checkAccept</text><line style="stroke: #A80036; stroke-width: 1.0;" x1="233.5" x2="275.5" y1="613.8828" y2="613.8828"/><line style="stroke: #A80036; stroke-width: 1.0;" x1="275.5" x2="275.5" y1="613.8828" y2="626.8828"/><line style="stroke: #A80036; stroke-width: 1.0;" x1="234.5" x2="275.5" y1="626.8828" y2="626.8828"/><polygon fill="#A80036" points="244.5,622.8828,234.5,626.8828,244.5,630.8828,240.5,626.8828" style="stroke: #A80036; stroke-width: 1.0;"/><text fill="#000000" font-family="sans-serif" font-size="13" lengthAdjust="spacingAndGlyphs" textLength="76" x="240.5" y="609.0264">checkAccept</text><line style="stroke: #A80036; stroke-width: 1.0;" x1="233.5" x2="275.5" y1="657.2344" y2="657.2344"/><line style="stroke: #A80036; stroke-width: 1.0;" x1="275.5" x2="275.5" y1="657.2344" y2="670.2344"/><line style="stroke: #A80036; stroke-width: 1.0;" x1="234.5" x2="275.5" y1="670.2344" y2="670.2344"/><polygon fill="#A80036" points="244.5,666.2344,234.5,670.2344,244.5,674.2344,240.5,670.2344" style="stroke: #A80036; stroke-width: 1.0;"/><text fill="#000000" font-family="sans-serif" font-size="13" lengthAdjust="spacingAndGlyphs" textLength="76" x="240.5" y="652.3779">checkAccept</text><line style="stroke: #A80036; stroke-width: 1.0;" x1="233.5" x2="275.5" y1="700.5859" y2="700.5859"/><line style="stroke: #A80036; stroke-width: 1.0;" x1="275.5" x2="275.5" y1="700.5859" y2="713.5859"/><line style="stroke: #A80036; stroke-width: 1.0;" x1="234.5" x2="275.5" y1="713.5859" y2="713.5859"/><polygon fill="#A80036" points="244.5,709.5859,234.5,713.5859,244.5,717.5859,240.5,713.5859" style="stroke: #A80036; stroke-width: 1.0;"/><text fill="#000000" font-family="sans-serif" font-size="13" lengthAdjust="spacingAndGlyphs" textLength="76" x="240.5" y="695.7295">checkAccept</text><polygon fill="#A80036" points="221.5,739.5859,231.5,743.5859,221.5,747.5859,225.5,743.5859" style="stroke: #A80036; stroke-width: 1.0;"/><line style="stroke: #A80036; stroke-width: 1.0;" x1="29.5" x2="227.5" y1="743.5859" y2="743.5859"/><text fill="#000000" font-family="sans-serif" font-size="13" lengthAdjust="spacingAndGlyphs" textLength="76" x="36.5" y="739.0811">checkAccept</text><line style="stroke: #A80036; stroke-width: 1.0;" x1="233.5" x2="275.5" y1="774.2891" y2="774.2891"/><line style="stroke: #A80036; stroke-width: 1.0;" x1="275.5" x2="275.5" y1="774.2891" y2="787.2891"/><line style="stroke: #A80036; stroke-width: 1.0;" x1="234.5" x2="275.5" y1="787.2891" y2="787.2891"/><polygon fill="#A80036" points="244.5,783.2891,234.5,787.2891,244.5,791.2891,240.5,787.2891" style="stroke: #A80036; stroke-width: 1.0;"/><text fill="#000000" font-family="sans-serif" font-size="13" lengthAdjust="spacingAndGlyphs" textLength="76" x="240.5" y="769.4326">checkAccept</text><line style="stroke: #A80036; stroke-width: 1.0;" x1="233.5" x2="275.5" y1="817.6406" y2="817.6406"/><line style="stroke: #A80036; stroke-width: 1.0;" x1="275.5" x2="275.5" y1="817.6406" y2="830.6406"/><line style="stroke: #A80036; stroke-width: 1.0;" x1="234.5" x2="275.5" y1="830.6406" y2="830.6406"/><polygon fill="#A80036" points="244.5,826.6406,234.5,830.6406,244.5,834.6406,240.5,830.6406" style="stroke: #A80036; stroke-width: 1.0;"/><text fill="#000000" font-family="sans-serif" font-size="13" lengthAdjust="spacingAndGlyphs" textLength="76" x="240.5" y="812.7842">checkAccept</text><line style="stroke: #A80036; stroke-width: 1.0;" x1="233.5" x2="275.5" y1="860.9922" y2="860.9922"/><line style="stroke: #A80036; stroke-width: 1.0;" x1="275.5" x2="275.5" y1="860.9922" y2="873.9922"/><line style="stroke: #A80036; stroke-width: 1.0;" x1="234.5" x2="275.5" y1="873.9922" y2="873.9922"/><polygon fill="#A80036" points="244.5,869.9922,234.5,873.9922,244.5,877.9922,240.5,873.9922" style="stroke: #A80036; stroke-width: 1.0;"/><text fill="#000000" font-family="sans-serif" font-size="13" lengthAdjust="spacingAndGlyphs" textLength="76" x="240.5" y="856.1357">checkAccept</text><line style="stroke: #A80036; stroke-width: 1.0;" x1="233.5" x2="275.5" y1="904.3438" y2="904.3438"/><line style="stroke: #A80036; stroke-width: 1.0;" x1="275.5" x2="275.5" y1="904.3438" y2="917.3438"/><line style="stroke: #A80036; stroke-width: 1.0;" x1="234.5" x2="275.5" y1="917.3438" y2="917.3438"/><polygon fill="#A80036" points="244.5,913.3438,234.5,917.3438,244.5,921.3438,240.5,917.3438" style="stroke: #A80036; stroke-width: 1.0;"/><text fill="#000000" font-family="sans-serif" font-size="13" lengthAdjust="spacingAndGlyphs" textLength="76" x="240.5" y="899.4873">checkAccept</text><polygon fill="#A80036" points="449,943.3438,459,947.3438,449,951.3438,453,947.3438" style="stroke: #A80036; stroke-width: 1.0;"/><line style="stroke: #A80036; stroke-width: 1.0;" x1="29.5" x2="455" y1="947.3438" y2="947.3438"/><text fill="#000000" font-family="sans-serif" font-size="13" lengthAdjust="spacingAndGlyphs" textLength="70" x="36.5" y="942.8389">checkListen</text><line style="stroke: #A80036; stroke-width: 1.0;" x1="461" x2="503" y1="978.0469" y2="978.0469"/><line style="stroke: #A80036; stroke-width: 1.0;" x1="503" x2="503" y1="978.0469" y2="991.0469"/><line style="stroke: #A80036; stroke-width: 1.0;" x1="462" x2="503" y1="991.0469" y2="991.0469"/><polygon fill="#A80036" points="472,987.0469,462,991.0469,472,995.0469,468,991.0469" style="stroke: #A80036; stroke-width: 1.0;"/><text fill="#000000" font-family="sans-serif" font-size="13" lengthAdjust="spacingAndGlyphs" textLength="70" x="468" y="973.1904">checkListen</text><line style="stroke: #A80036; stroke-width: 1.0;" x1="461" x2="503" y1="1021.3984" y2="1021.3984"/><line style="stroke: #A80036; stroke-width: 1.0;" x1="503" x2="503" y1="1021.3984" y2="1034.3984"/><line style="stroke: #A80036; stroke-width: 1.0;" x1="462" x2="503" y1="1034.3984" y2="1034.3984"/><polygon fill="#A80036" points="472,1030.3984,462,1034.3984,472,1038.3984,468,1034.3984" style="stroke: #A80036; stroke-width: 1.0;"/><text fill="#000000" font-family="sans-serif" font-size="13" lengthAdjust="spacingAndGlyphs" textLength="70" x="468" y="1016.542">checkListen</text><line style="stroke: #A80036; stroke-width: 1.0;" x1="461" x2="503" y1="1064.75" y2="1064.75"/><line style="stroke: #A80036; stroke-width: 1.0;" x1="503" x2="503" y1="1064.75" y2="1077.75"/><line style="stroke: #A80036; stroke-width: 1.0;" x1="462" x2="503" y1="1077.75" y2="1077.75"/><polygon fill="#A80036" points="472,1073.75,462,1077.75,472,1081.75,468,1077.75" style="stroke: #A80036; stroke-width: 1.0;"/><text fill="#000000" font-family="sans-serif" font-size="13" lengthAdjust="spacingAndGlyphs" textLength="70" x="468" y="1059.8936">checkListen</text><line style="stroke: #A80036; stroke-width: 1.0;" x1="461" x2="503" y1="1108.1016" y2="1108.1016"/><line style="stroke: #A80036; stroke-width: 1.0;" x1="503" x2="503" y1="1108.1016" y2="1121.1016"/><line style="stroke: #A80036; stroke-width: 1.0;" x1="462" x2="503" y1="1121.1016" y2="1121.1016"/><polygon fill="#A80036" points="472,1117.1016,462,1121.1016,472,1125.1016,468,1121.1016" style="stroke: #A80036; stroke-width: 1.0;"/><text fill="#000000" font-family="sans-serif" font-size="13" lengthAdjust="spacingAndGlyphs" textLength="70" x="468" y="1103.2451">checkListen</text><polygon fill="#A80036" points="449,1147.1016,459,1151.1016,449,1155.1016,453,1151.1016" style="stroke: #A80036; stroke-width: 1.0;"/><line style="stroke: #A80036; stroke-width: 1.0;" x1="29.5" x2="455" y1="1151.1016" y2="1151.1016"/><text fill="#000000" font-family="sans-serif" font-size="13" lengthAdjust="spacingAndGlyphs" textLength="72" x="36.5" y="1146.5967">checkDelete</text><line style="stroke: #A80036; stroke-width: 1.0;" x1="461" x2="503" y1="1181.8047" y2="1181.8047"/><line style="stroke: #A80036; stroke-width: 1.0;" x1="503" x2="503" y1="1181.8047" y2="1194.8047"/><line style="stroke: #A80036; stroke-width: 1.0;" x1="462" x2="503" y1="1194.8047" y2="1194.8047"/><polygon fill="#A80036" points="472,1190.8047,462,1194.8047,472,1198.8047,468,1194.8047" style="stroke: #A80036; stroke-width: 1.0;"/><text fill="#000000" font-family="sans-serif" font-size="13" lengthAdjust="spacingAndGlyphs" textLength="72" x="468" y="1176.9482">checkDelete</text><line style="stroke: #A80036; stroke-width: 1.0;" x1="461" x2="503" y1="1225.1563" y2="1225.1563"/><line style="stroke: #A80036; stroke-width: 1.0;" x1="503" x2="503" y1="1225.1563" y2="1238.1563"/><line style="stroke: #A80036; stroke-width: 1.0;" x1="462" x2="503" y1="1238.1563" y2="1238.1563"/><polygon fill="#A80036" points="472,1234.1563,462,1238.1563,472,1242.1563,468,1238.1563" style="stroke: #A80036; stroke-width: 1.0;"/><text fill="#000000" font-family="sans-serif" font-size="13" lengthAdjust="spacingAndGlyphs" textLength="72" x="468" y="1220.2998">checkDelete</text><line style="stroke: #A80036; stroke-width: 1.0;" x1="461" x2="503" y1="1268.5078" y2="1268.5078"/><line style="stroke: #A80036; stroke-width: 1.0;" x1="503" x2="503" y1="1268.5078" y2="1281.5078"/><line style="stroke: #A80036; stroke-width: 1.0;" x1="462" x2="503" y1="1281.5078" y2="1281.5078"/><polygon fill="#A80036" points="472,1277.5078,462,1281.5078,472,1285.5078,468,1281.5078" style="stroke: #A80036; stroke-width: 1.0;"/><text fill="#000000" font-family="sans-serif" font-size="13" lengthAdjust="spacingAndGlyphs" textLength="72" x="468" y="1263.6514">checkDelete</text><line style="stroke: #A80036; stroke-width: 1.0;" x1="461" x2="503" y1="1311.8594" y2="1311.8594"/><line style="stroke: #A80036; stroke-width: 1.0;" x1="503" x2="503" y1="1311.8594" y2="1324.8594"/><line style="stroke: #A80036; stroke-width: 1.0;" x1="462" x2="503" y1="1324.8594" y2="1324.8594"/><polygon fill="#A80036" points="472,1320.8594,462,1324.8594,472,1328.8594,468,1324.8594" style="stroke: #A80036; stroke-width: 1.0;"/><text fill="#000000" font-family="sans-serif" font-size="13" lengthAdjust="spacingAndGlyphs" textLength="72" x="468" y="1307.0029">checkDelete</text><polygon fill="#A80036" points="449,1350.8594,459,1354.8594,449,1358.8594,453,1354.8594" style="stroke: #A80036; stroke-width: 1.0;"/><line style="stroke: #A80036; stroke-width: 1.0;" x1="29.5" x2="455" y1="1354.8594" y2="1354.8594"/><text fill="#000000" font-family="sans-serif" font-size="13" lengthAdjust="spacingAndGlyphs" textLength="65" x="36.5" y="1350.3545">checkExec</text><line style="stroke: #A80036; stroke-width: 1.0;" x1="461" x2="503" y1="1385.5625" y2="1385.5625"/><line style="stroke: #A80036; stroke-width: 1.0;" x1="503" x2="503" y1="1385.5625" y2="1398.5625"/><line style="stroke: #A80036; stroke-width: 1.0;" x1="462" x2="503" y1="1398.5625" y2="1398.5625"/><polygon fill="#A80036" points="472,1394.5625,462,1398.5625,472,1402.5625,468,1398.5625" style="stroke: #A80036; stroke-width: 1.0;"/><text fill="#000000" font-family="sans-serif" font-size="13" lengthAdjust="spacingAndGlyphs" textLength="65" x="468" y="1380.7061">checkExec</text><line style="stroke: #A80036; stroke-width: 1.0;" x1="461" x2="503" y1="1428.9141" y2="1428.9141"/><line style="stroke: #A80036; stroke-width: 1.0;" x1="503" x2="503" y1="1428.9141" y2="1441.9141"/><line style="stroke: #A80036; stroke-width: 1.0;" x1="462" x2="503" y1="1441.9141" y2="1441.9141"/><polygon fill="#A80036" points="472,1437.9141,462,1441.9141,472,1445.9141,468,1441.9141" style="stroke: #A80036; stroke-width: 1.0;"/><text fill="#000000" font-family="sans-serif" font-size="13" lengthAdjust="spacingAndGlyphs" textLength="65" x="468" y="1424.0576">checkExec</text><line style="stroke: #A80036; stroke-width: 1.0;" x1="461" x2="503" y1="1472.2656" y2="1472.2656"/><line style="stroke: #A80036; stroke-width: 1.0;" x1="503" x2="503" y1="1472.2656" y2="1485.2656"/><line style="stroke: #A80036; stroke-width: 1.0;" x1="462" x2="503" y1="1485.2656" y2="1485.2656"/><polygon fill="#A80036" points="472,1481.2656,462,1485.2656,472,1489.2656,468,1485.2656" style="stroke: #A80036; stroke-width: 1.0;"/><text fill="#000000" font-family="sans-serif" font-size="13" lengthAdjust="spacingAndGlyphs" textLength="65" x="468" y="1467.4092">checkExec</text><line style="stroke: #A80036; stroke-width: 1.0;" x1="461" x2="503" y1="1515.6172" y2="1515.6172"/><line style="stroke: #A80036; stroke-width: 1.0;" x1="503" x2="503" y1="1515.6172" y2="1528.6172"/><line style="stroke: #A80036; stroke-width: 1.0;" x1="462" x2="503" y1="1528.6172" y2="1528.6172"/><polygon fill="#A80036" points="472,1524.6172,462,1528.6172,472,1532.6172,468,1528.6172" style="stroke: #A80036; stroke-width: 1.0;"/><text fill="#000000" font-family="sans-serif" font-size="13" lengthAdjust="spacingAndGlyphs" textLength="65" x="468" y="1510.7607">checkExec</text><polygon fill="#A80036" points="221.5,1554.6172,231.5,1558.6172,221.5,1562.6172,225.5,1558.6172" style="stroke: #A80036; stroke-width: 1.0;"/><line style="stroke: #A80036; stroke-width: 1.0;" x1="29.5" x2="227.5" y1="1558.6172" y2="1558.6172"/><text fill="#000000" font-family="sans-serif" font-size="13" lengthAdjust="spacingAndGlyphs" textLength="76" x="36.5" y="1554.1123">checkAccept</text><line style="stroke: #A80036; stroke-width: 1.0;" x1="233.5" x2="275.5" y1="1589.3203" y2="1589.3203"/><line style="stroke: #A80036; stroke-width: 1.0;" x1="275.5" x2="275.5" y1="1589.3203" y2="1602.3203"/><line style="stroke: #A80036; stroke-width: 1.0;" x1="234.5" x2="275.5" y1="1602.3203" y2="1602.3203"/><polygon fill="#A80036" points="244.5,1598.3203,234.5,1602.3203,244.5,1606.3203,240.5,1602.3203" style="stroke: #A80036; stroke-width: 1.0;"/><text fill="#000000" font-family="sans-serif" font-size="13" lengthAdjust="spacingAndGlyphs" textLength="76" x="240.5" y="1584.4639">checkAccept</text><line style="stroke: #A80036; stroke-width: 1.0;" x1="233.5" x2="275.5" y1="1632.6719" y2="1632.6719"/><line style="stroke: #A80036; stroke-width: 1.0;" x1="275.5" x2="275.5" y1="1632.6719" y2="1645.6719"/><line style="stroke: #A80036; stroke-width: 1.0;" x1="234.5" x2="275.5" y1="1645.6719" y2="1645.6719"/><polygon fill="#A80036" points="244.5,1641.6719,234.5,1645.6719,244.5,1649.6719,240.5,1645.6719" style="stroke: #A80036; stroke-width: 1.0;"/><text fill="#000000" font-family="sans-serif" font-size="13" lengthAdjust="spacingAndGlyphs" textLength="76" x="240.5" y="1627.8154">checkAccept</text><line style="stroke: #A80036; stroke-width: 1.0;" x1="233.5" x2="275.5" y1="1676.0234" y2="1676.0234"/><line style="stroke: #A80036; stroke-width: 1.0;" x1="275.5" x2="275.5" y1="1676.0234" y2="1689.0234"/><line style="stroke: #A80036; stroke-width: 1.0;" x1="234.5" x2="275.5" y1="1689.0234" y2="1689.0234"/><polygon fill="#A80036" points="244.5,1685.0234,234.5,1689.0234,244.5,1693.0234,240.5,1689.0234" style="stroke: #A80036; stroke-width: 1.0;"/><text fill="#000000" font-family="sans-serif" font-size="13" lengthAdjust="spacingAndGlyphs" textLength="76" x="240.5" y="1671.167">checkAccept</text><line style="stroke: #A80036; stroke-width: 1.0;" x1="233.5" x2="275.5" y1="1719.375" y2="1719.375"/><line style="stroke: #A80036; stroke-width: 1.0;" x1="275.5" x2="275.5" y1="1719.375" y2="1732.375"/><line style="stroke: #A80036; stroke-width: 1.0;" x1="234.5" x2="275.5" y1="1732.375" y2="1732.375"/><polygon fill="#A80036" points="244.5,1728.375,234.5,1732.375,244.5,1736.375,240.5,1732.375" style="stroke: #A80036; stroke-width: 1.0;"/><text fill="#000000" font-family="sans-serif" font-size="13" lengthAdjust="spacingAndGlyphs" textLength="76" x="240.5" y="1714.5186">checkAccept</text><polygon fill="#A80036" points="221.5,1758.375,231.5,1762.375,221.5,1766.375,225.5,1762.375" style="stroke: #A80036; stroke-width: 1.0;"/><line style="stroke: #A80036; stroke-width: 1.0;" x1="29.5" x2="227.5" y1="1762.375" y2="1762.375"/><text fill="#000000" font-family="sans-serif" font-size="13" lengthAdjust="spacingAndGlyphs" textLength="76" x="36.5" y="1757.8701">checkAccept</text><line style="stroke: #A80036; stroke-width: 1.0;" x1="233.5" x2="275.5" y1="1793.0781" y2="1793.0781"/><line style="stroke: #A80036; stroke-width: 1.0;" x1="275.5" x2="275.5" y1="1793.0781" y2="1806.0781"/><line style="stroke: #A80036; stroke-width: 1.0;" x1="234.5" x2="275.5" y1="1806.0781" y2="1806.0781"/><polygon fill="#A80036" points="244.5,1802.0781,234.5,1806.0781,244.5,1810.0781,240.5,1806.0781" style="stroke: #A80036; stroke-width: 1.0;"/><text fill="#000000" font-family="sans-serif" font-size="13" lengthAdjust="spacingAndGlyphs" textLength="76" x="240.5" y="1788.2217">checkAccept</text><line style="stroke: #A80036; stroke-width: 1.0;" x1="233.5" x2="275.5" y1="1836.4297" y2="1836.4297"/><line style="stroke: #A80036; stroke-width: 1.0;" x1="275.5" x2="275.5" y1="1836.4297" y2="1849.4297"/><line style="stroke: #A80036; stroke-width: 1.0;" x1="234.5" x2="275.5" y1="1849.4297" y2="1849.4297"/><polygon fill="#A80036" points="244.5,1845.4297,234.5,1849.4297,244.5,1853.4297,240.5,1849.4297" style="stroke: #A80036; stroke-width: 1.0;"/><text fill="#000000" font-family="sans-serif" font-size="13" lengthAdjust="spacingAndGlyphs" textLength="76" x="240.5" y="1831.5732">checkAccept</text><line style="stroke: #A80036; stroke-width: 1.0;" x1="233.5" x2="275.5" y1="1879.7813" y2="1879.7813"/><line style="stroke: #A80036; stroke-width: 1.0;" x1="275.5" x2="275.5" y1="1879.7813" y2="1892.7813"/><line style="stroke: #A80036; stroke-width: 1.0;" x1="234.5" x2="275.5" y1="1892.7813" y2="1892.7813"/><polygon fill="#A80036" points="244.5,1888.7813,234.5,1892.7813,244.5,1896.7813,240.5,1892.7813" style="stroke: #A80036; stroke-width: 1.0;"/><text fill="#000000" font-family="sans-serif" font-size="13" lengthAdjust="spacingAndGlyphs" textLength="76" x="240.5" y="1874.9248">checkAccept</text><line style="stroke: #A80036; stroke-width: 1.0;" x1="233.5" x2="275.5" y1="1923.1328" y2="1923.1328"/><line style="stroke: #A80036; stroke-width: 1.0;" x1="275.5" x2="275.5" y1="1923.1328" y2="1936.1328"/><line style="stroke: #A80036; stroke-width: 1.0;" x1="234.5" x2="275.5" y1="1936.1328" y2="1936.1328"/><polygon fill="#A80036" points="244.5,1932.1328,234.5,1936.1328,244.5,1940.1328,240.5,1936.1328" style="stroke: #A80036; stroke-width: 1.0;"/><text fill="#000000" font-family="sans-serif" font-size="13" lengthAdjust="spacingAndGlyphs" textLength="76" x="240.5" y="1918.2764">checkAccept</text><polygon fill="#A80036" points="221.5,1962.1328,231.5,1966.1328,221.5,1970.1328,225.5,1966.1328" style="stroke: #A80036; stroke-width: 1.0;"/><line style="stroke: #A80036; stroke-width: 1.0;" x1="29.5" x2="227.5" y1="1966.1328" y2="1966.1328"/><text fill="#000000" font-family="sans-serif" font-size="13" lengthAdjust="spacingAndGlyphs" textLength="180" x="36.5" y="1961.6279">new SecurityManagerBackdoor</text><polygon fill="#A80036" points="449,1992.4844,459,1996.4844,449,2000.4844,453,1996.4844" style="stroke: #A80036; stroke-width: 1.0;"/><line style="stroke: #A80036; stroke-width: 1.0;" x1="233.5" x2="455" y1="1996.4844" y2="1996.4844"/><text fill="#000000" font-family="sans-serif" font-size="13" lengthAdjust="spacingAndGlyphs" textLength="40" x="240.5" y="1991.9795">super()</text></g></svg>