<?xml version="1.0" encoding="UTF-8" standalone="no"?><svg xmlns="http://www.w3.org/2000/svg" xmlns:xlink="http://www.w3.org/1999/xlink" contentScriptType="application/ecmascript" contentStyleType="text/css" height="313px" preserveAspectRatio="none" style="width:385px;height:313px;" version="1.1" viewBox="0 0 385 313" width="385px" zoomAndPan="magnify"><defs><filter height="300%" id="f10puouirb6yq7" width="300%" x="-1" y="-1"><feGaussianBlur result="blurOut" stdDeviation="2.0"/><feColorMatrix in="blurOut" result="blurOut2" type="matrix" values="0 0 0 0 0 0 0 0 0 0 0 0 0 0 0 0 0 0 .4 0"/><feOffset dx="4.0" dy="4.0" in="blurOut2" result="blurOut3"/><feBlend in="SourceGraphic" in2="blurOut3" mode="normal"/></filter></defs><g><rect fill="#FFFFFF" filter="url(#f10puouirb6yq7)" height="30.3516" style="stroke: #A80036; stroke-width: 1.0;" width="10" x="163.5" y="162.6641"/><rect fill="#FFFFFF" filter="url(#f10puouirb6yq7)" height="30.3516" style="stroke: #A80036; stroke-width: 1.0;" width="10" x="163.5" y="223.3672"/><rect fill="#FFFFFF" filter="url(#f10puouirb6yq7)" height="130.7578" style="stroke: #A80036; stroke-width: 1.0;" width="10" x="305.5" y="132.3125"/><line style="stroke: #A80036; stroke-width: 1.0; stroke-dasharray: 5.0,5.0;" x1="29" x2="29" y1="39.6094" y2="272.0703"/><line style="stroke: #A80036; stroke-width: 1.0; stroke-dasharray: 5.0,5.0;" x1="168.5" x2="168.5" y1="39.6094" y2="272.0703"/><line style="stroke: #A80036; stroke-width: 1.0; stroke-dasharray: 5.0,5.0;" x1="310.5" x2="310.5" y1="39.6094" y2="272.0703"/><rect fill="#FEFECE" filter="url(#f10puouirb6yq7)" height="31.6094" style="stroke: #A80036; stroke-width: 1.5;" width="39" x="8" y="3"/><text fill="#000000" font-family="sans-serif" font-size="14" lengthAdjust="spacingAndGlyphs" textLength="25" x="15" y="24.5332">App</text><rect fill="#FEFECE" filter="url(#f10puouirb6yq7)" height="31.6094" style="stroke: #A80036; stroke-width: 1.5;" width="39" x="8" y="271.0703"/><text fill="#000000" font-family="sans-serif" font-size="14" lengthAdjust="spacingAndGlyphs" textLength="25" x="15" y="292.6035">App</text><rect fill="#FEFECE" filter="url(#f10puouirb6yq7)" height="31.6094" style="stroke: #A80036; stroke-width: 1.5;" width="112" x="110.5" y="3"/><text fill="#000000" font-family="sans-serif" font-size="14" lengthAdjust="spacingAndGlyphs" textLength="98" x="117.5" y="24.5332">IteratorToEnum</text><rect fill="#FEFECE" filter="url(#f10puouirb6yq7)" height="31.6094" style="stroke: #A80036; stroke-width: 1.5;" width="112" x="110.5" y="271.0703"/><text fill="#000000" font-family="sans-serif" font-size="14" lengthAdjust="spacingAndGlyphs" textLength="98" x="117.5" y="292.6035">IteratorToEnum</text><rect fill="#FEFECE" filter="url(#f10puouirb6yq7)" height="31.6094" style="stroke: #A80036; stroke-width: 1.5;" width="132" x="242.5" y="3"/><text fill="#000000" font-family="sans-serif" font-size="14" lengthAdjust="spacingAndGlyphs" textLength="118" x="249.5" y="24.5332">LinearTransformer</text><rect fill="#FEFECE" filter="url(#f10puouirb6yq7)" height="31.6094" style="stroke: #A80036; stroke-width: 1.5;" width="132" x="242.5" y="271.0703"/><text fill="#000000" font-family="sans-serif" font-size="14" lengthAdjust="spacingAndGlyphs" textLength="118" x="249.5" y="292.6035">LinearTransformer</text><rect fill="#FFFFFF" filter="url(#f10puouirb6yq7)" height="30.3516" style="stroke: #A80036; stroke-width: 1.0;" width="10" x="163.5" y="162.6641"/><rect fill="#FFFFFF" filter="url(#f10puouirb6yq7)" height="30.3516" style="stroke: #A80036; stroke-width: 1.0;" width="10" x="163.5" y="223.3672"/><rect fill="#FFFFFF" filter="url(#f10puouirb6yq7)" height="130.7578" style="stroke: #A80036; stroke-width: 1.0;" width="10" x="305.5" y="132.3125"/><polygon fill="#A80036" points="156.5,67.6094,166.5,71.6094,156.5,75.6094,160.5,71.6094" style="stroke: #A80036; stroke-width: 1.0;"/><line style="stroke: #A80036; stroke-width: 1.0;" x1="29.5" x2="162.5" y1="71.6094" y2="71.6094"/><text fill="#000000" font-family="sans-serif" font-size="13" lengthAdjust="spacingAndGlyphs" textLength="115" x="36.5" y="67.1045">new IteratorToEnum</text><polygon fill="#A80036" points="298.5,97.9609,308.5,101.9609,298.5,105.9609,302.5,101.9609" style="stroke: #A80036; stroke-width: 1.0;"/><line style="stroke: #A80036; stroke-width: 1.0;" x1="29.5" x2="304.5" y1="101.9609" y2="101.9609"/><text fill="#000000" font-family="sans-serif" font-size="13" lengthAdjust="spacingAndGlyphs" textLength="130" x="36.5" y="97.4561">new LinearTransformer</text><polygon fill="#A80036" points="293.5,128.3125,303.5,132.3125,293.5,136.3125,297.5,132.3125" style="stroke: #A80036; stroke-width: 1.0;"/><line style="stroke: #A80036; stroke-width: 1.0;" x1="29.5" x2="299.5" y1="132.3125" y2="132.3125"/><text fill="#000000" font-family="sans-serif" font-size="13" lengthAdjust="spacingAndGlyphs" textLength="143" x="36.5" y="127.8076">transform(OutputStream)</text><polygon fill="#A80036" points="184.5,158.6641,174.5,162.6641,184.5,166.6641,180.5,162.6641" style="stroke: #A80036; stroke-width: 1.0;"/><line style="stroke: #A80036; stroke-width: 1.0;" x1="178.5" x2="304.5" y1="162.6641" y2="162.6641"/><text fill="#000000" font-family="sans-serif" font-size="13" lengthAdjust="spacingAndGlyphs" textLength="81" x="190.5" y="158.1592">nextElement()</text><polygon fill="#A80036" points="293.5,189.0156,303.5,193.0156,293.5,197.0156,297.5,193.0156" style="stroke: #A80036; stroke-width: 1.0;"/><line style="stroke: #A80036; stroke-width: 1.0; stroke-dasharray: 2.0,2.0;" x1="168.5" x2="299.5" y1="193.0156" y2="193.0156"/><text fill="#000000" font-family="sans-serif" font-size="13" lengthAdjust="spacingAndGlyphs" textLength="38" x="175.5" y="188.5107">Object</text><polygon fill="#A80036" points="184.5,219.3672,174.5,223.3672,184.5,227.3672,180.5,223.3672" style="stroke: #A80036; stroke-width: 1.0;"/><line style="stroke: #A80036; stroke-width: 1.0;" x1="178.5" x2="304.5" y1="223.3672" y2="223.3672"/><text fill="#000000" font-family="sans-serif" font-size="13" lengthAdjust="spacingAndGlyphs" textLength="113" x="190.5" y="218.8623">hasMoreElements()</text><polygon fill="#A80036" points="293.5,249.7188,303.5,253.7188,293.5,257.7188,297.5,253.7188" style="stroke: #A80036; stroke-width: 1.0;"/><line style="stroke: #A80036; stroke-width: 1.0; stroke-dasharray: 2.0,2.0;" x1="168.5" x2="299.5" y1="253.7188" y2="253.7188"/><text fill="#000000" font-family="sans-serif" font-size="13" lengthAdjust="spacingAndGlyphs" textLength="45" x="175.5" y="249.2139">boolean</text></g></svg>