<?xml version="1.0" encoding="UTF-8" standalone="no"?><svg xmlns="http://www.w3.org/2000/svg" xmlns:xlink="http://www.w3.org/1999/xlink" contentScriptType="application/ecmascript" contentStyleType="text/css" height="1280px" preserveAspectRatio="none" style="width:1613px;height:1280px;" version="1.1" viewBox="0 0 1613 1280" width="1613px" zoomAndPan="magnify"><defs><filter height="300%" id="f1jj55rvqbbsi2" width="300%" x="-1" y="-1"><feGaussianBlur result="blurOut" stdDeviation="2.0"/><feColorMatrix in="blurOut" result="blurOut2" type="matrix" values="0 0 0 0 0 0 0 0 0 0 0 0 0 0 0 0 0 0 .4 0"/><feOffset dx="4.0" dy="4.0" in="blurOut2" result="blurOut3"/><feBlend in="SourceGraphic" in2="blurOut3" mode="normal"/></filter></defs><g><rect fill="#FFFFFF" filter="url(#f1jj55rvqbbsi2)" height="1158.3047" style="stroke: #A80036; stroke-width: 1.0;" width="10" x="138.5" y="71.6094"/><rect fill="#FFFFFF" filter="url(#f1jj55rvqbbsi2)" height="30.3516" style="stroke: #A80036; stroke-width: 1.0;" width="10" x="480.5" y="275.3672"/><rect fill="#FFFFFF" filter="url(#f1jj55rvqbbsi2)" height="30.3516" style="stroke: #A80036; stroke-width: 1.0;" width="10" x="480.5" y="336.0703"/><rect fill="#FFFFFF" filter="url(#f1jj55rvqbbsi2)" height="30.3516" style="stroke: #A80036; stroke-width: 1.0;" width="10" x="480.5" y="396.7734"/><rect fill="#FFFFFF" filter="url(#f1jj55rvqbbsi2)" height="30.3516" style="stroke: #A80036; stroke-width: 1.0;" width="10" x="480.5" y="544.1797"/><rect fill="#FFFFFF" filter="url(#f1jj55rvqbbsi2)" height="30.3516" style="stroke: #A80036; stroke-width: 1.0;" width="10" x="480.5" y="795.6406"/><rect fill="#FFFFFF" filter="url(#f1jj55rvqbbsi2)" height="30.3516" style="stroke: #A80036; stroke-width: 1.0;" width="10" x="615" y="604.8828"/><rect fill="#FFFFFF" filter="url(#f1jj55rvqbbsi2)" height="30.3516" style="stroke: #A80036; stroke-width: 1.0;" width="10" x="615" y="1099.1563"/><rect fill="#FFFFFF" filter="url(#f1jj55rvqbbsi2)" height="30.3516" style="stroke: #A80036; stroke-width: 1.0;" width="10" x="741" y="856.3438"/><rect fill="#FFFFFF" filter="url(#f1jj55rvqbbsi2)" height="30.3516" style="stroke: #A80036; stroke-width: 1.0;" width="10" x="1293" y="1008.1016"/><rect fill="#FFFFFF" filter="url(#f1jj55rvqbbsi2)" height="151.7578" style="stroke: #A80036; stroke-width: 1.0;" width="10" x="1371.5" y="1068.8047"/><rect fill="#FFFFFF" filter="url(#f1jj55rvqbbsi2)" height="30.3516" style="stroke: #A80036; stroke-width: 1.0;" width="10" x="1545.5" y="1159.8594"/><line style="stroke: #A80036; stroke-width: 1.0; stroke-dasharray: 5.0,5.0;" x1="40" x2="40" y1="39.6094" y2="1238.9141"/><line style="stroke: #A80036; stroke-width: 1.0; stroke-dasharray: 5.0,5.0;" x1="143" x2="143" y1="39.6094" y2="1238.9141"/><line style="stroke: #A80036; stroke-width: 1.0; stroke-dasharray: 5.0,5.0;" x1="485.5" x2="485.5" y1="39.6094" y2="1238.9141"/><line style="stroke: #A80036; stroke-width: 1.0; stroke-dasharray: 5.0,5.0;" x1="619.5" x2="619.5" y1="39.6094" y2="1238.9141"/><line style="stroke: #A80036; stroke-width: 1.0; stroke-dasharray: 5.0,5.0;" x1="745.5" x2="745.5" y1="39.6094" y2="1238.9141"/><line style="stroke: #A80036; stroke-width: 1.0; stroke-dasharray: 5.0,5.0;" x1="869.5" x2="869.5" y1="39.6094" y2="1238.9141"/><line style="stroke: #A80036; stroke-width: 1.0; stroke-dasharray: 5.0,5.0;" x1="999.5" x2="999.5" y1="39.6094" y2="1238.9141"/><line style="stroke: #A80036; stroke-width: 1.0; stroke-dasharray: 5.0,5.0;" x1="1166.5" x2="1166.5" y1="39.6094" y2="1238.9141"/><line style="stroke: #A80036; stroke-width: 1.0; stroke-dasharray: 5.0,5.0;" x1="1297.5" x2="1297.5" y1="39.6094" y2="1238.9141"/><line style="stroke: #A80036; stroke-width: 1.0; stroke-dasharray: 5.0,5.0;" x1="1376.5" x2="1376.5" y1="39.6094" y2="1238.9141"/><line style="stroke: #A80036; stroke-width: 1.0; stroke-dasharray: 5.0,5.0;" x1="1550" x2="1550" y1="39.6094" y2="1238.9141"/><rect fill="#FEFECE" filter="url(#f1jj55rvqbbsi2)" height="31.6094" style="stroke: #A80036; stroke-width: 1.5;" width="61" x="8" y="3"/><text fill="#000000" font-family="sans-serif" font-size="14" lengthAdjust="spacingAndGlyphs" textLength="47" x="15" y="24.5332">Runner</text><rect fill="#FEFECE" filter="url(#f1jj55rvqbbsi2)" height="31.6094" style="stroke: #A80036; stroke-width: 1.5;" width="61" x="8" y="1237.9141"/><text fill="#000000" font-family="sans-serif" font-size="14" lengthAdjust="spacingAndGlyphs" textLength="47" x="15" y="1259.4473">Runner</text><rect fill="#FEFECE" filter="url(#f1jj55rvqbbsi2)" height="31.6094" style="stroke: #A80036; stroke-width: 1.5;" width="117" x="83" y="3"/><text fill="#000000" font-family="sans-serif" font-size="14" lengthAdjust="spacingAndGlyphs" textLength="103" x="90" y="24.5332">PropertiesSetter</text><rect fill="#FEFECE" filter="url(#f1jj55rvqbbsi2)" height="31.6094" style="stroke: #A80036; stroke-width: 1.5;" width="117" x="83" y="1237.9141"/><text fill="#000000" font-family="sans-serif" font-size="14" lengthAdjust="spacingAndGlyphs" textLength="103" x="90" y="1259.4473">PropertiesSetter</text><rect fill="#FEFECE" filter="url(#f1jj55rvqbbsi2)" height="31.6094" style="stroke: #A80036; stroke-width: 1.5;" width="126" x="420.5" y="3"/><text fill="#000000" font-family="sans-serif" font-size="14" lengthAdjust="spacingAndGlyphs" textLength="112" x="427.5" y="24.5332">ArrayListMultimap</text><rect fill="#FEFECE" filter="url(#f1jj55rvqbbsi2)" height="31.6094" style="stroke: #A80036; stroke-width: 1.5;" width="126" x="420.5" y="1237.9141"/><text fill="#000000" font-family="sans-serif" font-size="14" lengthAdjust="spacingAndGlyphs" textLength="112" x="427.5" y="1259.4473">ArrayListMultimap</text><rect fill="#FEFECE" filter="url(#f1jj55rvqbbsi2)" height="31.6094" style="stroke: #A80036; stroke-width: 1.5;" width="115" x="560.5" y="3"/><text fill="#000000" font-family="sans-serif" font-size="14" lengthAdjust="spacingAndGlyphs" textLength="101" x="567.5" y="24.5332">IdentityArrayList</text><rect fill="#FEFECE" filter="url(#f1jj55rvqbbsi2)" height="31.6094" style="stroke: #A80036; stroke-width: 1.5;" width="115" x="560.5" y="1237.9141"/><text fill="#000000" font-family="sans-serif" font-size="14" lengthAdjust="spacingAndGlyphs" textLength="101" x="567.5" y="1259.4473">IdentityArrayList</text><rect fill="#FEFECE" filter="url(#f1jj55rvqbbsi2)" height="31.6094" style="stroke: #A80036; stroke-width: 1.5;" width="109" x="689.5" y="3"/><text fill="#000000" font-family="sans-serif" font-size="14" lengthAdjust="spacingAndGlyphs" textLength="95" x="696.5" y="24.5332">InvokeDynamic</text><rect fill="#FEFECE" filter="url(#f1jj55rvqbbsi2)" height="31.6094" style="stroke: #A80036; stroke-width: 1.5;" width="109" x="689.5" y="1237.9141"/><text fill="#000000" font-family="sans-serif" font-size="14" lengthAdjust="spacingAndGlyphs" textLength="95" x="696.5" y="1259.4473">InvokeDynamic</text><rect fill="#FEFECE" filter="url(#f1jj55rvqbbsi2)" height="31.6094" style="stroke: #A80036; stroke-width: 1.5;" width="110" x="812.5" y="3"/><text fill="#000000" font-family="sans-serif" font-size="14" lengthAdjust="spacingAndGlyphs" textLength="96" x="819.5" y="24.5332">PipelineModule</text><rect fill="#FEFECE" filter="url(#f1jj55rvqbbsi2)" height="31.6094" style="stroke: #A80036; stroke-width: 1.5;" width="110" x="812.5" y="1237.9141"/><text fill="#000000" font-family="sans-serif" font-size="14" lengthAdjust="spacingAndGlyphs" textLength="96" x="819.5" y="1259.4473">PipelineModule</text><rect fill="#FEFECE" filter="url(#f1jj55rvqbbsi2)" height="31.6094" style="stroke: #A80036; stroke-width: 1.5;" width="123" x="936.5" y="3"/><text fill="#000000" font-family="sans-serif" font-size="14" lengthAdjust="spacingAndGlyphs" textLength="109" x="943.5" y="24.5332">ReflectionModule</text><rect fill="#FEFECE" filter="url(#f1jj55rvqbbsi2)" height="31.6094" style="stroke: #A80036; stroke-width: 1.5;" width="123" x="936.5" y="1237.9141"/><text fill="#000000" font-family="sans-serif" font-size="14" lengthAdjust="spacingAndGlyphs" textLength="109" x="943.5" y="1259.4473">ReflectionModule</text><rect fill="#FEFECE" filter="url(#f1jj55rvqbbsi2)" height="31.6094" style="stroke: #A80036; stroke-width: 1.5;" width="183" x="1073.5" y="3"/><text fill="#000000" font-family="sans-serif" font-size="14" lengthAdjust="spacingAndGlyphs" textLength="169" x="1080.5" y="24.5332">RendererRelfectionModule</text><rect fill="#FEFECE" filter="url(#f1jj55rvqbbsi2)" height="31.6094" style="stroke: #A80036; stroke-width: 1.5;" width="183" x="1073.5" y="1237.9141"/><text fill="#000000" font-family="sans-serif" font-size="14" lengthAdjust="spacingAndGlyphs" textLength="169" x="1080.5" y="1259.4473">RendererRelfectionModule</text><rect fill="#FEFECE" filter="url(#f1jj55rvqbbsi2)" height="31.6094" style="stroke: #A80036; stroke-width: 1.5;" width="51" x="1270.5" y="3"/><text fill="#000000" font-family="sans-serif" font-size="14" lengthAdjust="spacingAndGlyphs" textLength="37" x="1277.5" y="24.5332">Guice</text><rect fill="#FEFECE" filter="url(#f1jj55rvqbbsi2)" height="31.6094" style="stroke: #A80036; stroke-width: 1.5;" width="51" x="1270.5" y="1237.9141"/><text fill="#000000" font-family="sans-serif" font-size="14" lengthAdjust="spacingAndGlyphs" textLength="37" x="1277.5" y="1259.4473">Guice</text><rect fill="#FEFECE" filter="url(#f1jj55rvqbbsi2)" height="31.6094" style="stroke: #A80036; stroke-width: 1.5;" width="78" x="1335.5" y="3"/><text fill="#000000" font-family="sans-serif" font-size="14" lengthAdjust="spacingAndGlyphs" textLength="64" x="1342.5" y="24.5332">Processor</text><rect fill="#FEFECE" filter="url(#f1jj55rvqbbsi2)" height="31.6094" style="stroke: #A80036; stroke-width: 1.5;" width="78" x="1335.5" y="1237.9141"/><text fill="#000000" font-family="sans-serif" font-size="14" lengthAdjust="spacingAndGlyphs" textLength="64" x="1342.5" y="1259.4473">Processor</text><rect fill="#FEFECE" filter="url(#f1jj55rvqbbsi2)" height="31.6094" style="stroke: #A80036; stroke-width: 1.5;" width="107" x="1495" y="3"/><text fill="#000000" font-family="sans-serif" font-size="14" lengthAdjust="spacingAndGlyphs" textLength="93" x="1502" y="24.5332">EmptyAnalyzer</text><rect fill="#FEFECE" filter="url(#f1jj55rvqbbsi2)" height="31.6094" style="stroke: #A80036; stroke-width: 1.5;" width="107" x="1495" y="1237.9141"/><text fill="#000000" font-family="sans-serif" font-size="14" lengthAdjust="spacingAndGlyphs" textLength="93" x="1502" y="1259.4473">EmptyAnalyzer</text><rect fill="#FFFFFF" filter="url(#f1jj55rvqbbsi2)" height="1158.3047" style="stroke: #A80036; stroke-width: 1.0;" width="10" x="138.5" y="71.6094"/><rect fill="#FFFFFF" filter="url(#f1jj55rvqbbsi2)" height="30.3516" style="stroke: #A80036; stroke-width: 1.0;" width="10" x="480.5" y="275.3672"/><rect fill="#FFFFFF" filter="url(#f1jj55rvqbbsi2)" height="30.3516" style="stroke: #A80036; stroke-width: 1.0;" width="10" x="480.5" y="336.0703"/><rect fill="#FFFFFF" filter="url(#f1jj55rvqbbsi2)" height="30.3516" style="stroke: #A80036; stroke-width: 1.0;" width="10" x="480.5" y="396.7734"/><rect fill="#FFFFFF" filter="url(#f1jj55rvqbbsi2)" height="30.3516" style="stroke: #A80036; stroke-width: 1.0;" width="10" x="480.5" y="544.1797"/><rect fill="#FFFFFF" filter="url(#f1jj55rvqbbsi2)" height="30.3516" style="stroke: #A80036; stroke-width: 1.0;" width="10" x="480.5" y="795.6406"/><rect fill="#FFFFFF" filter="url(#f1jj55rvqbbsi2)" height="30.3516" style="stroke: #A80036; stroke-width: 1.0;" width="10" x="615" y="604.8828"/><rect fill="#FFFFFF" filter="url(#f1jj55rvqbbsi2)" height="30.3516" style="stroke: #A80036; stroke-width: 1.0;" width="10" x="615" y="1099.1563"/><rect fill="#FFFFFF" filter="url(#f1jj55rvqbbsi2)" height="30.3516" style="stroke: #A80036; stroke-width: 1.0;" width="10" x="741" y="856.3438"/><rect fill="#FFFFFF" filter="url(#f1jj55rvqbbsi2)" height="30.3516" style="stroke: #A80036; stroke-width: 1.0;" width="10" x="1293" y="1008.1016"/><rect fill="#FFFFFF" filter="url(#f1jj55rvqbbsi2)" height="151.7578" style="stroke: #A80036; stroke-width: 1.0;" width="10" x="1371.5" y="1068.8047"/><rect fill="#FFFFFF" filter="url(#f1jj55rvqbbsi2)" height="30.3516" style="stroke: #A80036; stroke-width: 1.0;" width="10" x="1545.5" y="1159.8594"/><polygon fill="#A80036" points="126.5,67.6094,136.5,71.6094,126.5,75.6094,130.5,71.6094" style="stroke: #A80036; stroke-width: 1.0;"/><line style="stroke: #A80036; stroke-width: 1.0;" x1="40.5" x2="132.5" y1="71.6094" y2="71.6094"/><text fill="#000000" font-family="sans-serif" font-size="13" lengthAdjust="spacingAndGlyphs" textLength="68" x="47.5" y="67.1045">set(String[])</text><line style="stroke: #A80036; stroke-width: 1.0;" x1="148.5" x2="190.5" y1="102.3125" y2="102.3125"/><line style="stroke: #A80036; stroke-width: 1.0;" x1="190.5" x2="190.5" y1="102.3125" y2="115.3125"/><line style="stroke: #A80036; stroke-width: 1.0;" x1="149.5" x2="190.5" y1="115.3125" y2="115.3125"/><polygon fill="#A80036" points="159.5,111.3125,149.5,115.3125,159.5,119.3125,155.5,115.3125" style="stroke: #A80036; stroke-width: 1.0;"/><text fill="#000000" font-family="sans-serif" font-size="13" lengthAdjust="spacingAndGlyphs" textLength="104" x="155.5" y="97.4561">setConfig(String[])</text><line style="stroke: #A80036; stroke-width: 1.0;" x1="148.5" x2="190.5" y1="145.6641" y2="145.6641"/><line style="stroke: #A80036; stroke-width: 1.0;" x1="190.5" x2="190.5" y1="145.6641" y2="158.6641"/><line style="stroke: #A80036; stroke-width: 1.0;" x1="149.5" x2="190.5" y1="158.6641" y2="158.6641"/><polygon fill="#A80036" points="159.5,154.6641,149.5,158.6641,159.5,162.6641,155.5,158.6641" style="stroke: #A80036; stroke-width: 1.0;"/><text fill="#000000" font-family="sans-serif" font-size="13" lengthAdjust="spacingAndGlyphs" textLength="141" x="155.5" y="140.8076">preprocessArgs(String[])</text><line style="stroke: #A80036; stroke-width: 1.0; stroke-dasharray: 2.0,2.0;" x1="148.5" x2="190.5" y1="189.0156" y2="189.0156"/><line style="stroke: #A80036; stroke-width: 1.0; stroke-dasharray: 2.0,2.0;" x1="190.5" x2="190.5" y1="189.0156" y2="202.0156"/><line style="stroke: #A80036; stroke-width: 1.0; stroke-dasharray: 2.0,2.0;" x1="149.5" x2="190.5" y1="202.0156" y2="202.0156"/><polygon fill="#A80036" points="159.5,198.0156,149.5,202.0156,159.5,206.0156,155.5,202.0156" style="stroke: #A80036; stroke-width: 1.0;"/><text fill="#000000" font-family="sans-serif" font-size="13" lengthAdjust="spacingAndGlyphs" textLength="141" x="155.5" y="184.1592">preprocessArgs(String[])</text><line style="stroke: #A80036; stroke-width: 1.0;" x1="148.5" x2="190.5" y1="232.3672" y2="232.3672"/><line style="stroke: #A80036; stroke-width: 1.0;" x1="190.5" x2="190.5" y1="232.3672" y2="245.3672"/><line style="stroke: #A80036; stroke-width: 1.0;" x1="149.5" x2="190.5" y1="245.3672" y2="245.3672"/><polygon fill="#A80036" points="159.5,241.3672,149.5,245.3672,159.5,249.3672,155.5,245.3672" style="stroke: #A80036; stroke-width: 1.0;"/><text fill="#000000" font-family="sans-serif" font-size="13" lengthAdjust="spacingAndGlyphs" textLength="82" x="155.5" y="227.5107">parse(String[])</text><polygon fill="#A80036" points="468.5,271.3672,478.5,275.3672,468.5,279.3672,472.5,275.3672" style="stroke: #A80036; stroke-width: 1.0;"/><line style="stroke: #A80036; stroke-width: 1.0;" x1="148.5" x2="474.5" y1="275.3672" y2="275.3672"/><text fill="#000000" font-family="sans-serif" font-size="13" lengthAdjust="spacingAndGlyphs" textLength="44" x="155.5" y="270.8623">create()</text><polygon fill="#A80036" points="159.5,301.7188,149.5,305.7188,159.5,309.7188,155.5,305.7188" style="stroke: #A80036; stroke-width: 1.0;"/><line style="stroke: #A80036; stroke-width: 1.0; stroke-dasharray: 2.0,2.0;" x1="153.5" x2="484.5" y1="305.7188" y2="305.7188"/><text fill="#000000" font-family="sans-serif" font-size="13" lengthAdjust="spacingAndGlyphs" textLength="105" x="165.5" y="301.2139">ArrayListMultimap</text><polygon fill="#A80036" points="468.5,332.0703,478.5,336.0703,468.5,340.0703,472.5,336.0703" style="stroke: #A80036; stroke-width: 1.0;"/><line style="stroke: #A80036; stroke-width: 1.0;" x1="148.5" x2="474.5" y1="336.0703" y2="336.0703"/><text fill="#000000" font-family="sans-serif" font-size="13" lengthAdjust="spacingAndGlyphs" textLength="106" x="155.5" y="331.5654">put(Object,Object)</text><polygon fill="#A80036" points="159.5,362.4219,149.5,366.4219,159.5,370.4219,155.5,366.4219" style="stroke: #A80036; stroke-width: 1.0;"/><line style="stroke: #A80036; stroke-width: 1.0; stroke-dasharray: 2.0,2.0;" x1="153.5" x2="484.5" y1="366.4219" y2="366.4219"/><text fill="#000000" font-family="sans-serif" font-size="13" lengthAdjust="spacingAndGlyphs" textLength="45" x="165.5" y="361.917">boolean</text><polygon fill="#A80036" points="468.5,392.7734,478.5,396.7734,468.5,400.7734,472.5,396.7734" style="stroke: #A80036; stroke-width: 1.0;"/><line style="stroke: #A80036; stroke-width: 1.0;" x1="148.5" x2="474.5" y1="396.7734" y2="396.7734"/><text fill="#000000" font-family="sans-serif" font-size="13" lengthAdjust="spacingAndGlyphs" textLength="106" x="155.5" y="392.2686">put(Object,Object)</text><polygon fill="#A80036" points="159.5,423.125,149.5,427.125,159.5,431.125,155.5,427.125" style="stroke: #A80036; stroke-width: 1.0;"/><line style="stroke: #A80036; stroke-width: 1.0; stroke-dasharray: 2.0,2.0;" x1="153.5" x2="484.5" y1="427.125" y2="427.125"/><text fill="#000000" font-family="sans-serif" font-size="13" lengthAdjust="spacingAndGlyphs" textLength="45" x="165.5" y="422.6201">boolean</text><line style="stroke: #A80036; stroke-width: 1.0; stroke-dasharray: 2.0,2.0;" x1="148.5" x2="190.5" y1="457.8281" y2="457.8281"/><line style="stroke: #A80036; stroke-width: 1.0; stroke-dasharray: 2.0,2.0;" x1="190.5" x2="190.5" y1="457.8281" y2="470.8281"/><line style="stroke: #A80036; stroke-width: 1.0; stroke-dasharray: 2.0,2.0;" x1="149.5" x2="190.5" y1="470.8281" y2="470.8281"/><polygon fill="#A80036" points="159.5,466.8281,149.5,470.8281,159.5,474.8281,155.5,470.8281" style="stroke: #A80036; stroke-width: 1.0;"/><text fill="#000000" font-family="sans-serif" font-size="13" lengthAdjust="spacingAndGlyphs" textLength="82" x="155.5" y="452.9717">parse(String[])</text><line style="stroke: #A80036; stroke-width: 1.0;" x1="148.5" x2="190.5" y1="501.1797" y2="501.1797"/><line style="stroke: #A80036; stroke-width: 1.0;" x1="190.5" x2="190.5" y1="501.1797" y2="514.1797"/><line style="stroke: #A80036; stroke-width: 1.0;" x1="149.5" x2="190.5" y1="514.1797" y2="514.1797"/><polygon fill="#A80036" points="159.5,510.1797,149.5,514.1797,159.5,518.1797,155.5,514.1797" style="stroke: #A80036; stroke-width: 1.0;"/><text fill="#000000" font-family="sans-serif" font-size="13" lengthAdjust="spacingAndGlyphs" textLength="251" x="155.5" y="496.3232">loadConfigFile(ListMultimap&lt;String,String&gt;)</text><polygon fill="#A80036" points="468.5,540.1797,478.5,544.1797,468.5,548.1797,472.5,544.1797" style="stroke: #A80036; stroke-width: 1.0;"/><line style="stroke: #A80036; stroke-width: 1.0;" x1="148.5" x2="474.5" y1="544.1797" y2="544.1797"/><text fill="#000000" font-family="sans-serif" font-size="13" lengthAdjust="spacingAndGlyphs" textLength="64" x="155.5" y="539.6748">get(Object)</text><polygon fill="#A80036" points="159.5,570.5313,149.5,574.5313,159.5,578.5313,155.5,574.5313" style="stroke: #A80036; stroke-width: 1.0;"/><line style="stroke: #A80036; stroke-width: 1.0; stroke-dasharray: 2.0,2.0;" x1="153.5" x2="484.5" y1="574.5313" y2="574.5313"/><text fill="#000000" font-family="sans-serif" font-size="13" lengthAdjust="spacingAndGlyphs" textLength="21" x="165.5" y="570.0264">List</text><polygon fill="#A80036" points="603,600.8828,613,604.8828,603,608.8828,607,604.8828" style="stroke: #A80036; stroke-width: 1.0;"/><line style="stroke: #A80036; stroke-width: 1.0;" x1="148.5" x2="609" y1="604.8828" y2="604.8828"/><text fill="#000000" font-family="sans-serif" font-size="13" lengthAdjust="spacingAndGlyphs" textLength="40" x="155.5" y="600.3779">get(int)</text><polygon fill="#A80036" points="159.5,631.2344,149.5,635.2344,159.5,639.2344,155.5,635.2344" style="stroke: #A80036; stroke-width: 1.0;"/><line style="stroke: #A80036; stroke-width: 1.0; stroke-dasharray: 2.0,2.0;" x1="153.5" x2="619" y1="635.2344" y2="635.2344"/><text fill="#000000" font-family="sans-serif" font-size="13" lengthAdjust="spacingAndGlyphs" textLength="38" x="165.5" y="630.7295">Object</text><line style="stroke: #A80036; stroke-width: 1.0; stroke-dasharray: 2.0,2.0;" x1="148.5" x2="190.5" y1="665.9375" y2="665.9375"/><line style="stroke: #A80036; stroke-width: 1.0; stroke-dasharray: 2.0,2.0;" x1="190.5" x2="190.5" y1="665.9375" y2="678.9375"/><line style="stroke: #A80036; stroke-width: 1.0; stroke-dasharray: 2.0,2.0;" x1="149.5" x2="190.5" y1="678.9375" y2="678.9375"/><polygon fill="#A80036" points="159.5,674.9375,149.5,678.9375,159.5,682.9375,155.5,678.9375" style="stroke: #A80036; stroke-width: 1.0;"/><text fill="#000000" font-family="sans-serif" font-size="13" lengthAdjust="spacingAndGlyphs" textLength="251" x="155.5" y="661.0811">loadConfigFile(ListMultimap&lt;String,String&gt;)</text><line style="stroke: #A80036; stroke-width: 1.0;" x1="148.5" x2="190.5" y1="709.2891" y2="709.2891"/><line style="stroke: #A80036; stroke-width: 1.0;" x1="190.5" x2="190.5" y1="709.2891" y2="722.2891"/><line style="stroke: #A80036; stroke-width: 1.0;" x1="149.5" x2="190.5" y1="722.2891" y2="722.2891"/><polygon fill="#A80036" points="159.5,718.2891,149.5,722.2891,159.5,726.2891,155.5,722.2891" style="stroke: #A80036; stroke-width: 1.0;"/><text fill="#000000" font-family="sans-serif" font-size="13" lengthAdjust="spacingAndGlyphs" textLength="200" x="155.5" y="704.4326">setSystemProperties(InputStream)</text><line style="stroke: #A80036; stroke-width: 1.0;" x1="148.5" x2="190.5" y1="752.6406" y2="752.6406"/><line style="stroke: #A80036; stroke-width: 1.0;" x1="190.5" x2="190.5" y1="752.6406" y2="765.6406"/><line style="stroke: #A80036; stroke-width: 1.0;" x1="149.5" x2="190.5" y1="765.6406" y2="765.6406"/><polygon fill="#A80036" points="159.5,761.6406,149.5,765.6406,159.5,769.6406,155.5,765.6406" style="stroke: #A80036; stroke-width: 1.0;"/><text fill="#000000" font-family="sans-serif" font-size="13" lengthAdjust="spacingAndGlyphs" textLength="318" x="155.5" y="747.7842">overrideSystemProperties(ListMultimap&lt;String,String&gt;)</text><polygon fill="#A80036" points="468.5,791.6406,478.5,795.6406,468.5,799.6406,472.5,795.6406" style="stroke: #A80036; stroke-width: 1.0;"/><line style="stroke: #A80036; stroke-width: 1.0;" x1="148.5" x2="474.5" y1="795.6406" y2="795.6406"/><text fill="#000000" font-family="sans-serif" font-size="13" lengthAdjust="spacingAndGlyphs" textLength="36" x="155.5" y="791.1357">keys()</text><polygon fill="#A80036" points="159.5,821.9922,149.5,825.9922,159.5,829.9922,155.5,825.9922" style="stroke: #A80036; stroke-width: 1.0;"/><line style="stroke: #A80036; stroke-width: 1.0; stroke-dasharray: 2.0,2.0;" x1="153.5" x2="484.5" y1="825.9922" y2="825.9922"/><text fill="#000000" font-family="sans-serif" font-size="13" lengthAdjust="spacingAndGlyphs" textLength="46" x="165.5" y="821.4873">Multiset</text><polygon fill="#A80036" points="729,852.3438,739,856.3438,729,860.3438,733,856.3438" style="stroke: #A80036; stroke-width: 1.0;"/><line style="stroke: #A80036; stroke-width: 1.0;" x1="148.5" x2="735" y1="856.3438" y2="856.3438"/><text fill="#000000" font-family="sans-serif" font-size="13" lengthAdjust="spacingAndGlyphs" textLength="121" x="155.5" y="851.8389">accept(ListMultimap)</text><polygon fill="#A80036" points="159.5,882.6953,149.5,886.6953,159.5,890.6953,155.5,886.6953" style="stroke: #A80036; stroke-width: 1.0;"/><line style="stroke: #A80036; stroke-width: 1.0; stroke-dasharray: 2.0,2.0;" x1="153.5" x2="745" y1="886.6953" y2="886.6953"/><text fill="#000000" font-family="sans-serif" font-size="13" lengthAdjust="spacingAndGlyphs" textLength="59" x="165.5" y="882.1904">Consumer</text><polygon fill="#A80036" points="857.5,913.0469,867.5,917.0469,857.5,921.0469,861.5,917.0469" style="stroke: #A80036; stroke-width: 1.0;"/><line style="stroke: #A80036; stroke-width: 1.0;" x1="40.5" x2="863.5" y1="917.0469" y2="917.0469"/><text fill="#000000" font-family="sans-serif" font-size="13" lengthAdjust="spacingAndGlyphs" textLength="115" x="47.5" y="912.542">new PipelineModule</text><polygon fill="#A80036" points="988,943.3984,998,947.3984,988,951.3984,992,947.3984" style="stroke: #A80036; stroke-width: 1.0;"/><line style="stroke: #A80036; stroke-width: 1.0;" x1="40.5" x2="994" y1="947.3984" y2="947.3984"/><text fill="#000000" font-family="sans-serif" font-size="13" lengthAdjust="spacingAndGlyphs" textLength="126" x="47.5" y="942.8936">new ReflectionModule</text><polygon fill="#A80036" points="1155,973.75,1165,977.75,1155,981.75,1159,977.75" style="stroke: #A80036; stroke-width: 1.0;"/><line style="stroke: #A80036; stroke-width: 1.0;" x1="40.5" x2="1161" y1="977.75" y2="977.75"/><text fill="#000000" font-family="sans-serif" font-size="13" lengthAdjust="spacingAndGlyphs" textLength="178" x="47.5" y="973.2451">new RendererRelfectionModule</text><polygon fill="#A80036" points="1281,1004.1016,1291,1008.1016,1281,1012.1016,1285,1008.1016" style="stroke: #A80036; stroke-width: 1.0;"/><line style="stroke: #A80036; stroke-width: 1.0;" x1="40.5" x2="1287" y1="1008.1016" y2="1008.1016"/><text fill="#000000" font-family="sans-serif" font-size="13" lengthAdjust="spacingAndGlyphs" textLength="136" x="47.5" y="1003.5967">createInjector(Module[])</text><polygon fill="#A80036" points="51.5,1034.4531,41.5,1038.4531,51.5,1042.4531,47.5,1038.4531" style="stroke: #A80036; stroke-width: 1.0;"/><line style="stroke: #A80036; stroke-width: 1.0; stroke-dasharray: 2.0,2.0;" x1="45.5" x2="1297" y1="1038.4531" y2="1038.4531"/><text fill="#000000" font-family="sans-serif" font-size="13" lengthAdjust="spacingAndGlyphs" textLength="42" x="57.5" y="1033.9482">Injector</text><polygon fill="#A80036" points="1359.5,1064.8047,1369.5,1068.8047,1359.5,1072.8047,1363.5,1068.8047" style="stroke: #A80036; stroke-width: 1.0;"/><line style="stroke: #A80036; stroke-width: 1.0;" x1="40.5" x2="1365.5" y1="1068.8047" y2="1068.8047"/><text fill="#000000" font-family="sans-serif" font-size="13" lengthAdjust="spacingAndGlyphs" textLength="100" x="47.5" y="1064.2998">executePipeline()</text><polygon fill="#A80036" points="636,1095.1563,626,1099.1563,636,1103.1563,632,1099.1563" style="stroke: #A80036; stroke-width: 1.0;"/><line style="stroke: #A80036; stroke-width: 1.0;" x1="630" x2="1370.5" y1="1099.1563" y2="1099.1563"/><text fill="#000000" font-family="sans-serif" font-size="13" lengthAdjust="spacingAndGlyphs" textLength="40" x="642" y="1094.6514">get(int)</text><polygon fill="#A80036" points="1359.5,1125.5078,1369.5,1129.5078,1359.5,1133.5078,1363.5,1129.5078" style="stroke: #A80036; stroke-width: 1.0;"/><line style="stroke: #A80036; stroke-width: 1.0; stroke-dasharray: 2.0,2.0;" x1="620" x2="1365.5" y1="1129.5078" y2="1129.5078"/><text fill="#000000" font-family="sans-serif" font-size="13" lengthAdjust="spacingAndGlyphs" textLength="38" x="627" y="1125.0029">Object</text><polygon fill="#A80036" points="1533.5,1155.8594,1543.5,1159.8594,1533.5,1163.8594,1537.5,1159.8594" style="stroke: #A80036; stroke-width: 1.0;"/><line style="stroke: #A80036; stroke-width: 1.0;" x1="1381.5" x2="1539.5" y1="1159.8594" y2="1159.8594"/><text fill="#000000" font-family="sans-serif" font-size="13" lengthAdjust="spacingAndGlyphs" textLength="145" x="1388.5" y="1155.3545">execute(AnalyzerBundle)</text><polygon fill="#A80036" points="1392.5,1186.2109,1382.5,1190.2109,1392.5,1194.2109,1388.5,1190.2109" style="stroke: #A80036; stroke-width: 1.0;"/><line style="stroke: #A80036; stroke-width: 1.0; stroke-dasharray: 2.0,2.0;" x1="1386.5" x2="1549.5" y1="1190.2109" y2="1190.2109"/><text fill="#000000" font-family="sans-serif" font-size="13" lengthAdjust="spacingAndGlyphs" textLength="91" x="1398.5" y="1185.7061">AnalyzerBundle</text><polygon fill="#A80036" points="51.5,1216.5625,41.5,1220.5625,51.5,1224.5625,47.5,1220.5625" style="stroke: #A80036; stroke-width: 1.0;"/><line style="stroke: #A80036; stroke-width: 1.0; stroke-dasharray: 2.0,2.0;" x1="45.5" x2="1375.5" y1="1220.5625" y2="1220.5625"/><text fill="#000000" font-family="sans-serif" font-size="13" lengthAdjust="spacingAndGlyphs" textLength="91" x="57.5" y="1216.0576">AnalyzerBundle</text></g></svg>