<?xml version="1.0" encoding="UTF-8" standalone="no"?><svg xmlns="http://www.w3.org/2000/svg" xmlns:xlink="http://www.w3.org/1999/xlink" contentScriptType="application/ecmascript" contentStyleType="text/css" height="2533px" preserveAspectRatio="none" style="width:2624px;height:2533px;" version="1.1" viewBox="0 0 2624 2533" width="2624px" zoomAndPan="magnify"><defs><filter height="300%" id="ftpe5qr25t1sc" width="300%" x="-1" y="-1"><feGaussianBlur result="blurOut" stdDeviation="2.0"/><feColorMatrix in="blurOut" result="blurOut2" type="matrix" values="0 0 0 0 0 0 0 0 0 0 0 0 0 0 0 0 0 0 .4 0"/><feOffset dx="4.0" dy="4.0" in="blurOut2" result="blurOut3"/><feBlend in="SourceGraphic" in2="blurOut3" mode="normal"/></filter></defs><g><line style="stroke: #A80036; stroke-width: 1.0; stroke-dasharray: 5.0,5.0;" x1="40" x2="40" y1="39.6094" y2="2491.8672"/><line style="stroke: #A80036; stroke-width: 1.0; stroke-dasharray: 5.0,5.0;" x1="143" x2="143" y1="39.6094" y2="2491.8672"/><line style="stroke: #A80036; stroke-width: 1.0; stroke-dasharray: 5.0,5.0;" x1="319.5" x2="319.5" y1="39.6094" y2="2491.8672"/><line style="stroke: #A80036; stroke-width: 1.0; stroke-dasharray: 5.0,5.0;" x1="442.5" x2="442.5" y1="39.6094" y2="2491.8672"/><line style="stroke: #A80036; stroke-width: 1.0; stroke-dasharray: 5.0,5.0;" x1="556.5" x2="556.5" y1="39.6094" y2="2491.8672"/><line style="stroke: #A80036; stroke-width: 1.0; stroke-dasharray: 5.0,5.0;" x1="680.5" x2="680.5" y1="39.6094" y2="2491.8672"/><line style="stroke: #A80036; stroke-width: 1.0; stroke-dasharray: 5.0,5.0;" x1="810.5" x2="810.5" y1="39.6094" y2="2491.8672"/><line style="stroke: #A80036; stroke-width: 1.0; stroke-dasharray: 5.0,5.0;" x1="977.5" x2="977.5" y1="39.6094" y2="2491.8672"/><line style="stroke: #A80036; stroke-width: 1.0; stroke-dasharray: 5.0,5.0;" x1="1108.5" x2="1108.5" y1="39.6094" y2="2491.8672"/><line style="stroke: #A80036; stroke-width: 1.0; stroke-dasharray: 5.0,5.0;" x1="1187.5" x2="1187.5" y1="39.6094" y2="2491.8672"/><line style="stroke: #A80036; stroke-width: 1.0; stroke-dasharray: 5.0,5.0;" x1="1314.5" x2="1314.5" y1="39.6094" y2="2491.8672"/><line style="stroke: #A80036; stroke-width: 1.0; stroke-dasharray: 5.0,5.0;" x1="1528.5" x2="1528.5" y1="39.6094" y2="2491.8672"/><line style="stroke: #A80036; stroke-width: 1.0; stroke-dasharray: 5.0,5.0;" x1="1651.5" x2="1651.5" y1="39.6094" y2="2491.8672"/><line style="stroke: #A80036; stroke-width: 1.0; stroke-dasharray: 5.0,5.0;" x1="1739.5" x2="1739.5" y1="39.6094" y2="2491.8672"/><line style="stroke: #A80036; stroke-width: 1.0; stroke-dasharray: 5.0,5.0;" x1="1808.5" x2="1808.5" y1="39.6094" y2="2491.8672"/><line style="stroke: #A80036; stroke-width: 1.0; stroke-dasharray: 5.0,5.0;" x1="1918" x2="1918" y1="39.6094" y2="2491.8672"/><line style="stroke: #A80036; stroke-width: 1.0; stroke-dasharray: 5.0,5.0;" x1="1994" x2="1994" y1="39.6094" y2="2491.8672"/><line style="stroke: #A80036; stroke-width: 1.0; stroke-dasharray: 5.0,5.0;" x1="2070" x2="2070" y1="39.6094" y2="2491.8672"/><line style="stroke: #A80036; stroke-width: 1.0; stroke-dasharray: 5.0,5.0;" x1="2191" x2="2191" y1="39.6094" y2="2491.8672"/><line style="stroke: #A80036; stroke-width: 1.0; stroke-dasharray: 5.0,5.0;" x1="2309" x2="2309" y1="39.6094" y2="2491.8672"/><line style="stroke: #A80036; stroke-width: 1.0; stroke-dasharray: 5.0,5.0;" x1="2408" x2="2408" y1="39.6094" y2="2491.8672"/><line style="stroke: #A80036; stroke-width: 1.0; stroke-dasharray: 5.0,5.0;" x1="2507" x2="2507" y1="39.6094" y2="2491.8672"/><line style="stroke: #A80036; stroke-width: 1.0; stroke-dasharray: 5.0,5.0;" x1="2597" x2="2597" y1="39.6094" y2="2491.8672"/><rect fill="#FEFECE" filter="url(#ftpe5qr25t1sc)" height="31.6094" style="stroke: #A80036; stroke-width: 1.5;" width="61" x="8" y="3"/><text fill="#000000" font-family="sans-serif" font-size="14" lengthAdjust="spacingAndGlyphs" textLength="47" x="15" y="24.5332">Runner</text><rect fill="#FEFECE" filter="url(#ftpe5qr25t1sc)" height="31.6094" style="stroke: #A80036; stroke-width: 1.5;" width="61" x="8" y="2490.8672"/><text fill="#000000" font-family="sans-serif" font-size="14" lengthAdjust="spacingAndGlyphs" textLength="47" x="15" y="2512.4004">Runner</text><rect fill="#FEFECE" filter="url(#ftpe5qr25t1sc)" height="31.6094" style="stroke: #A80036; stroke-width: 1.5;" width="117" x="83" y="3"/><text fill="#000000" font-family="sans-serif" font-size="14" lengthAdjust="spacingAndGlyphs" textLength="103" x="90" y="24.5332">PropertiesSetter</text><rect fill="#FEFECE" filter="url(#ftpe5qr25t1sc)" height="31.6094" style="stroke: #A80036; stroke-width: 1.5;" width="117" x="83" y="2490.8672"/><text fill="#000000" font-family="sans-serif" font-size="14" lengthAdjust="spacingAndGlyphs" textLength="103" x="90" y="2512.4004">PropertiesSetter</text><rect fill="#FEFECE" filter="url(#ftpe5qr25t1sc)" height="31.6094" style="stroke: #A80036; stroke-width: 1.5;" width="126" x="254.5" y="3"/><text fill="#000000" font-family="sans-serif" font-size="14" lengthAdjust="spacingAndGlyphs" textLength="112" x="261.5" y="24.5332">ArrayListMultimap</text><rect fill="#FEFECE" filter="url(#ftpe5qr25t1sc)" height="31.6094" style="stroke: #A80036; stroke-width: 1.5;" width="126" x="254.5" y="2490.8672"/><text fill="#000000" font-family="sans-serif" font-size="14" lengthAdjust="spacingAndGlyphs" textLength="112" x="261.5" y="2512.4004">ArrayListMultimap</text><rect fill="#FEFECE" filter="url(#ftpe5qr25t1sc)" height="31.6094" style="stroke: #A80036; stroke-width: 1.5;" width="92" x="394.5" y="3"/><text fill="#000000" font-family="sans-serif" font-size="14" lengthAdjust="spacingAndGlyphs" textLength="78" x="401.5" y="24.5332">ListMultimap</text><rect fill="#FEFECE" filter="url(#ftpe5qr25t1sc)" height="31.6094" style="stroke: #A80036; stroke-width: 1.5;" width="92" x="394.5" y="2490.8672"/><text fill="#000000" font-family="sans-serif" font-size="14" lengthAdjust="spacingAndGlyphs" textLength="78" x="401.5" y="2512.4004">ListMultimap</text><rect fill="#FEFECE" filter="url(#ftpe5qr25t1sc)" height="31.6094" style="stroke: #A80036; stroke-width: 1.5;" width="109" x="500.5" y="3"/><text fill="#000000" font-family="sans-serif" font-size="14" lengthAdjust="spacingAndGlyphs" textLength="95" x="507.5" y="24.5332">InvokeDynamic</text><rect fill="#FEFECE" filter="url(#ftpe5qr25t1sc)" height="31.6094" style="stroke: #A80036; stroke-width: 1.5;" width="109" x="500.5" y="2490.8672"/><text fill="#000000" font-family="sans-serif" font-size="14" lengthAdjust="spacingAndGlyphs" textLength="95" x="507.5" y="2512.4004">InvokeDynamic</text><rect fill="#FEFECE" filter="url(#ftpe5qr25t1sc)" height="31.6094" style="stroke: #A80036; stroke-width: 1.5;" width="110" x="623.5" y="3"/><text fill="#000000" font-family="sans-serif" font-size="14" lengthAdjust="spacingAndGlyphs" textLength="96" x="630.5" y="24.5332">PipelineModule</text><rect fill="#FEFECE" filter="url(#ftpe5qr25t1sc)" height="31.6094" style="stroke: #A80036; stroke-width: 1.5;" width="110" x="623.5" y="2490.8672"/><text fill="#000000" font-family="sans-serif" font-size="14" lengthAdjust="spacingAndGlyphs" textLength="96" x="630.5" y="2512.4004">PipelineModule</text><rect fill="#FEFECE" filter="url(#ftpe5qr25t1sc)" height="31.6094" style="stroke: #A80036; stroke-width: 1.5;" width="123" x="747.5" y="3"/><text fill="#000000" font-family="sans-serif" font-size="14" lengthAdjust="spacingAndGlyphs" textLength="109" x="754.5" y="24.5332">ReflectionModule</text><rect fill="#FEFECE" filter="url(#ftpe5qr25t1sc)" height="31.6094" style="stroke: #A80036; stroke-width: 1.5;" width="123" x="747.5" y="2490.8672"/><text fill="#000000" font-family="sans-serif" font-size="14" lengthAdjust="spacingAndGlyphs" textLength="109" x="754.5" y="2512.4004">ReflectionModule</text><rect fill="#FEFECE" filter="url(#ftpe5qr25t1sc)" height="31.6094" style="stroke: #A80036; stroke-width: 1.5;" width="183" x="884.5" y="3"/><text fill="#000000" font-family="sans-serif" font-size="14" lengthAdjust="spacingAndGlyphs" textLength="169" x="891.5" y="24.5332">RendererRelfectionModule</text><rect fill="#FEFECE" filter="url(#ftpe5qr25t1sc)" height="31.6094" style="stroke: #A80036; stroke-width: 1.5;" width="183" x="884.5" y="2490.8672"/><text fill="#000000" font-family="sans-serif" font-size="14" lengthAdjust="spacingAndGlyphs" textLength="169" x="891.5" y="2512.4004">RendererRelfectionModule</text><rect fill="#FEFECE" filter="url(#ftpe5qr25t1sc)" height="31.6094" style="stroke: #A80036; stroke-width: 1.5;" width="51" x="1081.5" y="3"/><text fill="#000000" font-family="sans-serif" font-size="14" lengthAdjust="spacingAndGlyphs" textLength="37" x="1088.5" y="24.5332">Guice</text><rect fill="#FEFECE" filter="url(#ftpe5qr25t1sc)" height="31.6094" style="stroke: #A80036; stroke-width: 1.5;" width="51" x="1081.5" y="2490.8672"/><text fill="#000000" font-family="sans-serif" font-size="14" lengthAdjust="spacingAndGlyphs" textLength="37" x="1088.5" y="2512.4004">Guice</text><rect fill="#FEFECE" filter="url(#ftpe5qr25t1sc)" height="31.6094" style="stroke: #A80036; stroke-width: 1.5;" width="78" x="1146.5" y="3"/><text fill="#000000" font-family="sans-serif" font-size="14" lengthAdjust="spacingAndGlyphs" textLength="64" x="1153.5" y="24.5332">Processor</text><rect fill="#FEFECE" filter="url(#ftpe5qr25t1sc)" height="31.6094" style="stroke: #A80036; stroke-width: 1.5;" width="78" x="1146.5" y="2490.8672"/><text fill="#000000" font-family="sans-serif" font-size="14" lengthAdjust="spacingAndGlyphs" textLength="64" x="1153.5" y="2512.4004">Processor</text><rect fill="#FEFECE" filter="url(#ftpe5qr25t1sc)" height="31.6094" style="stroke: #A80036; stroke-width: 1.5;" width="148" x="1238.5" y="3"/><text fill="#000000" font-family="sans-serif" font-size="14" lengthAdjust="spacingAndGlyphs" textLength="134" x="1245.5" y="24.5332">DependencyAnalyzer</text><rect fill="#FEFECE" filter="url(#ftpe5qr25t1sc)" height="31.6094" style="stroke: #A80036; stroke-width: 1.5;" width="148" x="1238.5" y="2490.8672"/><text fill="#000000" font-family="sans-serif" font-size="14" lengthAdjust="spacingAndGlyphs" textLength="134" x="1245.5" y="2512.4004">DependencyAnalyzer</text><rect fill="#FEFECE" filter="url(#ftpe5qr25t1sc)" height="31.6094" style="stroke: #A80036; stroke-width: 1.5;" width="112" x="1470.5" y="3"/><text fill="#000000" font-family="sans-serif" font-size="14" lengthAdjust="spacingAndGlyphs" textLength="98" x="1477.5" y="24.5332">AnalyzerBundle</text><rect fill="#FEFECE" filter="url(#ftpe5qr25t1sc)" height="31.6094" style="stroke: #A80036; stroke-width: 1.5;" width="112" x="1470.5" y="2490.8672"/><text fill="#000000" font-family="sans-serif" font-size="14" lengthAdjust="spacingAndGlyphs" textLength="98" x="1477.5" y="2512.4004">AnalyzerBundle</text><rect fill="#FEFECE" filter="url(#ftpe5qr25t1sc)" height="31.6094" style="stroke: #A80036; stroke-width: 1.5;" width="107" x="1596.5" y="3"/><text fill="#000000" font-family="sans-serif" font-size="14" lengthAdjust="spacingAndGlyphs" textLength="93" x="1603.5" y="24.5332">MultiUIDefaults</text><rect fill="#FEFECE" filter="url(#ftpe5qr25t1sc)" height="31.6094" style="stroke: #A80036; stroke-width: 1.5;" width="107" x="1596.5" y="2490.8672"/><text fill="#000000" font-family="sans-serif" font-size="14" lengthAdjust="spacingAndGlyphs" textLength="93" x="1603.5" y="2512.4004">MultiUIDefaults</text><rect fill="#FEFECE" filter="url(#ftpe5qr25t1sc)" height="31.6094" style="stroke: #A80036; stroke-width: 1.5;" width="41" x="1717.5" y="3"/><text fill="#000000" font-family="sans-serif" font-size="14" lengthAdjust="spacingAndGlyphs" textLength="27" x="1724.5" y="24.5332">Map</text><rect fill="#FEFECE" filter="url(#ftpe5qr25t1sc)" height="31.6094" style="stroke: #A80036; stroke-width: 1.5;" width="41" x="1717.5" y="2490.8672"/><text fill="#000000" font-family="sans-serif" font-size="14" lengthAdjust="spacingAndGlyphs" textLength="27" x="1724.5" y="2512.4004">Map</text><rect fill="#FEFECE" filter="url(#ftpe5qr25t1sc)" height="31.6094" style="stroke: #A80036; stroke-width: 1.5;" width="68" x="1772.5" y="3"/><text fill="#000000" font-family="sans-serif" font-size="14" lengthAdjust="spacingAndGlyphs" textLength="54" x="1779.5" y="24.5332">Analyzer</text><rect fill="#FEFECE" filter="url(#ftpe5qr25t1sc)" height="31.6094" style="stroke: #A80036; stroke-width: 1.5;" width="68" x="1772.5" y="2490.8672"/><text fill="#000000" font-family="sans-serif" font-size="14" lengthAdjust="spacingAndGlyphs" textLength="54" x="1779.5" y="2512.4004">Analyzer</text><rect fill="#FEFECE" filter="url(#ftpe5qr25t1sc)" height="31.6094" style="stroke: #A80036; stroke-width: 1.5;" width="77" x="1878" y="3"/><text fill="#000000" font-family="sans-serif" font-size="14" lengthAdjust="spacingAndGlyphs" textLength="63" x="1885" y="24.5332">ClinitFilter</text><rect fill="#FEFECE" filter="url(#ftpe5qr25t1sc)" height="31.6094" style="stroke: #A80036; stroke-width: 1.5;" width="77" x="1878" y="2490.8672"/><text fill="#000000" font-family="sans-serif" font-size="14" lengthAdjust="spacingAndGlyphs" textLength="63" x="1885" y="2512.4004">ClinitFilter</text><rect fill="#FEFECE" filter="url(#ftpe5qr25t1sc)" height="31.6094" style="stroke: #A80036; stroke-width: 1.5;" width="46" x="1969" y="3"/><text fill="#000000" font-family="sans-serif" font-size="14" lengthAdjust="spacingAndGlyphs" textLength="32" x="1976" y="24.5332">Filter</text><rect fill="#FEFECE" filter="url(#ftpe5qr25t1sc)" height="31.6094" style="stroke: #A80036; stroke-width: 1.5;" width="46" x="1969" y="2490.8672"/><text fill="#000000" font-family="sans-serif" font-size="14" lengthAdjust="spacingAndGlyphs" textLength="32" x="1976" y="2512.4004">Filter</text><rect fill="#FEFECE" filter="url(#ftpe5qr25t1sc)" height="31.6094" style="stroke: #A80036; stroke-width: 1.5;" width="78" x="2029" y="3"/><text fill="#000000" font-family="sans-serif" font-size="14" lengthAdjust="spacingAndGlyphs" textLength="64" x="2036" y="24.5332">SootClass</text><rect fill="#FEFECE" filter="url(#ftpe5qr25t1sc)" height="31.6094" style="stroke: #A80036; stroke-width: 1.5;" width="78" x="2029" y="2490.8672"/><text fill="#000000" font-family="sans-serif" font-size="14" lengthAdjust="spacingAndGlyphs" textLength="64" x="2036" y="2512.4004">SootClass</text><rect fill="#FEFECE" filter="url(#ftpe5qr25t1sc)" height="31.6094" style="stroke: #A80036; stroke-width: 1.5;" width="92" x="2143" y="3"/><text fill="#000000" font-family="sans-serif" font-size="14" lengthAdjust="spacingAndGlyphs" textLength="78" x="2150" y="24.5332">Relationship</text><rect fill="#FEFECE" filter="url(#ftpe5qr25t1sc)" height="31.6094" style="stroke: #A80036; stroke-width: 1.5;" width="92" x="2143" y="2490.8672"/><text fill="#000000" font-family="sans-serif" font-size="14" lengthAdjust="spacingAndGlyphs" textLength="78" x="2150" y="2512.4004">Relationship</text><rect fill="#FEFECE" filter="url(#ftpe5qr25t1sc)" height="31.6094" style="stroke: #A80036; stroke-width: 1.5;" width="116" x="2249" y="3"/><text fill="#000000" font-family="sans-serif" font-size="14" lengthAdjust="spacingAndGlyphs" textLength="102" x="2256" y="24.5332">DoubleConstant</text><rect fill="#FEFECE" filter="url(#ftpe5qr25t1sc)" height="31.6094" style="stroke: #A80036; stroke-width: 1.5;" width="116" x="2249" y="2490.8672"/><text fill="#000000" font-family="sans-serif" font-size="14" lengthAdjust="spacingAndGlyphs" textLength="102" x="2256" y="2512.4004">DoubleConstant</text><rect fill="#FEFECE" filter="url(#ftpe5qr25t1sc)" height="31.6094" style="stroke: #A80036; stroke-width: 1.5;" width="55" x="2379" y="3"/><text fill="#000000" font-family="sans-serif" font-size="14" lengthAdjust="spacingAndGlyphs" textLength="41" x="2386" y="24.5332">Object</text><rect fill="#FEFECE" filter="url(#ftpe5qr25t1sc)" height="31.6094" style="stroke: #A80036; stroke-width: 1.5;" width="55" x="2379" y="2490.8672"/><text fill="#000000" font-family="sans-serif" font-size="14" lengthAdjust="spacingAndGlyphs" textLength="41" x="2386" y="2512.4004">Object</text><rect fill="#FEFECE" filter="url(#ftpe5qr25t1sc)" height="31.6094" style="stroke: #A80036; stroke-width: 1.5;" width="115" x="2448" y="3"/><text fill="#000000" font-family="sans-serif" font-size="14" lengthAdjust="spacingAndGlyphs" textLength="101" x="2455" y="24.5332">IdentityArrayList</text><rect fill="#FEFECE" filter="url(#ftpe5qr25t1sc)" height="31.6094" style="stroke: #A80036; stroke-width: 1.5;" width="115" x="2448" y="2490.8672"/><text fill="#000000" font-family="sans-serif" font-size="14" lengthAdjust="spacingAndGlyphs" textLength="101" x="2455" y="2512.4004">IdentityArrayList</text><rect fill="#FEFECE" filter="url(#ftpe5qr25t1sc)" height="31.6094" style="stroke: #A80036; stroke-width: 1.5;" width="36" x="2577" y="3"/><text fill="#000000" font-family="sans-serif" font-size="14" lengthAdjust="spacingAndGlyphs" textLength="22" x="2584" y="24.5332">List</text><rect fill="#FEFECE" filter="url(#ftpe5qr25t1sc)" height="31.6094" style="stroke: #A80036; stroke-width: 1.5;" width="36" x="2577" y="2490.8672"/><text fill="#000000" font-family="sans-serif" font-size="14" lengthAdjust="spacingAndGlyphs" textLength="22" x="2584" y="2512.4004">List</text><polygon fill="#A80036" points="131.5,67.6094,141.5,71.6094,131.5,75.6094,135.5,71.6094" style="stroke: #A80036; stroke-width: 1.0;"/><line style="stroke: #A80036; stroke-width: 1.0;" x1="40.5" x2="137.5" y1="71.6094" y2="71.6094"/><text fill="#000000" font-family="sans-serif" font-size="13" lengthAdjust="spacingAndGlyphs" textLength="18" x="47.5" y="67.1045">set</text><line style="stroke: #A80036; stroke-width: 1.0;" x1="143.5" x2="185.5" y1="102.3125" y2="102.3125"/><line style="stroke: #A80036; stroke-width: 1.0;" x1="185.5" x2="185.5" y1="102.3125" y2="115.3125"/><line style="stroke: #A80036; stroke-width: 1.0;" x1="144.5" x2="185.5" y1="115.3125" y2="115.3125"/><polygon fill="#A80036" points="154.5,111.3125,144.5,115.3125,154.5,119.3125,150.5,115.3125" style="stroke: #A80036; stroke-width: 1.0;"/><text fill="#000000" font-family="sans-serif" font-size="13" lengthAdjust="spacingAndGlyphs" textLength="54" x="150.5" y="97.4561">setConfig</text><line style="stroke: #A80036; stroke-width: 1.0;" x1="143.5" x2="185.5" y1="145.6641" y2="145.6641"/><line style="stroke: #A80036; stroke-width: 1.0;" x1="185.5" x2="185.5" y1="145.6641" y2="158.6641"/><line style="stroke: #A80036; stroke-width: 1.0;" x1="144.5" x2="185.5" y1="158.6641" y2="158.6641"/><polygon fill="#A80036" points="154.5,154.6641,144.5,158.6641,154.5,162.6641,150.5,158.6641" style="stroke: #A80036; stroke-width: 1.0;"/><text fill="#000000" font-family="sans-serif" font-size="13" lengthAdjust="spacingAndGlyphs" textLength="91" x="150.5" y="140.8076">preprocessArgs</text><line style="stroke: #A80036; stroke-width: 1.0;" x1="143.5" x2="185.5" y1="189.0156" y2="189.0156"/><line style="stroke: #A80036; stroke-width: 1.0;" x1="185.5" x2="185.5" y1="189.0156" y2="202.0156"/><line style="stroke: #A80036; stroke-width: 1.0;" x1="144.5" x2="185.5" y1="202.0156" y2="202.0156"/><polygon fill="#A80036" points="154.5,198.0156,144.5,202.0156,154.5,206.0156,150.5,202.0156" style="stroke: #A80036; stroke-width: 1.0;"/><text fill="#000000" font-family="sans-serif" font-size="13" lengthAdjust="spacingAndGlyphs" textLength="42" x="150.5" y="184.1592">String[]</text><line style="stroke: #A80036; stroke-width: 1.0;" x1="143.5" x2="185.5" y1="232.3672" y2="232.3672"/><line style="stroke: #A80036; stroke-width: 1.0;" x1="185.5" x2="185.5" y1="232.3672" y2="245.3672"/><line style="stroke: #A80036; stroke-width: 1.0;" x1="144.5" x2="185.5" y1="245.3672" y2="245.3672"/><polygon fill="#A80036" points="154.5,241.3672,144.5,245.3672,154.5,249.3672,150.5,245.3672" style="stroke: #A80036; stroke-width: 1.0;"/><text fill="#000000" font-family="sans-serif" font-size="13" lengthAdjust="spacingAndGlyphs" textLength="32" x="150.5" y="227.5107">parse</text><polygon fill="#A80036" points="307.5,271.3672,317.5,275.3672,307.5,279.3672,311.5,275.3672" style="stroke: #A80036; stroke-width: 1.0;"/><line style="stroke: #A80036; stroke-width: 1.0;" x1="143.5" x2="313.5" y1="275.3672" y2="275.3672"/><text fill="#000000" font-family="sans-serif" font-size="13" lengthAdjust="spacingAndGlyphs" textLength="36" x="150.5" y="270.8623">create</text><line style="stroke: #A80036; stroke-width: 1.0;" x1="319.5" x2="361.5" y1="306.0703" y2="306.0703"/><line style="stroke: #A80036; stroke-width: 1.0;" x1="361.5" x2="361.5" y1="306.0703" y2="319.0703"/><line style="stroke: #A80036; stroke-width: 1.0;" x1="320.5" x2="361.5" y1="319.0703" y2="319.0703"/><polygon fill="#A80036" points="330.5,315.0703,320.5,319.0703,330.5,323.0703,326.5,319.0703" style="stroke: #A80036; stroke-width: 1.0;"/><text fill="#000000" font-family="sans-serif" font-size="13" lengthAdjust="spacingAndGlyphs" textLength="105" x="326.5" y="301.2139">ArrayListMultimap</text><polygon fill="#A80036" points="307.5,345.0703,317.5,349.0703,307.5,353.0703,311.5,349.0703" style="stroke: #A80036; stroke-width: 1.0;"/><line style="stroke: #A80036; stroke-width: 1.0;" x1="143.5" x2="313.5" y1="349.0703" y2="349.0703"/><text fill="#000000" font-family="sans-serif" font-size="13" lengthAdjust="spacingAndGlyphs" textLength="18" x="150.5" y="344.5654">put</text><polygon fill="#A80036" points="430.5,375.4219,440.5,379.4219,430.5,383.4219,434.5,379.4219" style="stroke: #A80036; stroke-width: 1.0;"/><line style="stroke: #A80036; stroke-width: 1.0;" x1="319.5" x2="436.5" y1="379.4219" y2="379.4219"/><text fill="#000000" font-family="sans-serif" font-size="13" lengthAdjust="spacingAndGlyphs" textLength="45" x="326.5" y="374.917">boolean</text><polygon fill="#A80036" points="307.5,405.7734,317.5,409.7734,307.5,413.7734,311.5,409.7734" style="stroke: #A80036; stroke-width: 1.0;"/><line style="stroke: #A80036; stroke-width: 1.0;" x1="143.5" x2="313.5" y1="409.7734" y2="409.7734"/><text fill="#000000" font-family="sans-serif" font-size="13" lengthAdjust="spacingAndGlyphs" textLength="18" x="150.5" y="405.2686">put</text><polygon fill="#A80036" points="430.5,436.125,440.5,440.125,430.5,444.125,434.5,440.125" style="stroke: #A80036; stroke-width: 1.0;"/><line style="stroke: #A80036; stroke-width: 1.0;" x1="319.5" x2="436.5" y1="440.125" y2="440.125"/><text fill="#000000" font-family="sans-serif" font-size="13" lengthAdjust="spacingAndGlyphs" textLength="45" x="326.5" y="435.6201">boolean</text><line style="stroke: #A80036; stroke-width: 1.0;" x1="143.5" x2="185.5" y1="470.8281" y2="470.8281"/><line style="stroke: #A80036; stroke-width: 1.0;" x1="185.5" x2="185.5" y1="470.8281" y2="483.8281"/><line style="stroke: #A80036; stroke-width: 1.0;" x1="144.5" x2="185.5" y1="483.8281" y2="483.8281"/><polygon fill="#A80036" points="154.5,479.8281,144.5,483.8281,154.5,487.8281,150.5,483.8281" style="stroke: #A80036; stroke-width: 1.0;"/><text fill="#000000" font-family="sans-serif" font-size="13" lengthAdjust="spacingAndGlyphs" textLength="162" x="150.5" y="465.9717">ListMultimap&lt;String,String&gt;</text><line style="stroke: #A80036; stroke-width: 1.0;" x1="143.5" x2="185.5" y1="514.1797" y2="514.1797"/><line style="stroke: #A80036; stroke-width: 1.0;" x1="185.5" x2="185.5" y1="514.1797" y2="527.1797"/><line style="stroke: #A80036; stroke-width: 1.0;" x1="144.5" x2="185.5" y1="527.1797" y2="527.1797"/><polygon fill="#A80036" points="154.5,523.1797,144.5,527.1797,154.5,531.1797,150.5,527.1797" style="stroke: #A80036; stroke-width: 1.0;"/><text fill="#000000" font-family="sans-serif" font-size="13" lengthAdjust="spacingAndGlyphs" textLength="81" x="150.5" y="509.3232">loadConfigFile</text><polygon fill="#A80036" points="307.5,553.1797,317.5,557.1797,307.5,561.1797,311.5,557.1797" style="stroke: #A80036; stroke-width: 1.0;"/><line style="stroke: #A80036; stroke-width: 1.0;" x1="143.5" x2="313.5" y1="557.1797" y2="557.1797"/><text fill="#000000" font-family="sans-serif" font-size="13" lengthAdjust="spacingAndGlyphs" textLength="18" x="150.5" y="552.6748">get</text><polygon fill="#A80036" points="430.5,583.5313,440.5,587.5313,430.5,591.5313,434.5,587.5313" style="stroke: #A80036; stroke-width: 1.0;"/><line style="stroke: #A80036; stroke-width: 1.0;" x1="319.5" x2="436.5" y1="587.5313" y2="587.5313"/><text fill="#000000" font-family="sans-serif" font-size="13" lengthAdjust="spacingAndGlyphs" textLength="21" x="326.5" y="583.0264">List</text><line style="stroke: #A80036; stroke-width: 1.0;" x1="143.5" x2="185.5" y1="618.2344" y2="618.2344"/><line style="stroke: #A80036; stroke-width: 1.0;" x1="185.5" x2="185.5" y1="618.2344" y2="631.2344"/><line style="stroke: #A80036; stroke-width: 1.0;" x1="144.5" x2="185.5" y1="631.2344" y2="631.2344"/><polygon fill="#A80036" points="154.5,627.2344,144.5,631.2344,154.5,635.2344,150.5,631.2344" style="stroke: #A80036; stroke-width: 1.0;"/><text fill="#000000" font-family="sans-serif" font-size="13" lengthAdjust="spacingAndGlyphs" textLength="70" x="150.5" y="613.3779">InputStream</text><line style="stroke: #A80036; stroke-width: 1.0;" x1="143.5" x2="185.5" y1="661.5859" y2="661.5859"/><line style="stroke: #A80036; stroke-width: 1.0;" x1="185.5" x2="185.5" y1="661.5859" y2="674.5859"/><line style="stroke: #A80036; stroke-width: 1.0;" x1="144.5" x2="185.5" y1="674.5859" y2="674.5859"/><polygon fill="#A80036" points="154.5,670.5859,144.5,674.5859,154.5,678.5859,150.5,674.5859" style="stroke: #A80036; stroke-width: 1.0;"/><text fill="#000000" font-family="sans-serif" font-size="13" lengthAdjust="spacingAndGlyphs" textLength="122" x="150.5" y="656.7295">setSystemProperties</text><line style="stroke: #A80036; stroke-width: 1.0;" x1="143.5" x2="185.5" y1="704.9375" y2="704.9375"/><line style="stroke: #A80036; stroke-width: 1.0;" x1="185.5" x2="185.5" y1="704.9375" y2="717.9375"/><line style="stroke: #A80036; stroke-width: 1.0;" x1="144.5" x2="185.5" y1="717.9375" y2="717.9375"/><polygon fill="#A80036" points="154.5,713.9375,144.5,717.9375,154.5,721.9375,150.5,717.9375" style="stroke: #A80036; stroke-width: 1.0;"/><text fill="#000000" font-family="sans-serif" font-size="13" lengthAdjust="spacingAndGlyphs" textLength="148" x="150.5" y="700.0811">overrideSystemProperties</text><polygon fill="#A80036" points="307.5,743.9375,317.5,747.9375,307.5,751.9375,311.5,747.9375" style="stroke: #A80036; stroke-width: 1.0;"/><line style="stroke: #A80036; stroke-width: 1.0;" x1="143.5" x2="313.5" y1="747.9375" y2="747.9375"/><text fill="#000000" font-family="sans-serif" font-size="13" lengthAdjust="spacingAndGlyphs" textLength="28" x="150.5" y="743.4326">keys</text><polygon fill="#A80036" points="430.5,774.2891,440.5,778.2891,430.5,782.2891,434.5,778.2891" style="stroke: #A80036; stroke-width: 1.0;"/><line style="stroke: #A80036; stroke-width: 1.0;" x1="319.5" x2="436.5" y1="778.2891" y2="778.2891"/><text fill="#000000" font-family="sans-serif" font-size="13" lengthAdjust="spacingAndGlyphs" textLength="46" x="326.5" y="773.7842">Multiset</text><polygon fill="#A80036" points="545,804.6406,555,808.6406,545,812.6406,549,808.6406" style="stroke: #A80036; stroke-width: 1.0;"/><line style="stroke: #A80036; stroke-width: 1.0;" x1="143.5" x2="551" y1="808.6406" y2="808.6406"/><text fill="#000000" font-family="sans-serif" font-size="13" lengthAdjust="spacingAndGlyphs" textLength="39" x="150.5" y="804.1357">accept</text><line style="stroke: #A80036; stroke-width: 1.0;" x1="557" x2="599" y1="839.3438" y2="839.3438"/><line style="stroke: #A80036; stroke-width: 1.0;" x1="599" x2="599" y1="839.3438" y2="852.3438"/><line style="stroke: #A80036; stroke-width: 1.0;" x1="558" x2="599" y1="852.3438" y2="852.3438"/><polygon fill="#A80036" points="568,848.3438,558,852.3438,568,856.3438,564,852.3438" style="stroke: #A80036; stroke-width: 1.0;"/><text fill="#000000" font-family="sans-serif" font-size="13" lengthAdjust="spacingAndGlyphs" textLength="59" x="564" y="834.4873">Consumer</text><polygon fill="#A80036" points="668.5,878.3438,678.5,882.3438,668.5,886.3438,672.5,882.3438" style="stroke: #A80036; stroke-width: 1.0;"/><line style="stroke: #A80036; stroke-width: 1.0;" x1="40.5" x2="674.5" y1="882.3438" y2="882.3438"/><text fill="#000000" font-family="sans-serif" font-size="13" lengthAdjust="spacingAndGlyphs" textLength="115" x="47.5" y="877.8389">new PipelineModule</text><polygon fill="#A80036" points="799,908.6953,809,912.6953,799,916.6953,803,912.6953" style="stroke: #A80036; stroke-width: 1.0;"/><line style="stroke: #A80036; stroke-width: 1.0;" x1="40.5" x2="805" y1="912.6953" y2="912.6953"/><text fill="#000000" font-family="sans-serif" font-size="13" lengthAdjust="spacingAndGlyphs" textLength="126" x="47.5" y="908.1904">new ReflectionModule</text><polygon fill="#A80036" points="966,939.0469,976,943.0469,966,947.0469,970,943.0469" style="stroke: #A80036; stroke-width: 1.0;"/><line style="stroke: #A80036; stroke-width: 1.0;" x1="40.5" x2="972" y1="943.0469" y2="943.0469"/><text fill="#000000" font-family="sans-serif" font-size="13" lengthAdjust="spacingAndGlyphs" textLength="178" x="47.5" y="938.542">new RendererRelfectionModule</text><polygon fill="#A80036" points="1097,969.3984,1107,973.3984,1097,977.3984,1101,973.3984" style="stroke: #A80036; stroke-width: 1.0;"/><line style="stroke: #A80036; stroke-width: 1.0;" x1="40.5" x2="1103" y1="973.3984" y2="973.3984"/><text fill="#000000" font-family="sans-serif" font-size="13" lengthAdjust="spacingAndGlyphs" textLength="78" x="47.5" y="968.8936">createInjector</text><line style="stroke: #A80036; stroke-width: 1.0;" x1="1109" x2="1151" y1="1004.1016" y2="1004.1016"/><line style="stroke: #A80036; stroke-width: 1.0;" x1="1151" x2="1151" y1="1004.1016" y2="1017.1016"/><line style="stroke: #A80036; stroke-width: 1.0;" x1="1110" x2="1151" y1="1017.1016" y2="1017.1016"/><polygon fill="#A80036" points="1120,1013.1016,1110,1017.1016,1120,1021.1016,1116,1017.1016" style="stroke: #A80036; stroke-width: 1.0;"/><text fill="#000000" font-family="sans-serif" font-size="13" lengthAdjust="spacingAndGlyphs" textLength="42" x="1116" y="999.2451">Injector</text><polygon fill="#A80036" points="1175.5,1043.1016,1185.5,1047.1016,1175.5,1051.1016,1179.5,1047.1016" style="stroke: #A80036; stroke-width: 1.0;"/><line style="stroke: #A80036; stroke-width: 1.0;" x1="40.5" x2="1181.5" y1="1047.1016" y2="1047.1016"/><text fill="#000000" font-family="sans-serif" font-size="13" lengthAdjust="spacingAndGlyphs" textLength="92" x="47.5" y="1042.5967">executePipeline</text><polygon fill="#A80036" points="1302.5,1073.4531,1312.5,1077.4531,1302.5,1081.4531,1306.5,1077.4531" style="stroke: #A80036; stroke-width: 1.0;"/><line style="stroke: #A80036; stroke-width: 1.0;" x1="1187.5" x2="1308.5" y1="1077.4531" y2="1077.4531"/><text fill="#000000" font-family="sans-serif" font-size="13" lengthAdjust="spacingAndGlyphs" textLength="46" x="1194.5" y="1072.9482">execute</text><polygon fill="#A80036" points="1516.5,1103.8047,1526.5,1107.8047,1516.5,1111.8047,1520.5,1107.8047" style="stroke: #A80036; stroke-width: 1.0;"/><line style="stroke: #A80036; stroke-width: 1.0;" x1="1314.5" x2="1522.5" y1="1107.8047" y2="1107.8047"/><text fill="#000000" font-family="sans-serif" font-size="13" lengthAdjust="spacingAndGlyphs" textLength="18" x="1321.5" y="1103.2998">get</text><polygon fill="#A80036" points="1640,1134.1563,1650,1138.1563,1640,1142.1563,1644,1138.1563" style="stroke: #A80036; stroke-width: 1.0;"/><line style="stroke: #A80036; stroke-width: 1.0;" x1="1528.5" x2="1646" y1="1138.1563" y2="1138.1563"/><text fill="#000000" font-family="sans-serif" font-size="13" lengthAdjust="spacingAndGlyphs" textLength="18" x="1535.5" y="1133.6514">get</text><polygon fill="#A80036" points="1728,1164.5078,1738,1168.5078,1728,1172.5078,1732,1168.5078" style="stroke: #A80036; stroke-width: 1.0;"/><line style="stroke: #A80036; stroke-width: 1.0;" x1="1652" x2="1734" y1="1168.5078" y2="1168.5078"/><text fill="#000000" font-family="sans-serif" font-size="13" lengthAdjust="spacingAndGlyphs" textLength="38" x="1659" y="1164.0029">Object</text><line style="stroke: #A80036; stroke-width: 1.0;" x1="1528.5" x2="1570.5" y1="1199.2109" y2="1199.2109"/><line style="stroke: #A80036; stroke-width: 1.0;" x1="1570.5" x2="1570.5" y1="1199.2109" y2="1212.2109"/><line style="stroke: #A80036; stroke-width: 1.0;" x1="1529.5" x2="1570.5" y1="1212.2109" y2="1212.2109"/><polygon fill="#A80036" points="1539.5,1208.2109,1529.5,1212.2109,1539.5,1216.2109,1535.5,1212.2109" style="stroke: #A80036; stroke-width: 1.0;"/><text fill="#000000" font-family="sans-serif" font-size="13" lengthAdjust="spacingAndGlyphs" textLength="38" x="1535.5" y="1194.3545">Object</text><polygon fill="#A80036" points="1516.5,1238.2109,1526.5,1242.2109,1516.5,1246.2109,1520.5,1242.2109" style="stroke: #A80036; stroke-width: 1.0;"/><line style="stroke: #A80036; stroke-width: 1.0;" x1="1314.5" x2="1522.5" y1="1242.2109" y2="1242.2109"/><text fill="#000000" font-family="sans-serif" font-size="13" lengthAdjust="spacingAndGlyphs" textLength="39" x="1321.5" y="1237.7061">getList</text><polygon fill="#A80036" points="1640,1268.5625,1650,1272.5625,1640,1276.5625,1644,1272.5625" style="stroke: #A80036; stroke-width: 1.0;"/><line style="stroke: #A80036; stroke-width: 1.0;" x1="1528.5" x2="1646" y1="1272.5625" y2="1272.5625"/><text fill="#000000" font-family="sans-serif" font-size="13" lengthAdjust="spacingAndGlyphs" textLength="18" x="1535.5" y="1268.0576">get</text><polygon fill="#A80036" points="1728,1298.9141,1738,1302.9141,1728,1306.9141,1732,1302.9141" style="stroke: #A80036; stroke-width: 1.0;"/><line style="stroke: #A80036; stroke-width: 1.0;" x1="1652" x2="1734" y1="1302.9141" y2="1302.9141"/><text fill="#000000" font-family="sans-serif" font-size="13" lengthAdjust="spacingAndGlyphs" textLength="38" x="1659" y="1298.4092">Object</text><line style="stroke: #A80036; stroke-width: 1.0;" x1="1528.5" x2="1570.5" y1="1333.6172" y2="1333.6172"/><line style="stroke: #A80036; stroke-width: 1.0;" x1="1570.5" x2="1570.5" y1="1333.6172" y2="1346.6172"/><line style="stroke: #A80036; stroke-width: 1.0;" x1="1529.5" x2="1570.5" y1="1346.6172" y2="1346.6172"/><polygon fill="#A80036" points="1539.5,1342.6172,1529.5,1346.6172,1539.5,1350.6172,1535.5,1346.6172" style="stroke: #A80036; stroke-width: 1.0;"/><text fill="#000000" font-family="sans-serif" font-size="13" lengthAdjust="spacingAndGlyphs" textLength="21" x="1535.5" y="1328.7607">List</text><polygon fill="#A80036" points="1796.5,1372.6172,1806.5,1376.6172,1796.5,1380.6172,1800.5,1376.6172" style="stroke: #A80036; stroke-width: 1.0;"/><line style="stroke: #A80036; stroke-width: 1.0;" x1="1314.5" x2="1802.5" y1="1376.6172" y2="1376.6172"/><text fill="#000000" font-family="sans-serif" font-size="13" lengthAdjust="spacingAndGlyphs" textLength="78" x="1321.5" y="1372.1123">passesFilters</text><polygon fill="#A80036" points="1906.5,1402.9688,1916.5,1406.9688,1906.5,1410.9688,1910.5,1406.9688" style="stroke: #A80036; stroke-width: 1.0;"/><line style="stroke: #A80036; stroke-width: 1.0;" x1="1808.5" x2="1912.5" y1="1406.9688" y2="1406.9688"/><text fill="#000000" font-family="sans-serif" font-size="13" lengthAdjust="spacingAndGlyphs" textLength="86" x="1815.5" y="1402.4639">shouldProcess</text><polygon fill="#A80036" points="1982,1433.3203,1992,1437.3203,1982,1441.3203,1986,1437.3203" style="stroke: #A80036; stroke-width: 1.0;"/><line style="stroke: #A80036; stroke-width: 1.0;" x1="1918.5" x2="1988" y1="1437.3203" y2="1437.3203"/><text fill="#000000" font-family="sans-serif" font-size="13" lengthAdjust="spacingAndGlyphs" textLength="45" x="1925.5" y="1432.8154">boolean</text><line style="stroke: #A80036; stroke-width: 1.0;" x1="1808.5" x2="1850.5" y1="1468.0234" y2="1468.0234"/><line style="stroke: #A80036; stroke-width: 1.0;" x1="1850.5" x2="1850.5" y1="1468.0234" y2="1481.0234"/><line style="stroke: #A80036; stroke-width: 1.0;" x1="1809.5" x2="1850.5" y1="1481.0234" y2="1481.0234"/><polygon fill="#A80036" points="1819.5,1477.0234,1809.5,1481.0234,1819.5,1485.0234,1815.5,1481.0234" style="stroke: #A80036; stroke-width: 1.0;"/><text fill="#000000" font-family="sans-serif" font-size="13" lengthAdjust="spacingAndGlyphs" textLength="45" x="1815.5" y="1463.167">boolean</text><line style="stroke: #A80036; stroke-width: 1.0;" x1="1314.5" x2="1356.5" y1="1511.375" y2="1511.375"/><line style="stroke: #A80036; stroke-width: 1.0;" x1="1356.5" x2="1356.5" y1="1511.375" y2="1524.375"/><line style="stroke: #A80036; stroke-width: 1.0;" x1="1315.5" x2="1356.5" y1="1524.375" y2="1524.375"/><polygon fill="#A80036" points="1325.5,1520.375,1315.5,1524.375,1325.5,1528.375,1321.5,1524.375" style="stroke: #A80036; stroke-width: 1.0;"/><text fill="#000000" font-family="sans-serif" font-size="13" lengthAdjust="spacingAndGlyphs" textLength="200" x="1321.5" y="1506.5186">generateDependencyRelationships</text><polygon fill="#A80036" points="2058,1550.375,2068,1554.375,2058,1558.375,2062,1554.375" style="stroke: #A80036; stroke-width: 1.0;"/><line style="stroke: #A80036; stroke-width: 1.0;" x1="1314.5" x2="2064" y1="1554.375" y2="1554.375"/><text fill="#000000" font-family="sans-serif" font-size="13" lengthAdjust="spacingAndGlyphs" textLength="68" x="1321.5" y="1549.8701">getMethods</text><line style="stroke: #A80036; stroke-width: 1.0;" x1="2070" x2="2112" y1="1585.0781" y2="1585.0781"/><line style="stroke: #A80036; stroke-width: 1.0;" x1="2112" x2="2112" y1="1585.0781" y2="1598.0781"/><line style="stroke: #A80036; stroke-width: 1.0;" x1="2071" x2="2112" y1="1598.0781" y2="1598.0781"/><polygon fill="#A80036" points="2081,1594.0781,2071,1598.0781,2081,1602.0781,2077,1598.0781" style="stroke: #A80036; stroke-width: 1.0;"/><text fill="#000000" font-family="sans-serif" font-size="13" lengthAdjust="spacingAndGlyphs" textLength="107" x="2077" y="1580.2217">List&lt;SootMethod&gt;</text><polygon fill="#A80036" points="568,1624.0781,558,1628.0781,568,1632.0781,564,1628.0781" style="stroke: #A80036; stroke-width: 1.0;"/><line style="stroke: #A80036; stroke-width: 1.0;" x1="562" x2="1313.5" y1="1628.0781" y2="1628.0781"/><text fill="#000000" font-family="sans-serif" font-size="13" lengthAdjust="spacingAndGlyphs" textLength="39" x="574" y="1623.5732">accept</text><line style="stroke: #A80036; stroke-width: 1.0;" x1="557" x2="599" y1="1658.7813" y2="1658.7813"/><line style="stroke: #A80036; stroke-width: 1.0;" x1="599" x2="599" y1="1658.7813" y2="1671.7813"/><line style="stroke: #A80036; stroke-width: 1.0;" x1="558" x2="599" y1="1671.7813" y2="1671.7813"/><polygon fill="#A80036" points="568,1667.7813,558,1671.7813,568,1675.7813,564,1671.7813" style="stroke: #A80036; stroke-width: 1.0;"/><text fill="#000000" font-family="sans-serif" font-size="13" lengthAdjust="spacingAndGlyphs" textLength="59" x="564" y="1653.9248">Consumer</text><polygon fill="#A80036" points="1516.5,1697.7813,1526.5,1701.7813,1516.5,1705.7813,1520.5,1701.7813" style="stroke: #A80036; stroke-width: 1.0;"/><line style="stroke: #A80036; stroke-width: 1.0;" x1="1314.5" x2="1522.5" y1="1701.7813" y2="1701.7813"/><text fill="#000000" font-family="sans-serif" font-size="13" lengthAdjust="spacingAndGlyphs" textLength="39" x="1321.5" y="1697.2764">getList</text><polygon fill="#A80036" points="1640,1728.1328,1650,1732.1328,1640,1736.1328,1644,1732.1328" style="stroke: #A80036; stroke-width: 1.0;"/><line style="stroke: #A80036; stroke-width: 1.0;" x1="1528.5" x2="1646" y1="1732.1328" y2="1732.1328"/><text fill="#000000" font-family="sans-serif" font-size="13" lengthAdjust="spacingAndGlyphs" textLength="18" x="1535.5" y="1727.6279">get</text><polygon fill="#A80036" points="1728,1758.4844,1738,1762.4844,1728,1766.4844,1732,1762.4844" style="stroke: #A80036; stroke-width: 1.0;"/><line style="stroke: #A80036; stroke-width: 1.0;" x1="1652" x2="1734" y1="1762.4844" y2="1762.4844"/><text fill="#000000" font-family="sans-serif" font-size="13" lengthAdjust="spacingAndGlyphs" textLength="38" x="1659" y="1757.9795">Object</text><line style="stroke: #A80036; stroke-width: 1.0;" x1="1528.5" x2="1570.5" y1="1793.1875" y2="1793.1875"/><line style="stroke: #A80036; stroke-width: 1.0;" x1="1570.5" x2="1570.5" y1="1793.1875" y2="1806.1875"/><line style="stroke: #A80036; stroke-width: 1.0;" x1="1529.5" x2="1570.5" y1="1806.1875" y2="1806.1875"/><polygon fill="#A80036" points="1539.5,1802.1875,1529.5,1806.1875,1539.5,1810.1875,1535.5,1806.1875" style="stroke: #A80036; stroke-width: 1.0;"/><text fill="#000000" font-family="sans-serif" font-size="13" lengthAdjust="spacingAndGlyphs" textLength="21" x="1535.5" y="1788.3311">List</text><line style="stroke: #A80036; stroke-width: 1.0;" x1="1314.5" x2="1356.5" y1="1836.5391" y2="1836.5391"/><line style="stroke: #A80036; stroke-width: 1.0;" x1="1356.5" x2="1356.5" y1="1836.5391" y2="1849.5391"/><line style="stroke: #A80036; stroke-width: 1.0;" x1="1315.5" x2="1356.5" y1="1849.5391" y2="1849.5391"/><polygon fill="#A80036" points="1325.5,1845.5391,1315.5,1849.5391,1325.5,1853.5391,1321.5,1849.5391" style="stroke: #A80036; stroke-width: 1.0;"/><text fill="#000000" font-family="sans-serif" font-size="13" lengthAdjust="spacingAndGlyphs" textLength="75" x="1321.5" y="1831.6826">addRelations</text><polygon fill="#A80036" points="2179,1875.5391,2189,1879.5391,2179,1883.5391,2183,1879.5391" style="stroke: #A80036; stroke-width: 1.0;"/><line style="stroke: #A80036; stroke-width: 1.0;" x1="1314.5" x2="2185" y1="1879.5391" y2="1879.5391"/><text fill="#000000" font-family="sans-serif" font-size="13" lengthAdjust="spacingAndGlyphs" textLength="65" x="1321.5" y="1875.0342">getToClass</text><line style="stroke: #A80036; stroke-width: 1.0;" x1="2191" x2="2233" y1="1910.2422" y2="1910.2422"/><line style="stroke: #A80036; stroke-width: 1.0;" x1="2233" x2="2233" y1="1910.2422" y2="1923.2422"/><line style="stroke: #A80036; stroke-width: 1.0;" x1="2192" x2="2233" y1="1923.2422" y2="1923.2422"/><polygon fill="#A80036" points="2202,1919.2422,2192,1923.2422,2202,1927.2422,2198,1923.2422" style="stroke: #A80036; stroke-width: 1.0;"/><text fill="#000000" font-family="sans-serif" font-size="13" lengthAdjust="spacingAndGlyphs" textLength="60" x="2198" y="1905.3857">SootClass</text><polygon fill="#A80036" points="2179,1949.2422,2189,1953.2422,2179,1957.2422,2183,1953.2422" style="stroke: #A80036; stroke-width: 1.0;"/><line style="stroke: #A80036; stroke-width: 1.0;" x1="1314.5" x2="2185" y1="1953.2422" y2="1953.2422"/><text fill="#000000" font-family="sans-serif" font-size="13" lengthAdjust="spacingAndGlyphs" textLength="81" x="1321.5" y="1948.7373">getFromClass</text><line style="stroke: #A80036; stroke-width: 1.0;" x1="2191" x2="2233" y1="1983.9453" y2="1983.9453"/><line style="stroke: #A80036; stroke-width: 1.0;" x1="2233" x2="2233" y1="1983.9453" y2="1996.9453"/><line style="stroke: #A80036; stroke-width: 1.0;" x1="2192" x2="2233" y1="1996.9453" y2="1996.9453"/><polygon fill="#A80036" points="2202,1992.9453,2192,1996.9453,2202,2000.9453,2198,1996.9453" style="stroke: #A80036; stroke-width: 1.0;"/><text fill="#000000" font-family="sans-serif" font-size="13" lengthAdjust="spacingAndGlyphs" textLength="60" x="2198" y="1979.0889">SootClass</text><polygon fill="#A80036" points="2179,2022.9453,2189,2026.9453,2179,2030.9453,2183,2026.9453" style="stroke: #A80036; stroke-width: 1.0;"/><line style="stroke: #A80036; stroke-width: 1.0;" x1="1314.5" x2="2185" y1="2026.9453" y2="2026.9453"/><text fill="#000000" font-family="sans-serif" font-size="13" lengthAdjust="spacingAndGlyphs" textLength="65" x="1321.5" y="2022.4404">getToClass</text><line style="stroke: #A80036; stroke-width: 1.0;" x1="2191" x2="2233" y1="2057.6484" y2="2057.6484"/><line style="stroke: #A80036; stroke-width: 1.0;" x1="2233" x2="2233" y1="2057.6484" y2="2070.6484"/><line style="stroke: #A80036; stroke-width: 1.0;" x1="2192" x2="2233" y1="2070.6484" y2="2070.6484"/><polygon fill="#A80036" points="2202,2066.6484,2192,2070.6484,2202,2074.6484,2198,2070.6484" style="stroke: #A80036; stroke-width: 1.0;"/><text fill="#000000" font-family="sans-serif" font-size="13" lengthAdjust="spacingAndGlyphs" textLength="60" x="2198" y="2052.792">SootClass</text><polygon fill="#A80036" points="2297,2096.6484,2307,2100.6484,2297,2104.6484,2301,2100.6484" style="stroke: #A80036; stroke-width: 1.0;"/><line style="stroke: #A80036; stroke-width: 1.0;" x1="1314.5" x2="2303" y1="2100.6484" y2="2100.6484"/><text fill="#000000" font-family="sans-serif" font-size="13" lengthAdjust="spacingAndGlyphs" textLength="38" x="1321.5" y="2096.1436">equals</text><polygon fill="#A80036" points="2396.5,2127,2406.5,2131,2396.5,2135,2400.5,2131" style="stroke: #A80036; stroke-width: 1.0;"/><line style="stroke: #A80036; stroke-width: 1.0;" x1="2309" x2="2402.5" y1="2131" y2="2131"/><text fill="#000000" font-family="sans-serif" font-size="13" lengthAdjust="spacingAndGlyphs" textLength="45" x="2316" y="2126.4951">boolean</text><polygon fill="#A80036" points="2179,2157.3516,2189,2161.3516,2179,2165.3516,2183,2161.3516" style="stroke: #A80036; stroke-width: 1.0;"/><line style="stroke: #A80036; stroke-width: 1.0;" x1="1314.5" x2="2185" y1="2161.3516" y2="2161.3516"/><text fill="#000000" font-family="sans-serif" font-size="13" lengthAdjust="spacingAndGlyphs" textLength="81" x="1321.5" y="2156.8467">getFromClass</text><line style="stroke: #A80036; stroke-width: 1.0;" x1="2191" x2="2233" y1="2192.0547" y2="2192.0547"/><line style="stroke: #A80036; stroke-width: 1.0;" x1="2233" x2="2233" y1="2192.0547" y2="2205.0547"/><line style="stroke: #A80036; stroke-width: 1.0;" x1="2192" x2="2233" y1="2205.0547" y2="2205.0547"/><polygon fill="#A80036" points="2202,2201.0547,2192,2205.0547,2202,2209.0547,2198,2205.0547" style="stroke: #A80036; stroke-width: 1.0;"/><text fill="#000000" font-family="sans-serif" font-size="13" lengthAdjust="spacingAndGlyphs" textLength="60" x="2198" y="2187.1982">SootClass</text><polygon fill="#A80036" points="2297,2231.0547,2307,2235.0547,2297,2239.0547,2301,2235.0547" style="stroke: #A80036; stroke-width: 1.0;"/><line style="stroke: #A80036; stroke-width: 1.0;" x1="1314.5" x2="2303" y1="2235.0547" y2="2235.0547"/><text fill="#000000" font-family="sans-serif" font-size="13" lengthAdjust="spacingAndGlyphs" textLength="38" x="1321.5" y="2230.5498">equals</text><polygon fill="#A80036" points="2396.5,2261.4063,2406.5,2265.4063,2396.5,2269.4063,2400.5,2265.4063" style="stroke: #A80036; stroke-width: 1.0;"/><line style="stroke: #A80036; stroke-width: 1.0;" x1="2309" x2="2402.5" y1="2265.4063" y2="2265.4063"/><text fill="#000000" font-family="sans-serif" font-size="13" lengthAdjust="spacingAndGlyphs" textLength="45" x="2316" y="2260.9014">boolean</text><polygon fill="#A80036" points="2179,2291.7578,2189,2295.7578,2179,2299.7578,2183,2295.7578" style="stroke: #A80036; stroke-width: 1.0;"/><line style="stroke: #A80036; stroke-width: 1.0;" x1="1314.5" x2="2185" y1="2295.7578" y2="2295.7578"/><text fill="#000000" font-family="sans-serif" font-size="13" lengthAdjust="spacingAndGlyphs" textLength="65" x="1321.5" y="2291.2529">getRelation</text><line style="stroke: #A80036; stroke-width: 1.0;" x1="2191" x2="2233" y1="2326.4609" y2="2326.4609"/><line style="stroke: #A80036; stroke-width: 1.0;" x1="2233" x2="2233" y1="2326.4609" y2="2339.4609"/><line style="stroke: #A80036; stroke-width: 1.0;" x1="2192" x2="2233" y1="2339.4609" y2="2339.4609"/><polygon fill="#A80036" points="2202,2335.4609,2192,2339.4609,2202,2343.4609,2198,2339.4609" style="stroke: #A80036; stroke-width: 1.0;"/><text fill="#000000" font-family="sans-serif" font-size="13" lengthAdjust="spacingAndGlyphs" textLength="47" x="2198" y="2321.6045">Relation</text><polygon fill="#A80036" points="2495.5,2365.4609,2505.5,2369.4609,2495.5,2373.4609,2499.5,2369.4609" style="stroke: #A80036; stroke-width: 1.0;"/><line style="stroke: #A80036; stroke-width: 1.0;" x1="1314.5" x2="2501.5" y1="2369.4609" y2="2369.4609"/><text fill="#000000" font-family="sans-serif" font-size="13" lengthAdjust="spacingAndGlyphs" textLength="36" x="1321.5" y="2364.9561">addAll</text><polygon fill="#A80036" points="2585,2395.8125,2595,2399.8125,2585,2403.8125,2589,2399.8125" style="stroke: #A80036; stroke-width: 1.0;"/><line style="stroke: #A80036; stroke-width: 1.0;" x1="2507.5" x2="2591" y1="2399.8125" y2="2399.8125"/><text fill="#000000" font-family="sans-serif" font-size="13" lengthAdjust="spacingAndGlyphs" textLength="45" x="2514.5" y="2395.3076">boolean</text><polygon fill="#A80036" points="1796.5,2426.1641,1806.5,2430.1641,1796.5,2434.1641,1800.5,2430.1641" style="stroke: #A80036; stroke-width: 1.0;"/><line style="stroke: #A80036; stroke-width: 1.0;" x1="1314.5" x2="1802.5" y1="2430.1641" y2="2430.1641"/><text fill="#000000" font-family="sans-serif" font-size="13" lengthAdjust="spacingAndGlyphs" textLength="91" x="1321.5" y="2425.6592">AnalyzerBundle</text><line style="stroke: #A80036; stroke-width: 1.0;" x1="1187.5" x2="1229.5" y1="2460.8672" y2="2460.8672"/><line style="stroke: #A80036; stroke-width: 1.0;" x1="1229.5" x2="1229.5" y1="2460.8672" y2="2473.8672"/><line style="stroke: #A80036; stroke-width: 1.0;" x1="1188.5" x2="1229.5" y1="2473.8672" y2="2473.8672"/><polygon fill="#A80036" points="1198.5,2469.8672,1188.5,2473.8672,1198.5,2477.8672,1194.5,2473.8672" style="stroke: #A80036; stroke-width: 1.0;"/><text fill="#000000" font-family="sans-serif" font-size="13" lengthAdjust="spacingAndGlyphs" textLength="91" x="1194.5" y="2456.0107">AnalyzerBundle</text></g></svg>